<svg width="86" height="86" viewBox="0 0 86 86" fill="none" xmlns="http://www.w3.org/2000/svg">
<path d="M10.8357 25.2681C11.4539 25.2681 11.9551 24.7669 11.9551 24.1487C11.9551 23.5305 11.4539 23.0293 10.8357 23.0293C10.2175 23.0293 9.71631 23.5305 9.71631 24.1487C9.71631 24.7669 10.2175 25.2681 10.8357 25.2681Z" fill="#E1000F"/>
<path fill-rule="evenodd" clip-rule="evenodd" d="M72.403 39.8209C68.0754 39.8209 64.5672 43.3291 64.5672 47.6567C64.5672 51.9843 68.0754 55.4925 72.403 55.4925C76.7306 55.4925 80.2388 51.9843 80.2388 47.6567C80.2388 43.3291 76.7306 39.8209 72.403 39.8209ZM62.3284 47.6567C62.3284 42.0927 66.8389 37.5821 72.403 37.5821C77.9671 37.5821 82.4776 42.0927 82.4776 47.6567C82.4776 53.2208 77.9671 57.7313 72.403 57.7313C66.8389 57.7313 62.3284 53.2208 62.3284 47.6567Z" fill="#000091"/>
<path fill-rule="evenodd" clip-rule="evenodd" d="M12.4405 26.585C12.9499 26.2348 13.6468 26.3638 13.9971 26.8733C15.0894 28.4621 16.7087 29.6961 18.6126 30.648C19.1655 30.9245 19.3896 31.5969 19.1132 32.1499C18.8367 32.7028 18.1643 32.927 17.6113 32.6505C15.4854 31.5875 13.5226 30.1349 12.1522 28.1416C11.8019 27.6322 11.931 26.9353 12.4405 26.585Z" fill="#000091"/>
<path fill-rule="evenodd" clip-rule="evenodd" d="M24.2687 11.8358C19.9411 11.8358 16.4328 15.344 16.4328 19.6716C16.4328 23.9992 19.9411 27.5075 24.2687 27.5075C28.5963 27.5075 32.1045 23.9992 32.1045 19.6716C32.1045 15.344 28.5963 11.8358 24.2687 11.8358ZM14.194 19.6716C14.194 14.1076 18.7046 9.59702 24.2687 9.59702C29.8327 9.59702 34.3433 14.1076 34.3433 19.6716C34.3433 25.2357 29.8327 29.7463 24.2687 29.7463C18.7046 29.7463 14.194 25.2357 14.194 19.6716Z" fill="#000091"/>
<path fill-rule="evenodd" clip-rule="evenodd" d="M13.0746 55.4925C8.74702 55.4925 5.23881 59.0008 5.23881 63.3284C5.23881 67.656 8.74702 71.1642 13.0746 71.1642C17.4022 71.1642 20.9104 67.656 20.9104 63.3284C20.9104 59.0008 17.4022 55.4925 13.0746 55.4925ZM3 63.3284C3 57.7643 7.51056 53.2537 13.0746 53.2537C18.6387 53.2537 23.1493 57.7643 23.1493 63.3284C23.1493 68.8924 18.6387 73.403 13.0746 73.403C7.51056 73.403 3 68.8924 3 63.3284Z" fill="#000091"/>
<path fill-rule="evenodd" clip-rule="evenodd" d="M57.8507 14.0746C57.8507 8.53102 62.3818 4 67.9254 4C69.4469 4 70.9611 4.37828 72.232 5.0137C72.7849 5.29018 73.0091 5.96258 72.7326 6.51554C72.4561 7.0685 71.7837 7.29263 71.2307 7.01615C70.2628 6.53217 69.0905 6.23881 67.9254 6.23881C63.6182 6.23881 60.0896 9.76748 60.0896 14.0746C60.0896 18.3818 63.6182 21.9104 67.9254 21.9104C72.2325 21.9104 75.7612 18.3818 75.7612 14.0746C75.7612 13.4564 76.2624 12.9552 76.8806 12.9552C77.4988 12.9552 78 13.4564 78 14.0746C78 19.6182 73.469 24.1493 67.9254 24.1493C62.3818 24.1493 57.8507 19.6182 57.8507 14.0746Z" fill="#000091"/>
<path fill-rule="evenodd" clip-rule="evenodd" d="M73.7463 7.58208C74.1172 7.0875 74.8188 6.98726 75.3134 7.35819C75.4265 7.44299 75.5192 7.53307 75.5853 7.60126C75.6492 7.66709 75.7098 7.73527 75.7529 7.7838C75.7547 7.78587 75.7565 7.78789 75.7583 7.78988C75.8082 7.84601 75.8385 7.87978 75.8652 7.90734C75.8748 7.91723 75.881 7.9233 75.8843 7.92636C76.3692 8.29943 76.4651 8.99421 76.097 9.48505C75.7261 9.97964 75.0244 10.0799 74.5299 9.70895C74.4168 9.62414 74.3241 9.53406 74.2579 9.46588C74.1941 9.40004 74.1335 9.33186 74.0904 9.28333C74.0886 9.28127 74.0868 9.27924 74.085 9.27726C74.0351 9.22112 74.0048 9.18736 73.9781 9.15979C73.9685 9.14991 73.9622 9.14384 73.959 9.14077C73.4741 8.76771 73.3781 8.07293 73.7463 7.58208Z" fill="#000091"/>
<path fill-rule="evenodd" clip-rule="evenodd" d="M36.5821 68.9254C36.5821 63.3818 41.1131 58.8507 46.6567 58.8507C52.2003 58.8507 56.7313 63.3818 56.7313 68.9254C56.7313 74.469 52.2003 79 46.6567 79C45.1352 79 43.621 78.6217 42.3501 77.9863C41.7972 77.7098 41.573 77.0374 41.8495 76.4845C42.126 75.9315 42.7984 75.7074 43.3514 75.9839C44.3193 76.4678 45.4916 76.7612 46.6567 76.7612C50.9639 76.7612 54.4925 73.2325 54.4925 68.9254C54.4925 64.6182 50.9639 61.0896 46.6567 61.0896C42.3496 61.0896 38.8209 64.6182 38.8209 68.9254C38.8209 69.5436 38.3197 70.0448 37.7015 70.0448C37.0833 70.0448 36.5821 69.5436 36.5821 68.9254Z" fill="#000091"/>
<path fill-rule="evenodd" clip-rule="evenodd" d="M39.0448 73.8507C39.4157 73.3562 40.1174 73.2559 40.6119 73.6269C40.725 73.7117 40.8177 73.8017 40.8838 73.8699C40.9477 73.9358 41.0083 74.0039 41.0514 74.0525C41.0532 74.0545 41.055 74.0566 41.0568 74.0585C41.1067 74.1147 41.137 74.1484 41.1637 74.176C41.1733 74.1859 41.1796 74.192 41.1828 74.195C41.6677 74.5681 41.7637 75.2629 41.3955 75.7537C41.0246 76.2483 40.3229 76.3486 39.8284 75.9776C39.7153 75.8928 39.6226 75.8027 39.5565 75.7345C39.4926 75.6687 39.432 75.6005 39.3889 75.552C39.3871 75.5499 39.3853 75.5479 39.3835 75.5459C39.3336 75.4898 39.3033 75.456 39.2766 75.4285C39.267 75.4186 39.2607 75.4125 39.2575 75.4094C38.7726 75.0364 38.6766 74.3416 39.0448 73.8507Z" fill="#000091"/>
<path fill-rule="evenodd" clip-rule="evenodd" d="M43.8582 29.7463C37.985 29.7463 33.2239 34.5074 33.2239 40.3806C33.2239 46.2538 37.985 51.0149 43.8582 51.0149C49.7314 51.0149 54.4925 46.2538 54.4925 40.3806C54.4925 34.5074 49.7314 29.7463 43.8582 29.7463ZM30.9851 40.3806C30.9851 33.271 36.7486 27.5075 43.8582 27.5075C50.9678 27.5075 56.7313 33.271 56.7313 40.3806C56.7313 47.4902 50.9678 53.2537 43.8582 53.2537C36.7486 53.2537 30.9851 47.4902 30.9851 40.3806Z" fill="#000091"/>
<path fill-rule="evenodd" clip-rule="evenodd" d="M62.0005 19.9995C62.4376 20.4367 62.4376 21.1454 62.0005 21.5826L51.9259 31.6572C51.4887 32.0944 50.7799 32.0944 50.3428 31.6572C49.9056 31.2201 49.9056 30.5113 50.3428 30.0742L60.4174 19.9995C60.8546 19.5624 61.5633 19.5624 62.0005 19.9995Z" fill="#000091"/>
<path fill-rule="evenodd" clip-rule="evenodd" d="M54.5212 44.0468C54.6602 43.4444 55.2613 43.0688 55.8637 43.2078L63.1398 44.8869C63.7422 45.0259 64.1178 45.6269 63.9788 46.2293C63.8398 46.8317 63.2388 47.2074 62.6364 47.0683L55.3603 45.3892C54.7579 45.2502 54.3822 44.6492 54.5212 44.0468Z" fill="#000091"/>
<path fill-rule="evenodd" clip-rule="evenodd" d="M45.4443 51.5785C46.0604 51.5271 46.6015 51.985 46.6528 52.6011L47.2126 59.3175C47.2639 59.9336 46.8061 60.4746 46.19 60.526C45.5739 60.5773 45.0328 60.1195 44.9815 59.5034L44.4218 52.787C44.3704 52.1709 44.8282 51.6298 45.4443 51.5785Z" fill="#000091"/>
<path fill-rule="evenodd" clip-rule="evenodd" d="M29.6339 26.1562C30.071 25.7191 30.7798 25.7191 31.2169 26.1562L36.2542 31.1935C36.6914 31.6307 36.6914 32.3395 36.2542 32.7766C35.8171 33.2138 35.1083 33.2138 34.6712 32.7766L29.6339 27.7393C29.1967 27.3022 29.1967 26.5934 29.6339 26.1562Z" fill="#000091"/>
<path fill-rule="evenodd" clip-rule="evenodd" d="M34.6838 47.5511C35.0512 48.0482 34.9461 48.7492 34.4489 49.1166L21.5758 58.6316C21.0786 58.999 20.3777 58.8939 20.0103 58.3967C19.6428 57.8996 19.7479 57.1986 20.2451 56.8312L33.1182 47.3162C33.6154 46.9488 34.3163 47.0539 34.6838 47.5511Z" fill="#000091"/>
<path fill-rule="evenodd" clip-rule="evenodd" d="M39.3805 36.462C39.3805 37.6092 39.8119 38.6556 40.5214 39.4478C38.1858 40.5626 36.582 42.8115 36.582 45.4172C36.582 46.0354 37.0832 46.5366 37.7014 46.5366C38.3197 46.5366 38.8208 46.0354 38.8208 45.4172C38.8208 43.0947 40.9213 40.9396 43.8582 40.9396C46.8101 40.9396 48.8955 42.9966 48.8955 45.4172C48.8955 46.0354 49.3966 46.5366 50.0149 46.5366C50.6331 46.5366 51.1343 46.0354 51.1343 45.4172C51.1343 42.731 49.5321 40.5222 47.2079 39.4333C47.9096 38.6428 48.3358 37.6021 48.3358 36.462C48.3358 33.9891 46.3311 31.9844 43.8582 31.9844C41.3852 31.9844 39.3805 33.9891 39.3805 36.462ZM43.8582 34.2232C42.6217 34.2232 41.6193 35.2255 41.6193 36.462C41.6193 37.6985 42.6217 38.7008 43.8582 38.7008L43.8621 38.7008C45.0967 38.6987 46.097 37.6971 46.097 36.462C46.097 35.2255 45.0946 34.2232 43.8582 34.2232Z" fill="#E1000F"/>
<path fill-rule="evenodd" clip-rule="evenodd" d="M72.4035 14.5728V18.0554C72.4035 18.3301 72.1807 18.5529 71.906 18.5529H63.9458C63.671 18.5529 63.4482 18.3301 63.4482 18.0554V14.5728H72.4035ZM66.9308 16.0653H65.4383V17.0603H66.9308V16.0653ZM71.906 9.59766C72.1807 9.59766 72.4035 9.8204 72.4035 10.0952V13.5778H63.4482V10.0952C63.4482 9.8204 63.671 9.59766 63.9458 9.59766H71.906ZM66.9308 11.0902H65.4383V12.0852H66.9308V11.0902Z" fill="#000091"/>
<path fill-rule="evenodd" clip-rule="evenodd" d="M76.8805 48.1548V51.6374C76.8805 51.9122 76.6578 52.1349 76.383 52.1349H68.4228C68.148 52.1349 67.9253 51.9122 67.9253 51.6374V48.1548H76.8805ZM71.4079 49.6473H69.9153V50.6424H71.4079V49.6473ZM76.383 43.1797C76.6578 43.1797 76.8805 43.4024 76.8805 43.6772V47.1598H67.9253V43.6772C67.9253 43.4024 68.148 43.1797 68.4228 43.1797H76.383ZM71.4079 44.6722H69.9153V45.6672H71.4079V44.6722Z" fill="#000091"/>
<path fill-rule="evenodd" clip-rule="evenodd" d="M51.1344 69.4243V72.9069C51.1344 73.1817 50.9117 73.4044 50.6369 73.4044H42.6767C42.4019 73.4044 42.1792 73.1817 42.1792 72.9069V69.4243H51.1344ZM45.6618 70.9169H44.1692V71.9119H45.6618V70.9169ZM50.6369 64.4492C50.9117 64.4492 51.1344 64.672 51.1344 64.9467V68.4293H42.1792V64.9467C42.1792 64.672 42.4019 64.4492 42.6767 64.4492H50.6369ZM45.6618 65.9418H44.1692V66.9368H45.6618V65.9418Z" fill="#000091"/>
<path fill-rule="evenodd" clip-rule="evenodd" d="M17.5524 63.8267V67.3093C17.5524 67.584 17.3296 67.8068 17.0549 67.8068H9.09468C8.81991 67.8068 8.59717 67.584 8.59717 67.3093V63.8267H17.5524ZM12.0798 65.3192H10.5872V66.3142H12.0798V65.3192ZM17.0549 58.8516C17.3296 58.8516 17.5524 59.0743 17.5524 59.3491V62.8317H8.59717V59.3491C8.59717 59.0743 8.81991 58.8516 9.09468 58.8516H17.0549ZM12.0798 60.3441H10.5872V61.3391H12.0798V60.3441Z" fill="#000091"/>
<path fill-rule="evenodd" clip-rule="evenodd" d="M28.7462 20.1685V23.6511C28.7462 23.9258 28.5235 24.1486 28.2487 24.1486H20.2885C20.0138 24.1486 19.791 23.9258 19.791 23.6511V20.1685H28.7462ZM23.2736 21.661H21.7811V22.656H23.2736V21.661ZM28.2487 15.1934C28.5235 15.1934 28.7462 15.4161 28.7462 15.6909V19.1735H19.791V15.6909C19.791 15.4161 20.0138 15.1934 20.2885 15.1934H28.2487ZM23.2736 16.6859H21.7811V17.6809H23.2736V16.6859Z" fill="#000091"/>
</svg>
