<svg width="103" height="103" viewBox="0 0 103 103" fill="none" xmlns="http://www.w3.org/2000/svg">
<path fill-rule="evenodd" clip-rule="evenodd" d="M75.2296 102.887C74.4703 102.887 73.8525 102.269 73.8525 101.51C73.8525 100.75 74.4703 100.133 75.2296 100.133C75.9889 100.133 76.6066 100.75 76.6066 101.51C76.6066 102.269 75.9889 102.887 75.2296 102.887Z" fill="#3A3A3A"/>
<path fill-rule="evenodd" clip-rule="evenodd" d="M86.2457 14.7541C85.4864 14.7541 84.8687 14.1364 84.8687 13.377C84.8687 12.6177 85.4864 12 86.2457 12C87.005 12 87.6227 12.6177 87.6227 13.377C87.6227 14.1364 87.005 14.7541 86.2457 14.7541Z" fill="#3A3A3A"/>
<path fill-rule="evenodd" clip-rule="evenodd" d="M6.37705 20.2639C5.61774 20.2639 5 19.6461 5 18.8868C5 18.1274 5.61774 17.5098 6.37705 17.5098C7.13635 17.5098 7.75409 18.1274 7.75409 18.8868C7.75409 19.6461 7.13635 20.2639 6.37705 20.2639Z" fill="#3A3A3A"/>
<path d="M44.9412 30.2885C44.9412 29.5413 44.3354 28.9355 43.5882 28.9355H27.3529L27.1952 28.9446C26.5223 29.0228 26 29.5947 26 30.2885C26 31.0357 26.6057 31.6414 27.3529 31.6414H43.5882L43.746 31.6323C44.4189 31.5542 44.9412 30.9823 44.9412 30.2885Z" fill="#3A3A3A"/>
<path d="M47.6471 53.2885C46.1526 53.2885 44.9412 54.5 44.9412 55.9944C44.9412 59.3592 46.3058 61.4061 49 61.4061C49.7472 61.4061 50.3529 60.8004 50.3529 60.0532C50.3529 59.306 49.7472 58.7003 49 58.7003L48.8727 58.6957C48.7112 58.6837 48.566 58.6478 48.437 58.5831C49.5461 58.2451 50.3529 57.214 50.3529 55.9944C50.3529 54.5 49.1415 53.2885 47.6471 53.2885Z" fill="#3A3A3A"/>
<path d="M53.0588 55.9944C53.0588 54.5 54.2703 53.2885 55.7647 53.2885C57.2591 53.2885 58.4706 54.5 58.4706 55.9944C58.4706 57.214 57.6637 58.2451 56.5546 58.5831C56.6837 58.6478 56.8288 58.6837 56.9903 58.6957L57.1176 58.7003C57.8649 58.7003 58.4706 59.306 58.4706 60.0532C58.4706 60.8004 57.8649 61.4061 57.1176 61.4061C54.4235 61.4061 53.0588 59.3592 53.0588 55.9944Z" fill="#3A3A3A"/>
<path d="M40.8824 34.3473C41.6296 34.3473 42.2353 34.953 42.2353 35.7003C42.2353 36.3941 41.713 36.9659 41.0401 37.0441L40.8824 37.0532H27.3529C26.6057 37.0532 26 36.4475 26 35.7003C26 35.0064 26.5223 34.4346 27.1952 34.3564L27.3529 34.3473H40.8824Z" fill="#3A3A3A"/>
<path d="M36.8235 41.112C36.8235 40.3648 36.2178 39.7591 35.4706 39.7591H27.3529L27.1952 39.7682C26.5223 39.8463 26 40.4182 26 41.112C26 41.8592 26.6057 42.465 27.3529 42.465H35.4706L35.6284 42.4559C36.3012 42.3777 36.8235 41.8059 36.8235 41.112Z" fill="#3A3A3A"/>
<path d="M70.6471 66.8179C71.3943 66.8179 72 67.4236 72 68.1708C72 68.8647 71.4777 69.4365 70.8048 69.5147L70.6471 69.5238H46.2941C45.5469 69.5238 44.9412 68.918 44.9412 68.1708C44.9412 67.477 45.4635 66.9052 46.1363 66.827L46.2941 66.8179H70.6471Z" fill="#3A3A3A"/>
<path d="M66.5882 73.5826C66.5882 72.8354 65.9825 72.2297 65.2353 72.2297H46.2941L46.1363 72.2388C45.4635 72.3169 44.9412 72.8888 44.9412 73.5826C44.9412 74.3298 45.5469 74.9355 46.2941 74.9355H65.2353L65.3931 74.9264C66.0659 74.8483 66.5882 74.2764 66.5882 73.5826Z" fill="#3A3A3A"/>
<path d="M37.9655 14.9355C47.4194 14.9355 54.9144 20.5141 58.5557 29.5479C58.8397 30.2525 58.497 31.0533 57.7901 31.3364C57.0833 31.6195 56.28 31.2778 55.996 30.5732C52.757 22.5375 46.2382 17.6855 37.9655 17.6855C26.5389 17.6855 17.2759 26.9197 17.2759 38.3105C17.2759 42.7323 18.6735 46.9404 21.2286 50.4381C21.5526 50.8816 21.5781 51.4688 21.3087 51.9343L21.2079 52.0846L15.9338 58.9355H24.1724C24.8798 58.9355 25.4628 59.4664 25.5424 60.1502L25.5517 60.3105C25.5517 61.0157 25.0193 61.5969 24.3333 61.6763L24.1724 61.6855H13.1379C12.0463 61.6855 11.4073 60.4942 11.9569 59.5992L12.0436 59.4735L18.4069 51.2053L18.3289 51.0903C15.9666 47.4911 14.6361 43.3005 14.5248 38.9104L14.5172 38.3105C14.5172 25.4009 25.0154 14.9355 37.9655 14.9355Z" fill="#3A3A3A"/>
<path d="M58.6552 36.9355C73.8906 36.9355 86.2414 49.2477 86.2414 64.4355C86.2414 68.7402 85.2474 72.9061 83.3638 76.6774C83.0242 77.3572 82.1962 77.6339 81.5143 77.2954C80.8323 76.9569 80.5548 76.1314 80.8943 75.4516C82.5888 72.0591 83.4828 68.3124 83.4828 64.4355C83.4828 50.7665 72.3671 39.6855 58.6552 39.6855C44.9433 39.6855 33.8276 50.7665 33.8276 64.4355C33.8276 77.9527 44.6976 88.939 58.1991 89.1815L58.6552 89.1855H82.2841L78.1972 83.0733C77.8048 82.4865 77.9245 81.7085 78.451 81.2631L78.5797 81.1665C79.1683 80.7753 79.9487 80.8946 80.3955 81.4195L80.4925 81.5478L86.0097 89.7978C86.5917 90.6681 86.0234 91.8197 85.0163 91.9274L84.8621 91.9355H58.6552C43.4197 91.9355 31.069 79.6234 31.069 64.4355C31.069 49.2477 43.4197 36.9355 58.6552 36.9355Z" fill="#3A3A3A"/>
<path d="M69.6897 24.5605C69.6897 25.3187 70.3084 25.9355 71.069 25.9355C71.8295 25.9355 72.4483 25.3187 72.4483 24.5605C72.4483 23.8023 71.8295 23.1855 71.069 23.1855C70.3084 23.1855 69.6897 23.8023 69.6897 24.5605Z" fill="#3A3A3A"/>
<path d="M76.5862 25.9355C75.8257 25.9355 75.2069 25.3187 75.2069 24.5605C75.2069 23.8023 75.8257 23.1855 76.5862 23.1855C77.3468 23.1855 77.9655 23.8023 77.9655 24.5605C77.9655 25.3187 77.3468 25.9355 76.5862 25.9355Z" fill="#3A3A3A"/>
<path d="M80.7241 24.5605C80.7241 25.3187 81.3429 25.9355 82.1034 25.9355C82.864 25.9355 83.4828 25.3187 83.4828 24.5605C83.4828 23.8023 82.864 23.1855 82.1034 23.1855C81.3429 23.1855 80.7241 23.8023 80.7241 24.5605Z" fill="#3A3A3A"/>
<path fill-rule="evenodd" clip-rule="evenodd" d="M87.6207 17.6855H65.5517C64.79 17.6855 64.1724 18.3012 64.1724 19.0605V30.0605L64.1817 30.2209C64.2614 30.9047 64.8444 31.4355 65.5517 31.4355H76.0138L81.1281 36.5328L81.2448 36.6375C82.1234 37.3445 83.4828 36.7323 83.4828 35.5605V31.4355H87.6207C88.3825 31.4355 89 30.8199 89 30.0605V19.0605C89 18.3012 88.3825 17.6855 87.6207 17.6855ZM86.2414 20.4355V28.6855H82.1034L81.9426 28.6948C81.2566 28.7742 80.7241 29.3554 80.7241 30.0605V32.2399L77.5615 29.0883L77.4249 28.9689C77.1855 28.7861 76.8911 28.6855 76.5862 28.6855H66.931V20.4355H86.2414Z" fill="#3A3A3A"/>
<path d="M15.8966 78.1855C16.6583 78.1855 17.2759 78.8012 17.2759 79.5605C17.2759 80.2657 16.7434 80.8469 16.0574 80.9263L15.8966 80.9355H10.3793C9.61754 80.9355 9 80.3199 9 79.5605C9 78.8554 9.53247 78.2742 10.2185 78.1948L10.3793 78.1855H15.8966Z" fill="#3A3A3A"/>
<path d="M20.0345 79.5605C20.0345 80.3187 20.6532 80.9355 21.4138 80.9355C22.1743 80.9355 22.7931 80.3187 22.7931 79.5605C22.7931 78.8023 22.1743 78.1855 21.4138 78.1855C20.6532 78.1855 20.0345 78.8023 20.0345 79.5605Z" fill="#3A3A3A"/>
<path d="M26.931 80.9355C26.1705 80.9355 25.5517 80.3187 25.5517 79.5605C25.5517 78.8023 26.1705 78.1855 26.931 78.1855C27.6916 78.1855 28.3103 78.8023 28.3103 79.5605C28.3103 80.3187 27.6916 80.9355 26.931 80.9355Z" fill="#3A3A3A"/>
</svg>
