<svg width="103" height="103" viewBox="0 0 103 103" fill="none" xmlns="http://www.w3.org/2000/svg">
<path fill-rule="evenodd" clip-rule="evenodd" d="M7.725 18.0242C7.01507 18.0242 6.4375 17.4466 6.4375 16.7367C6.4375 16.0267 7.01507 15.4492 7.725 15.4492C8.43493 15.4492 9.0125 16.0267 9.0125 16.7367C9.0125 17.4466 8.43493 18.0242 7.725 18.0242Z" fill="#ECECFE"/>
<path fill-rule="evenodd" clip-rule="evenodd" d="M75.9623 93.9871C75.2524 93.9871 74.6748 93.4095 74.6748 92.6996C74.6748 91.9896 75.2524 91.4121 75.9623 91.4121C76.6722 91.4121 77.2498 91.9896 77.2498 92.6996C77.2498 93.4095 76.6722 93.9871 75.9623 93.9871Z" fill="#ECECFE"/>
<path fill-rule="evenodd" clip-rule="evenodd" d="M81.1127 11.5867C80.4028 11.5867 79.8252 11.0091 79.8252 10.2992C79.8252 9.58923 80.4028 9.01172 81.1127 9.01172C81.8226 9.01172 82.4002 9.58923 82.4002 10.2992C82.4002 11.0091 81.8226 11.5867 81.1127 11.5867Z" fill="#ECECFE"/>
<path fill-rule="evenodd" clip-rule="evenodd" d="M96.5624 65.6629C95.8525 65.6629 95.2749 65.0853 95.2749 64.3754C95.2749 63.6654 95.8525 63.0879 96.5624 63.0879C97.2723 63.0879 97.8499 63.6654 97.8499 64.3754C97.8499 65.0853 97.2723 65.6629 96.5624 65.6629Z" fill="#ECECFE"/>
<path fill-rule="evenodd" clip-rule="evenodd" d="M36.0891 60.1971C36.2628 59.5076 36.9626 59.0895 37.6521 59.2632C38.3417 59.437 38.7598 60.1368 38.586 60.8263C37.2981 65.9373 32.5999 69.5242 27.0375 69.5242C21.619 69.5242 17.0152 65.954 15.5036 60.8793C15.3006 60.1978 15.6885 59.4808 16.37 59.2778C17.0515 59.0748 17.7685 59.4627 17.9715 60.1442C19.1635 64.1458 22.7784 66.9492 27.0375 66.9492C31.4305 66.9492 35.092 64.1538 36.0891 60.1971ZM85.0141 60.1971C85.1878 59.5076 85.8876 59.0895 86.5771 59.2632C87.2667 59.437 87.6848 60.1368 87.511 60.8263C86.2231 65.9373 81.5249 69.5242 75.9625 69.5242C70.544 69.5242 65.9402 65.954 64.4286 60.8793C64.2256 60.1978 64.6135 59.4808 65.295 59.2778C65.9765 59.0748 66.6935 59.4627 66.8965 60.1442C68.0885 64.1458 71.7034 66.9492 75.9625 66.9492C80.3555 66.9492 84.017 64.1538 85.0141 60.1971ZM75.9625 41.1992C76.6228 41.1992 77.167 41.6962 77.2414 42.3366L77.25 42.4867V47.1024L84.5979 54.4513C85.1007 54.9541 85.1007 55.7693 84.5979 56.2721C84.1338 56.7362 83.4035 56.7719 82.8984 56.3792L82.7771 56.2721L75.9625 49.4585L69.1479 56.2721C68.6451 56.7749 67.8299 56.7749 67.3271 56.2721C66.863 55.808 66.8273 55.0777 67.22 54.5726L67.3271 54.4513L74.675 47.1011V42.4867C74.675 41.7757 75.2515 41.1992 75.9625 41.1992ZM27.0375 41.1992C27.6978 41.1992 28.242 41.6962 28.3164 42.3366L28.325 42.4867V47.1024L33.1486 51.927C33.6514 52.4298 33.6514 53.245 33.1486 53.7478C32.6845 54.2119 31.9542 54.2476 31.4491 53.8549L31.3278 53.7478L27.0375 49.4572L20.2229 56.2721C19.7201 56.7749 18.9049 56.7749 18.4021 56.2721C17.938 55.808 17.9023 55.0777 18.295 54.5726L18.4021 54.4513L25.75 47.1011V42.4867C25.75 41.7757 26.3265 41.1992 27.0375 41.1992ZM35.6729 54.4513C36.1757 54.9541 36.1757 55.7693 35.6729 56.2721C35.1701 56.7749 34.3549 56.7749 33.8521 56.2721C33.3493 55.7693 33.3493 54.9541 33.8521 54.4513C34.3549 53.9485 35.1701 53.9485 35.6729 54.4513Z" fill="#E1000F"/>
<path fill-rule="evenodd" clip-rule="evenodd" d="M51.5002 15.4492C48.6559 15.4492 46.3502 17.755 46.3502 20.5992C46.3502 22.9584 47.9365 24.9471 50.1007 25.5568C49.3977 28.9262 45.4118 31.5266 38.8948 33.3253L37.9581 33.5739L36.9883 33.8118C36.002 34.0444 34.9667 34.261 33.8845 34.4614C30.1394 35.1549 26.1155 35.602 22.09 35.8505C21.62 35.8795 21.1612 35.9051 20.7149 35.9274L19.4148 35.9849C18.9948 36.0011 18.5885 36.0142 18.1973 36.0245L17.6183 36.038L16.7966 36.0491L16.5875 36.0579C15.9472 36.1323 15.4502 36.6764 15.4502 37.3367C15.4502 38.0478 16.0266 38.6242 16.7377 38.6242L17.9578 38.6063L18.878 38.5806L20.1675 38.531L21.5366 38.4625L22.2487 38.4206C26.3706 38.1662 30.4942 37.708 34.3534 36.9933C35.0918 36.8566 35.8117 36.7125 36.5123 36.5608L37.5488 36.3276C43.3029 34.9821 47.6608 33.0877 50.2127 30.5013V52.7867L50.2214 52.9369C50.2957 53.5772 50.8399 54.0742 51.5002 54.0742C52.2113 54.0742 52.7877 53.4978 52.7877 52.7867V30.5013C55.3396 33.0877 59.6975 34.9821 65.4516 36.3276L66.4881 36.5608C67.1887 36.7125 67.9086 36.8566 68.647 36.9933C72.5062 37.708 76.6298 38.1662 80.7517 38.4206L81.4638 38.4625L82.8329 38.531L84.1224 38.5806L85.0426 38.6063L86.2627 38.6242C86.9738 38.6242 87.5502 38.0478 87.5502 37.3367C87.5502 36.6764 87.0532 36.1323 86.4128 36.0579L86.2038 36.0491L85.3821 36.038L84.803 36.0245C84.4118 36.0142 84.0056 36.0011 83.5856 35.9849L82.2855 35.9274C81.8392 35.9051 81.3804 35.8795 80.9104 35.8505C76.8849 35.602 72.861 35.1549 69.1159 34.4614C68.0337 34.261 66.9984 34.0444 66.0121 33.8118L65.0423 33.5739L64.1056 33.3253C57.5886 31.5266 53.6027 28.9262 52.8997 25.5568C55.0639 24.9471 56.6502 22.9584 56.6502 20.5992C56.6502 17.755 54.3445 15.4492 51.5002 15.4492ZM54.0752 20.5992C54.0752 19.1771 52.9223 18.0242 51.5002 18.0242C50.0781 18.0242 48.9252 19.1771 48.9252 20.5992C48.9252 22.0214 50.0781 23.1742 51.5002 23.1742C52.9223 23.1742 54.0752 22.0214 54.0752 20.5992Z" fill="#000091"/>
<path d="M51.5002 66.9492C52.1605 66.9492 52.7047 67.4462 52.779 68.0866L52.7877 68.2367V74.6742H65.6627C66.3738 74.6742 66.9502 75.2507 66.9502 75.9617C66.9502 76.622 66.4532 77.1662 65.8128 77.2406L65.6627 77.2492H39.7957C39.2082 77.2492 38.7025 77.735 38.6333 78.3842L38.6252 78.5367V79.8242H78.5377C80.5947 79.8242 82.2762 81.4322 82.3936 83.4598L82.4002 83.6867V84.9742H86.2627C86.9738 84.9742 87.5502 85.5507 87.5502 86.2617C87.5502 86.922 87.0532 87.4662 86.4129 87.5406L86.2627 87.5492H63.0877C62.3766 87.5492 61.8002 86.9728 61.8002 86.2617C61.8002 85.6014 62.2972 85.0573 62.9375 84.9829L63.0877 84.9742H79.8252V83.6867C79.8252 83.0264 79.3282 82.4823 78.6879 82.4079L78.5377 82.3992H24.4627C23.8024 82.3992 23.2582 82.8962 23.1839 83.5366L23.1752 83.6867V84.9742H32.1877C32.8988 84.9742 33.4752 85.5507 33.4752 86.2617C33.4752 86.922 32.9782 87.4662 32.3379 87.5406L32.1877 87.5492H16.7377C16.0266 87.5492 15.4502 86.9728 15.4502 86.2617C15.4502 85.6014 15.9472 85.0573 16.5876 84.9829L16.7377 84.9742H20.6002V83.6867C20.6002 81.6297 22.2082 79.9483 24.2358 79.8308L24.4627 79.8242H36.0502V78.5367C36.0502 76.4923 37.5967 74.7992 39.5742 74.6808L39.7957 74.6742H50.2127V68.2367C50.2127 67.5257 50.7891 66.9492 51.5002 66.9492Z" fill="#000091"/>
<path d="M51.5002 64.3742C52.2113 64.3742 52.7877 63.7978 52.7877 63.0867C52.7877 62.3757 52.2113 61.7992 51.5002 61.7992C50.7891 61.7992 50.2127 62.3757 50.2127 63.0867C50.2127 63.7978 50.7891 64.3742 51.5002 64.3742Z" fill="#000091"/>
</svg>
