<svg width="103" height="103" viewBox="0 0 103 103" fill="none" xmlns="http://www.w3.org/2000/svg">
<path fill-rule="evenodd" clip-rule="evenodd" d="M7.725 43.7742C8.43313 43.7742 9.0125 43.1948 9.0125 42.4867C9.0125 41.7786 8.43313 41.1992 7.725 41.1992C7.01687 41.1992 6.4375 41.7786 6.4375 42.4867C6.4375 43.1948 7.01687 43.7742 7.725 43.7742Z" fill="#ECECFE"/>
<path fill-rule="evenodd" clip-rule="evenodd" d="M59.225 7.72539C59.9331 7.72539 60.5125 7.14602 60.5125 6.43789C60.5125 5.72977 59.9331 5.15039 59.225 5.15039C58.5169 5.15039 57.9375 5.72977 57.9375 6.43789C57.9375 7.14602 58.5169 7.72539 59.225 7.72539Z" fill="#ECECFE"/>
<path fill-rule="evenodd" clip-rule="evenodd" d="M84.975 79.825C85.6831 79.825 86.2625 79.2456 86.2625 78.5375C86.2625 77.8294 85.6831 77.25 84.975 77.25C84.2669 77.25 83.6875 77.8294 83.6875 78.5375C83.6875 79.2456 84.2669 79.825 84.975 79.825Z" fill="#ECECFE"/>
<path fill-rule="evenodd" clip-rule="evenodd" d="M95.2748 38.6258C95.9829 38.6258 96.5623 38.0464 96.5623 37.3383C96.5623 36.6302 95.9829 36.0508 95.2748 36.0508C94.5667 36.0508 93.9873 36.6302 93.9873 37.3383C93.9873 38.0464 94.5667 38.6258 95.2748 38.6258Z" fill="#ECECFE"/>
<path fill-rule="evenodd" clip-rule="evenodd" d="M46.35 93.9871C47.0581 93.9871 47.6375 93.4077 47.6375 92.6996C47.6375 91.9915 47.0581 91.4121 46.35 91.4121C45.6419 91.4121 45.0625 91.9915 45.0625 92.6996C45.0625 93.4077 45.6419 93.9871 46.35 93.9871Z" fill="#ECECFE"/>
<path fill-rule="evenodd" clip-rule="evenodd" d="M51.5 33.8484C43.9203 33.8484 37.7791 39.9896 37.7791 47.5694C37.7791 48.0685 37.8104 48.5853 37.8637 49.0867C37.8655 49.1036 37.867 49.1205 37.8681 49.1373C38.6438 55.9697 44.4511 61.2903 51.5 61.2903C59.0798 61.2903 65.2209 55.1491 65.2209 47.5694C65.2209 39.9896 59.0798 33.8484 51.5 33.8484ZM35.2983 49.313C35.2996 49.3337 35.3014 49.3546 35.3037 49.3755C36.2016 57.5189 43.1078 63.8653 51.5 63.8653C60.5019 63.8653 67.7959 56.5712 67.7959 47.5694C67.7959 38.5675 60.5019 31.2734 51.5 31.2734C42.4982 31.2734 35.2041 38.5675 35.2041 47.5694C35.2041 48.1565 35.2397 48.7488 35.2983 49.313Z" fill="#E1000F"/>
<path fill-rule="evenodd" clip-rule="evenodd" d="M51.5 63.866C39.7859 63.866 30.2806 73.3607 30.2806 85.0854C30.2806 85.7965 29.7041 86.3729 28.9931 86.3729C28.282 86.3729 27.7056 85.7965 27.7056 85.0854C27.7056 71.9377 38.3646 61.291 51.5 61.291C64.6357 61.291 75.2943 71.9496 75.2943 85.0854C75.2943 85.7965 74.7179 86.3729 74.0068 86.3729C73.2958 86.3729 72.7193 85.7965 72.7193 85.0854C72.7193 73.3718 63.2136 63.866 51.5 63.866Z" fill="#E1000F"/>
<path d="M73.8948 27.9156C75.317 27.9156 76.4698 26.7628 76.4698 25.3406C76.4698 23.9185 75.317 22.7656 73.8948 22.7656C72.4727 22.7656 71.3198 23.9185 71.3198 25.3406C71.3198 26.7628 72.4727 27.9156 73.8948 27.9156Z" fill="#E1000F"/>
<path fill-rule="evenodd" clip-rule="evenodd" d="M82.4577 44.1465C83.1687 44.1523 83.7405 44.7334 83.7347 45.4444L83.6428 56.7668C83.6371 57.4778 83.056 58.0496 82.3449 58.0438C81.6339 58.038 81.0621 57.4569 81.0679 56.7459L81.1598 45.4235C81.1655 44.7125 81.7466 44.1408 82.4577 44.1465Z" fill="#000091"/>
<path fill-rule="evenodd" clip-rule="evenodd" d="M18.7686 15.8278C19.0121 15.5836 19.3433 15.4472 19.6881 15.4492L82.6614 15.8167C83.0033 15.8187 83.3303 15.9566 83.5704 16.1999C83.8105 16.4433 83.944 16.7721 83.9414 17.114L83.7691 39.7701C83.7637 40.4812 83.1829 41.0532 82.4719 41.0478C81.7608 41.0424 81.1888 40.4616 81.1942 39.7506L81.3567 18.3841L20.98 18.0318L21.3355 56.7435C21.342 57.4546 20.7709 58.0363 20.0598 58.0428C19.3488 58.0493 18.7671 57.4782 18.7606 56.7672L18.3931 16.7485C18.39 16.4037 18.5252 16.0721 18.7686 15.8278Z" fill="#000091"/>
<path fill-rule="evenodd" clip-rule="evenodd" d="M19.1254 55.8581C19.3678 55.6092 19.7005 55.4688 20.0479 55.4688H31.3702C32.0813 55.4688 32.6577 56.0452 32.6577 56.7563C32.6577 57.4673 32.0813 58.0438 31.3702 58.0438H20.5913L12.0632 66.8026H24.5952C25.3063 66.8026 25.8827 67.379 25.8827 68.0901C25.8827 68.8011 25.3063 69.3776 24.5952 69.3776H9.01263C8.49501 69.3776 8.02772 69.0676 7.82645 68.5907C7.62518 68.1138 7.72907 67.5628 8.09016 67.1919L19.1254 55.8581Z" fill="#000091"/>
<path d="M25.7434 68.0897C25.7434 68.7239 25.2293 69.238 24.5951 69.238C23.9609 69.238 23.4468 68.7239 23.4468 68.0897C23.4468 67.4555 23.9609 66.9414 24.5951 66.9414C25.2293 66.9414 25.7434 67.4555 25.7434 68.0897Z" fill="#000091"/>
<path d="M25.7434 68.0897C25.7434 68.7239 25.2293 69.238 24.5951 69.238C23.9609 69.238 23.4468 68.7239 23.4468 68.0897C23.4468 67.4555 23.9609 66.9414 24.5951 66.9414C25.2293 66.9414 25.7434 67.4555 25.7434 68.0897Z" fill="#000091"/>
<path d="M25.7434 68.0897C25.7434 68.7239 25.2293 69.238 24.5951 69.238C23.9609 69.238 23.4468 68.7239 23.4468 68.0897C23.4468 67.4555 23.9609 66.9414 24.5951 66.9414C25.2293 66.9414 25.7434 67.4555 25.7434 68.0897Z" fill="#000091"/>
<path d="M25.7434 68.0897C25.7434 68.7239 25.2293 69.238 24.5951 69.238C23.9609 69.238 23.4468 68.7239 23.4468 68.0897C23.4468 67.4555 23.9609 66.9414 24.5951 66.9414C25.2293 66.9414 25.7434 67.4555 25.7434 68.0897Z" fill="#000091"/>
<path d="M25.7434 68.0897C25.7434 68.7239 25.2293 69.238 24.5951 69.238C23.9609 69.238 23.4468 68.7239 23.4468 68.0897C23.4468 67.4555 23.9609 66.9414 24.5951 66.9414C25.2293 66.9414 25.7434 67.4555 25.7434 68.0897Z" fill="#000091"/>
<path fill-rule="evenodd" clip-rule="evenodd" d="M28.9688 68.0883C28.9688 67.3772 29.5452 66.8008 30.2563 66.8008H31.6687C32.3797 66.8008 32.9562 67.3772 32.9562 68.0883C32.9562 68.7993 32.3797 69.3758 31.6687 69.3758H30.2563C29.5452 69.3758 28.9688 68.7993 28.9688 68.0883Z" fill="#000091"/>
<path fill-rule="evenodd" clip-rule="evenodd" d="M69.7456 56.7563C69.7456 56.0452 70.322 55.4688 71.0331 55.4688H82.3555C82.6911 55.4688 83.0135 55.5998 83.2539 55.8341L94.8863 67.1679C95.2615 67.5335 95.3778 68.0898 95.1805 68.575C94.9832 69.0603 94.5116 69.3776 93.9878 69.3776H71.3317C70.6206 69.3776 70.0442 68.8011 70.0442 68.0901C70.0442 67.379 70.6206 66.8026 71.3317 66.8026H90.8215L81.8319 58.0438H71.0331C70.322 58.0438 69.7456 57.4673 69.7456 56.7563Z" fill="#000091"/>
<path fill-rule="evenodd" clip-rule="evenodd" d="M24.7202 22.766C24.7202 22.0549 25.2966 21.4785 26.0077 21.4785H59.9977C60.7088 21.4785 61.2852 22.0549 61.2852 22.766C61.2852 23.4771 60.7088 24.0535 59.9977 24.0535H26.0077C25.2966 24.0535 24.7202 23.4771 24.7202 22.766Z" fill="#000091"/>
<path fill-rule="evenodd" clip-rule="evenodd" d="M24.7202 28.4379C24.7202 27.7268 25.2966 27.1504 26.0077 27.1504H37.3415C38.0526 27.1504 38.629 27.7268 38.629 28.4379C38.629 29.149 38.0526 29.7254 37.3415 29.7254H26.0077C25.2966 29.7254 24.7202 29.149 24.7202 28.4379Z" fill="#000091"/>
<path fill-rule="evenodd" clip-rule="evenodd" d="M24.7202 34.1C24.7202 33.3889 25.2966 32.8125 26.0077 32.8125H31.6689C32.38 32.8125 32.9564 33.3889 32.9564 34.1C32.9564 34.8111 32.38 35.3875 31.6689 35.3875H26.0077C25.2966 35.3875 24.7202 34.8111 24.7202 34.1Z" fill="#000091"/>
</svg>
