<svg width="103" height="106" viewBox="0 0 103 106" fill="none" xmlns="http://www.w3.org/2000/svg">
<path fill-rule="evenodd" clip-rule="evenodd" d="M89.7497 105.399C89.013 105.399 88.4136 104.799 88.4136 104.063C88.4136 103.326 89.013 102.727 89.7497 102.727C90.4864 102.727 91.0858 103.326 91.0858 104.063C91.0858 104.799 90.4864 105.399 89.7497 105.399Z" fill="#3A3A3A"/>
<path fill-rule="evenodd" clip-rule="evenodd" d="M100.439 19.8871C99.7019 19.8871 99.1025 19.2877 99.1025 18.551C99.1025 17.8142 99.7019 17.2148 100.439 17.2148C101.175 17.2148 101.775 17.8142 101.775 18.551C101.775 19.2877 101.175 19.8871 100.439 19.8871Z" fill="#3A3A3A"/>
<path fill-rule="evenodd" clip-rule="evenodd" d="M22.9431 25.2309C22.2063 25.2309 21.6069 24.6315 21.6069 23.8947C21.6069 23.1579 22.2063 22.5586 22.9431 22.5586C23.6798 22.5586 24.2792 23.1579 24.2792 23.8947C24.2792 24.6315 23.6798 25.2309 22.9431 25.2309Z" fill="#3A3A3A"/>
<path fill-rule="evenodd" clip-rule="evenodd" d="M99.5373 90.8559C98.8006 90.8559 98.2012 90.2565 98.2012 89.5197C98.2012 88.7829 98.8006 88.1836 99.5373 88.1836C100.274 88.1836 100.873 88.7829 100.873 89.5197C100.873 90.2565 100.274 90.8559 99.5373 90.8559Z" fill="#3A3A3A"/>
<path fill-rule="evenodd" clip-rule="evenodd" d="M50.1008 2.67226C49.364 2.67226 48.7646 2.07288 48.7646 1.33613C48.7646 0.599326 49.364 0 50.1008 0C50.8375 0 51.4369 0.599326 51.4369 1.33613C51.4369 2.07288 50.8375 2.67226 50.1008 2.67226Z" fill="#3A3A3A"/>
<path fill-rule="evenodd" clip-rule="evenodd" d="M3.33613 80.1684C2.59939 80.1684 2 79.569 2 78.8322C2 78.0954 2.59939 77.4961 3.33613 77.4961C4.07288 77.4961 4.67226 78.0954 4.67226 78.8322C4.67226 79.569 4.07288 80.1684 3.33613 80.1684Z" fill="#3A3A3A"/>
<path d="M89.3647 87.8496C90.6958 87.8496 91.7749 86.7773 91.7749 85.4544C91.7749 84.1316 90.6958 83.0593 89.3647 83.0593C88.0336 83.0593 86.9546 84.1316 86.9546 85.4544C86.9546 86.7773 88.0336 87.8496 89.3647 87.8496Z" fill="#3A3A3A"/>
<path fill-rule="evenodd" clip-rule="evenodd" d="M24.195 16.1829C24.7493 16.6693 24.8019 17.5102 24.3124 18.0611L15.1176 28.4082C14.628 28.959 13.7819 29.0113 13.2276 28.5248C12.6733 28.0383 12.6208 27.1974 13.1103 26.6466L22.3051 16.2995C22.7946 15.7486 23.6407 15.6964 24.195 16.1829Z" fill="#3A3A3A"/>
<path fill-rule="evenodd" clip-rule="evenodd" d="M32.7018 15.8425C33.0614 15.8195 33.4154 15.939 33.6852 16.1747L75.3452 52.5714C75.529 52.732 75.6649 52.9389 75.7384 53.1699L83.713 78.2496C83.8534 78.6912 83.7514 79.1729 83.4435 79.5222C83.1356 79.8714 82.666 80.038 82.2031 79.9623L56.1884 75.7064C55.9397 75.6657 55.7075 75.5572 55.5181 75.3932L20.0821 44.7029C19.5216 44.2175 19.4663 43.3758 19.9585 42.8231C20.4508 42.2703 21.3042 42.2157 21.8647 42.7012L57.0109 73.1405L80.478 76.9796L73.273 54.3202L32.9141 19.0602L24.7156 28.3559C24.2261 28.911 23.3729 28.9696 22.81 28.4868C22.2472 28.004 22.1878 27.1627 22.6773 26.6076L31.7703 16.2976C32.0068 16.0294 32.3422 15.8656 32.7018 15.8425Z" fill="#3A3A3A"/>
<path fill-rule="evenodd" clip-rule="evenodd" d="M75.3435 52.57C75.9027 53.0569 75.9557 53.8987 75.4619 54.4501L66.1865 64.8081C65.6927 65.3595 64.8391 65.4118 64.28 64.9248C63.7208 64.4378 63.6678 63.5961 64.1616 63.0446L73.437 52.6867C73.9308 52.1352 74.7843 52.083 75.3435 52.57Z" fill="#3A3A3A"/>
<path fill-rule="evenodd" clip-rule="evenodd" d="M42.8022 41.4821C43.3614 41.9691 43.4144 42.8109 42.9206 43.3623L33.6452 53.7203C33.1514 54.2717 32.2978 54.324 31.7387 53.837C31.1795 53.35 31.1265 52.5083 31.6203 51.9568L40.8957 41.5989C41.3895 41.0474 42.2431 40.9952 42.8022 41.4821Z" fill="#3A3A3A"/>
<path fill-rule="evenodd" clip-rule="evenodd" d="M77.5531 63.7885C78.1137 64.2738 78.1693 65.1154 77.6773 65.6683L67.6482 76.9374C67.1561 77.4903 66.3027 77.5452 65.7421 77.0599C65.1814 76.5746 65.1258 75.733 65.6179 75.1801L75.6469 63.911C76.139 63.3581 76.9924 63.3032 77.5531 63.7885Z" fill="#3A3A3A"/>
<path fill-rule="evenodd" clip-rule="evenodd" d="M32.3625 85.5176C32.3625 84.7819 32.9673 84.1855 33.7132 84.1855H82.3389C83.0849 84.1855 83.6896 84.7819 83.6896 85.5176C83.6896 86.2532 83.0849 86.8496 82.3389 86.8496H33.7132C32.9673 86.8496 32.3625 86.2532 32.3625 85.5176Z" fill="#3A3A3A"/>
<path fill-rule="evenodd" clip-rule="evenodd" d="M17.7749 85.5176C17.7749 84.7819 18.3796 84.1855 19.1256 84.1855H29.1547C29.9007 84.1855 30.5054 84.7819 30.5054 85.5176C30.5054 86.2532 29.9007 86.8496 29.1547 86.8496H19.1256C18.3796 86.8496 17.7749 86.2532 17.7749 85.5176Z" fill="#3A3A3A"/>
<path fill-rule="evenodd" clip-rule="evenodd" d="M39.2859 15.2906C39.785 14.7438 40.639 14.6994 41.1935 15.1916L68.2078 39.1683C68.7622 39.6605 68.8072 40.5027 68.3082 41.0495C67.8091 41.5963 66.9551 41.6407 66.4006 41.1485L39.3863 17.1718C38.8318 16.6796 38.7869 15.8374 39.2859 15.2906Z" fill="#3A3A3A"/>
</svg>
