<svg width="98" height="98" viewBox="0 0 98 98" fill="none" xmlns="http://www.w3.org/2000/svg">
<path fill-rule="evenodd" clip-rule="evenodd" d="M89.4252 22.0496C88.7497 22.0496 88.2002 21.5001 88.2002 20.8246C88.2002 20.1491 88.7497 19.5996 89.4252 19.5996C90.1007 19.5996 90.6502 20.1491 90.6502 20.8246C90.6502 21.5001 90.1007 22.0496 89.4252 22.0496Z" fill="#ECECFE"/>
<path fill-rule="evenodd" clip-rule="evenodd" d="M8.5751 22.0496C7.89963 22.0496 7.3501 21.5001 7.3501 20.8246C7.3501 20.1491 7.89963 19.5996 8.5751 19.5996C9.25056 19.5996 9.8001 20.1491 9.8001 20.8246C9.8001 21.5001 9.25056 22.0496 8.5751 22.0496Z" fill="#ECECFE"/>
<path fill-rule="evenodd" clip-rule="evenodd" d="M13.475 83.2996C12.7995 83.2996 12.25 82.7501 12.25 82.0746C12.25 81.3991 12.7995 80.8496 13.475 80.8496C14.1505 80.8496 14.7 81.3991 14.7 82.0746C14.7 82.7501 14.1505 83.2996 13.475 83.2996Z" fill="#ECECFE"/>
<path fill-rule="evenodd" clip-rule="evenodd" d="M23.2748 7.35039C22.5993 7.35039 22.0498 6.80086 22.0498 6.12539C22.0498 5.44987 22.5993 4.90039 23.2748 4.90039C23.9503 4.90039 24.4998 5.44987 24.4998 6.12539C24.4998 6.80086 23.9503 7.35039 23.2748 7.35039Z" fill="#ECECFE"/>
<path fill-rule="evenodd" clip-rule="evenodd" d="M67.3749 95.5496C66.6994 95.5496 66.1499 95.0001 66.1499 94.3246C66.1499 93.6491 66.6994 93.0996 67.3749 93.0996C68.0504 93.0996 68.5999 93.6491 68.5999 94.3246C68.5999 95.0001 68.0504 95.5496 67.3749 95.5496Z" fill="#ECECFE"/>
<path d="M66.1948 49.896C66.3763 49.2443 67.0518 48.863 67.7035 49.0445C70.5694 49.8425 72.7666 52.0903 73.3482 54.8775C73.4865 55.5397 73.0616 56.1887 72.3993 56.3269C71.7371 56.4651 71.0881 56.0403 70.9499 55.378C70.5597 53.5081 69.0487 51.9623 67.0463 51.4047C66.3945 51.2232 66.0133 50.5478 66.1948 49.896Z" fill="#E1000F"/>
<path fill-rule="evenodd" clip-rule="evenodd" d="M53.8999 56.3496C53.8999 49.5935 59.394 44.0996 66.1499 44.0996C72.9058 44.0996 78.3999 49.5935 78.3999 56.3496C78.3999 59.4931 77.2103 62.3635 75.2576 64.5343L82.4793 77.0427C83.4941 78.8004 82.8919 81.048 81.1342 82.0628C79.4392 83.0414 77.2888 82.5164 76.2274 80.9016L76.114 80.7177L68.9335 68.2807C68.039 68.4893 67.1071 68.5996 66.1499 68.5996C59.3942 68.5996 53.8999 63.1053 53.8999 56.3496ZM71.293 67.4674L78.2358 79.4927C78.5741 80.0786 79.3233 80.2793 79.9092 79.9411C80.4532 79.6269 80.6652 78.9585 80.4218 78.3955L80.3575 78.2677L73.4008 66.2182C72.7448 66.7014 72.0392 67.1209 71.293 67.4674ZM75.9499 56.3496C75.9499 50.9466 71.5527 46.5496 66.1499 46.5496C60.7471 46.5496 56.3499 50.9466 56.3499 56.3496C56.3499 61.7522 60.7473 66.1496 66.1499 66.1496C71.5525 66.1496 75.9499 61.7522 75.9499 56.3496Z" fill="#E1000F"/>
<path d="M84.5166 21.9064C84.4458 21.2971 83.928 20.8242 83.2998 20.8242H17.1498L17.0069 20.8325C16.3977 20.9032 15.9248 21.421 15.9248 22.0492V78.3992L15.933 78.5421C16.0038 79.1513 16.5216 79.6242 17.1498 79.6242H68.5998L68.7427 79.616C69.3519 79.5452 69.8248 79.0274 69.8248 78.3992L69.8166 78.2564C69.7458 77.6471 69.228 77.1742 68.5998 77.1742H18.3748V33.0742H63.6998L63.8427 33.066C64.4519 32.9952 64.9248 32.4774 64.9248 31.8492C64.9248 31.1727 64.3764 30.6242 63.6998 30.6242H18.3748V23.2742H82.0748V30.6242H71.0498L70.9069 30.6325C70.2977 30.7032 69.8248 31.221 69.8248 31.8492C69.8248 32.5258 70.3733 33.0742 71.0498 33.0742H82.0748V68.5992L82.083 68.7421C82.1538 69.3513 82.6716 69.8242 83.2998 69.8242C83.9764 69.8242 84.5248 69.2758 84.5248 68.5992V22.0492L84.5166 21.9064Z" fill="#000091"/>
<path d="M22.0498 28.1742C21.3743 28.1742 20.8248 27.6247 20.8248 26.9492C20.8248 26.2737 21.3743 25.7242 22.0498 25.7242C22.7253 25.7242 23.2748 26.2737 23.2748 26.9492C23.2748 27.6247 22.7253 28.1742 22.0498 28.1742Z" fill="#000091"/>
<path d="M25.7248 26.9492C25.7248 27.6247 26.2743 28.1742 26.9498 28.1742C27.6253 28.1742 28.1748 27.6247 28.1748 26.9492C28.1748 26.2737 27.6253 25.7242 26.9498 25.7242C26.2743 25.7242 25.7248 26.2737 25.7248 26.9492Z" fill="#000091"/>
<path d="M31.8498 28.1742C31.1743 28.1742 30.6248 27.6247 30.6248 26.9492C30.6248 26.2737 31.1743 25.7242 31.8498 25.7242C32.5253 25.7242 33.0748 26.2737 33.0748 26.9492C33.0748 27.6247 32.5253 28.1742 31.8498 28.1742Z" fill="#000091"/>
<path d="M78.3998 25.7242C79.0764 25.7242 79.6248 26.2727 79.6248 26.9492C79.6248 27.5774 79.1519 28.0952 78.5427 28.166L78.3998 28.1742H41.6498C40.9733 28.1742 40.4248 27.6258 40.4248 26.9492C40.4248 26.321 40.8977 25.8032 41.5069 25.7325L41.6498 25.7242H78.3998Z" fill="#000091"/>
<path d="M50.2248 41.6492C50.2248 40.9727 49.6764 40.4242 48.9998 40.4242H26.9498L26.8069 40.4325C26.1977 40.5032 25.7248 41.021 25.7248 41.6492C25.7248 42.3258 26.2733 42.8742 26.9498 42.8742H48.9998L49.1427 42.866C49.7519 42.7952 50.2248 42.2774 50.2248 41.6492Z" fill="#000091"/>
<path d="M44.0998 47.7742C44.7764 47.7742 45.3248 48.3227 45.3248 48.9992C45.3248 49.6274 44.8519 50.1452 44.2427 50.216L44.0998 50.2242H26.9498C26.2733 50.2242 25.7248 49.6758 25.7248 48.9992C25.7248 48.371 26.1977 47.8532 26.8069 47.7825L26.9498 47.7742H44.0998Z" fill="#000091"/>
<path d="M42.8748 56.3492C42.8748 55.6727 42.3264 55.1242 41.6498 55.1242H26.9498L26.8069 55.1325C26.1977 55.2032 25.7248 55.721 25.7248 56.3492C25.7248 57.0258 26.2733 57.5742 26.9498 57.5742H41.6498L41.7927 57.566C42.4019 57.4952 42.8748 56.9774 42.8748 56.3492Z" fill="#000091"/>
</svg>
