<svg width="98" height="98" viewBox="0 0 98 98" fill="none" xmlns="http://www.w3.org/2000/svg">
<path fill-rule="evenodd" clip-rule="evenodd" d="M12.2499 9.79961C11.5744 9.79961 11.0249 9.25007 11.0249 8.57461C11.0249 7.89909 11.5744 7.34961 12.2499 7.34961C12.9254 7.34961 13.4749 7.89909 13.4749 8.57461C13.4749 9.25007 12.9254 9.79961 12.2499 9.79961Z" fill="#ECECFE"/>
<path fill-rule="evenodd" clip-rule="evenodd" d="M19.6 86.9754C18.9245 86.9754 18.375 86.4259 18.375 85.7504C18.375 85.0749 18.9245 84.5254 19.6 84.5254C20.2755 84.5254 20.825 85.0749 20.825 85.7504C20.825 86.4259 20.2755 86.9754 19.6 86.9754Z" fill="#ECECFE"/>
<path fill-rule="evenodd" clip-rule="evenodd" d="M83.3002 68.6004C82.6247 68.6004 82.0752 68.0509 82.0752 67.3754C82.0752 66.6999 82.6247 66.1504 83.3002 66.1504C83.9757 66.1504 84.5252 66.6999 84.5252 67.3754C84.5252 68.0509 83.9757 68.6004 83.3002 68.6004Z" fill="#ECECFE"/>
<path fill-rule="evenodd" clip-rule="evenodd" d="M85.7499 9.79961C85.0744 9.79961 84.5249 9.25007 84.5249 8.57461C84.5249 7.89909 85.0744 7.34961 85.7499 7.34961C86.4254 7.34961 86.9749 7.89909 86.9749 8.57461C86.9749 9.25007 86.4254 9.79961 85.7499 9.79961Z" fill="#ECECFE"/>
<path fill-rule="evenodd" clip-rule="evenodd" d="M49.6123 41.65C47.2444 41.65 45.3248 43.5696 45.3248 45.9375C45.3248 48.3054 47.2444 50.225 49.6123 50.225C51.9802 50.225 53.8998 48.3054 53.8998 45.9375C53.8998 43.5696 51.9802 41.65 49.6123 41.65ZM42.8748 45.9375C42.8748 42.2165 45.8913 39.2 49.6123 39.2C53.3333 39.2 56.3498 42.2165 56.3498 45.9375C56.3498 49.6585 53.3333 52.675 49.6123 52.675C45.8913 52.675 42.8748 49.6585 42.8748 45.9375Z" fill="#E1000F"/>
<path fill-rule="evenodd" clip-rule="evenodd" d="M43.4873 69.825C43.4873 69.1485 44.0358 68.6 44.7123 68.6H45.9373C46.6139 68.6 47.1623 69.1485 47.1623 69.825C47.1623 70.5015 46.6139 71.05 45.9373 71.05H44.7123C44.0358 71.05 43.4873 70.5015 43.4873 69.825Z" fill="#E1000F"/>
<path fill-rule="evenodd" clip-rule="evenodd" d="M46.6222 31.4351C46.7972 30.949 47.2582 30.625 47.7748 30.625H51.4498C51.9664 30.625 52.4274 30.949 52.6024 31.4351L53.5298 34.0112L55.2222 34.7805L57.6395 33.5718C58.1111 33.336 58.6807 33.4285 59.0535 33.8013L61.7485 36.4963C62.1214 36.8691 62.2138 37.4387 61.978 37.9103L60.7515 40.3632L61.4401 42.123L64.0601 42.9292C64.5741 43.0873 64.9248 43.5622 64.9248 44.1V47.8975C64.9248 48.4196 64.5939 48.8843 64.1005 49.0551L61.4389 49.9764L60.7566 51.6443L61.978 54.0872C62.2185 54.5682 62.1171 55.1498 61.7281 55.5211L59.0331 58.0936C58.6703 58.44 58.1329 58.5301 57.6769 58.3211L55.2196 57.1949L53.5204 57.89L52.6024 60.4399C52.4274 60.926 51.9664 61.25 51.4498 61.25H47.7748C47.2582 61.25 46.7972 60.926 46.6222 60.4399L45.7042 57.89L44.005 57.1949L41.5477 58.3211C41.0917 58.5301 40.5543 58.44 40.1915 58.0936L37.4965 55.5211C37.1075 55.1498 37.0061 54.5682 37.2466 54.0872L38.468 51.6443L37.7857 49.9764L35.1241 49.0551C34.6307 48.8843 34.2998 48.4196 34.2998 47.8975V44.1C34.2998 43.5622 34.6505 43.0873 35.1645 42.9292L37.7845 42.123L38.4731 40.3632L37.2466 37.9103C37.0108 37.4387 37.1033 36.8691 37.4761 36.4963L40.1711 33.8013C40.5439 33.4285 41.1135 33.336 41.5851 33.5718L44.0024 34.7805L45.6948 34.0112L46.6222 31.4351ZM48.6358 33.075L47.8249 35.3274C47.7129 35.6384 47.4801 35.8909 47.1792 36.0277L44.4842 37.2527C44.1477 37.4057 43.7601 37.3985 43.4295 37.2332L41.2792 36.158L39.8328 37.6044L40.908 39.7547C41.063 40.0648 41.0794 40.426 40.9531 40.7489L39.8506 43.5664C39.7145 43.9142 39.4271 44.181 39.0701 44.2908L36.7498 45.0048V47.0252L39.1105 47.8424C39.4432 47.9576 39.7103 48.2103 39.8436 48.5362L40.9461 51.2312C41.0798 51.5581 41.066 51.9269 40.908 52.2428L39.8426 54.3736L41.2822 55.7477L43.4669 54.7464C43.7749 54.6052 44.1276 54.5979 44.4411 54.7262L47.1361 55.8287C47.4571 55.96 47.7074 56.2213 47.8249 56.5476L48.6358 58.8H50.5888L51.3997 56.5476C51.5172 56.2213 51.7675 55.96 52.0885 55.8287L54.7835 54.7262C55.097 54.5979 55.4497 54.6052 55.7577 54.7464L57.9424 55.7477L59.382 54.3736L58.3166 52.2428C58.1587 51.9269 58.1448 51.5581 58.2785 51.2312L59.381 48.5362C59.5143 48.2103 59.7814 47.9576 60.1141 47.8424L62.4748 47.0252V45.0048L60.1546 44.2908C59.7975 44.181 59.5102 43.9142 59.374 43.5664L58.2715 40.7489C58.1452 40.426 58.1616 40.0648 58.3166 39.7547L59.3918 37.6044L57.9454 36.158L55.7951 37.2332C55.4645 37.3985 55.0769 37.4057 54.7404 37.2527L52.0454 36.0277C51.7445 35.8909 51.5117 35.6384 51.3997 35.3274L50.5888 33.075H48.6358Z" fill="#E1000F"/>
<path fill-rule="evenodd" clip-rule="evenodd" d="M48.3873 69.825C48.3873 69.1485 48.9358 68.6 49.6123 68.6H58.1873C58.8639 68.6 59.4123 69.1485 59.4123 69.825C59.4123 70.5015 58.8639 71.05 58.1873 71.05H49.6123C48.9358 71.05 48.3873 70.5015 48.3873 69.825Z" fill="#000091"/>
<path fill-rule="evenodd" clip-rule="evenodd" d="M55.4441 79.0549C56.0973 79.2312 56.4838 79.9037 56.3075 80.5568C55.5035 83.5343 53.3498 86.3625 49.8573 86.3625C46.3767 86.3625 43.622 83.6947 42.9047 80.5064C42.7562 79.8464 43.1709 79.1909 43.8309 79.0424C44.4909 78.8939 45.1464 79.3086 45.2949 79.9686C45.8026 82.2248 47.7029 83.9125 49.8573 83.9125C51.7548 83.9125 53.2761 82.3852 53.9422 79.9182C54.1185 79.265 54.791 78.8785 55.4441 79.0549Z" fill="#000091"/>
<path fill-rule="evenodd" clip-rule="evenodd" d="M49.6123 12.25C50.2889 12.25 50.8373 12.7985 50.8373 13.475V19.6C50.8373 20.2765 50.2889 20.825 49.6123 20.825C48.9358 20.825 48.3873 20.2765 48.3873 19.6V13.475C48.3873 12.7985 48.9358 12.25 49.6123 12.25Z" fill="#000091"/>
<path fill-rule="evenodd" clip-rule="evenodd" d="M15.9248 46.55C15.9248 45.8735 16.4733 45.325 17.1498 45.325H23.2748C23.9514 45.325 24.4998 45.8735 24.4998 46.55C24.4998 47.2265 23.9514 47.775 23.2748 47.775H17.1498C16.4733 47.775 15.9248 47.2265 15.9248 46.55Z" fill="#000091"/>
<path fill-rule="evenodd" clip-rule="evenodd" d="M21.0396 35.0586C21.2972 34.433 22.0131 34.1347 22.6387 34.3923L24.7212 35.2498C25.3468 35.5074 25.6451 36.2233 25.3875 36.8489C25.1299 37.4745 24.414 37.7728 23.7884 37.5152L21.7059 36.6577C21.0803 36.4001 20.782 35.6842 21.0396 35.0586Z" fill="#000091"/>
<path fill-rule="evenodd" clip-rule="evenodd" d="M37.427 18.1368C38.0321 17.8343 38.7679 18.0796 39.0705 18.6847L40.2955 21.1347C40.598 21.7398 40.3528 22.4756 39.7476 22.7782C39.1425 23.0808 38.4067 22.8355 38.1041 22.2304L36.8791 19.7804C36.5766 19.1752 36.8218 18.4394 37.427 18.1368Z" fill="#000091"/>
<path fill-rule="evenodd" clip-rule="evenodd" d="M24.8586 21.4288C25.337 20.9504 26.1126 20.9504 26.591 21.4288L31.491 26.3288C31.9694 26.8072 31.9694 27.5828 31.491 28.0612C31.0126 28.5396 30.237 28.5396 29.7586 28.0612L24.8586 23.1612C24.3802 22.6828 24.3802 21.9072 24.8586 21.4288Z" fill="#000091"/>
<path fill-rule="evenodd" clip-rule="evenodd" d="M74.7248 46.55C74.7248 45.8735 75.2733 45.325 75.9498 45.325H82.0748C82.7514 45.325 83.2998 45.8735 83.2998 46.55C83.2998 47.2265 82.7514 47.775 82.0748 47.775H75.9498C75.2733 47.775 74.7248 47.2265 74.7248 46.55Z" fill="#000091"/>
<path fill-rule="evenodd" clip-rule="evenodd" d="M78.1851 35.0586C78.4426 35.6842 78.1443 36.4001 77.5187 36.6577L75.4362 37.5152C74.8106 37.7728 74.0947 37.4745 73.8371 36.8489C73.5795 36.2233 73.8778 35.5074 74.5034 35.2498L76.5859 34.3923C77.2115 34.1347 77.9275 34.433 78.1851 35.0586Z" fill="#000091"/>
<path fill-rule="evenodd" clip-rule="evenodd" d="M61.7976 18.1368C62.4028 18.4394 62.648 19.1752 62.3455 19.7804L61.1205 22.2304C60.8179 22.8355 60.0821 23.0808 59.477 22.7782C58.8718 22.4756 58.6266 21.7398 58.9291 21.1347L60.1541 18.6847C60.4567 18.0796 61.1925 17.8343 61.7976 18.1368Z" fill="#000091"/>
<path fill-rule="evenodd" clip-rule="evenodd" d="M74.366 21.4288C74.8444 21.9072 74.8444 22.6828 74.366 23.1612L69.466 28.0612C68.9876 28.5396 68.212 28.5396 67.7336 28.0612C67.2552 27.5828 67.2552 26.8072 67.7336 26.3288L72.6336 21.4288C73.112 20.9504 73.8876 20.9504 74.366 21.4288Z" fill="#000091"/>
<path fill-rule="evenodd" clip-rule="evenodd" d="M65.9135 59.7713C66.3919 60.2497 66.3919 61.0253 65.9135 61.5037C65.7696 61.6477 65.6227 61.7964 65.4725 61.9484C64.2889 63.1468 62.9046 64.5485 61.1851 65.4082C60.58 65.7107 59.8442 65.4655 59.5416 64.8603C59.2391 64.2552 59.4843 63.5194 60.0895 63.2168C61.4219 62.5506 62.5076 61.4565 63.7329 60.2218C63.8801 60.0735 64.0292 59.9232 64.1811 59.7713C64.6595 59.2929 65.4351 59.2929 65.9135 59.7713Z" fill="#000091"/>
<path fill-rule="evenodd" clip-rule="evenodd" d="M49.6123 25.725C38.4064 25.725 29.3998 34.7316 29.3998 45.9375C29.3998 53.2007 33.319 59.5583 39.1103 63.1489C39.6853 63.5054 39.8624 64.2605 39.5059 64.8355C39.1494 65.4105 38.3943 65.5876 37.8193 65.2311C31.3606 61.2267 26.9498 54.1093 26.9498 45.9375C26.9498 33.3785 37.0533 23.275 49.6123 23.275C62.1714 23.275 72.2748 33.3785 72.2748 45.9375C72.2748 49.692 71.3673 53.2003 69.6769 56.321C69.3547 56.9158 68.6112 57.1369 68.0164 56.8146C67.4215 56.4924 67.2004 55.7489 67.5227 55.1541C69.0173 52.3947 69.8248 49.288 69.8248 45.9375C69.8248 34.7316 60.8183 25.725 49.6123 25.725Z" fill="#000091"/>
<path fill-rule="evenodd" clip-rule="evenodd" d="M37.6264 63.5527C38.0461 63.022 38.8164 62.932 39.3471 63.3516C39.8256 63.7299 40.1661 64.262 40.415 64.7863C40.671 65.3255 40.8725 65.9476 41.0287 66.5996C41.3412 67.904 41.4992 69.4413 41.4992 70.9275H39.0492C39.0492 69.5962 38.9059 68.2548 38.6461 67.1704C38.5162 66.6281 38.3637 66.1782 38.2017 65.837C38.0326 65.4808 37.8913 65.3238 37.8275 65.2734C37.2968 64.8538 37.2068 64.0834 37.6264 63.5527ZM60.1754 70.9275V76.44C60.1754 77.2431 59.8577 78.4061 59.2807 79.3777C58.7095 80.3395 57.6618 81.4625 56.0586 81.4625H43.166C41.5629 81.4625 40.5151 80.3395 39.9439 79.3777C39.3669 78.4061 39.0492 77.2431 39.0492 76.44V70.9275H41.4992V76.44C41.4992 76.7394 41.6635 77.4751 42.0504 78.1267C42.4432 78.788 42.8413 79.0125 43.166 79.0125H56.0586C56.3834 79.0125 56.7815 78.788 57.1742 78.1267C57.5611 77.4751 57.7254 76.7394 57.7254 76.44V70.928L60.1754 70.9275ZM60.1754 70.9275C60.1754 69.5963 60.3187 68.2548 60.5785 67.1704C60.7084 66.6281 60.8609 66.1782 61.0229 65.837C61.192 65.4808 61.3333 65.3238 61.3971 65.2734C61.9278 64.8538 62.0178 64.0834 61.5982 63.5527C61.1786 63.022 60.4082 62.932 59.8775 63.3516C59.399 63.7299 59.0585 64.262 58.8096 64.7863C58.5536 65.3255 58.3521 65.9476 58.1959 66.5996C57.8834 67.904 57.7254 69.4417 57.7254 70.928L60.1754 70.9275Z" fill="#000091"/>
</svg>
