<svg width="86" height="86" viewBox="0 0 86 86" fill="none" xmlns="http://www.w3.org/2000/svg">
<path fill-rule="evenodd" clip-rule="evenodd" d="M8.5999 18.275C8.00715 18.275 7.5249 17.7928 7.5249 17.2C7.5249 16.6072 8.00715 16.125 8.5999 16.125C9.19266 16.125 9.6749 16.6072 9.6749 17.2C9.6749 17.7928 9.19266 18.275 8.5999 18.275Z" fill="#ECECFE"/>
<path fill-rule="evenodd" clip-rule="evenodd" d="M69.8748 77.4C69.282 77.4 68.7998 76.9178 68.7998 76.325C68.7998 75.7322 69.282 75.25 69.8748 75.25C70.4676 75.25 70.9498 75.7322 70.9498 76.325C70.9498 76.9178 70.4676 77.4 69.8748 77.4Z" fill="#ECECFE"/>
<path fill-rule="evenodd" clip-rule="evenodd" d="M70.95 11.8258C70.3572 11.8258 69.875 11.3435 69.875 10.7508C69.875 10.158 70.3572 9.67578 70.95 9.67578C71.5428 9.67578 72.025 10.158 72.025 10.7508C72.025 11.3435 71.5428 11.8258 70.95 11.8258Z" fill="#ECECFE"/>
<path fill-rule="evenodd" clip-rule="evenodd" d="M22.575 82.775C21.9822 82.775 21.5 82.2928 21.5 81.7C21.5 81.1072 21.9822 80.625 22.575 80.625C23.1678 80.625 23.65 81.1072 23.65 81.7C23.65 82.2928 23.1678 82.775 22.575 82.775Z" fill="#ECECFE"/>
<path d="M45.1501 27.9508C45.1501 26.7634 44.1875 25.8008 43.0001 25.8008C41.8127 25.8008 40.8501 26.7634 40.8501 27.9508C40.8501 29.1382 41.8127 30.1008 43.0001 30.1008C44.1875 30.1008 45.1501 29.1382 45.1501 27.9508Z" fill="#E1000F"/>
<path d="M45.1501 36.5508C45.1501 35.3634 44.1875 34.4008 43.0001 34.4008C41.8127 34.4008 40.8501 35.3634 40.8501 36.5508V53.7508C40.8501 54.9382 41.8127 55.9008 43.0001 55.9008C44.1875 55.9008 45.1501 54.9382 45.1501 53.7508V36.5508Z" fill="#E1000F"/>
<path fill-rule="evenodd" clip-rule="evenodd" d="M63.4249 12.9004C68.8595 12.9004 72.9612 18.0903 73.0965 24.4034L73.0999 24.7254V52.6754C73.0999 59.0254 69.0887 64.3212 63.7001 64.4959L63.4249 64.5004H50.7689L50.6861 64.5769C50.6193 64.6398 50.5451 64.7146 50.4637 64.801L50.198 65.0946L49.8006 65.5645L49.2389 66.2652L48.3552 67.4183L46.6456 69.6842L46.001 70.5269L45.4563 71.221L45.1045 71.6525L44.8935 71.901L44.6992 72.1202L44.5198 72.3119L44.3534 72.4778L44.1981 72.6196L44.0522 72.7391C44.0286 72.7572 44.0052 72.7745 43.9822 72.791L43.8468 72.8803C43.8026 72.9069 43.7591 72.9306 43.7161 72.9516L43.5884 73.0066C43.5461 73.0225 43.5039 73.0359 43.4617 73.0472L43.3342 73.0751L43.2041 73.0919L43.0695 73.0995L42.9303 73.0995L42.7958 73.0921L42.6658 73.0755C42.6231 73.0683 42.5808 73.0592 42.5386 73.0481L42.4123 73.008L42.285 72.9534C42.2208 72.9222 42.1555 72.8849 42.0881 72.8406L41.9501 72.7422L41.8047 72.6232C41.7797 72.6015 41.7543 72.579 41.7286 72.5554L41.5684 72.4021L41.396 72.2238L41.2096 72.0187L41.0074 71.7849L40.5478 71.2246L40.1475 70.7162L39.1769 69.4468L37.2799 66.9332L36.737 66.2297L36.4641 65.8855L36.1135 65.4565L35.9544 65.2673L35.6675 64.9398C35.5788 64.842 35.4973 64.7556 35.4231 64.681L35.232 64.5004H22.5749C17.1403 64.5004 13.0386 59.3105 12.9033 52.9973L12.8999 52.6754V33.3254C12.8999 32.7317 13.3812 32.2504 13.9749 32.2504C14.5262 32.2504 14.9806 32.6654 15.0427 33.2L15.0499 33.3254V52.6754C15.0499 57.9496 18.2523 62.1907 22.3425 62.346L22.5749 62.3504L35.5407 62.351L35.6673 62.3565L35.7887 62.3692L35.9068 62.3907L36.0233 62.4229L36.14 62.4675L36.2586 62.5262L36.3811 62.6008L36.509 62.6929L36.6442 62.8044L36.7886 62.9369L36.9438 63.0923L37.1117 63.2721L37.2939 63.4783L37.5983 63.8406L38.0712 64.4318L39.1232 65.803L41.1289 68.4597L41.8538 69.3929L42.2526 69.8845L42.3489 70.0001C42.5672 70.261 42.7589 70.4779 42.922 70.6489L42.9999 70.7279L43.0778 70.6495C43.1593 70.5642 43.248 70.4674 43.3435 70.3594L43.6505 70.002L43.9427 69.6479L44.3665 69.1158L45.1736 68.0654L47.3759 65.1517L48.0661 64.2623L48.5188 63.7029L48.8098 63.3628L48.984 63.1706L49.1446 63.0039C49.1704 62.9782 49.1956 62.9534 49.2204 62.9296L49.3639 62.7979L49.4982 62.6874C49.5199 62.6706 49.5413 62.6546 49.5625 62.6395L49.6864 62.5573C49.7067 62.545 49.7267 62.5334 49.7466 62.5225L49.8642 62.4647L49.9799 62.421C49.9991 62.4147 50.0184 62.409 50.0376 62.4038L50.1538 62.3778C50.1733 62.3743 50.1929 62.3712 50.2127 62.3685L50.3334 62.3562L50.4594 62.351L63.4249 62.3504C67.5477 62.3504 70.8265 58.2069 70.9465 52.9728L70.9499 52.6754V24.7254C70.9499 19.4512 67.7475 15.2101 63.6574 15.0548L63.4249 15.0504H22.5749C18.3743 15.0504 15.0499 19.3517 15.0499 24.7254C15.0499 25.3191 14.5686 25.8004 13.9749 25.8004C13.3812 25.8004 12.8999 25.3191 12.8999 24.7254C12.8999 18.3754 16.9111 13.0796 22.2997 12.9048L22.5749 12.9004H63.4249ZM66.6499 67.7254C66.6499 67.1317 67.1312 66.6504 67.7249 66.6504C68.3186 66.6504 68.7999 67.1317 68.7999 67.7254C68.7999 68.3191 68.3186 68.8004 67.7249 68.8004C67.1312 68.8004 66.6499 68.3191 66.6499 67.7254ZM64.4999 67.7254C64.4999 67.1317 64.0186 66.6504 63.4249 66.6504H52.6749L52.5495 66.6576C52.0149 66.7197 51.5999 67.1741 51.5999 67.7254C51.5999 68.3191 52.0812 68.8004 52.6749 68.8004H63.4249L63.5503 68.7932C64.0849 68.7311 64.4999 68.2767 64.4999 67.7254Z" fill="#000091"/>
</svg>
