<svg width="284" height="44" viewBox="0 0 284 44" fill="none" xmlns="http://www.w3.org/2000/svg">
<path d="M3.944 31.29C3.17067 31.29 2.54233 30.9613 2.059 30.304C1.595 29.6273 1.363 28.622 1.363 27.288C1.363 26.0893 1.54667 24.9197 1.914 23.779C2.30067 22.6383 2.82267 21.604 3.48 20.676C4.15667 19.748 4.93 19.0133 5.8 18.472C6.67 17.9307 7.598 17.66 8.584 17.66C9.06733 17.66 9.53133 17.718 9.976 17.834C10.4207 17.95 10.817 18.1047 11.165 18.298L12.18 17.66H12.905L11.136 27.549C11.0393 28.129 11.02 28.5447 11.078 28.796C11.1553 29.0473 11.3197 29.173 11.571 29.173C11.8997 29.173 12.2573 28.999 12.644 28.651C13.0307 28.2837 13.398 27.7327 13.746 26.998L14.123 27.172C13.5623 28.622 12.9533 29.6757 12.296 30.333C11.658 30.971 11.0007 31.29 10.324 31.29C9.64733 31.29 9.18333 31.029 8.932 30.507C8.68067 29.985 8.63233 29.289 8.787 28.419L8.932 27.665H8.816C8.08133 28.7863 7.308 29.6757 6.496 30.333C5.684 30.971 4.83333 31.29 3.944 31.29ZM3.567 26.157C3.567 27.2397 3.683 28.0517 3.915 28.593C4.16633 29.115 4.63033 29.376 5.307 29.376C5.771 29.376 6.235 29.2213 6.699 28.912C7.163 28.6027 7.60767 28.2063 8.033 27.723C8.45833 27.2397 8.83533 26.7467 9.164 26.244L10.237 20.27C9.86967 19.7867 9.49267 19.4193 9.106 19.168C8.73867 18.9167 8.28433 18.791 7.743 18.791C6.91167 18.791 6.177 19.1487 5.539 19.864C4.92033 20.5793 4.437 21.4977 4.089 22.619C3.741 23.7403 3.567 24.9197 3.567 26.157ZM19.577 31.29C18.185 31.29 17.1217 30.8743 16.387 30.043C15.6524 29.1923 15.285 27.9647 15.285 26.36C15.285 25.3547 15.4784 24.3493 15.865 23.344C16.271 22.3193 16.8124 21.3817 17.489 20.531C18.185 19.661 18.9584 18.965 19.809 18.443C20.679 17.921 21.5684 17.66 22.477 17.66C23.1924 17.66 23.7724 17.7953 24.217 18.066C24.6617 18.3173 25.0194 18.6557 25.29 19.081C25.406 19.255 25.4834 19.4 25.522 19.516C25.5607 19.632 25.58 19.7577 25.58 19.893C25.58 20.0283 25.5414 20.1637 25.464 20.299C25.406 20.4343 25.2997 20.5503 25.145 20.647L24.304 21.14H24.101L23.521 20.299C23.2117 19.835 22.8927 19.4967 22.564 19.284C22.2547 19.052 21.8004 18.936 21.201 18.936C20.563 18.936 19.954 19.2453 19.374 19.864C18.8134 20.4827 18.3494 21.2753 17.982 22.242C17.634 23.1893 17.46 24.185 17.46 25.229C17.46 26.6017 17.692 27.6553 18.156 28.39C18.6394 29.1247 19.4127 29.492 20.476 29.492C20.8047 29.492 21.172 29.434 21.578 29.318C21.984 29.1827 22.4287 28.9217 22.912 28.535C23.3954 28.129 23.927 27.52 24.507 26.708H24.565L24.855 26.94C24.0237 28.4093 23.1827 29.5017 22.332 30.217C21.4814 30.9323 20.563 31.29 19.577 31.29ZM31.373 31.29C29.981 31.29 28.9177 30.8743 28.183 30.043C27.4483 29.1923 27.081 27.9647 27.081 26.36C27.081 25.3547 27.2743 24.3493 27.661 23.344C28.067 22.3193 28.6083 21.3817 29.285 20.531C29.981 19.661 30.7543 18.965 31.605 18.443C32.475 17.921 33.3643 17.66 34.273 17.66C34.9883 17.66 35.5683 17.7953 36.013 18.066C36.4577 18.3173 36.8153 18.6557 37.086 19.081C37.202 19.255 37.2793 19.4 37.318 19.516C37.3567 19.632 37.376 19.7577 37.376 19.893C37.376 20.0283 37.3373 20.1637 37.26 20.299C37.202 20.4343 37.0957 20.5503 36.941 20.647L36.1 21.14H35.897L35.317 20.299C35.0077 19.835 34.6887 19.4967 34.36 19.284C34.0507 19.052 33.5963 18.936 32.997 18.936C32.359 18.936 31.75 19.2453 31.17 19.864C30.6093 20.4827 30.1453 21.2753 29.778 22.242C29.43 23.1893 29.256 24.185 29.256 25.229C29.256 26.6017 29.488 27.6553 29.952 28.39C30.4353 29.1247 31.2087 29.492 32.272 29.492C32.6007 29.492 32.968 29.434 33.374 29.318C33.78 29.1827 34.2247 28.9217 34.708 28.535C35.1913 28.129 35.723 27.52 36.303 26.708H36.361L36.651 26.94C35.8197 28.4093 34.9787 29.5017 34.128 30.217C33.2773 30.9323 32.359 31.29 31.373 31.29ZM43.198 31.29C41.7093 31.29 40.617 30.884 39.921 30.072C39.225 29.2407 38.877 28.1193 38.877 26.708C38.877 25.5673 39.0607 24.4653 39.428 23.402C39.8147 22.3193 40.3367 21.3527 40.994 20.502C41.6707 19.632 42.444 18.9457 43.314 18.443C44.2033 17.921 45.1603 17.66 46.185 17.66C47.1517 17.66 47.8767 17.8823 48.36 18.327C48.8627 18.7717 49.114 19.2937 49.114 19.893C49.114 20.5503 48.882 21.1593 48.418 21.72C47.954 22.2613 47.142 22.764 45.982 23.228C44.8413 23.6727 43.227 24.069 41.139 24.417C41.1003 24.8037 41.081 25.2097 41.081 25.635C41.081 26.8143 41.3323 27.752 41.835 28.448C42.3377 29.144 43.1303 29.492 44.213 29.492C44.851 29.492 45.4793 29.318 46.098 28.97C46.7167 28.622 47.3547 28.0517 48.012 27.259H48.07L48.36 27.491C47.7027 28.6317 46.91 29.55 45.982 30.246C45.0733 30.942 44.1453 31.29 43.198 31.29ZM45.402 18.675C44.358 18.675 43.4687 19.11 42.734 19.98C42.0187 20.8307 41.5353 21.9617 41.284 23.373C42.734 23.1217 43.865 22.851 44.677 22.561C45.489 22.271 46.0593 21.9327 46.388 21.546C46.7167 21.14 46.881 20.6373 46.881 20.038C46.881 19.6513 46.7553 19.3323 46.504 19.081C46.2527 18.8103 45.8853 18.675 45.402 18.675ZM53.7934 31.29C52.8074 31.29 52.0051 31.1547 51.3864 30.884C50.7677 30.594 50.3231 30.2363 50.0524 29.811C49.9364 29.637 49.8591 29.492 49.8204 29.376C49.7817 29.26 49.7624 29.1343 49.7624 28.999C49.7624 28.883 49.7817 28.767 49.8204 28.651C49.8591 28.5157 49.9557 28.4093 50.1104 28.332L50.7484 27.984H50.9514L51.4444 28.825C51.7344 29.3083 52.1211 29.6757 52.6044 29.927C53.0877 30.159 53.5711 30.275 54.0544 30.275C54.7891 30.275 55.3884 30.0817 55.8524 29.695C56.3357 29.3083 56.5774 28.7477 56.5774 28.013C56.5774 27.259 56.3261 26.679 55.8234 26.273C55.3401 25.867 54.7891 25.4803 54.1704 25.113C53.4357 24.6683 52.8847 24.2623 52.5174 23.895C52.1501 23.5277 51.8987 23.1507 51.7634 22.764C51.6281 22.3773 51.5604 21.9133 51.5604 21.372C51.5604 20.8113 51.7731 20.2507 52.1984 19.69C52.6237 19.11 53.1844 18.6267 53.8804 18.24C54.5764 17.8533 55.3111 17.66 56.0844 17.66C56.9351 17.66 57.6021 17.7953 58.0854 18.066C58.5687 18.3173 58.9457 18.646 59.2164 19.052C59.3904 19.3227 59.4774 19.574 59.4774 19.806C59.4774 19.9413 59.4387 20.0767 59.3614 20.212C59.3034 20.3473 59.2067 20.4537 59.0714 20.531L58.5204 20.821H58.3174L57.6794 19.922C57.4087 19.5353 57.0994 19.2453 56.7514 19.052C56.4227 18.8393 56.0071 18.733 55.5044 18.733C54.9437 18.733 54.4604 18.907 54.0544 19.255C53.6677 19.5837 53.4744 20.0187 53.4744 20.56C53.4744 21.1787 53.6581 21.691 54.0254 22.097C54.4121 22.503 54.8567 22.851 55.3594 23.141C56.0554 23.547 56.6257 23.9337 57.0704 24.301C57.5344 24.6683 57.8824 25.084 58.1144 25.548C58.3464 26.012 58.4624 26.6017 58.4624 27.317C58.4624 27.9937 58.2594 28.6413 57.8534 29.26C57.4474 29.8593 56.8867 30.3523 56.1714 30.739C55.4754 31.1063 54.6827 31.29 53.7934 31.29ZM63.437 31.29C62.451 31.29 61.6487 31.1547 61.03 30.884C60.4114 30.594 59.9667 30.2363 59.696 29.811C59.58 29.637 59.5027 29.492 59.464 29.376C59.4254 29.26 59.406 29.1343 59.406 28.999C59.406 28.883 59.4254 28.767 59.464 28.651C59.5027 28.5157 59.5994 28.4093 59.754 28.332L60.392 27.984H60.595L61.088 28.825C61.378 29.3083 61.7647 29.6757 62.248 29.927C62.7314 30.159 63.2147 30.275 63.698 30.275C64.4327 30.275 65.032 30.0817 65.496 29.695C65.9794 29.3083 66.221 28.7477 66.221 28.013C66.221 27.259 65.9697 26.679 65.467 26.273C64.9837 25.867 64.4327 25.4803 63.814 25.113C63.0794 24.6683 62.5284 24.2623 62.161 23.895C61.7937 23.5277 61.5424 23.1507 61.407 22.764C61.2717 22.3773 61.204 21.9133 61.204 21.372C61.204 20.8113 61.4167 20.2507 61.842 19.69C62.2674 19.11 62.828 18.6267 63.524 18.24C64.22 17.8533 64.9547 17.66 65.728 17.66C66.5787 17.66 67.2457 17.7953 67.729 18.066C68.2124 18.3173 68.5894 18.646 68.86 19.052C69.034 19.3227 69.121 19.574 69.121 19.806C69.121 19.9413 69.0824 20.0767 69.005 20.212C68.947 20.3473 68.8504 20.4537 68.715 20.531L68.164 20.821H67.961L67.323 19.922C67.0524 19.5353 66.743 19.2453 66.395 19.052C66.0664 18.8393 65.6507 18.733 65.148 18.733C64.5874 18.733 64.104 18.907 63.698 19.255C63.3114 19.5837 63.118 20.0187 63.118 20.56C63.118 21.1787 63.3017 21.691 63.669 22.097C64.0557 22.503 64.5004 22.851 65.003 23.141C65.699 23.547 66.2694 23.9337 66.714 24.301C67.178 24.6683 67.526 25.084 67.758 25.548C67.99 26.012 68.106 26.6017 68.106 27.317C68.106 27.9937 67.903 28.6413 67.497 29.26C67.091 29.8593 66.5304 30.3523 65.815 30.739C65.119 31.1063 64.3264 31.29 63.437 31.29ZM74.6757 14.035C74.231 14.035 73.8443 13.8707 73.5157 13.542C73.187 13.2133 73.0227 12.8267 73.0227 12.382C73.0227 11.9373 73.187 11.5507 73.5157 11.222C73.8443 10.8933 74.231 10.729 74.6757 10.729C75.1203 10.729 75.507 10.8933 75.8357 11.222C76.1643 11.5507 76.3287 11.9373 76.3287 12.382C76.3287 12.8267 76.1643 13.2133 75.8357 13.542C75.507 13.8707 75.1203 14.035 74.6757 14.035ZM72.6167 31.29C71.94 31.29 71.476 31.029 71.2247 30.507C70.9733 29.985 70.925 29.289 71.0797 28.419L72.6167 19.69L70.0937 18.704V18.53L75.1107 17.66H75.1977L73.4287 27.549C73.332 28.129 73.3127 28.5447 73.3707 28.796C73.4287 29.0473 73.593 29.173 73.8637 29.173C74.1923 29.173 74.55 28.999 74.9367 28.651C75.3233 28.2837 75.6907 27.7327 76.0387 26.998L76.4157 27.172C75.855 28.622 75.246 29.6757 74.5887 30.333C73.9507 30.971 73.2933 31.29 72.6167 31.29ZM82.3922 31.29C81.8895 31.29 81.4062 31.2223 80.9422 31.087C80.4782 30.971 80.0722 30.8067 79.7242 30.594L78.2452 31.29H78.0712L81.5512 11.28L79.3182 10.294V10.12L84.0452 9.25H84.1322L82.0442 21.285H82.1892C82.5952 20.6857 83.0398 20.1153 83.5232 19.574C84.0065 19.0133 84.5382 18.559 85.1182 18.211C85.6982 17.8437 86.3362 17.66 87.0322 17.66C87.8055 17.66 88.4242 17.9983 88.8882 18.675C89.3715 19.3323 89.6132 20.328 89.6132 21.662C89.6132 22.8607 89.4198 24.0303 89.0332 25.171C88.6658 26.3117 88.1438 27.346 87.4672 28.274C86.8098 29.202 86.0462 29.9367 85.1762 30.478C84.3062 31.0193 83.3782 31.29 82.3922 31.29ZM85.6692 19.574C85.1278 19.574 84.5092 19.864 83.8132 20.444C83.1172 21.0047 82.4405 21.778 81.7832 22.764L80.7682 28.622C81.1935 29.1827 81.5898 29.579 81.9572 29.811C82.3245 30.043 82.7498 30.159 83.2332 30.159C83.9872 30.159 84.6832 29.84 85.3212 29.202C85.9592 28.5447 86.4618 27.665 86.8292 26.563C87.2158 25.4417 87.4092 24.185 87.4092 22.793C87.4092 21.6137 87.2738 20.7823 87.0032 20.299C86.7518 19.8157 86.3072 19.574 85.6692 19.574ZM96.1719 14.035C95.7273 14.035 95.3406 13.8707 95.0119 13.542C94.6833 13.2133 94.5189 12.8267 94.5189 12.382C94.5189 11.9373 94.6833 11.5507 95.0119 11.222C95.3406 10.8933 95.7273 10.729 96.1719 10.729C96.6166 10.729 97.0033 10.8933 97.3319 11.222C97.6606 11.5507 97.8249 11.9373 97.8249 12.382C97.8249 12.8267 97.6606 13.2133 97.3319 13.542C97.0033 13.8707 96.6166 14.035 96.1719 14.035ZM94.1129 31.29C93.4363 31.29 92.9723 31.029 92.7209 30.507C92.4696 29.985 92.4213 29.289 92.5759 28.419L94.1129 19.69L91.5899 18.704V18.53L96.6069 17.66H96.6939L94.9249 27.549C94.8283 28.129 94.8089 28.5447 94.8669 28.796C94.9249 29.0473 95.0893 29.173 95.3599 29.173C95.6886 29.173 96.0463 28.999 96.4329 28.651C96.8196 28.2837 97.1869 27.7327 97.5349 26.998L97.9119 27.172C97.3513 28.622 96.7423 29.6757 96.0849 30.333C95.4469 30.971 94.7896 31.29 94.1129 31.29ZM101.191 31.29C100.515 31.29 100.051 31.029 99.7994 30.507C99.5481 29.985 99.4998 29.289 99.6544 28.419L102.641 11.28L100.118 10.294V10.12L105.135 9.25H105.222L102.003 27.549C101.907 28.129 101.887 28.5447 101.945 28.796C102.003 29.0473 102.168 29.173 102.438 29.173C102.767 29.173 103.125 28.999 103.511 28.651C103.898 28.2837 104.265 27.7327 104.613 26.998L104.99 27.172C104.43 28.622 103.821 29.6757 103.163 30.333C102.525 30.971 101.868 31.29 101.191 31.29ZM110.843 14.035C110.398 14.035 110.012 13.8707 109.683 13.542C109.354 13.2133 109.19 12.8267 109.19 12.382C109.19 11.9373 109.354 11.5507 109.683 11.222C110.012 10.8933 110.398 10.729 110.843 10.729C111.288 10.729 111.674 10.8933 112.003 11.222C112.332 11.5507 112.496 11.9373 112.496 12.382C112.496 12.8267 112.332 13.2133 112.003 13.542C111.674 13.8707 111.288 14.035 110.843 14.035ZM108.784 31.29C108.107 31.29 107.643 31.029 107.392 30.507C107.141 29.985 107.092 29.289 107.247 28.419L108.784 19.69L106.261 18.704V18.53L111.278 17.66H111.365L109.596 27.549C109.499 28.129 109.48 28.5447 109.538 28.796C109.596 29.0473 109.76 29.173 110.031 29.173C110.36 29.173 110.717 28.999 111.104 28.651C111.491 28.2837 111.858 27.7327 112.206 26.998L112.583 27.172C112.022 28.622 111.413 29.6757 110.756 30.333C110.118 30.971 109.461 31.29 108.784 31.29ZM116.732 31.29C116.094 31.29 115.611 31.087 115.282 30.681C114.954 30.275 114.789 29.7047 114.789 28.97C114.789 28.8153 114.799 28.6413 114.818 28.448C114.838 28.2547 114.867 28.0613 114.905 27.868L116.442 19.226H114.296V19.052L116.761 17.95L119.255 14.76H119.429L118.878 17.95H122.503V19.226H118.646L117.341 26.592C117.303 26.8433 117.274 27.0753 117.254 27.288C117.235 27.4813 117.225 27.6553 117.225 27.81C117.225 28.274 117.303 28.6027 117.457 28.796C117.612 28.9893 117.815 29.086 118.066 29.086C118.511 29.086 118.985 28.8347 119.487 28.332C120.009 27.8293 120.483 27.1043 120.908 26.157L121.285 26.331C120.647 28.1677 119.932 29.4533 119.139 30.188C118.366 30.9227 117.564 31.29 116.732 31.29ZM127.244 31.29C125.755 31.29 124.663 30.884 123.967 30.072C123.271 29.2407 122.923 28.1193 122.923 26.708C122.923 25.5673 123.106 24.4653 123.474 23.402C123.86 22.3193 124.382 21.3527 125.04 20.502C125.716 19.632 126.49 18.9457 127.36 18.443C128.249 17.921 129.206 17.66 130.231 17.66C131.197 17.66 131.922 17.8823 132.406 18.327C132.908 18.7717 133.16 19.2937 133.16 19.893C133.16 20.5503 132.928 21.1593 132.464 21.72C132 22.2613 131.188 22.764 130.028 23.228C128.887 23.6727 127.273 24.069 125.185 24.417C125.146 24.8037 125.127 25.2097 125.127 25.635C125.127 26.8143 125.378 27.752 125.881 28.448C126.383 29.144 127.176 29.492 128.259 29.492C128.897 29.492 129.525 29.318 130.144 28.97C130.762 28.622 131.4 28.0517 132.058 27.259H132.116L132.406 27.491C131.748 28.6317 130.956 29.55 130.028 30.246C129.119 30.942 128.191 31.29 127.244 31.29ZM129.448 18.675C128.404 18.675 127.514 19.11 126.78 19.98C126.064 20.8307 125.581 21.9617 125.33 23.373C126.78 23.1217 127.911 22.851 128.723 22.561C129.535 22.271 130.105 21.9327 130.434 21.546C130.762 21.14 130.927 20.6373 130.927 20.038C130.927 19.6513 130.801 19.3323 130.55 19.081C130.298 18.8103 129.931 18.675 129.448 18.675Z" fill="#161616"/>
<path d="M136.776 31.515C136.296 31.515 135.88 31.339 135.528 30.987C135.176 30.635 135 30.219 135 29.739C135 29.243 135.176 28.819 135.528 28.467C135.88 28.115 136.296 27.939 136.776 27.939C137.256 27.939 137.672 28.115 138.024 28.467C138.376 28.819 138.552 29.243 138.552 29.739C138.552 30.219 138.376 30.635 138.024 30.987C137.672 31.339 137.256 31.515 136.776 31.515Z" fill="#161616"/>
<path d="M154.454 13.659V31.395H151.526V29.667C150.23 31.107 148.934 31.707 147.134 31.707C143.342 31.707 140.462 28.683 140.462 24.723C140.462 20.739 143.39 17.619 147.134 17.619C148.79 17.619 150.326 18.243 151.262 19.275V13.659H154.454ZM147.566 20.547C145.382 20.547 143.678 22.299 143.678 24.579C143.678 26.955 145.406 28.779 147.638 28.779C149.798 28.779 151.502 26.979 151.502 24.675C151.502 22.323 149.798 20.547 147.566 20.547Z" fill="#161616"/>
<path d="M170.293 18.099V31.395H167.365V29.667C166.093 31.131 164.821 31.707 162.949 31.707C159.061 31.707 156.253 28.803 156.253 24.795C156.253 20.739 159.085 17.787 163.021 17.787C164.941 17.787 166.261 18.411 167.365 19.875V18.099H170.293ZM163.357 20.715C161.077 20.715 159.469 22.443 159.469 24.867C159.469 27.195 161.077 28.779 163.405 28.779C164.629 28.779 165.661 28.371 166.309 27.579C166.885 26.907 167.269 25.803 167.269 24.843C167.269 22.419 165.637 20.715 163.357 20.715Z" fill="#161616"/>
<path d="M173.311 31.395V21.003H171.751V18.099H173.311V13.659H176.503V18.099H178.423V21.003H176.503V31.395H173.311Z" fill="#161616"/>
<path d="M193.063 18.099V31.395H190.135V29.667C188.863 31.131 187.591 31.707 185.719 31.707C181.831 31.707 179.023 28.803 179.023 24.795C179.023 20.739 181.855 17.787 185.791 17.787C187.711 17.787 189.031 18.411 190.135 19.875V18.099H193.063ZM186.127 20.715C183.847 20.715 182.239 22.443 182.239 24.867C182.239 27.195 183.847 28.779 186.175 28.779C187.399 28.779 188.431 28.371 189.079 27.579C189.655 26.907 190.039 25.803 190.039 24.843C190.039 22.419 188.407 20.715 186.127 20.715Z" fill="#161616"/>
<path d="M197.123 31.515C196.643 31.515 196.227 31.339 195.875 30.987C195.523 30.635 195.347 30.219 195.347 29.739C195.347 29.243 195.523 28.819 195.875 28.467C196.227 28.115 196.643 27.939 197.123 27.939C197.603 27.939 198.019 28.115 198.371 28.467C198.723 28.819 198.899 29.243 198.899 29.739C198.899 30.219 198.723 30.635 198.371 30.987C198.019 31.339 197.603 31.515 197.123 31.515Z" fill="#161616"/>
<path d="M211.705 18.099H214.753V28.875C214.753 31.419 214.345 33.051 213.409 34.275C212.161 35.859 210.265 36.699 207.865 36.699C204.601 36.699 202.105 35.139 201.025 32.475H204.649C205.585 33.507 206.497 33.891 207.985 33.891C210.361 33.891 211.585 32.499 211.705 29.643C210.457 31.107 209.209 31.707 207.337 31.707C203.545 31.707 200.809 28.755 200.809 24.651C200.809 20.715 203.593 17.787 207.361 17.787C209.281 17.787 210.697 18.435 211.705 19.779V18.099ZM207.721 20.715C205.489 20.715 204.025 22.347 204.025 24.795C204.025 27.219 205.489 28.779 207.769 28.779C210.073 28.779 211.561 27.195 211.561 24.795C211.561 22.347 210.001 20.715 207.721 20.715Z" fill="#161616"/>
<path d="M223.562 17.787C227.57 17.787 230.666 20.883 230.666 24.843C230.666 28.587 227.45 31.707 223.586 31.707C219.698 31.707 216.53 28.587 216.53 24.747C216.53 20.931 219.698 17.787 223.562 17.787ZM223.586 20.715C221.474 20.715 219.746 22.515 219.746 24.699C219.746 26.979 221.45 28.779 223.61 28.779C225.722 28.779 227.45 26.979 227.45 24.747C227.45 22.515 225.722 20.715 223.586 20.715Z" fill="#161616"/>
<path d="M244.049 18.099V31.395H241.097V30.123C239.873 31.299 238.889 31.707 237.281 31.707C235.529 31.707 234.113 31.011 233.225 29.739C232.481 28.659 232.217 27.483 232.217 25.227V18.099H235.409V24.603C235.409 26.403 235.601 27.363 236.057 27.939C236.489 28.515 237.113 28.779 237.929 28.779C239.009 28.779 239.897 28.347 240.353 27.555C240.737 26.979 240.857 26.139 240.857 24.363V18.099H244.049Z" fill="#161616"/>
<path d="M250.378 31.395L245.026 18.099H248.578L251.65 26.907L254.674 18.099H258.274L252.922 31.395H250.378Z" fill="#161616"/>
<path d="M261.776 31.515C261.296 31.515 260.88 31.339 260.528 30.987C260.176 30.635 260 30.219 260 29.739C260 29.243 260.176 28.819 260.528 28.467C260.88 28.115 261.296 27.939 261.776 27.939C262.256 27.939 262.672 28.115 263.024 28.467C263.376 28.819 263.552 29.243 263.552 29.739C263.552 30.219 263.376 30.635 263.024 30.987C262.672 31.339 262.256 31.515 261.776 31.515Z" fill="#161616"/>
<path d="M262.269 38.355C261.824 38.355 261.476 38.2487 261.225 38.036C260.974 37.8427 260.848 37.6204 260.848 37.369C260.848 37.195 260.906 36.992 261.022 36.76L261.428 35.89H261.602L262.153 36.209C262.443 36.383 262.839 36.47 263.342 36.47C264.212 36.47 264.889 36.0447 265.372 35.194C265.875 34.3434 266.232 33.2414 266.445 31.888L268.243 19.621H265.952V18.345H268.417L268.591 17.185C268.649 16.7984 268.823 16.2957 269.113 15.677C269.403 15.0584 269.79 14.4107 270.273 13.734C270.756 13.038 271.307 12.3807 271.926 11.762C272.564 11.1434 273.241 10.6407 273.956 10.254C274.691 9.84802 275.445 9.64502 276.218 9.64502C276.392 9.64502 276.576 9.67402 276.769 9.73202C276.962 9.77069 277.117 9.81902 277.233 9.87702C277.484 10.0124 277.658 10.138 277.755 10.254C277.852 10.3507 277.9 10.4667 277.9 10.602C277.9 10.6794 277.871 10.7857 277.813 10.921C277.774 11.037 277.726 11.1434 277.668 11.24L277.204 12.11H277.001L276.334 11.791C275.851 11.5784 275.271 11.472 274.594 11.472C273.589 11.472 272.786 11.8974 272.187 12.748C271.588 13.5987 271.191 14.691 270.998 16.025L270.65 18.345H273.927V19.621H270.476L268.823 30.786C268.765 31.1534 268.61 31.6464 268.359 32.265C268.108 32.903 267.769 33.57 267.344 34.266C266.938 34.962 266.464 35.6194 265.923 36.238C265.401 36.8567 264.831 37.3594 264.212 37.746C263.593 38.152 262.946 38.355 262.269 38.355Z" fill="#161616"/>
<path d="M274.43 31.395L276.431 20.114L274.169 19.099V18.925L278.258 18.055H278.345V21.622H278.461C279.079 20.4814 279.601 19.6694 280.027 19.186C280.471 18.6834 280.858 18.374 281.187 18.258C281.535 18.1227 281.844 18.055 282.115 18.055C282.463 18.055 282.782 18.171 283.072 18.403C283.362 18.6157 283.507 18.867 283.507 19.157C283.507 19.2537 283.478 19.36 283.42 19.476L282.695 20.955H282.521L282.202 20.723C282.047 20.607 281.873 20.5297 281.68 20.491C281.506 20.433 281.332 20.404 281.158 20.404C280.81 20.404 280.491 20.4814 280.201 20.636C279.93 20.7714 279.621 21.071 279.273 21.535C278.944 21.9797 278.519 22.6564 277.997 23.565L276.634 31.395H274.43Z" fill="#161616"/>
</svg>
