<svg width="333" height="136" viewBox="0 0 333 136" fill="none" xmlns="http://www.w3.org/2000/svg">
<path d="M8.55885 52L21.8091 19.906H25.7979L39.0023 52H35.8846L31.7582 41.9133H15.8488L11.7224 52H8.55885ZM16.9033 39.3H30.7037L23.8264 22.336L16.9033 39.3ZM53.109 50.3495C56.3184 50.3495 58.9317 48.8364 60.5823 46.4982L62.7372 48.1946C60.6281 51.0372 57.2353 52.917 53.0631 52.917C45.5898 52.917 40.6382 47.1859 40.6382 40.4462C40.6382 33.7064 45.5898 27.9754 53.0631 27.9754C57.2353 27.9754 60.6281 29.8551 62.7372 32.6978L60.5823 34.3942C58.9317 32.0559 56.2725 30.5429 53.0631 30.5429C47.4237 30.5429 43.4349 34.9902 43.4349 40.4462C43.4349 45.9021 47.4237 50.3495 53.109 50.3495ZM76.3932 50.3495C79.6026 50.3495 82.216 48.8364 83.8665 46.4982L86.0214 48.1946C83.9124 51.0372 80.5196 52.917 76.3474 52.917C68.8741 52.917 63.9224 47.1859 63.9224 40.4462C63.9224 33.7064 68.8741 27.9754 76.3474 27.9754C80.5196 27.9754 83.9124 29.8551 86.0214 32.6978L83.8665 34.3942C82.216 32.0559 79.5568 30.5429 76.3474 30.5429C70.708 30.5429 66.7192 34.9902 66.7192 40.4462C66.7192 45.9021 70.708 50.3495 76.3932 50.3495ZM109.397 48.1946C107.288 51.083 103.896 52.917 99.6775 52.917C92.1125 52.917 87.2067 47.1859 87.2067 40.4462C87.2067 33.2938 91.7915 27.9754 98.7147 27.9754C104.904 27.9754 108.847 32.3768 108.847 37.8328C108.847 38.5205 108.801 39.2083 108.664 39.7584H90.0034C90.0034 39.9418 90.0034 40.1252 90.0034 40.3086C90.0034 46.1772 93.9923 50.4411 99.6775 50.4411C102.933 50.4411 105.638 48.9281 107.334 46.544L109.397 48.1946ZM98.6688 30.3595C94.359 30.3595 91.1496 33.0645 90.2785 37.6036H106.096C105.959 33.5689 103.162 30.3595 98.6688 30.3595ZM111.417 48.974L113.435 47.3234C115.177 49.5242 117.194 50.5787 119.67 50.5787C122.696 50.5787 124.438 48.6531 124.438 46.2689C124.438 40.4003 112.563 42.3718 112.563 34.2108C112.563 30.8638 115.406 27.9754 119.67 27.9754C122.788 27.9754 125.401 29.4884 127.006 31.6891L124.988 33.2938C123.705 31.3682 121.825 30.3136 119.716 30.3136C116.827 30.3136 115.223 32.1017 115.223 34.2108C115.223 40.2169 127.097 38.383 127.097 46.1772C127.097 50.1661 123.934 52.917 119.716 52.917C116.277 52.917 113.435 51.5415 111.417 48.974ZM129.418 48.974L131.435 47.3234C133.178 49.5242 135.195 50.5787 137.671 50.5787C140.697 50.5787 142.439 48.6531 142.439 46.2689C142.439 40.4003 130.564 42.3718 130.564 34.2108C130.564 30.8638 133.407 27.9754 137.671 27.9754C140.789 27.9754 143.402 29.4884 145.007 31.6891L142.989 33.2938C141.706 31.3682 139.826 30.3136 137.717 30.3136C134.828 30.3136 133.224 32.1017 133.224 34.2108C133.224 40.2169 145.098 38.383 145.098 46.1772C145.098 50.1661 141.935 52.917 137.717 52.917C134.278 52.917 131.435 51.5415 129.418 48.974ZM151.635 21.6024C150.489 21.6024 149.526 20.7313 149.526 19.5392C149.526 18.4389 150.489 17.5219 151.635 17.5219C152.781 17.5219 153.698 18.4389 153.698 19.5392C153.698 20.7313 152.781 21.6024 151.635 21.6024ZM150.26 52V28.8923H152.965V52H150.26ZM183.721 40.4462C183.721 47.1859 178.953 52.917 171.755 52.917C168.133 52.917 165.061 51.404 162.906 48.6989V52H160.201V17.6136H162.906V32.1934C165.061 29.4884 168.133 27.9754 171.755 27.9754C178.953 27.9754 183.721 33.7064 183.721 40.4462ZM171.526 30.5429C167.995 30.5429 164.786 32.2393 162.906 35.3111V45.5812C164.878 48.6989 168.041 50.3495 171.526 50.3495C177.028 50.3495 180.833 45.9021 180.833 40.4462C180.833 34.9902 177.028 30.5429 171.526 30.5429ZM190.189 21.6024C189.043 21.6024 188.08 20.7313 188.08 19.5392C188.08 18.4389 189.043 17.5219 190.189 17.5219C191.335 17.5219 192.252 18.4389 192.252 19.5392C192.252 20.7313 191.335 21.6024 190.189 21.6024ZM188.814 52V28.8923H191.519V52H188.814ZM198.755 52V17.6136H201.46V52H198.755ZM210.072 21.6024C208.926 21.6024 207.963 20.7313 207.963 19.5392C207.963 18.4389 208.926 17.5219 210.072 17.5219C211.218 17.5219 212.135 18.4389 212.135 19.5392C212.135 20.7313 211.218 21.6024 210.072 21.6024ZM208.697 52V28.8923H211.402V52H208.697ZM219.83 44.7101V31.3223H215.475V28.8923H219.83V23.1154H222.581V28.8923H231.247V31.3223H222.581V44.7101C222.581 48.9281 224.736 49.9368 227.854 49.9368C229.321 49.9368 230.33 49.7534 231.247 49.4325V51.9083C230.192 52.2751 229.046 52.4585 227.579 52.4585C222.856 52.4585 219.83 50.3495 219.83 44.7101ZM246.022 25.2244H243.363L248.177 17.6136H251.341L246.022 25.2244ZM255.421 48.1946C253.312 51.083 249.92 52.917 245.702 52.917C238.137 52.917 233.231 47.1859 233.231 40.4462C233.231 33.2938 237.816 27.9754 244.739 27.9754C250.928 27.9754 254.871 32.3768 254.871 37.8328C254.871 38.5205 254.825 39.2083 254.688 39.7584H236.027C236.027 39.9418 236.027 40.1252 236.027 40.3086C236.027 46.1772 240.016 50.4411 245.702 50.4411C248.957 50.4411 251.662 48.9281 253.358 46.544L255.421 48.1946ZM244.693 30.3595C240.383 30.3595 237.174 33.0645 236.303 37.6036H252.12C251.983 33.5689 249.186 30.3595 244.693 30.3595Z" fill="#000091"/>
<path d="M257.508 83.9644H261.799L274.126 114.408L286.385 83.9644H290.744L276.782 118.29H271.47L257.508 83.9644Z" fill="#000091"/>
<path d="M248.082 103.715V83.9644H252.032V103.647C252.032 113.863 246.175 119.652 237.389 119.652C228.535 119.652 222.61 113.863 222.61 103.647V83.9644H226.628V103.715C226.628 111.479 230.919 115.838 237.389 115.838C243.723 115.838 248.082 111.479 248.082 103.715Z" fill="#000091"/>
<path d="M196.829 82.6001C207.862 82.6001 215.286 91.3177 215.286 101.125C215.286 110.932 207.862 119.65 196.829 119.65C185.864 119.65 178.44 110.932 178.44 101.125C178.44 91.3177 185.864 82.6001 196.829 82.6001ZM196.897 115.836C205.002 115.836 210.995 108.889 210.995 101.125C210.995 93.2246 205.002 86.4141 196.897 86.4141C188.52 86.4141 182.595 93.2927 182.595 101.125C182.595 108.957 188.52 115.836 196.897 115.836Z" fill="#000091"/>
<path d="M143.079 124.625C143.079 121.083 144.849 118.291 148.391 115.703C146.688 114.545 145.871 112.706 145.871 110.867C145.871 108.211 147.506 105.896 150.162 104.329C147.097 102.082 145.326 98.5403 145.326 94.7264C145.326 88.2564 150.434 82.5355 158.334 82.5355C160.718 82.5355 162.897 83.0804 164.736 83.9658H177.608V87.5073H169.027C170.525 89.5504 171.411 92.0703 171.411 94.7264C171.411 101.196 166.303 106.917 158.334 106.917C156.291 106.917 154.452 106.509 152.818 105.896C150.775 107.054 149.685 108.756 149.685 110.254C149.685 111.821 150.434 113.047 152.954 113.047H163.442C172.773 113.047 176.655 117.337 176.655 123.263C176.655 130.209 169.572 135.317 159.492 135.317C149.821 135.317 143.079 131.231 143.079 124.625ZM158.402 103.512C164.191 103.512 167.392 99.3576 167.392 94.7264C167.392 89.959 164.191 85.9408 158.402 85.9408C152.477 85.9408 149.276 89.959 149.276 94.7264C149.276 99.4257 152.477 103.512 158.402 103.512ZM147.097 124.284C147.097 128.915 152.137 131.844 159.424 131.844C167.324 131.844 172.636 128.643 172.636 123.467C172.636 119.721 170.593 116.725 163.306 116.725H151.932C148.8 118.836 147.097 121.219 147.097 124.284Z" fill="#000091"/>
<path d="M118.326 119.309C111.448 119.309 106.749 115.359 106.749 109.025C106.749 103.849 110.767 99.9671 118.122 98.7412L128.61 96.9704V96.085C128.61 92.4754 125.886 90.1599 121.936 90.1599C118.599 90.1599 116.011 91.7263 114.172 94.2462L107.838 89.4107C110.903 85.1882 115.943 82.6001 122.208 82.6001C132.152 82.6001 137.26 88.5253 137.26 96.085V118.287H128.61V114.95C126.431 117.606 122.345 119.309 118.326 119.309ZM115.33 108.616C115.33 110.932 117.169 112.43 120.097 112.43C124.047 112.43 126.908 110.592 128.61 107.867V103.032L120.438 104.394C116.828 105.007 115.33 106.505 115.33 108.616Z" fill="#000091"/>
<path d="M83.7473 105.759V91.7295H77.3453V83.9655H83.7473V75.3842H92.4648V83.9655H102.953V91.7295H92.4648V105.759C92.4648 109.573 94.5079 111.071 97.9132 111.071C100.297 111.071 101.863 110.799 103.021 110.322V117.882C101.318 118.631 99.2753 118.972 96.4149 118.972C87.8336 118.972 83.7473 114.136 83.7473 105.759Z" fill="#000091"/>
<path d="M54.7736 119.309C47.8949 119.309 43.1956 115.359 43.1956 109.025C43.1956 103.849 47.2139 99.9671 54.5693 98.7412L65.0575 96.9704V96.085C65.0575 92.4754 62.3333 90.1599 58.3832 90.1599C55.046 90.1599 52.458 91.7263 50.6191 94.2462L44.2853 89.4107C47.3501 85.1882 52.3899 82.6001 58.6556 82.6001C68.599 82.6001 73.7069 88.5253 73.7069 96.085V118.287H65.0575V114.95C62.8781 117.606 58.7918 119.309 54.7736 119.309ZM51.7769 108.616C51.7769 110.932 53.6158 112.43 56.5443 112.43C60.4944 112.43 63.3549 110.592 65.0575 107.867V103.032L56.8848 104.394C53.2753 105.007 51.7769 106.505 51.7769 108.616Z" fill="#000091"/>
<path d="M0 101.127C0 91.1159 6.60624 82.6027 17.435 82.6027C22.0662 82.6027 25.4034 84.0329 28.0595 86.689V67.2108H36.777V118.29H28.0595V115.566C25.4034 118.222 22.0662 119.652 17.435 119.652C6.60624 119.652 0 111.139 0 101.127ZM9.05804 101.127C9.05804 107.121 12.8038 111.479 18.6609 111.479C22.5429 111.479 25.7439 109.845 28.0595 106.712V95.5427C25.7439 92.4099 22.5429 90.7754 18.6609 90.7754C12.8038 90.7754 9.05804 95.1341 9.05804 101.127Z" fill="#000091"/>
<path d="M321.312 52.0763C321.312 52.0763 321.312 52.0521 321.312 52.036C321.296 50.7324 320.598 49.5253 319.475 48.8815L313.857 45.6303C313.336 45.3245 312.734 45.1636 312.116 45.1475C312.028 45.1475 311.948 45.1475 311.859 45.1555C311.426 45.1797 311.017 45.2602 310.632 45.4131C310.479 45.4774 310.335 45.5499 310.19 45.6303L304.645 48.8412C304.517 48.9137 304.396 48.9941 304.284 49.0827C304.284 49.0827 304.236 49.1148 304.228 49.1148C303.779 49.4448 303.426 49.8713 303.177 50.3461C303.161 50.3783 303.137 50.4105 303.121 50.4427C303.105 50.4748 303.089 50.507 303.08 50.5392C302.856 51.0301 302.735 51.5854 302.735 52.1728V58.4981C302.735 58.6107 302.743 58.7314 302.759 58.8763C302.759 58.9487 302.776 59.0292 302.792 59.1177C302.856 59.5523 303 59.9627 303.201 60.3329C303.53 60.9445 304.019 61.4514 304.621 61.7975L310.142 64.9923C310.343 65.1049 310.495 65.1774 310.648 65.2417C311.033 65.4027 311.442 65.4912 311.859 65.5073C311.875 65.5073 311.891 65.5073 311.908 65.5073C312.301 65.5154 312.702 65.4751 313.087 65.3544C313.352 65.2739 313.617 65.1613 313.857 65.0164L319.435 61.7894C320.004 61.4595 320.478 60.9847 320.807 60.4133C321.136 59.842 321.312 59.1901 321.312 58.5383V52.0763Z" fill="#000091"/>
<path d="M302.736 64.0327V74.2822L311.594 79.411V69.1615L302.736 64.0327Z" fill="#000091"/>
<path d="M320.133 48.3804C320.133 48.3804 320.205 48.4365 320.237 48.4606C320.237 48.4606 320.253 48.4686 320.261 48.4766C320.318 48.5167 320.374 48.5647 320.43 48.6048C320.43 48.6048 320.438 48.6128 320.446 48.6208C320.455 48.6289 320.471 48.6369 320.479 48.6449C320.543 48.701 320.616 48.7571 320.672 48.8132C320.688 48.8292 320.704 48.8452 320.72 48.8613C320.76 48.9013 320.801 48.9414 320.841 48.9815C320.857 48.9975 320.873 49.0135 320.881 49.0215C320.938 49.0856 320.994 49.1497 321.05 49.2139C321.082 49.2459 321.107 49.286 321.131 49.318C321.147 49.3421 321.171 49.3661 321.187 49.3902C321.203 49.4062 321.219 49.4302 321.235 49.4462C321.292 49.5184 321.34 49.5985 321.388 49.6786C321.437 49.7588 321.485 49.8309 321.533 49.911C321.582 49.9992 321.622 50.0873 321.67 50.1755C321.71 50.2556 321.743 50.3278 321.775 50.4079C321.807 50.48 321.831 50.5602 321.855 50.6323C321.855 50.6483 321.863 50.6563 321.871 50.6723C321.871 50.6884 321.879 50.7044 321.887 50.7124C321.912 50.7845 321.936 50.8567 321.96 50.9288C321.992 51.049 322.016 51.1692 322.032 51.2974C322.032 51.2974 322.032 51.3054 322.032 51.3134C322.032 51.3295 322.04 51.3535 322.04 51.3695C322.04 51.4096 322.057 51.4417 322.065 51.4817C322.089 51.666 322.105 51.8584 322.105 52.0507V58.2773L323.345 58.9905V48.741L314.425 43.6123V45.0788L319.859 48.2041C319.947 48.2522 320.036 48.3083 320.125 48.3724L320.133 48.3804Z" fill="#000091"/>
<path d="M290.744 43.6123V53.9028L299.663 59.0521V48.7616L290.744 43.6123Z" fill="#000091"/>
<path d="M321.228 61.2185C321.156 61.3233 321.076 61.4119 320.996 61.5085C320.94 61.573 320.884 61.6374 320.828 61.7019C320.74 61.7985 320.636 61.8791 320.54 61.9677C320.492 62.008 320.444 62.0563 320.396 62.1046L321.916 62.9907C322.036 63.0632 322.116 63.1921 322.116 63.3371V71.9321L323.348 72.649V62.3463L321.292 61.146C321.292 61.146 321.252 61.1944 321.236 61.2185H321.228Z" fill="#000091"/>
<path d="M310.119 44.7807C310.119 44.7807 310.175 44.7647 310.207 44.7486C310.367 44.6765 310.543 44.6204 310.711 44.5723C310.847 44.5322 310.983 44.5002 311.126 44.4761C311.262 44.4521 311.39 44.428 311.526 44.412C311.574 44.412 311.614 44.396 311.662 44.388V41.9753L302.804 36.8455V38.4566L309.919 42.5765C310.039 42.6486 310.119 42.7769 310.119 42.9212V44.7807Z" fill="#000091"/>
<path d="M290.744 67.4603L299.663 72.5837V62.3289L290.744 57.2055V67.4603Z" fill="#000091"/>
<path d="M333 67.4603V57.2055L324.142 62.3289V72.5837L333 67.4603Z" fill="#000091"/>
<path d="M312.392 79.411L321.312 74.2822V64.0327L312.392 69.1615V79.411Z" fill="#000091"/>
<path d="M300.461 59.0521L301.924 58.1992V52.1005C301.924 50.7006 302.588 49.365 303.707 48.5202C303.707 48.5202 303.723 48.5121 303.731 48.5041C303.731 48.5041 303.739 48.5041 303.747 48.4961C303.763 48.488 303.779 48.4719 303.787 48.4719C303.931 48.3673 304.035 48.2949 304.155 48.2225L309.319 45.2214V43.6123L300.461 48.7616V59.0521Z" fill="#000091"/>
<path d="M333 53.9028V43.6123L324.142 48.7616V59.0521L333 53.9028Z" fill="#000091"/>
<path d="M312.61 44.4018C312.698 44.4098 312.778 44.4338 312.866 44.4418C312.97 44.4578 313.082 44.4818 313.186 44.5058C313.282 44.5297 313.37 44.5617 313.458 44.5937C313.53 44.6177 313.601 44.6337 313.673 44.6577V42.9065C313.673 42.7626 313.753 42.6347 313.873 42.5627L321.38 38.2288V36.8455L312.522 41.963V44.3858C312.522 44.3858 312.586 44.4018 312.618 44.4018H312.61Z" fill="#000091"/>
<path d="M302.004 63.1344C302.029 63.0945 302.069 63.0625 302.109 63.0305C302.117 63.0305 302.125 63.0146 302.133 63.0066L303.66 62.1279C303.66 62.1279 303.596 62.064 303.556 62.032C303.427 61.9202 303.298 61.8084 303.178 61.6806C303.122 61.6246 303.073 61.5607 303.025 61.5048C302.929 61.393 302.84 61.2811 302.76 61.1613C302.744 61.1374 302.72 61.1134 302.696 61.0814L302.655 61.1054L300.461 62.3675V72.5844L301.932 71.7376V63.3501C301.932 63.2862 301.956 63.2223 301.98 63.1663C301.98 63.1504 301.996 63.1424 302.004 63.1264V63.1344Z" fill="#000091"/>
<path d="M308.955 42.8991L300.07 37.7668L291.177 42.8991L300.07 48.0394L308.955 42.8991Z" fill="#000091"/>
<path d="M321.008 36.1404L312.089 31L303.169 36.1404L312.089 41.2727L321.008 36.1404Z" fill="#000091"/>
<path d="M323.158 47.6941L323.744 48.0394L332.636 42.8991L323.744 37.7668L314.859 42.8991L318.615 45.0757L323.158 47.6941Z" fill="#000091"/>
<path d="M323.551 60.0621L322.067 59.2079C322.059 59.2637 322.035 59.3276 322.027 59.3835C322.003 59.5192 321.971 59.6549 321.939 59.7826C321.915 59.8625 321.883 59.9423 321.859 60.0142C321.819 60.1339 321.779 60.2457 321.723 60.3654C321.707 60.3974 321.698 60.4213 321.69 60.4532L323.752 61.6348L332.64 56.5255L331.364 55.791L323.961 60.0461C323.896 60.078 323.832 60.102 323.76 60.102C323.688 60.102 323.624 60.086 323.559 60.0461L323.551 60.0621Z" fill="#000091"/>
<path d="M314.224 65.6976C313.927 65.8653 313.606 66.001 313.285 66.1048C313.061 66.1766 312.828 66.2165 312.595 66.2485C312.515 66.2565 312.435 66.2565 312.354 66.2644C312.234 66.2724 312.122 66.2884 312.001 66.2884C311.937 66.2884 311.873 66.2884 311.809 66.2884C311.809 66.2884 311.8 66.2884 311.792 66.2884C311.536 66.2804 311.287 66.2485 311.038 66.1926C310.789 66.1367 310.548 66.0649 310.316 65.9691C310.131 65.8892 309.947 65.8014 309.762 65.7056L304.385 62.6161L303.959 62.8636L303.108 63.3506L312.001 68.4598L312.964 67.901L313.871 67.3821L315.685 66.3363L320.886 63.3506L320.035 62.8636L319.61 62.6161L314.232 65.7056L314.224 65.6976Z" fill="#000091"/>
<path d="M301.998 59.2238C301.998 59.1679 301.982 59.12 301.974 59.0642L300.264 60.0461C300.2 60.078 300.136 60.102 300.064 60.102C299.991 60.102 299.927 60.086 299.863 60.0461L292.454 55.791L291.177 56.5255L300.072 61.6348L302.311 60.3495C302.175 60.0301 302.071 59.6629 302.006 59.2558C302.006 59.2558 302.006 59.2398 302.006 59.2318L301.998 59.2238Z" fill="#000091"/>
</svg>
