<svg xmlns="http://www.w3.org/2000/svg" width="660" height="56" viewBox="0 0 660 56" fill="none"><script xmlns=""/>
    <path d="M30.103 14.29C30.103 14.29 30.103 23.5267 30.103 42C30.103 42 28.0767 42 24.0239 42C24.0239 42 24.0239 40.8037 24.0239 38.4111C22.6893 39.9248 21.3058 41.0153 19.8735 41.6826C18.4575 42.3337 16.7729 42.6592 14.8198 42.6592C12.1506 42.6592 9.74984 42.0488 7.61768 40.8281C5.50179 39.5911 3.84163 37.874 2.63721 35.6768C1.44906 33.4795 0.85498 31.0055 0.85498 28.2549C0.85498 25.4717 1.45719 22.9733 2.66162 20.7598C3.86605 18.5299 5.54248 16.7884 7.69092 15.5352C9.83936 14.2819 12.2645 13.6553 14.9663 13.6553C16.9683 13.6553 18.6935 14.0052 20.1421 14.7051C21.5907 15.3887 22.8846 16.4873 24.0239 18.001V14.29H30.103ZM15.5522 19.7588C13.241 19.7588 11.3286 20.5726 9.81494 22.2002C8.31755 23.8278 7.56885 25.8949 7.56885 28.4014C7.56885 30.8265 8.32568 32.7959 9.83936 34.3096C11.3693 35.807 13.3468 36.5557 15.772 36.5557C18.1808 36.5557 20.1177 35.7907 21.5825 34.2607C23.0636 32.7308 23.8042 30.7288 23.8042 28.2549C23.8042 25.7484 23.0311 23.7057 21.4849 22.127C19.9549 20.5482 17.9774 19.7588 15.5522 19.7588ZM55.5139 32.8936C55.5139 32.8936 58.0123 32.8936 63.009 32.8936C61.8534 36.0023 60.0794 38.4111 57.6868 40.1201C55.3105 41.8128 52.5029 42.6592 49.2639 42.6592C47.2457 42.6592 45.317 42.2767 43.4778 41.5117C41.6549 40.7467 40.0842 39.7214 38.7659 38.4355C37.4475 37.1497 36.3977 35.6117 35.6165 33.8213C34.8352 32.0309 34.4446 30.1429 34.4446 28.1572C34.4446 25.488 35.0875 23.0465 36.3733 20.833C37.6591 18.6032 39.4169 16.8535 41.6467 15.584C43.8928 14.2982 46.3587 13.6553 49.0442 13.6553C51.0299 13.6553 52.9179 14.0133 54.7083 14.7295C56.5149 15.4294 58.0937 16.4385 59.4446 17.7568C60.3235 18.6195 61.0152 19.4658 61.5198 20.2959C62.0406 21.1097 62.537 22.1921 63.009 23.543H55.5139C54.2118 21.0202 52.0553 19.7588 49.0442 19.7588C46.733 19.7588 44.8368 20.54 43.3557 22.1025C41.8909 23.6488 41.1585 25.6507 41.1585 28.1084C41.1585 30.5335 41.9234 32.5518 43.4534 34.1631C44.9996 35.7581 46.9202 36.5557 49.2151 36.5557C50.5823 36.5557 51.7623 36.2627 52.7551 35.6768C53.7643 35.0908 54.6838 34.1631 55.5139 32.8936ZM68.4492 42C68.4492 42 68.4492 34.7816 68.4492 20.3447C68.4492 20.3447 67.3669 20.3447 65.2022 20.3447C65.2022 20.3447 65.2022 18.3265 65.2022 14.29C65.2022 14.29 66.2845 14.29 68.4492 14.29C68.4492 14.29 68.4492 11.2139 68.4492 5.06152C68.4492 5.06152 70.6628 5.06152 75.0899 5.06152C75.0899 5.06152 75.0899 8.1377 75.0899 14.29C75.0899 14.29 76.4245 14.29 79.0938 14.29C79.0938 14.29 79.0938 16.3083 79.0938 20.3447C79.0938 20.3447 77.7591 20.3447 75.0899 20.3447C75.0899 20.3447 75.0899 27.5632 75.0899 42C75.0899 42 72.8763 42 68.4492 42ZM109.827 31.1113C109.827 31.1113 102.674 31.1113 88.367 31.1113C88.7739 32.7878 89.6609 34.1143 91.0281 35.0908C92.3953 36.0674 94.0636 36.5557 96.033 36.5557C97.4002 36.5557 98.5395 36.3522 99.451 35.9453C100.362 35.5221 101.249 34.806 102.112 33.7969H109.363C108.972 35.0501 108.24 36.3359 107.166 37.6543C104.301 40.9909 100.639 42.6592 96.1795 42.6592C94.0961 42.6592 92.1267 42.2848 90.2713 41.5361C88.4158 40.7874 86.8207 39.7783 85.4861 38.5088C84.1678 37.223 83.118 35.693 82.3367 33.9189C81.5555 32.1286 81.1648 30.2406 81.1648 28.2549C81.1648 25.5856 81.8077 23.1361 83.0935 20.9062C84.3956 18.6602 86.1616 16.8942 88.3914 15.6084C90.6375 14.3063 93.0952 13.6553 95.7644 13.6553C98.4825 13.6553 100.932 14.2982 103.113 15.584C105.294 16.8535 106.995 18.6276 108.216 20.9062C109.453 23.1686 110.071 25.7158 110.071 28.5479C110.071 29.4593 109.99 30.3138 109.827 31.1113ZM88.1717 25.252H103.528C103.105 23.4779 102.234 22.1188 100.916 21.1748C99.5974 20.2308 97.9129 19.7588 95.8621 19.7588C93.8764 19.7588 92.2244 20.2308 90.906 21.1748C89.604 22.1025 88.6925 23.4616 88.1717 25.252ZM138.949 14.29C138.949 14.29 138.949 23.5267 138.949 42C138.949 42 136.898 42 132.796 42C132.796 42 132.796 41.113 132.796 39.3389C131.527 40.5596 130.298 41.4222 129.11 41.9268C127.938 42.415 126.522 42.6592 124.862 42.6592C122.99 42.6592 121.314 42.2848 119.833 41.5361C118.351 40.7712 117.155 39.6888 116.244 38.2891C115.528 37.166 115.023 35.929 114.73 34.5781C114.437 33.2272 114.291 31.4206 114.291 29.1582V14.29H120.956V27.8398C120.956 29.7604 121.061 31.266 121.273 32.3564C121.485 33.4307 121.843 34.277 122.347 34.8955C123.307 36.0023 124.593 36.5557 126.205 36.5557C127.36 36.5557 128.386 36.3278 129.281 35.8721C130.192 35.4001 130.884 34.7409 131.356 33.8945C131.714 33.276 131.958 32.4785 132.088 31.502C132.235 30.5091 132.308 29.1257 132.308 27.3516V14.29H138.949ZM144.584 42C144.584 42 144.584 32.7633 144.584 14.29C144.584 14.29 146.611 14.29 150.663 14.29C150.663 14.29 150.663 15.1934 150.663 17C151.542 15.7142 152.405 14.8353 153.251 14.3633C154.098 13.8913 155.237 13.6553 156.669 13.6553H157.182C157.182 13.6553 157.182 15.7874 157.182 20.0518C153.211 20.1494 151.225 22.3304 151.225 26.5947C151.225 26.5947 151.225 31.7298 151.225 42C151.225 42 149.011 42 144.584 42ZM159.375 33.2109C159.375 33.2109 161.605 33.2109 166.065 33.2109C166.39 34.3828 166.846 35.2373 167.432 35.7744C168.018 36.2952 168.799 36.5557 169.775 36.5557C170.654 36.5557 171.371 36.3034 171.924 35.7988C172.494 35.278 172.778 34.627 172.778 33.8457C172.778 32.9342 172.355 32.2181 171.509 31.6973C171.151 31.4857 170.801 31.3066 170.459 31.1602C170.117 31.0137 169.32 30.7288 168.066 30.3057C165.3 29.3779 163.322 28.2874 162.134 27.0342C160.962 25.7809 160.376 24.137 160.376 22.1025C160.376 19.7262 161.255 17.7243 163.013 16.0967C164.787 14.4691 166.976 13.6553 169.58 13.6553C171.012 13.6553 172.363 13.9401 173.633 14.5098C174.919 15.0794 176.001 15.877 176.88 16.9023C177.482 17.6185 177.913 18.359 178.174 19.124C178.451 19.889 178.613 20.833 178.662 21.9561H172.168C171.875 20.4912 171.012 19.7588 169.58 19.7588C168.864 19.7588 168.254 19.9867 167.749 20.4424C167.261 20.8818 167.017 21.4352 167.017 22.1025C167.017 22.9489 167.448 23.5674 168.311 23.958C168.783 24.1533 169.922 24.5358 171.729 25.1055C174.528 25.9681 176.506 27.0098 177.661 28.2305C178.833 29.4512 179.419 31.1113 179.419 33.2109C179.419 35.8639 178.459 38.1019 176.538 39.9248C174.618 41.7477 172.274 42.6592 169.507 42.6592C167.798 42.6592 166.187 42.3011 164.673 41.585C163.176 40.8525 161.987 39.876 161.108 38.6553C160.588 37.9066 160.197 37.1335 159.937 36.3359C159.676 35.5384 159.489 34.4967 159.375 33.2109ZM182.271 30.5498C182.271 30.5498 182.271 28.5804 182.271 24.6416C182.271 24.6416 186.894 24.6416 196.138 24.6416C196.138 24.6416 196.138 26.611 196.138 30.5498C196.138 30.5498 191.516 30.5498 182.271 30.5498ZM200.578 51.2529C200.578 51.2529 200.578 38.932 200.578 14.29C200.578 14.29 202.604 14.29 206.657 14.29C206.657 14.29 206.657 15.3805 206.657 17.5615C208.854 14.9574 211.89 13.6553 215.763 13.6553C218.4 13.6553 220.768 14.2738 222.868 15.5107C224.967 16.7314 226.603 18.4404 227.775 20.6377C228.963 22.835 229.557 25.3089 229.557 28.0596C229.557 30.8265 228.963 33.3249 227.775 35.5547C226.587 37.7682 224.935 39.5098 222.819 40.7793C220.719 42.0326 218.351 42.6592 215.714 42.6592C214.022 42.6592 212.5 42.3988 211.149 41.8779C209.798 41.3571 208.488 40.5352 207.218 39.4121V51.2529H200.578ZM214.762 19.7588C212.516 19.7588 210.628 20.5726 209.098 22.2002C207.585 23.8115 206.828 25.8298 206.828 28.2549C206.828 30.6149 207.609 32.5924 209.171 34.1875C210.734 35.7663 212.663 36.5557 214.958 36.5557C217.187 36.5557 219.059 35.7581 220.573 34.1631C222.103 32.5518 222.868 30.5661 222.868 28.2061C222.868 25.7646 222.103 23.7464 220.573 22.1514C219.043 20.5563 217.106 19.7588 214.762 19.7588ZM258.459 14.29C258.459 14.29 258.459 23.5267 258.459 42C258.459 42 256.409 42 252.307 42C252.307 42 252.307 41.113 252.307 39.3389C251.037 40.5596 249.809 41.4222 248.62 41.9268C247.449 42.415 246.033 42.6592 244.372 42.6592C242.501 42.6592 240.824 42.2848 239.343 41.5361C237.862 40.7712 236.666 39.6888 235.754 38.2891C235.038 37.166 234.534 35.929 234.241 34.5781C233.948 33.2272 233.801 31.4206 233.801 29.1582V14.29H240.466V27.8398C240.466 29.7604 240.572 31.266 240.784 32.3564C240.995 33.4307 241.353 34.277 241.858 34.8955C242.818 36.0023 244.104 36.5557 245.715 36.5557C246.871 36.5557 247.896 36.3278 248.791 35.8721C249.703 35.4001 250.395 34.7409 250.867 33.8945C251.225 33.276 251.469 32.4785 251.599 31.502C251.745 30.5091 251.819 29.1257 251.819 27.3516V14.29H258.459ZM264.095 42C264.095 42 264.095 29.6872 264.095 5.06152C264.095 5.06152 266.308 5.06152 270.735 5.06152C270.735 5.06152 270.735 8.99219 270.735 16.8535C272.038 15.5677 273.34 14.6562 274.642 14.1191C275.96 13.5658 277.523 13.2891 279.329 13.2891C281.966 13.2891 284.35 13.9238 286.483 15.1934C288.615 16.4629 290.283 18.2207 291.487 20.4668C292.692 22.6966 293.294 25.195 293.294 27.9619C293.294 31.7217 292.212 35.0013 290.047 37.8008C287.508 41.0397 284.09 42.6592 279.793 42.6592C277.742 42.6592 275.984 42.3418 274.52 41.707C273.055 41.0723 271.606 39.9899 270.174 38.46V42H264.095ZM278.279 19.3926C275.968 19.3926 274.064 20.2064 272.566 21.834C271.085 23.4616 270.345 25.5368 270.345 28.0596C270.345 30.5498 271.11 32.5924 272.64 34.1875C274.17 35.7663 276.131 36.5557 278.524 36.5557C280.9 36.5557 282.837 35.7744 284.334 34.2119C285.831 32.6331 286.58 30.5824 286.58 28.0596C286.58 25.5042 285.807 23.4209 284.261 21.8096C282.731 20.1982 280.737 19.3926 278.279 19.3926ZM297.636 42C297.636 42 297.636 29.6872 297.636 5.06152C297.636 5.06152 299.849 5.06152 304.276 5.06152C304.276 5.06152 304.276 17.3743 304.276 42C304.276 42 302.063 42 297.636 42ZM309.936 42C309.936 42 309.936 32.7633 309.936 14.29C309.936 14.29 312.15 14.29 316.577 14.29C316.577 14.29 316.577 23.5267 316.577 42C316.577 42 314.363 42 309.936 42ZM309.936 11.3115C309.936 11.3115 309.936 9.22819 309.936 5.06152C309.936 5.06152 312.15 5.06152 316.577 5.06152C316.577 5.06152 316.577 7.14486 316.577 11.3115C316.577 11.3115 314.363 11.3115 309.936 11.3115ZM341.988 32.8936C341.988 32.8936 344.486 32.8936 349.483 32.8936C348.327 36.0023 346.553 38.4111 344.161 40.1201C341.784 41.8128 338.977 42.6592 335.738 42.6592C333.719 42.6592 331.791 42.2767 329.952 41.5117C328.129 40.7467 326.558 39.7214 325.24 38.4355C323.921 37.1497 322.871 35.6117 322.09 33.8213C321.309 32.0309 320.918 30.1429 320.918 28.1572C320.918 25.488 321.561 23.0465 322.847 20.833C324.133 18.6032 325.891 16.8535 328.12 15.584C330.367 14.2982 332.832 13.6553 335.518 13.6553C337.504 13.6553 339.392 14.0133 341.182 14.7295C342.989 15.4294 344.567 16.4385 345.918 17.7568C346.797 18.6195 347.489 19.4658 347.994 20.2959C348.514 21.1097 349.011 22.1921 349.483 23.543H341.988C340.686 21.0202 338.529 19.7588 335.518 19.7588C333.207 19.7588 331.311 20.54 329.829 22.1025C328.365 23.6488 327.632 25.6507 327.632 28.1084C327.632 30.5335 328.397 32.5518 329.927 34.1631C331.473 35.7581 333.394 36.5557 335.689 36.5557C337.056 36.5557 338.236 36.2627 339.229 35.6768C340.238 35.0908 341.158 34.1631 341.988 32.8936ZM351.774 33.2109C351.774 33.2109 354.003 33.2109 358.463 33.2109C358.789 34.3828 359.244 35.2373 359.83 35.7744C360.416 36.2952 361.197 36.5557 362.174 36.5557C363.053 36.5557 363.769 36.3034 364.322 35.7988C364.892 35.278 365.177 34.627 365.177 33.8457C365.177 32.9342 364.754 32.2181 363.907 31.6973C363.549 31.4857 363.199 31.3066 362.858 31.1602C362.516 31.0137 361.718 30.7288 360.465 30.3057C357.698 29.3779 355.72 28.2874 354.532 27.0342C353.36 25.7809 352.775 24.137 352.775 22.1025C352.775 19.7262 353.653 17.7243 355.411 16.0967C357.185 14.4691 359.374 13.6553 361.979 13.6553C363.411 13.6553 364.762 13.9401 366.031 14.5098C367.317 15.0794 368.4 15.877 369.278 16.9023C369.881 17.6185 370.312 18.359 370.572 19.124C370.849 19.889 371.012 20.833 371.061 21.9561H364.567C364.274 20.4912 363.411 19.7588 361.979 19.7588C361.262 19.7588 360.652 19.9867 360.148 20.4424C359.659 20.8818 359.415 21.4352 359.415 22.1025C359.415 22.9489 359.846 23.5674 360.709 23.958C361.181 24.1533 362.32 24.5358 364.127 25.1055C366.927 25.9681 368.904 27.0098 370.06 28.2305C371.232 29.4512 371.818 31.1113 371.818 33.2109C371.818 35.8639 370.857 38.1019 368.937 39.9248C367.016 41.7477 364.672 42.6592 361.905 42.6592C360.196 42.6592 358.585 42.3011 357.071 41.585C355.574 40.8525 354.386 39.876 353.507 38.6553C352.986 37.9066 352.595 37.1335 352.335 36.3359C352.075 35.5384 351.887 34.4967 351.774 33.2109ZM376.892 42C376.892 42 376.892 39.8678 376.892 35.6035C376.892 35.6035 379.105 35.6035 383.532 35.6035C383.532 35.6035 383.532 37.7357 383.532 42C383.532 42 381.319 42 376.892 42ZM395.128 42.55C393.661 42.55 392.47 41.9267 391.553 40.68C390.673 39.3967 390.233 37.49 390.233 34.96C390.233 32.6867 390.581 30.4683 391.278 28.305C392.011 26.1417 393.001 24.18 394.248 22.42C395.531 20.66 396.998 19.2667 398.648 18.24C400.298 17.2133 402.058 16.7 403.928 16.7C405.248 16.7 406.513 16.9383 407.723 17.415L409.978 4.6L405.193 2.73V2.4L414.708 0.749997H414.873L408.768 35.455C408.585 36.555 408.548 37.3433 408.658 37.82C408.768 38.2967 409.08 38.535 409.593 38.535C410.216 38.535 410.895 38.205 411.628 37.545C412.361 36.8483 413.058 35.8033 413.718 34.41L414.433 34.74C413.37 37.49 412.215 39.4883 410.968 40.735C409.758 41.945 408.511 42.55 407.228 42.55C405.945 42.55 405.065 42.055 404.588 41.065C404.111 40.075 404.02 38.755 404.313 37.105L404.588 35.675H404.368C401.288 40.2583 398.208 42.55 395.128 42.55ZM394.413 32.815C394.413 35.125 394.67 36.72 395.183 37.6C395.696 38.48 396.54 38.92 397.713 38.92C398.776 38.92 399.968 38.3883 401.288 37.325C402.608 36.225 403.855 34.7767 405.028 32.98L407.008 21.705C406.238 20.6783 405.486 19.945 404.753 19.505C404.056 19.065 403.25 18.845 402.333 18.845C400.866 18.845 399.528 19.4867 398.318 20.77C397.145 22.0533 396.191 23.7583 395.458 25.885C394.761 27.975 394.413 30.285 394.413 32.815ZM423.509 42.55C422.042 42.55 420.85 41.9267 419.934 40.68C419.054 39.3967 418.614 37.49 418.614 34.96C418.614 32.6867 418.962 30.4683 419.659 28.305C420.392 26.1417 421.382 24.18 422.629 22.42C423.912 20.66 425.379 19.2667 427.029 18.24C428.679 17.2133 430.439 16.7 432.309 16.7C433.225 16.7 434.105 16.81 434.949 17.03C435.792 17.25 436.544 17.5433 437.204 17.91L439.129 16.7H440.504L437.149 35.455C436.965 36.555 436.929 37.3433 437.039 37.82C437.185 38.2967 437.497 38.535 437.974 38.535C438.597 38.535 439.275 38.205 440.009 37.545C440.742 36.8483 441.439 35.8033 442.099 34.41L442.814 34.74C441.75 37.49 440.595 39.4883 439.349 40.735C438.139 41.945 436.892 42.55 435.609 42.55C434.325 42.55 433.445 42.055 432.969 41.065C432.492 40.075 432.4 38.755 432.694 37.105L432.969 35.675H432.749C431.355 37.8017 429.889 39.4883 428.349 40.735C426.809 41.945 425.195 42.55 423.509 42.55ZM422.794 32.815C422.794 34.8683 423.014 36.4083 423.454 37.435C423.93 38.425 424.81 38.92 426.094 38.92C426.974 38.92 427.854 38.6267 428.734 38.04C429.614 37.4533 430.457 36.7017 431.264 35.785C432.07 34.8683 432.785 33.9333 433.409 32.98L435.444 21.65C434.747 20.7333 434.032 20.0367 433.299 19.56C432.602 19.0833 431.74 18.845 430.714 18.845C429.137 18.845 427.744 19.5233 426.534 20.88C425.36 22.2367 424.444 23.9783 423.784 26.105C423.124 28.2317 422.794 30.4683 422.794 32.815ZM451.35 42.55C450.14 42.55 449.223 42.165 448.6 41.395C447.976 40.625 447.665 39.5433 447.665 38.15C447.665 37.8567 447.683 37.5267 447.72 37.16C447.756 36.7933 447.811 36.4267 447.885 36.06L450.8 19.67H446.73V19.34L451.405 17.25L456.135 11.2H456.465L455.42 17.25H462.295V19.67H454.98L452.505 33.64C452.431 34.1167 452.376 34.5567 452.34 34.96C452.303 35.3267 452.285 35.6567 452.285 35.95C452.285 36.83 452.431 37.4533 452.725 37.82C453.018 38.1867 453.403 38.37 453.88 38.37C454.723 38.37 455.621 37.8933 456.575 36.94C457.565 35.9867 458.463 34.6117 459.27 32.815L459.985 33.145C458.775 36.6283 457.418 39.0667 455.915 40.46C454.448 41.8533 452.926 42.55 451.35 42.55ZM469.16 42.55C467.693 42.55 466.501 41.9267 465.585 40.68C464.705 39.3967 464.265 37.49 464.265 34.96C464.265 32.6867 464.613 30.4683 465.31 28.305C466.043 26.1417 467.033 24.18 468.28 22.42C469.563 20.66 471.03 19.2667 472.68 18.24C474.33 17.2133 476.09 16.7 477.96 16.7C478.876 16.7 479.756 16.81 480.6 17.03C481.443 17.25 482.195 17.5433 482.855 17.91L484.78 16.7H486.155L482.8 35.455C482.616 36.555 482.58 37.3433 482.69 37.82C482.836 38.2967 483.148 38.535 483.625 38.535C484.248 38.535 484.926 38.205 485.66 37.545C486.393 36.8483 487.09 35.8033 487.75 34.41L488.465 34.74C487.401 37.49 486.246 39.4883 485 40.735C483.79 41.945 482.543 42.55 481.26 42.55C479.976 42.55 479.096 42.055 478.62 41.065C478.143 40.075 478.051 38.755 478.345 37.105L478.62 35.675H478.4C477.006 37.8017 475.54 39.4883 474 40.735C472.46 41.945 470.846 42.55 469.16 42.55ZM468.445 32.815C468.445 34.8683 468.665 36.4083 469.105 37.435C469.581 38.425 470.461 38.92 471.745 38.92C472.625 38.92 473.505 38.6267 474.385 38.04C475.265 37.4533 476.108 36.7017 476.915 35.785C477.721 34.8683 478.436 33.9333 479.06 32.98L481.095 21.65C480.398 20.7333 479.683 20.0367 478.95 19.56C478.253 19.0833 477.391 18.845 476.365 18.845C474.788 18.845 473.395 19.5233 472.185 20.88C471.011 22.2367 470.095 23.9783 469.435 26.105C468.775 28.2317 468.445 30.4683 468.445 32.815ZM494.361 42.275C493.444 42.275 492.766 42.0183 492.326 41.505C491.922 40.9917 491.721 40.3317 491.721 39.525C491.721 38.6083 492.032 37.7833 492.656 37.05C493.279 36.3167 494.086 35.95 495.076 35.95C495.992 35.95 496.652 36.2067 497.056 36.72C497.496 37.2333 497.716 37.8933 497.716 38.7C497.716 39.6533 497.404 40.4967 496.781 41.23C496.194 41.9267 495.387 42.275 494.361 42.275ZM514.635 33.585C513.535 33.585 512.526 33.42 511.61 33.09C510.766 33.4933 510.161 34.0067 509.795 34.63C509.465 35.2167 509.3 35.84 509.3 36.5C509.3 37.2333 509.666 37.8017 510.4 38.205C511.133 38.6083 512.068 38.9383 513.205 39.195C514.378 39.4517 515.625 39.7267 516.945 40.02C518.265 40.2767 519.493 40.6433 520.63 41.12C521.803 41.56 522.756 42.165 523.49 42.935C524.223 43.7417 524.59 44.805 524.59 46.125C524.59 47.5917 524.131 49.0217 523.215 50.415C522.298 51.8083 520.923 52.945 519.09 53.825C517.293 54.7417 515.001 55.2 512.215 55.2C508.951 55.2 506.531 54.6683 504.955 53.605C503.415 52.5417 502.645 51.2033 502.645 49.59C502.645 48.4167 502.828 47.5 503.195 46.84C503.525 46.18 504.093 45.4467 504.9 44.64L509.3 42.165V42.055C508.163 41.725 507.21 41.2667 506.44 40.68C505.706 40.0933 505.34 39.2317 505.34 38.095C505.34 37.325 505.431 36.6833 505.615 36.17C505.798 35.6567 506.146 35.1067 506.66 34.52L510.345 32.65V32.485C509.355 31.8983 508.566 31.11 507.98 30.12C507.43 29.0933 507.155 27.9383 507.155 26.655C507.155 25.115 507.595 23.5933 508.475 22.09C509.391 20.55 510.62 19.2667 512.16 18.24C513.736 17.2133 515.533 16.7 517.55 16.7C518.54 16.7 519.566 16.8833 520.63 17.25H528.935V19.67H524.04L523.82 19.835C524.59 20.8617 524.975 22.2183 524.975 23.905C524.975 24.9317 524.736 26.0133 524.26 27.15C523.783 28.25 523.086 29.295 522.17 30.285C521.253 31.275 520.153 32.0817 518.87 32.705C517.623 33.2917 516.211 33.585 514.635 33.585ZM515.625 31.44C516.651 31.44 517.55 31.055 518.32 30.285C519.126 29.515 519.75 28.58 520.19 27.48C520.666 26.3433 520.905 25.225 520.905 24.125C520.905 22.5483 520.52 21.2833 519.75 20.33C518.98 19.34 517.971 18.845 516.725 18.845C515.625 18.845 514.653 19.2117 513.81 19.945C513.003 20.6417 512.38 21.54 511.94 22.64C511.5 23.74 511.28 24.8767 511.28 26.05C511.28 27.6633 511.665 28.965 512.435 29.955C513.241 30.945 514.305 31.44 515.625 31.44ZM506.77 48.985C506.77 50.3417 507.338 51.4233 508.475 52.23C509.648 53.0733 511.206 53.495 513.15 53.495C515.68 53.495 517.55 52.9267 518.76 51.79C519.97 50.6533 520.575 49.2967 520.575 47.72C520.575 46.6933 520.263 45.8683 519.64 45.245C519.053 44.6583 518.265 44.2 517.275 43.87C516.285 43.54 515.203 43.265 514.03 43.045C512.893 42.8617 511.775 42.6417 510.675 42.385C508.988 43.5583 507.906 44.6767 507.43 45.74C506.99 46.84 506.77 47.9217 506.77 48.985ZM539.866 42.55C536.676 42.55 534.311 41.56 532.771 39.58C531.268 37.6 530.516 35.0333 530.516 31.88C530.516 30.1567 530.828 28.415 531.451 26.655C532.074 24.8583 532.973 23.2083 534.146 21.705C535.319 20.2017 536.713 18.9917 538.326 18.075C539.939 17.1583 541.718 16.7 543.661 16.7C546.851 16.7 549.198 17.69 550.701 19.67C552.241 21.65 553.011 24.2167 553.011 27.37C553.011 29.02 552.699 30.7433 552.076 32.54C551.489 34.3 550.609 35.95 549.436 37.49C548.299 38.9933 546.924 40.2217 545.311 41.175C543.698 42.0917 541.883 42.55 539.866 42.55ZM540.471 40.46C542.048 40.46 543.423 39.855 544.596 38.645C545.769 37.3983 546.668 35.7667 547.291 33.75C547.914 31.6967 548.226 29.46 548.226 27.04C548.226 24.3267 547.859 22.2733 547.126 20.88C546.429 19.45 545.109 18.735 543.166 18.735C541.626 18.735 540.251 19.3033 539.041 20.44C537.868 21.54 536.951 23.08 536.291 25.06C535.631 27.04 535.301 29.3683 535.301 32.045C535.301 34.7583 535.668 36.8483 536.401 38.315C537.134 39.745 538.491 40.46 540.471 40.46ZM564.197 42.55C562.84 42.55 561.722 42.0183 560.842 40.955C559.999 39.8917 559.577 38.4433 559.577 36.61C559.577 36.2433 559.595 35.8767 559.632 35.51C559.705 35.1433 559.76 34.7767 559.797 34.41L562.272 20.605L557.982 18.68V18.35L566.782 16.7H567.002L564.142 33.53C563.995 34.4467 563.922 35.1067 563.922 35.51C563.922 36.5367 564.16 37.4167 564.637 38.15C565.15 38.8467 565.975 39.195 567.112 39.195C567.882 39.195 568.652 38.92 569.422 38.37C570.229 37.82 570.999 37.16 571.732 36.39C572.465 35.62 573.125 34.905 573.712 34.245L576.077 20.605L572.282 18.68V18.35L580.642 16.7H580.862L577.562 35.455C577.379 36.555 577.342 37.3433 577.452 37.82C577.599 38.2967 577.947 38.535 578.497 38.535C579.12 38.535 579.799 38.205 580.532 37.545C581.265 36.8483 581.962 35.8033 582.622 34.41L583.337 34.74C582.274 37.49 581.119 39.4883 579.872 40.735C578.662 41.945 577.415 42.55 576.132 42.55C574.849 42.55 573.969 42.055 573.492 41.065C573.052 40.075 572.96 38.755 573.217 37.105L573.272 36.775H573.107C571.86 38.1683 570.779 39.2867 569.862 40.13C568.945 40.9733 568.047 41.5967 567.167 42C566.324 42.3667 565.334 42.55 564.197 42.55ZM594.188 42L589.293 20.33L584.618 18.68V18.35L592.758 16.7H592.923L597.103 35.895H597.323L601.448 29.735C602.732 27.7917 603.502 26.2883 603.758 25.225C604.052 24.1617 604.198 23.2817 604.198 22.585C604.198 21.9983 604.052 21.54 603.758 21.21C603.465 20.8433 603.098 20.5317 602.658 20.275L601.943 19.835V19.615L602.823 17.965C603.117 17.4517 603.355 17.1217 603.538 16.975C603.758 16.7917 604.07 16.7 604.473 16.7C605.06 16.7 605.592 16.9383 606.068 17.415C606.582 17.8917 606.985 18.46 607.278 19.12C607.572 19.78 607.718 20.4217 607.718 21.045C607.718 21.925 607.425 23.0067 606.838 24.29C606.252 25.5733 605.225 27.2967 603.758 29.46L595.343 42H594.188ZM616.787 34.6416C617.915 34.6416 618.792 35.0444 619.418 35.8501C620.045 36.6379 620.242 37.5868 620.009 38.6968C619.759 39.8247 619.15 40.7915 618.183 41.5972C617.216 42.3849 616.169 42.7788 615.041 42.7788C613.931 42.7788 613.063 42.3849 612.436 41.5972C611.809 40.7915 611.621 39.8247 611.872 38.6968C612.105 37.5688 612.705 36.611 613.671 35.8232C614.638 35.0355 615.677 34.6416 616.787 34.6416ZM618.002 55.2C617.158 55.2 616.498 54.9983 616.022 54.595C615.545 54.2283 615.307 53.8067 615.307 53.33C615.307 53 615.417 52.615 615.637 52.175L616.407 50.525H616.737L617.782 51.13C618.332 51.46 619.083 51.625 620.037 51.625C621.687 51.625 622.97 50.8183 623.887 49.205C624.84 47.5917 625.518 45.5017 625.922 42.935L629.332 19.67H624.987V17.25H629.662L629.992 15.05C630.102 14.3167 630.432 13.3633 630.982 12.19C631.532 11.0167 632.265 9.78833 633.182 8.505C634.098 7.185 635.143 5.93833 636.317 4.765C637.527 3.59166 638.81 2.63833 640.167 1.905C641.56 1.135 642.99 0.749997 644.457 0.749997C644.787 0.749997 645.135 0.804997 645.502 0.914998C645.868 0.98833 646.162 1.08 646.382 1.19C646.858 1.44667 647.188 1.685 647.372 1.905C647.555 2.08833 647.647 2.30833 647.647 2.565C647.647 2.71166 647.592 2.91333 647.482 3.17C647.408 3.39 647.317 3.59166 647.207 3.775L646.327 5.425H645.942L644.677 4.82C643.76 4.41666 642.66 4.215 641.377 4.215C639.47 4.215 637.948 5.02167 636.812 6.635C635.675 8.24833 634.923 10.32 634.557 12.85L633.897 17.25H640.112V19.67H633.567L630.432 40.845C630.322 41.5417 630.028 42.4767 629.552 43.65C629.075 44.86 628.433 46.125 627.627 47.445C626.857 48.765 625.958 50.0117 624.932 51.185C623.942 52.3583 622.86 53.3117 621.687 54.045C620.513 54.815 619.285 55.2 618.002 55.2ZM642.405 42L646.2 20.605L641.91 18.68V18.35L649.665 16.7H649.83V23.465H650.05C651.223 21.3017 652.213 19.7617 653.02 18.845C653.863 17.8917 654.597 17.305 655.22 17.085C655.88 16.8283 656.467 16.7 656.98 16.7C657.64 16.7 658.245 16.92 658.795 17.36C659.345 17.7633 659.62 18.24 659.62 18.79C659.62 18.9733 659.565 19.175 659.455 19.395L658.08 22.2H657.75L657.145 21.76C656.852 21.54 656.522 21.3933 656.155 21.32C655.825 21.21 655.495 21.155 655.165 21.155C654.505 21.155 653.9 21.3017 653.35 21.595C652.837 21.8517 652.25 22.42 651.59 23.3C650.967 24.1433 650.16 25.4267 649.17 27.15L646.585 42H642.405Z" fill="black"/>
    <script xmlns="" id="bw-fido2-page-script"/><script xmlns=""/>
</svg>