<svg width="185" height="40" viewBox="0 0 185 40" fill="none" xmlns="http://www.w3.org/2000/svg">
<path d="M3.475 26.25C2.80833 26.25 2.26667 25.9667 1.85 25.4C1.45 24.8167 1.25 23.95 1.25 22.8C1.25 21.7667 1.40833 20.7583 1.725 19.775C2.05833 18.7917 2.50833 17.9 3.075 17.1C3.65833 16.3 4.325 15.6667 5.075 15.2C5.825 14.7333 6.625 14.5 7.475 14.5C8.075 14.5 8.65 14.6083 9.2 14.825L10.225 9L8.05 8.15V8L12.375 7.25H12.45L9.675 23.025C9.59167 23.525 9.575 23.8833 9.625 24.1C9.675 24.3167 9.81667 24.425 10.05 24.425C10.3333 24.425 10.6417 24.275 10.975 23.975C11.3083 23.6583 11.625 23.1833 11.925 22.55L12.25 22.7C11.7667 23.95 11.2417 24.8583 10.675 25.425C10.125 25.975 9.55833 26.25 8.975 26.25C8.39167 26.25 7.99167 26.025 7.775 25.575C7.55833 25.125 7.51667 24.525 7.65 23.775L7.775 23.125H7.675C6.275 25.2083 4.875 26.25 3.475 26.25ZM3.15 21.825C3.15 22.875 3.26667 23.6 3.5 24C3.73333 24.4 4.11667 24.6 4.65 24.6C5.13333 24.6 5.675 24.3583 6.275 23.875C6.875 23.375 7.44167 22.7167 7.975 21.9L8.875 16.775C8.525 16.3083 8.18333 15.975 7.85 15.775C7.53333 15.575 7.16667 15.475 6.75 15.475C6.08333 15.475 5.475 15.7667 4.925 16.35C4.39167 16.9333 3.95833 17.7083 3.625 18.675C3.30833 19.625 3.15 20.675 3.15 21.825ZM17.8412 26.25C16.5579 26.25 15.6162 25.9 15.0162 25.2C14.4162 24.4833 14.1162 23.5167 14.1162 22.3C14.1162 21.3167 14.2745 20.3667 14.5912 19.45C14.9245 18.5167 15.3745 17.6833 15.9412 16.95C16.5245 16.2 17.1912 15.6083 17.9412 15.175C18.7079 14.725 19.5329 14.5 20.4162 14.5C21.2495 14.5 21.8745 14.6917 22.2912 15.075C22.7245 15.4583 22.9412 15.9083 22.9412 16.425C22.9412 16.9917 22.7412 17.5167 22.3412 18C21.9412 18.4667 21.2412 18.9 20.2412 19.3C19.2579 19.6833 17.8662 20.025 16.0662 20.325C16.0329 20.6583 16.0162 21.0083 16.0162 21.375C16.0162 22.3917 16.2329 23.2 16.6662 23.8C17.0995 24.4 17.7829 24.7 18.7162 24.7C19.2662 24.7 19.8079 24.55 20.3412 24.25C20.8745 23.95 21.4245 23.4583 21.9912 22.775H22.0412L22.2912 22.975C21.7245 23.9583 21.0412 24.75 20.2412 25.35C19.4579 25.95 18.6579 26.25 17.8412 26.25ZM19.7412 15.375C18.8412 15.375 18.0745 15.75 17.4412 16.5C16.8245 17.2333 16.4079 18.2083 16.1912 19.425C17.4412 19.2083 18.4162 18.975 19.1162 18.725C19.8162 18.475 20.3079 18.1833 20.5912 17.85C20.8745 17.5 21.0162 17.0667 21.0162 16.55C21.0162 16.2167 20.9079 15.9417 20.6912 15.725C20.4745 15.4917 20.1579 15.375 19.7412 15.375ZM20.5662 12.75L23.2162 8.325H25.1662C25.1162 8.575 25.0162 8.81667 24.8662 9.05C24.7162 9.28333 24.4579 9.56667 24.0912 9.9L20.8162 12.75H20.5662ZM22.0252 32C21.6419 32 21.3419 31.9083 21.1252 31.725C20.9085 31.5583 20.8002 31.3667 20.8002 31.15C20.8002 31 20.8502 30.825 20.9502 30.625L21.3002 29.875H21.4502L21.9252 30.15C22.1752 30.3 22.5169 30.375 22.9502 30.375C23.7002 30.375 24.2835 30.0083 24.7002 29.275C25.1335 28.5417 25.4419 27.5917 25.6252 26.425L27.1752 15.85H25.2002V14.75H27.3252L27.4752 13.75C27.5585 13.2 27.7919 12.5583 28.1752 11.825C28.5752 11.0917 29.0835 10.375 29.7002 9.675C30.3335 8.975 31.0419 8.4 31.8252 7.95C32.6252 7.48333 33.4752 7.25 34.3752 7.25C34.9752 7.25 35.5002 7.325 35.9502 7.475C36.4169 7.625 36.8085 7.80833 37.1252 8.025C37.3085 8.14167 37.4502 8.26667 37.5502 8.4C37.6669 8.51667 37.7252 8.675 37.7252 8.875C37.7252 9.025 37.6752 9.175 37.5752 9.325C37.4919 9.45833 37.4169 9.56667 37.3502 9.65L36.9002 10.2H36.7252L36.2502 9.85C35.7669 9.48333 35.3252 9.225 34.9252 9.075C34.5419 8.90833 34.0585 8.825 33.4752 8.825C32.3585 8.825 31.4669 9.18333 30.8002 9.9C30.1335 10.6167 29.7169 11.5667 29.5502 12.75L29.2502 14.75H37.2252L35.7502 23.025C35.6669 23.525 35.6502 23.8833 35.7002 24.1C35.7669 24.3167 35.9085 24.425 36.1252 24.425C36.4085 24.425 36.7169 24.275 37.0502 23.975C37.3835 23.6583 37.7002 23.1833 38.0002 22.55L38.3252 22.7C37.8419 23.95 37.3169 24.8583 36.7502 25.425C36.2002 25.975 35.6335 26.25 35.0502 26.25C34.4669 26.25 34.0669 26.025 33.8502 25.575C33.6335 25.125 33.5919 24.525 33.7252 23.775L35.1252 15.85H29.1002L27.6752 25.475C27.6252 25.7917 27.4919 26.2167 27.2752 26.75C27.0585 27.3 26.7669 27.875 26.4002 28.475C26.0502 29.075 25.6419 29.6417 25.1752 30.175C24.7252 30.7083 24.2335 31.1417 23.7002 31.475C23.1669 31.825 22.6085 32 22.0252 32ZM42.6607 26.25C41.8107 26.25 41.1191 26.1333 40.5857 25.9C40.0524 25.65 39.6691 25.3417 39.4357 24.975C39.3357 24.825 39.2691 24.7 39.2357 24.6C39.2024 24.5 39.1857 24.3917 39.1857 24.275C39.1857 24.175 39.2024 24.075 39.2357 23.975C39.2691 23.8583 39.3524 23.7667 39.4857 23.7L40.0357 23.4H40.2107L40.6357 24.125C40.8857 24.5417 41.2191 24.8583 41.6357 25.075C42.0524 25.275 42.4691 25.375 42.8857 25.375C43.5191 25.375 44.0357 25.2083 44.4357 24.875C44.8524 24.5417 45.0607 24.0583 45.0607 23.425C45.0607 22.775 44.8441 22.275 44.4107 21.925C43.9941 21.575 43.5191 21.2417 42.9857 20.925C42.3524 20.5417 41.8774 20.1917 41.5607 19.875C41.2441 19.5583 41.0274 19.2333 40.9107 18.9C40.7941 18.5667 40.7357 18.1667 40.7357 17.7C40.7357 17.2167 40.9191 16.7333 41.2857 16.25C41.6524 15.75 42.1357 15.3333 42.7357 15C43.3357 14.6667 43.9691 14.5 44.6357 14.5C45.3691 14.5 45.9441 14.6167 46.3607 14.85C46.7774 15.0667 47.1024 15.35 47.3357 15.7C47.4857 15.9333 47.5607 16.15 47.5607 16.35C47.5607 16.4667 47.5274 16.5833 47.4607 16.7C47.4107 16.8167 47.3274 16.9083 47.2107 16.975L46.7357 17.225H46.5607L46.0107 16.45C45.7774 16.1167 45.5107 15.8667 45.2107 15.7C44.9274 15.5167 44.5691 15.425 44.1357 15.425C43.6524 15.425 43.2357 15.575 42.8857 15.875C42.5524 16.1583 42.3857 16.5333 42.3857 17C42.3857 17.5333 42.5441 17.975 42.8607 18.325C43.1941 18.675 43.5774 18.975 44.0107 19.225C44.6107 19.575 45.1024 19.9083 45.4857 20.225C45.8857 20.5417 46.1857 20.9 46.3857 21.3C46.5857 21.7 46.6857 22.2083 46.6857 22.825C46.6857 23.4083 46.5107 23.9667 46.1607 24.5C45.8107 25.0167 45.3274 25.4417 44.7107 25.775C44.1107 26.0917 43.4274 26.25 42.6607 26.25ZM51.0742 26.125C50.6576 26.125 50.2992 25.975 49.9992 25.675C49.6992 25.375 49.5492 25.0167 49.5492 24.6C49.5492 24.1833 49.6992 23.825 49.9992 23.525C50.2992 23.225 50.6576 23.075 51.0742 23.075C51.4909 23.075 51.8492 23.225 52.1492 23.525C52.4492 23.825 52.5992 24.1833 52.5992 24.6C52.5992 25.0167 52.4492 25.375 52.1492 25.675C51.8492 25.975 51.4909 26.125 51.0742 26.125Z" fill="#161616"/>
<path d="M63.8861 25.5782H66.7199V10.9928H63.8861V16.2043C62.8633 15.2532 61.6909 14.7777 60.3272 14.7777C57.3874 14.7777 55 17.0366 55 20.3267C55 23.5569 57.5149 25.8562 60.3915 25.8562C61.8194 25.8562 62.8848 25.3803 63.8861 24.4683V25.5782ZM60.9035 17.1954C62.693 17.1954 64.0136 18.4439 64.0136 20.2871C64.0136 22.2094 62.6499 23.4381 60.9035 23.4381C59.1342 23.4381 57.8559 22.114 57.8559 20.3104C57.8559 18.5859 59.0278 17.2002 60.9031 17.2002L60.9035 17.1954ZM77.9529 25.5782H80.7867V15.0548H77.9529V16.2043C76.9301 15.2532 75.7578 14.7777 74.3941 14.7777C71.4537 14.7777 69.0668 17.0366 69.0668 20.3267C69.0668 23.5569 71.5817 25.8562 74.4583 25.8562C75.888 25.8562 76.9525 25.3803 77.9555 24.4683V25.5782H77.9529ZM74.9703 17.1954C76.7594 17.1954 78.0804 18.4439 78.0804 20.2871C78.0804 22.2094 76.7167 23.4381 74.9703 23.4381C73.201 23.4381 71.9227 22.114 71.9227 20.3104C71.9227 18.5859 73.0946 17.2002 74.9699 17.2002L74.9703 17.1954ZM82.5376 15.0548V17.3142H83.9866V25.5782H86.824V17.3142H88.5088V15.0548H86.8284V11.1705H83.9954V15.0548H82.5376ZM98.4282 25.5782H101.263V15.0548H98.4282V16.2043C97.4059 15.2532 96.234 14.7777 94.8703 14.7777C91.9295 14.7777 89.543 17.0366 89.543 20.3267C89.543 23.5569 92.0575 25.8562 94.9341 25.8562C96.362 25.8562 97.4274 25.3803 98.4286 24.4683L98.4282 25.5782ZM95.4457 17.1954C97.2361 17.1954 98.5567 18.4439 98.5567 20.2871C98.5567 22.2094 97.193 23.4381 95.4457 23.4381C93.6772 23.4381 92.3984 22.114 92.3984 20.3104C92.3984 18.5859 93.5703 17.2002 95.4457 17.2002V17.1954ZM105.677 22.8235C104.782 22.8235 104.036 23.4777 104.036 24.3298C104.036 25.1621 104.782 25.8562 105.677 25.8562C106.593 25.8562 107.296 25.1621 107.296 24.3298C107.296 23.4975 106.572 22.8235 105.677 22.8235ZM121.281 15.0548H118.447V16.2043C117.382 15.273 116.274 14.7777 114.867 14.7777C111.99 14.7777 109.579 16.9178 109.579 20.1678C109.579 23.3189 111.964 25.5787 115.012 25.5787C116.481 25.5787 117.502 25.1225 118.443 24.2704C118.443 25.2611 118.421 25.9746 117.74 26.5693C117.229 27.0048 116.376 27.26 115.329 27.26C114.132 27.26 113.283 26.9828 112.707 26.3494H109.575C110.34 28.5489 112.32 29.6795 115.435 29.6795C117.159 29.6795 118.523 29.3011 119.543 28.5093C120.841 27.4799 121.268 26.1118 121.268 24.0707V15.0526L121.281 15.0548ZM115.505 17.1954C117.381 17.1954 118.595 18.5033 118.595 20.2074C118.595 21.9912 117.295 23.1605 115.548 23.1605C113.779 23.1605 112.437 21.9319 112.437 20.1876C112.437 18.5626 113.631 17.1954 115.505 17.1954ZM129.466 14.7777C126.377 14.7777 123.607 17.1356 123.607 20.3267C123.607 23.4183 126.207 25.8562 129.488 25.8562C132.94 25.8562 135.475 23.3585 135.475 20.3069C135.475 17.1954 132.769 14.7777 129.466 14.7777ZM129.509 17.2746C131.363 17.2746 132.62 18.5428 132.62 20.3267C132.62 22.1698 131.256 23.3585 129.509 23.3585C127.676 23.3585 126.462 22.0902 126.462 20.3069C126.462 18.5626 127.74 17.2746 129.509 17.2746ZM137.77 19.8709C137.77 20.7428 137.727 21.2381 137.876 22.0902C138.324 24.5475 140.007 25.836 142.734 25.836C144.311 25.836 145.483 25.4401 146.378 24.5075C147.575 23.2793 147.702 21.8527 147.702 19.9105V15.0548H144.869V20.6636C144.869 22.447 144.253 23.4183 142.74 23.4183C141.249 23.4183 140.611 22.4272 140.611 20.5444V15.0544H137.778V19.8714L137.77 19.8709ZM156.021 25.5782L160.837 15.0548H157.96L155.105 21.2575L152.25 15.0548H149.351L154.186 25.5782H156.021Z" fill="#161616"/>
<path d="M163.213 23.4926C163.572 23.4926 163.873 23.6091 164.115 23.8419C164.365 24.0648 164.491 24.3405 164.491 24.6689C164.491 24.9945 164.366 25.2731 164.115 25.5048C163.866 25.7306 163.565 25.8435 163.213 25.8435C162.864 25.8435 162.564 25.7306 162.312 25.5048C162.071 25.2701 161.951 24.9901 161.951 24.6645C161.951 24.339 162.073 24.0633 162.316 23.8375C162.568 23.6029 162.869 23.4856 163.218 23.4856L163.213 23.4926ZM175.102 15.3126L174.877 16.0816H173.048L171.67 21.1739C171.06 23.4189 170.446 25.155 169.828 26.3824C168.951 28.1144 168.007 29.3107 166.996 29.9711C166.228 30.4761 165.46 30.7286 164.691 30.7286C164.193 30.7286 163.768 30.5887 163.416 30.309C163.158 30.1148 163.029 29.8623 163.029 29.5514C163.029 29.303 163.137 29.0856 163.354 28.8991C163.562 28.7202 163.822 28.6307 164.133 28.6307C164.359 28.6307 164.551 28.6967 164.709 28.8287C164.862 28.9606 164.938 29.1123 164.938 29.2835C164.938 29.4536 164.85 29.612 164.674 29.7586C164.542 29.8671 164.476 29.9478 164.476 30.0006C164.476 30.071 164.505 30.1252 164.564 30.1633C164.64 30.2161 164.757 30.2425 164.916 30.2425C165.276 30.2425 165.656 30.1369 166.055 29.9258C166.448 29.7146 166.799 29.3994 167.106 28.98C167.417 28.5665 167.709 27.9682 167.982 27.1852C168.099 26.8597 168.413 25.7834 168.923 23.9563L171.1 16.0737H168.922L169.097 15.3038C169.79 15.3038 170.273 15.2613 170.549 15.1762C170.825 15.0824 171.076 14.9113 171.301 14.6629C171.536 14.406 171.837 13.9324 172.203 13.242C172.696 12.3094 173.168 11.5865 173.62 11.0733C174.238 10.382 174.886 9.86544 175.562 9.52349C176.246 9.1745 176.888 9 177.489 9C178.123 9 178.631 9.15133 179.016 9.45398C179.4 9.7493 179.592 10.0719 179.592 10.4218C179.592 10.6933 179.497 10.9224 179.306 11.1089C179.112 11.2945 178.866 11.3874 178.567 11.3874C178.307 11.3874 178.094 11.317 177.926 11.1762C177.768 11.0354 177.689 10.8683 177.689 10.6747C177.689 10.5515 177.743 10.4005 177.852 10.2216C177.96 10.0339 178.014 9.90928 178.014 9.84769C178.014 9.73918 177.977 9.6578 177.901 9.60355C177.793 9.52495 177.634 9.48565 177.426 9.48565C176.9 9.48565 176.428 9.64109 176.01 9.95195C175.45 10.364 174.948 11.0092 174.505 11.8875C174.279 12.345 173.866 13.4829 173.265 15.3012H175.103L175.102 15.3126Z" fill="#161616"/>
<path d="M175.954 15.6857L180.277 15.0328L178.473 20.6962C179.934 18.3735 181.262 16.7499 182.456 15.8256C183.133 15.2971 183.684 15.0328 184.111 15.0328C184.386 15.0328 184.603 15.1106 184.762 15.266C184.921 15.4135 185 15.6311 185 15.9188C185 16.4314 184.858 16.9208 184.573 17.3868C184.373 17.7363 184.085 17.9111 183.709 17.9111C183.517 17.9111 183.35 17.8529 183.208 17.7365C183.074 17.6198 182.991 17.4409 182.957 17.1998C182.941 17.0526 182.903 16.9558 182.845 16.9095C182.778 16.847 182.699 16.8158 182.607 16.8158C182.465 16.8158 182.331 16.8469 182.206 16.909C181.989 17.0175 181.659 17.3196 181.216 17.8153C180.523 18.5748 179.771 19.5617 178.961 20.7758C178.609 21.289 178.308 21.8668 178.059 22.509C177.707 23.3947 177.506 23.927 177.457 24.1059L177.056 25.5708H175.138L177.457 18.3343C177.723 17.4956 177.857 16.8973 177.857 16.5395C177.857 16.3987 177.794 16.2815 177.668 16.1876C177.501 16.0615 177.279 15.9984 177.003 15.9984C176.827 15.9984 176.505 16.0322 176.036 16.0996L175.948 15.6685L175.954 15.6857Z" fill="#161616"/>
</svg>
