<svg aria-hidden="true" width="219" height="40" viewBox="0 0 219 40" fill="none" xmlns="http://www.w3.org/2000/svg">
<path d="M4.975 26.25C3.69167 26.25 2.75 25.9 2.15 25.2C1.55 24.4833 1.25 23.5167 1.25 22.3C1.25 21.3167 1.40833 20.3667 1.725 19.45C2.05833 18.5167 2.50833 17.6833 3.075 16.95C3.65833 16.2 4.325 15.6083 5.075 15.175C5.84167 14.725 6.66667 14.5 7.55 14.5C8.38333 14.5 9.00833 14.6917 9.425 15.075C9.85833 15.4583 10.075 15.9083 10.075 16.425C10.075 16.9917 9.875 17.5167 9.475 18C9.075 18.4667 8.375 18.9 7.375 19.3C6.39167 19.6833 5 20.025 3.2 20.325C3.16667 20.6583 3.15 21.0083 3.15 21.375C3.15 22.3917 3.36667 23.2 3.8 23.8C4.23333 24.4 4.91667 24.7 5.85 24.7C6.4 24.7 6.94167 24.55 7.475 24.25C8.00833 23.95 8.55833 23.4583 9.125 22.775H9.175L9.425 22.975C8.85833 23.9583 8.175 24.75 7.375 25.35C6.59167 25.95 5.79167 26.25 4.975 26.25ZM6.875 15.375C5.975 15.375 5.20833 15.75 4.575 16.5C3.95833 17.2333 3.54167 18.2083 3.325 19.425C4.575 19.2083 5.55 18.975 6.25 18.725C6.95 18.475 7.44167 18.1833 7.725 17.85C8.00833 17.5 8.15 17.0667 8.15 16.55C8.15 16.2167 8.04167 15.9417 7.825 15.725C7.60833 15.4917 7.29167 15.375 6.875 15.375ZM16.034 26.25C14.834 26.25 13.9173 25.8917 13.284 25.175C12.6507 24.4417 12.334 23.3833 12.334 22C12.334 21.1333 12.5007 20.2667 12.834 19.4C13.184 18.5167 13.6507 17.7083 14.234 16.975C14.834 16.225 15.5007 15.625 16.234 15.175C16.984 14.725 17.7507 14.5 18.534 14.5C19.1507 14.5 19.6507 14.6167 20.034 14.85C20.4173 15.0667 20.7257 15.3583 20.959 15.725C21.059 15.875 21.1257 16 21.159 16.1C21.1923 16.2 21.209 16.3083 21.209 16.425C21.209 16.5417 21.1757 16.6583 21.109 16.775C21.059 16.8917 20.9673 16.9917 20.834 17.075L20.109 17.5H19.934L19.434 16.775C19.1673 16.375 18.8923 16.0833 18.609 15.9C18.3423 15.7 17.9507 15.6 17.434 15.6C16.884 15.6 16.359 15.8667 15.859 16.4C15.3757 16.9333 14.9757 17.6167 14.659 18.45C14.359 19.2667 14.209 20.125 14.209 21.025C14.209 22.2083 14.409 23.1167 14.809 23.75C15.2257 24.3833 15.8923 24.7 16.809 24.7C17.0923 24.7 17.409 24.65 17.759 24.55C18.109 24.4333 18.4923 24.2083 18.909 23.875C19.3257 23.525 19.784 23 20.284 22.3H20.334L20.584 22.5C19.8673 23.7667 19.1423 24.7083 18.409 25.325C17.6757 25.9417 16.884 26.25 16.034 26.25ZM27.2529 26.25C25.8029 26.25 24.7279 25.8 24.0279 24.9C23.3446 24 23.0029 22.8333 23.0029 21.4C23.0029 20.6167 23.1446 19.825 23.4279 19.025C23.7113 18.2083 24.1196 17.4583 24.6529 16.775C25.1863 16.0917 25.8196 15.5417 26.5529 15.125C27.2863 14.7083 28.0946 14.5 28.9779 14.5C30.4279 14.5 31.4946 14.95 32.1779 15.85C32.8779 16.75 33.2279 17.9167 33.2279 19.35C33.2279 20.1 33.0863 20.8833 32.8029 21.7C32.5363 22.5 32.1363 23.25 31.6029 23.95C31.0863 24.6333 30.4613 25.1917 29.7279 25.625C28.9946 26.0417 28.1696 26.25 27.2529 26.25ZM27.5279 25.3C28.2446 25.3 28.8696 25.025 29.4029 24.475C29.9363 23.9083 30.3446 23.1667 30.6279 22.25C30.9113 21.3167 31.0529 20.3 31.0529 19.2C31.0529 17.9667 30.8863 17.0333 30.5529 16.4C30.2363 15.75 29.6363 15.425 28.7529 15.425C28.0529 15.425 27.4279 15.6833 26.8779 16.2C26.3446 16.7 25.9279 17.4 25.6279 18.3C25.3279 19.2 25.1779 20.2583 25.1779 21.475C25.1779 22.7083 25.3446 23.6583 25.6779 24.325C26.0113 24.975 26.6279 25.3 27.5279 25.3ZM36.9977 26.25C36.4143 26.25 36.0143 26.025 35.7977 25.575C35.581 25.125 35.5393 24.525 35.6727 23.775L38.2477 9L36.0727 8.15V8L40.3977 7.25H40.4727L37.6977 23.025C37.6143 23.525 37.5977 23.8833 37.6477 24.1C37.6977 24.3167 37.8393 24.425 38.0727 24.425C38.356 24.425 38.6643 24.275 38.9977 23.975C39.331 23.6583 39.6477 23.1833 39.9477 22.55L40.2727 22.7C39.7893 23.95 39.2643 24.8583 38.6977 25.425C38.1477 25.975 37.581 26.25 36.9977 26.25ZM46.418 26.25C44.968 26.25 43.893 25.8 43.193 24.9C42.5096 24 42.168 22.8333 42.168 21.4C42.168 20.6167 42.3096 19.825 42.593 19.025C42.8763 18.2083 43.2846 17.4583 43.818 16.775C44.3513 16.0917 44.9846 15.5417 45.718 15.125C46.4513 14.7083 47.2596 14.5 48.143 14.5C49.593 14.5 50.6596 14.95 51.343 15.85C52.043 16.75 52.393 17.9167 52.393 19.35C52.393 20.1 52.2513 20.8833 51.968 21.7C51.7013 22.5 51.3013 23.25 50.768 23.95C50.2513 24.6333 49.6263 25.1917 48.893 25.625C48.1596 26.0417 47.3346 26.25 46.418 26.25ZM46.693 25.3C47.4096 25.3 48.0346 25.025 48.568 24.475C49.1013 23.9083 49.5096 23.1667 49.793 22.25C50.0763 21.3167 50.218 20.3 50.218 19.2C50.218 17.9667 50.0513 17.0333 49.718 16.4C49.4013 15.75 48.8013 15.425 47.918 15.425C47.218 15.425 46.593 15.6833 46.043 16.2C45.5096 16.7 45.093 17.4 44.793 18.3C44.493 19.2 44.343 20.2583 44.343 21.475C44.343 22.7083 44.5096 23.6583 44.843 24.325C45.1763 24.975 45.793 25.3 46.693 25.3ZM58.3494 22.175C57.8494 22.175 57.3911 22.1 56.9744 21.95C56.5911 22.1333 56.3161 22.3667 56.1494 22.65C55.9994 22.9167 55.9244 23.2 55.9244 23.5C55.9244 23.8333 56.0911 24.0917 56.4244 24.275C56.7577 24.4583 57.1827 24.6083 57.6994 24.725C58.2327 24.8417 58.7994 24.9667 59.3994 25.1C59.9994 25.2167 60.5577 25.3833 61.0744 25.6C61.6077 25.8 62.0411 26.075 62.3744 26.425C62.7077 26.7917 62.8744 27.275 62.8744 27.875C62.8744 28.5417 62.6661 29.1917 62.2494 29.825C61.8327 30.4583 61.2077 30.975 60.3744 31.375C59.5577 31.7917 58.5161 32 57.2494 32C55.7661 32 54.6661 31.7583 53.9494 31.275C53.2494 30.7917 52.8994 30.1833 52.8994 29.45C52.8994 28.9167 52.9827 28.5 53.1494 28.2C53.2994 27.9 53.5577 27.5667 53.9244 27.2L55.9244 26.075V26.025C55.4077 25.875 54.9744 25.6667 54.6244 25.4C54.2911 25.1333 54.1244 24.7417 54.1244 24.225C54.1244 23.875 54.1661 23.5833 54.2494 23.35C54.3327 23.1167 54.4911 22.8667 54.7244 22.6L56.3994 21.75V21.675C55.9494 21.4083 55.5911 21.05 55.3244 20.6C55.0744 20.1333 54.9494 19.6083 54.9494 19.025C54.9494 18.325 55.1494 17.6333 55.5494 16.95C55.9661 16.25 56.5244 15.6667 57.2244 15.2C57.9411 14.7333 58.7577 14.5 59.6744 14.5C60.1244 14.5 60.5911 14.5833 61.0744 14.75H64.8494V15.85H62.6244L62.5244 15.925C62.8744 16.3917 63.0494 17.0083 63.0494 17.775C63.0494 18.2417 62.9411 18.7333 62.7244 19.25C62.5077 19.75 62.1911 20.225 61.7744 20.675C61.3577 21.125 60.8577 21.4917 60.2744 21.775C59.7077 22.0417 59.0661 22.175 58.3494 22.175ZM58.7994 21.2C59.2661 21.2 59.6744 21.025 60.0244 20.675C60.3911 20.325 60.6744 19.9 60.8744 19.4C61.0911 18.8833 61.1994 18.375 61.1994 17.875C61.1994 17.1583 61.0244 16.5833 60.6744 16.15C60.3244 15.7 59.8661 15.475 59.2994 15.475C58.7994 15.475 58.3577 15.6417 57.9744 15.975C57.6077 16.2917 57.3244 16.7 57.1244 17.2C56.9244 17.7 56.8244 18.2167 56.8244 18.75C56.8244 19.4833 56.9994 20.075 57.3494 20.525C57.7161 20.975 58.1994 21.2 58.7994 21.2ZM54.7744 29.175C54.7744 29.7917 55.0327 30.2833 55.5494 30.65C56.0827 31.0333 56.7911 31.225 57.6744 31.225C58.8244 31.225 59.6744 30.9667 60.2244 30.45C60.7744 29.9333 61.0494 29.3167 61.0494 28.6C61.0494 28.1333 60.9077 27.7583 60.6244 27.475C60.3577 27.2083 59.9994 27 59.5494 26.85C59.0994 26.7 58.6077 26.575 58.0744 26.475C57.5577 26.3917 57.0494 26.2917 56.5494 26.175C55.7827 26.7083 55.2911 27.2167 55.0744 27.7C54.8744 28.2 54.7744 28.6917 54.7744 29.175ZM69.109 11.375C68.7257 11.375 68.3923 11.2333 68.109 10.95C67.8257 10.6667 67.684 10.3333 67.684 9.95C67.684 9.56667 67.8257 9.23333 68.109 8.95C68.3923 8.66667 68.7257 8.525 69.109 8.525C69.4923 8.525 69.8257 8.66667 70.109 8.95C70.3923 9.23333 70.534 9.56667 70.534 9.95C70.534 10.3333 70.3923 10.6667 70.109 10.95C69.8257 11.2333 69.4923 11.375 69.109 11.375ZM67.334 26.25C66.7507 26.25 66.3507 26.025 66.134 25.575C65.9173 25.125 65.8757 24.525 66.009 23.775L67.334 16.25L65.159 15.4V15.25L69.484 14.5H69.559L68.034 23.025C67.9507 23.525 67.934 23.8833 67.984 24.1C68.034 24.3167 68.1757 24.425 68.409 24.425C68.6923 24.425 69.0007 24.275 69.334 23.975C69.6673 23.6583 69.984 23.1833 70.284 22.55L70.609 22.7C70.1257 23.95 69.6007 24.8583 69.034 25.425C68.484 25.975 67.9173 26.25 67.334 26.25ZM76.3861 26.25C75.1028 26.25 74.1611 25.9 73.5611 25.2C72.9611 24.4833 72.6611 23.5167 72.6611 22.3C72.6611 21.3167 72.8195 20.3667 73.1361 19.45C73.4695 18.5167 73.9195 17.6833 74.4861 16.95C75.0695 16.2 75.7361 15.6083 76.4861 15.175C77.2528 14.725 78.0778 14.5 78.9611 14.5C79.7945 14.5 80.4195 14.6917 80.8361 15.075C81.2695 15.4583 81.4861 15.9083 81.4861 16.425C81.4861 16.9917 81.2861 17.5167 80.8861 18C80.4861 18.4667 79.7861 18.9 78.7861 19.3C77.8028 19.6833 76.4111 20.025 74.6111 20.325C74.5778 20.6583 74.5611 21.0083 74.5611 21.375C74.5611 22.3917 74.7778 23.2 75.2111 23.8C75.6445 24.4 76.3278 24.7 77.2611 24.7C77.8111 24.7 78.3528 24.55 78.8861 24.25C79.4195 23.95 79.9695 23.4583 80.5361 22.775H80.5861L80.8361 22.975C80.2695 23.9583 79.5861 24.75 78.7861 25.35C78.0028 25.95 77.2028 26.25 76.3861 26.25ZM78.2861 15.375C77.3861 15.375 76.6195 15.75 75.9861 16.5C75.3695 17.2333 74.9528 18.2083 74.7361 19.425C75.9861 19.2083 76.9611 18.975 77.6611 18.725C78.3611 18.475 78.8528 18.1833 79.1361 17.85C79.4195 17.5 79.5611 17.0667 79.5611 16.55C79.5611 16.2167 79.4528 15.9417 79.2361 15.725C79.0195 15.4917 78.7028 15.375 78.2861 15.375ZM85.6201 26.125C85.2035 26.125 84.8451 25.975 84.5451 25.675C84.2451 25.375 84.0951 25.0167 84.0951 24.6C84.0951 24.1833 84.2451 23.825 84.5451 23.525C84.8451 23.225 85.2035 23.075 85.6201 23.075C86.0368 23.075 86.3951 23.225 86.6951 23.525C86.9951 23.825 87.1451 24.1833 87.1451 24.6C87.1451 25.0167 86.9951 25.375 86.6951 25.675C86.3951 25.975 86.0368 26.125 85.6201 26.125Z" fill="#161616"/>
<path d="M97.8861 25.5782H100.72V10.9928H97.8861V16.2043C96.8633 15.2532 95.6909 14.7777 94.3272 14.7777C91.3874 14.7777 89 17.0366 89 20.3267C89 23.5569 91.5149 25.8562 94.3915 25.8562C95.8194 25.8562 96.8848 25.3803 97.8861 24.4683V25.5782ZM94.9035 17.1954C96.693 17.1954 98.0136 18.4439 98.0136 20.2871C98.0136 22.2094 96.6499 23.4381 94.9035 23.4381C93.1342 23.4381 91.8559 22.114 91.8559 20.3104C91.8559 18.5859 93.0278 17.2002 94.9031 17.2002L94.9035 17.1954ZM111.953 25.5782H114.787V15.0548H111.953V16.2043C110.93 15.2532 109.758 14.7777 108.394 14.7777C105.454 14.7777 103.067 17.0366 103.067 20.3267C103.067 23.5569 105.582 25.8562 108.458 25.8562C109.888 25.8562 110.953 25.3803 111.956 24.4683V25.5782H111.953ZM108.97 17.1954C110.759 17.1954 112.08 18.4439 112.08 20.2871C112.08 22.2094 110.717 23.4381 108.97 23.4381C107.201 23.4381 105.923 22.114 105.923 20.3104C105.923 18.5859 107.095 17.2002 108.97 17.2002L108.97 17.1954ZM116.538 15.0548V17.3142H117.987V25.5782H120.824V17.3142H122.509V15.0548H120.828V11.1705H117.995V15.0548H116.538ZM132.428 25.5782H135.263V15.0548H132.428V16.2043C131.406 15.2532 130.234 14.7777 128.87 14.7777C125.93 14.7777 123.543 17.0366 123.543 20.3267C123.543 23.5569 126.058 25.8562 128.934 25.8562C130.362 25.8562 131.427 25.3803 132.429 24.4683L132.428 25.5782ZM129.446 17.1954C131.236 17.1954 132.557 18.4439 132.557 20.2871C132.557 22.2094 131.193 23.4381 129.446 23.4381C127.677 23.4381 126.398 22.114 126.398 20.3104C126.398 18.5859 127.57 17.2002 129.446 17.2002V17.1954ZM139.677 22.8235C138.782 22.8235 138.036 23.4777 138.036 24.3298C138.036 25.1621 138.782 25.8562 139.677 25.8562C140.593 25.8562 141.296 25.1621 141.296 24.3298C141.296 23.4975 140.572 22.8235 139.677 22.8235ZM155.281 15.0548H152.447V16.2043C151.382 15.273 150.274 14.7777 148.867 14.7777C145.99 14.7777 143.579 16.9178 143.579 20.1678C143.579 23.3189 145.964 25.5787 149.012 25.5787C150.481 25.5787 151.502 25.1225 152.443 24.2704C152.443 25.2611 152.421 25.9746 151.74 26.5693C151.229 27.0048 150.376 27.26 149.329 27.26C148.132 27.26 147.283 26.9828 146.707 26.3494H143.575C144.34 28.5489 146.32 29.6795 149.435 29.6795C151.159 29.6795 152.523 29.3011 153.543 28.5093C154.841 27.4799 155.268 26.1118 155.268 24.0707V15.0526L155.281 15.0548ZM149.505 17.1954C151.381 17.1954 152.595 18.5033 152.595 20.2074C152.595 21.9912 151.295 23.1605 149.548 23.1605C147.779 23.1605 146.437 21.9319 146.437 20.1876C146.437 18.5626 147.631 17.1954 149.505 17.1954ZM163.466 14.7777C160.377 14.7777 157.607 17.1356 157.607 20.3267C157.607 23.4183 160.207 25.8562 163.488 25.8562C166.94 25.8562 169.475 23.3585 169.475 20.3069C169.475 17.1954 166.769 14.7777 163.466 14.7777ZM163.509 17.2746C165.363 17.2746 166.62 18.5428 166.62 20.3267C166.62 22.1698 165.256 23.3585 163.509 23.3585C161.676 23.3585 160.462 22.0902 160.462 20.3069C160.462 18.5626 161.74 17.2746 163.509 17.2746ZM171.77 19.8709C171.77 20.7428 171.727 21.2381 171.876 22.0902C172.324 24.5475 174.007 25.836 176.734 25.836C178.311 25.836 179.483 25.4401 180.378 24.5075C181.575 23.2793 181.702 21.8527 181.702 19.9105V15.0548H178.869V20.6636C178.869 22.447 178.253 23.4183 176.74 23.4183C175.249 23.4183 174.611 22.4272 174.611 20.5444V15.0544H171.778V19.8714L171.77 19.8709ZM190.021 25.5782L194.837 15.0548H191.96L189.105 21.2575L186.25 15.0548H183.351L188.186 25.5782H190.021Z" fill="#161616"/>
<path d="M197.213 23.4926C197.572 23.4926 197.873 23.6091 198.115 23.8419C198.365 24.0648 198.491 24.3405 198.491 24.6689C198.491 24.9945 198.366 25.2731 198.115 25.5048C197.866 25.7306 197.565 25.8435 197.213 25.8435C196.864 25.8435 196.564 25.7306 196.312 25.5048C196.071 25.2701 195.951 24.9901 195.951 24.6645C195.951 24.339 196.073 24.0633 196.316 23.8375C196.568 23.6029 196.869 23.4856 197.218 23.4856L197.213 23.4926ZM209.102 15.3126L208.877 16.0816H207.048L205.67 21.1739C205.06 23.4189 204.446 25.155 203.828 26.3824C202.951 28.1144 202.007 29.3107 200.996 29.9711C200.228 30.4761 199.46 30.7286 198.691 30.7286C198.193 30.7286 197.768 30.5887 197.416 30.309C197.158 30.1148 197.029 29.8623 197.029 29.5514C197.029 29.303 197.137 29.0856 197.354 28.8991C197.562 28.7202 197.822 28.6307 198.133 28.6307C198.359 28.6307 198.551 28.6967 198.709 28.8287C198.862 28.9606 198.938 29.1123 198.938 29.2835C198.938 29.4536 198.85 29.612 198.674 29.7586C198.542 29.8671 198.476 29.9478 198.476 30.0006C198.476 30.071 198.505 30.1252 198.564 30.1633C198.64 30.2161 198.757 30.2425 198.916 30.2425C199.276 30.2425 199.656 30.1369 200.055 29.9258C200.448 29.7146 200.799 29.3994 201.106 28.98C201.417 28.5665 201.709 27.9682 201.982 27.1852C202.099 26.8597 202.413 25.7834 202.923 23.9563L205.1 16.0737H202.922L203.097 15.3038C203.79 15.3038 204.273 15.2613 204.549 15.1762C204.825 15.0824 205.076 14.9113 205.301 14.6629C205.536 14.406 205.837 13.9324 206.203 13.242C206.696 12.3094 207.168 11.5865 207.62 11.0733C208.238 10.382 208.886 9.86544 209.562 9.52349C210.246 9.1745 210.888 9 211.489 9C212.123 9 212.631 9.15133 213.016 9.45398C213.4 9.7493 213.592 10.0719 213.592 10.4218C213.592 10.6933 213.497 10.9224 213.306 11.1089C213.112 11.2945 212.866 11.3874 212.567 11.3874C212.307 11.3874 212.094 11.317 211.926 11.1762C211.768 11.0354 211.689 10.8683 211.689 10.6747C211.689 10.5515 211.743 10.4005 211.852 10.2216C211.96 10.0339 212.014 9.90928 212.014 9.84769C212.014 9.73918 211.977 9.6578 211.901 9.60355C211.793 9.52495 211.634 9.48565 211.426 9.48565C210.9 9.48565 210.428 9.64109 210.01 9.95195C209.45 10.364 208.948 11.0092 208.505 11.8875C208.279 12.345 207.866 13.4829 207.265 15.3012H209.103L209.102 15.3126Z" fill="#161616"/>
<path d="M209.954 15.6857L214.277 15.0328L212.473 20.6962C213.934 18.3735 215.262 16.7499 216.456 15.8256C217.133 15.2971 217.684 15.0328 218.111 15.0328C218.386 15.0328 218.603 15.1106 218.762 15.266C218.921 15.4135 219 15.6311 219 15.9188C219 16.4314 218.858 16.9208 218.573 17.3868C218.373 17.7364 218.085 17.9111 217.709 17.9111C217.517 17.9111 217.35 17.8529 217.208 17.7365C217.074 17.6198 216.991 17.4409 216.957 17.1998C216.941 17.0526 216.903 16.9558 216.845 16.9095C216.778 16.847 216.699 16.8158 216.607 16.8158C216.465 16.8158 216.331 16.8469 216.206 16.909C215.989 17.0175 215.659 17.3196 215.216 17.8153C214.523 18.5748 213.771 19.5617 212.961 20.7758C212.609 21.289 212.308 21.8668 212.059 22.509C211.707 23.3947 211.506 23.927 211.457 24.1059L211.056 25.5708H209.138L211.457 18.3343C211.723 17.4956 211.857 16.8973 211.857 16.5395C211.857 16.3987 211.794 16.2815 211.668 16.1876C211.501 16.0615 211.279 15.9984 211.003 15.9984C210.827 15.9984 210.505 16.0322 210.036 16.0996L209.948 15.6685L209.954 15.6857Z" fill="#161616"/>
</svg>
