<svg width="244" height="40" viewBox="0 0 244 40" fill="none" xmlns="http://www.w3.org/2000/svg">
<path d="M2.78831 28H0.789145L3.91942 10.1653L1.86764 9.24465V9.08682L6.18164 8.29768H6.26055L4.44552 18.6618H4.49813C5.11191 17.9779 5.64677 17.4342 6.10272 17.0309C6.57621 16.6275 7.03216 16.3382 7.47057 16.1628C7.92652 15.9875 8.43508 15.8998 8.99625 15.8998C9.85554 15.8998 10.5132 16.2505 10.9691 16.952C11.4426 17.6534 11.5741 18.6004 11.3637 19.7929L10.443 24.8697C10.3553 25.3958 10.3378 25.7729 10.3904 26.0008C10.443 26.2288 10.5921 26.3428 10.8376 26.3428C11.1357 26.3428 11.4601 26.185 11.8109 25.8693C12.1616 25.5361 12.4948 25.0363 12.8105 24.3699L13.1524 24.5278C12.6439 25.843 12.0915 26.7987 11.4952 27.395C10.9165 27.9737 10.3203 28.263 9.70648 28.263C9.0927 28.263 8.67183 28.0263 8.44385 27.5528C8.21588 27.0793 8.17204 26.448 8.31233 25.6589L9.33822 19.8718C9.4259 19.258 9.34698 18.7144 9.10147 18.2409C8.8735 17.7499 8.37371 17.5044 7.6021 17.5044C7.21629 17.5044 6.82172 17.6359 6.41838 17.8989C6.01504 18.1445 5.62047 18.4513 5.23466 18.8196C4.84886 19.1703 4.51566 19.5035 4.23508 19.8192L2.78831 28ZM16.3836 28.263C15.6821 28.263 15.1122 27.9649 14.6738 27.3687C14.2529 26.7549 14.0425 25.843 14.0425 24.633C14.0425 23.5457 14.2091 22.4848 14.5423 21.4501C14.893 20.4154 15.3665 19.4772 15.9627 18.6355C16.5765 17.7937 17.278 17.1273 18.0671 16.6363C18.8562 16.1453 19.698 15.8998 20.5924 15.8998C21.0308 15.8998 21.4517 15.9524 21.855 16.0576C22.2583 16.1628 22.6178 16.3031 22.9335 16.4785L23.8542 15.8998H24.5118L22.9072 24.8697C22.8195 25.3958 22.802 25.7729 22.8546 26.0008C22.9247 26.2288 23.0738 26.3428 23.3018 26.3428C23.5999 26.3428 23.9243 26.185 24.275 25.8693C24.6258 25.5361 24.959 25.0363 25.2746 24.3699L25.6166 24.5278C25.108 25.843 24.5556 26.7987 23.9594 27.395C23.3807 27.9737 22.7844 28.263 22.1707 28.263C21.5569 28.263 21.136 28.0263 20.908 27.5528C20.6801 27.0793 20.6362 26.448 20.7765 25.6589L20.908 24.9749H20.8028C20.1364 25.9921 19.435 26.7987 18.6984 27.395C17.9619 27.9737 17.1903 28.263 16.3836 28.263ZM16.0416 23.6071C16.0416 24.5891 16.1469 25.3257 16.3573 25.8167C16.5853 26.2902 17.0061 26.5269 17.6199 26.5269C18.0408 26.5269 18.4617 26.3866 18.8826 26.1061C19.3034 25.8255 19.7068 25.466 20.0926 25.0276C20.4784 24.5891 20.8203 24.142 21.1185 23.686L22.0917 18.2672C21.7585 17.8288 21.4166 17.4956 21.0659 17.2676C20.7327 17.0397 20.3206 16.9257 19.8295 16.9257C19.0755 16.9257 18.4091 17.2501 17.8304 17.8989C17.2692 18.5478 16.8308 19.3808 16.5151 20.3979C16.1995 21.415 16.0416 22.4848 16.0416 23.6071ZM30.5637 28.263C29.3011 28.263 28.3366 27.886 27.6702 27.1319C27.0038 26.3603 26.6706 25.2468 26.6706 23.7912C26.6706 22.8793 26.846 21.9674 27.1967 21.0555C27.565 20.1261 28.056 19.2756 28.6698 18.504C29.3011 17.7148 30.0026 17.0835 30.7742 16.61C31.5633 16.1365 32.37 15.8998 33.1942 15.8998C33.8431 15.8998 34.3692 16.0225 34.7725 16.268C35.1759 16.496 35.5003 16.8029 35.7458 17.1887C35.851 17.3465 35.9212 17.4781 35.9562 17.5833C35.9913 17.6885 36.0089 17.8025 36.0089 17.9252C36.0089 18.048 35.9738 18.1708 35.9036 18.2935C35.851 18.4163 35.7546 18.5215 35.6143 18.6092L34.8514 19.0564H34.6673L34.1412 18.2935C33.8606 17.8726 33.5713 17.5657 33.2731 17.3728C32.9926 17.1624 32.5805 17.0572 32.0368 17.0572C31.4581 17.0572 30.9057 17.3378 30.3796 17.8989C29.8711 18.4601 29.4502 19.1791 29.117 20.0559C28.8013 20.9152 28.6435 21.8184 28.6435 22.7653C28.6435 24.0104 28.8539 24.9662 29.2748 25.6326C29.7132 26.299 30.4147 26.6321 31.3792 26.6321C31.6773 26.6321 32.0105 26.5795 32.3788 26.4743C32.7471 26.3516 33.1504 26.1148 33.5888 25.7641C34.0272 25.3958 34.5095 24.8434 35.0356 24.1069H35.0882L35.3512 24.3173C34.5972 25.6501 33.8343 26.6409 33.0627 27.2898C32.2911 27.9386 31.4581 28.263 30.5637 28.263ZM36.8442 28L39.9745 10.1653L37.9227 9.24465V9.08682L42.2367 8.29768H42.3156L38.8434 28H36.8442ZM44.9461 28.263C44.5252 28.263 44.192 28.1578 43.9465 27.9474C43.7186 27.737 43.5081 27.4564 43.3152 27.1056C43.1223 26.7549 42.9031 26.3603 42.6576 25.9219L40.1586 21.3712V21.2397C41.4388 19.8893 42.4647 18.8284 43.2363 18.0568C44.0255 17.2852 44.6568 16.7328 45.1303 16.3996C45.6037 16.0664 46.0334 15.8998 46.4192 15.8998C46.6296 15.8998 46.805 15.9261 46.9453 15.9787C47.1031 16.0138 47.2259 16.0664 47.3136 16.1365C47.4363 16.2242 47.524 16.3382 47.5766 16.4785C47.6468 16.6012 47.6468 16.7415 47.5766 16.8994L47.1294 18.0042L46.9979 18.1094L46.5244 17.9252C46.4367 17.8902 46.3315 17.8639 46.2088 17.8463C46.1035 17.8288 45.9282 17.82 45.6827 17.82C45.5248 17.82 45.3319 17.8551 45.104 17.9252C44.8935 17.9779 44.6655 18.1094 44.42 18.3198L41.9211 20.5031L44.5779 25.1328C44.8409 25.5712 45.0601 25.8868 45.2355 26.0797C45.4284 26.2551 45.6476 26.3428 45.8931 26.3428C46.2088 26.3428 46.4893 26.185 46.7349 25.8693C46.9979 25.5361 47.2873 25.0363 47.6029 24.3699L47.9449 24.5278C47.3837 25.8605 46.8927 26.8163 46.4718 27.395C46.0509 27.9737 45.5424 28.263 44.9461 28.263ZM51.3855 28.263C50.684 28.263 50.1141 27.9649 49.6756 27.3687C49.2548 26.7549 49.0443 25.843 49.0443 24.633C49.0443 23.5457 49.2109 22.4848 49.5441 21.4501C49.8949 20.4154 50.3683 19.4772 50.9646 18.6355C51.5784 17.7937 52.2798 17.1273 53.069 16.6363C53.8581 16.1453 54.6999 15.8998 55.5942 15.8998C56.0327 15.8998 56.4535 15.9524 56.8569 16.0576C57.2602 16.1628 57.6197 16.3031 57.9354 16.4785L58.856 15.8998H59.5137L57.9091 24.8697C57.8214 25.3958 57.8038 25.7729 57.8565 26.0008C57.9266 26.2288 58.0757 26.3428 58.3036 26.3428C58.6018 26.3428 58.9262 26.185 59.2769 25.8693C59.6276 25.5361 59.9608 25.0363 60.2765 24.3699L60.6185 24.5278C60.1099 25.843 59.5575 26.7987 58.9613 27.395C58.3825 27.9737 57.7863 28.263 57.1725 28.263C56.5587 28.263 56.1379 28.0263 55.9099 27.5528C55.6819 27.0793 55.6381 26.448 55.7784 25.6589L55.9099 24.9749H55.8047C55.1383 25.9921 54.4368 26.7987 53.7003 27.395C52.9638 27.9737 52.1921 28.263 51.3855 28.263ZM51.0435 23.6071C51.0435 24.5891 51.1487 25.3257 51.3592 25.8167C51.5871 26.2902 52.008 26.5269 52.6218 26.5269C53.0427 26.5269 53.4635 26.3866 53.8844 26.1061C54.3053 25.8255 54.7086 25.466 55.0944 25.0276C55.4802 24.5891 55.8222 24.142 56.1203 23.686L57.0936 18.2672C56.7604 17.8288 56.4185 17.4956 56.0677 17.2676C55.7345 17.0397 55.3224 16.9257 54.8314 16.9257C54.0773 16.9257 53.4109 17.2501 52.8322 17.8989C52.2711 18.5478 51.8326 19.3808 51.517 20.3979C51.2013 21.415 51.0435 22.4848 51.0435 23.6071ZM64.0601 28.263C63.4814 28.263 63.043 28.0789 62.7448 27.7106C62.4467 27.3424 62.2977 26.8251 62.2977 26.1587C62.2977 26.0184 62.3064 25.8605 62.324 25.6852C62.3415 25.5098 62.3678 25.3344 62.4029 25.1591L63.797 17.3202H61.8505V17.1624L64.0864 16.1628L66.3486 13.2693H66.5064L66.0066 16.1628H69.2947V17.3202H65.7962L64.6125 24.0017C64.5774 24.2296 64.5511 24.4401 64.5336 24.633C64.516 24.8083 64.5073 24.9662 64.5073 25.1065C64.5073 25.5273 64.5774 25.8255 64.7177 26.0008C64.858 26.1762 65.0421 26.2639 65.2701 26.2639C65.6734 26.2639 66.1031 26.0359 66.559 25.58C67.0325 25.124 67.4622 24.4664 67.848 23.6071L68.1899 23.7649C67.6112 25.4309 66.9624 26.5971 66.2434 27.2635C65.5419 27.9299 64.8141 28.263 64.0601 28.263ZM71.148 28H69.1488L72.2791 10.1653L70.2273 9.24465V9.08682L74.5413 8.29768H74.6202L72.8052 18.6618H72.8578C73.4716 17.9779 74.0065 17.4342 74.4624 17.0309C74.9359 16.6275 75.3918 16.3382 75.8303 16.1628C76.2862 15.9875 76.7948 15.8998 77.3559 15.8998C78.2152 15.8998 78.8729 16.2505 79.3288 16.952C79.8023 17.6534 79.9338 18.6004 79.7234 19.7929L78.8027 24.8697C78.715 25.3958 78.6975 25.7729 78.7501 26.0008C78.8027 26.2288 78.9518 26.3428 79.1973 26.3428C79.4954 26.3428 79.8198 26.185 80.1706 25.8693C80.5213 25.5361 80.8545 25.0363 81.1701 24.3699L81.5121 24.5278C81.0035 25.843 80.4511 26.7987 79.8549 27.395C79.2762 27.9737 78.68 28.263 78.0662 28.263C77.4524 28.263 77.0315 28.0263 76.8035 27.5528C76.5756 27.0793 76.5317 26.448 76.672 25.6589L77.6979 19.8718C77.7856 19.258 77.7067 18.7144 77.4612 18.2409C77.2332 17.7499 76.7334 17.5044 75.9618 17.5044C75.576 17.5044 75.1814 17.6359 74.7781 17.8989C74.3747 18.1445 73.9802 18.4513 73.5943 18.8196C73.2085 19.1703 72.8754 19.5035 72.5948 19.8192L71.148 28ZM86.9529 28.263C85.4272 28.263 84.2961 27.7896 83.5596 26.8426C82.8406 25.8956 82.4811 24.6681 82.4811 23.1599C82.4811 22.3357 82.6301 21.5027 82.9282 20.661C83.2264 19.8017 83.656 19.0125 84.2172 18.2935C84.7784 17.5745 85.4447 16.9958 86.2164 16.5574C86.988 16.119 87.8385 15.8998 88.7679 15.8998C90.2936 15.8998 91.4159 16.3733 92.1349 17.3202C92.8715 18.2672 93.2397 19.4948 93.2397 21.0029C93.2397 21.7921 93.0907 22.6163 92.7926 23.4756C92.512 24.3173 92.0911 25.1065 91.5299 25.843C90.9863 26.562 90.3287 27.1495 89.5571 27.6054C88.7855 28.0438 87.9174 28.263 86.9529 28.263ZM87.2422 27.2635C87.9963 27.2635 88.6539 26.9741 89.2151 26.3954C89.7763 25.7992 90.2059 25.0188 90.504 24.0543C90.8022 23.0722 90.9512 22.0025 90.9512 20.8451C90.9512 19.5474 90.7759 18.5653 90.4251 17.8989C90.0919 17.215 89.4606 16.8731 88.5312 16.8731C87.7946 16.8731 87.137 17.1449 86.5583 17.6885C85.9971 18.2146 85.5587 18.9511 85.2431 19.8981C84.9274 20.8451 84.7696 21.9587 84.7696 23.2388C84.7696 24.5365 84.945 25.5361 85.2957 26.2376C85.6464 26.9215 86.2953 27.2635 87.2422 27.2635ZM95.1544 28L96.9695 17.7674L94.9177 16.8468V16.6889L98.653 15.8998H98.7319V18.6618H98.8371C99.4509 17.9779 99.9945 17.4342 100.468 17.0309C100.942 16.6275 101.397 16.3382 101.836 16.1628C102.274 15.9875 102.783 15.8998 103.362 15.8998C104.221 15.8998 104.878 16.2505 105.334 16.952C105.808 17.6534 105.939 18.6004 105.729 19.7929L104.808 24.8697C104.721 25.3958 104.703 25.7729 104.756 26.0008C104.826 26.2288 104.975 26.3428 105.203 26.3428C105.501 26.3428 105.825 26.185 106.176 25.8693C106.527 25.5361 106.86 25.0363 107.176 24.3699L107.518 24.5278C107.009 25.843 106.457 26.7987 105.861 27.395C105.282 27.9737 104.686 28.263 104.072 28.263C103.458 28.263 103.037 28.0263 102.809 27.5528C102.581 27.0793 102.537 26.448 102.678 25.6589L103.704 19.8718C103.791 19.258 103.712 18.7144 103.467 18.2409C103.239 17.7499 102.739 17.5044 101.967 17.5044C101.582 17.5044 101.178 17.6359 100.757 17.8989C100.354 18.162 99.9595 18.4777 99.5737 18.8459C99.1879 19.1966 98.8459 19.5386 98.5478 19.8718L97.1536 28H95.1544Z" fill="#161616"/>
<g clip-path="url(#clip0_368_1544)">
<path d="M109.611 28.6307C109.176 28.6307 108.798 28.471 108.479 28.1518C108.16 27.8325 108 27.4551 108 27.0197C108 26.5698 108.16 26.1852 108.479 25.866C108.798 25.5467 109.176 25.387 109.611 25.387C110.046 25.387 110.424 25.5467 110.743 25.866C111.062 26.1852 111.222 26.5698 111.222 27.0197C111.222 27.4551 111.062 27.8325 110.743 28.1518C110.424 28.471 110.046 28.6307 109.611 28.6307Z" fill="#161616"/>
<path d="M125.646 12.4342V28.5218H122.99V26.9544C121.814 28.2606 120.639 28.8048 119.006 28.8048C115.567 28.8048 112.954 26.0619 112.954 22.4699C112.954 18.8562 115.61 16.0261 119.006 16.0261C120.508 16.0261 121.902 16.5921 122.751 17.5282V12.4342H125.646ZM119.398 18.682C117.417 18.682 115.871 20.2712 115.871 22.3393C115.871 24.4945 117.439 26.149 119.463 26.149C121.423 26.149 122.968 24.5162 122.968 22.4264C122.968 20.293 121.423 18.682 119.398 18.682Z" fill="#161616"/>
<path d="M140.013 16.4615V28.5218H137.357V26.9544C136.203 28.2824 135.05 28.8048 133.352 28.8048C129.825 28.8048 127.278 26.1707 127.278 22.5352C127.278 18.8562 129.847 16.1785 133.417 16.1785C135.158 16.1785 136.356 16.7445 137.357 18.0725V16.4615H140.013ZM133.722 18.8344C131.654 18.8344 130.195 20.4018 130.195 22.6005C130.195 24.7122 131.654 26.149 133.765 26.149C134.875 26.149 135.812 25.7789 136.399 25.0605C136.922 24.4509 137.27 23.4495 137.27 22.5788C137.27 20.38 135.79 18.8344 133.722 18.8344Z" fill="#161616"/>
<path d="M142.751 28.5218V19.0956H141.336V16.4615H142.751V12.4342H145.646V16.4615H147.388V19.0956H145.646V28.5218H142.751Z" fill="#161616"/>
<path d="M160.667 16.4615V28.5218H158.011V26.9544C156.857 28.2824 155.703 28.8048 154.005 28.8048C150.479 28.8048 147.932 26.1707 147.932 22.5352C147.932 18.8562 150.501 16.1785 154.071 16.1785C155.812 16.1785 157.01 16.7445 158.011 18.0725V16.4615H160.667ZM154.376 18.8344C152.307 18.8344 150.849 20.4018 150.849 22.6005C150.849 24.7122 152.307 26.149 154.419 26.149C155.529 26.149 156.465 25.7789 157.053 25.0605C157.576 24.4509 157.924 23.4495 157.924 22.5788C157.924 20.38 156.444 18.8344 154.376 18.8344Z" fill="#161616"/>
<path d="M164.349 28.6307C163.914 28.6307 163.537 28.471 163.217 28.1518C162.898 27.8325 162.738 27.4551 162.738 27.0197C162.738 26.5698 162.898 26.1852 163.217 25.866C163.537 25.5467 163.914 25.387 164.349 25.387C164.785 25.387 165.162 25.5467 165.481 25.866C165.801 26.1852 165.96 26.5698 165.96 27.0197C165.96 27.4551 165.801 27.8325 165.481 28.1518C165.162 28.471 164.785 28.6307 164.349 28.6307Z" fill="#161616"/>
<path d="M177.576 16.4615H180.341V26.236C180.341 28.5436 179.971 30.0239 179.122 31.1342C177.99 32.571 176.27 33.3329 174.093 33.3329C171.132 33.3329 168.868 31.9179 167.889 29.5015H171.176C172.025 30.4376 172.852 30.7859 174.202 30.7859C176.357 30.7859 177.467 29.5232 177.576 26.9327C176.444 28.2606 175.312 28.8048 173.614 28.8048C170.174 28.8048 167.693 26.1272 167.693 22.4046C167.693 18.8344 170.218 16.1785 173.636 16.1785C175.377 16.1785 176.662 16.7663 177.576 17.9854V16.4615ZM173.962 18.8344C171.938 18.8344 170.61 20.3147 170.61 22.5352C170.61 24.7339 171.938 26.149 174.006 26.149C176.096 26.149 177.445 24.7122 177.445 22.5352C177.445 20.3147 176.03 18.8344 173.962 18.8344Z" fill="#161616"/>
<path d="M188.331 16.1785C191.967 16.1785 194.775 18.9868 194.775 22.5788C194.775 25.9748 191.858 28.8048 188.353 28.8048C184.826 28.8048 181.953 25.9748 181.953 22.4917C181.953 19.0303 184.826 16.1785 188.331 16.1785ZM188.353 18.8344C186.437 18.8344 184.87 20.4671 184.87 22.4481C184.87 24.5162 186.415 26.149 188.375 26.149C190.29 26.149 191.858 24.5162 191.858 22.4917C191.858 20.4671 190.29 18.8344 188.353 18.8344Z" fill="#161616"/>
<path d="M206.915 16.4615V28.5218H204.237V27.3681C203.127 28.4348 202.234 28.8048 200.776 28.8048C199.186 28.8048 197.902 28.1735 197.097 27.0197C196.422 26.0401 196.182 24.9734 196.182 22.9271V16.4615H199.078V22.3611C199.078 23.9938 199.252 24.8646 199.665 25.387C200.057 25.9095 200.623 26.149 201.363 26.149C202.343 26.149 203.148 25.7571 203.562 25.0387C203.91 24.5162 204.019 23.7543 204.019 22.1434V16.4615H206.915Z" fill="#161616"/>
<path d="M212.655 28.5218L207.8 16.4615H211.022L213.809 24.4509L216.551 16.4615H219.817L214.962 28.5218H212.655Z" fill="#161616"/>
<path d="M222.994 28.6307C222.558 28.6307 222.181 28.471 221.862 28.1518C221.543 27.8325 221.383 27.4551 221.383 27.0197C221.383 26.5698 221.543 26.1852 221.862 25.866C222.181 25.5467 222.558 25.387 222.994 25.387C223.429 25.387 223.807 25.5467 224.126 25.866C224.445 26.1852 224.605 26.5698 224.605 27.0197C224.605 27.4551 224.445 27.8325 224.126 28.1518C223.807 28.471 223.429 28.6307 222.994 28.6307Z" fill="#161616"/>
<path d="M223.441 34.835C223.038 34.835 222.722 34.7385 222.494 34.5456C222.266 34.3703 222.152 34.1686 222.152 33.9406C222.152 33.7828 222.205 33.5987 222.31 33.3882L222.678 32.5991H222.836L223.336 32.8884C223.599 33.0463 223.958 33.1252 224.414 33.1252C225.203 33.1252 225.817 32.7394 226.256 31.9678C226.711 31.1962 227.036 30.1966 227.229 28.969L228.86 17.8421H226.782V16.6847H229.018L229.175 15.6325C229.228 15.2817 229.386 14.8258 229.649 14.2646C229.912 13.7034 230.263 13.116 230.701 12.5022C231.139 11.8709 231.639 11.2746 232.2 10.7135C232.779 10.1523 233.393 9.69635 234.042 9.34562C234.708 8.97735 235.392 8.79321 236.094 8.79321C236.251 8.79321 236.418 8.81952 236.593 8.87213C236.769 8.9072 236.909 8.95104 237.014 9.00365C237.242 9.12641 237.4 9.2404 237.488 9.34562C237.575 9.4333 237.619 9.53852 237.619 9.66127C237.619 9.73142 237.593 9.82787 237.54 9.95063C237.505 10.0558 237.461 10.1523 237.409 10.24L236.988 11.0291H236.804L236.199 10.7398C235.76 10.5469 235.234 10.4504 234.62 10.4504C233.709 10.4504 232.981 10.8362 232.437 11.6078C231.894 12.3794 231.534 13.3703 231.359 14.5803L231.043 16.6847H234.015V17.8421H230.885L229.386 27.9694C229.333 28.3026 229.193 28.7498 228.965 29.311C228.737 29.8897 228.43 30.4947 228.044 31.126C227.676 31.7573 227.246 32.3536 226.755 32.9147C226.282 33.4759 225.765 33.9319 225.203 34.2826C224.642 34.6509 224.055 34.835 223.441 34.835Z" fill="#161616"/>
<path d="M234.471 28.5218L236.287 18.2893L234.235 17.3686V17.2108L237.944 16.4216H238.023V19.6571H238.128C238.689 18.6225 239.163 17.8859 239.548 17.4475C239.952 16.9916 240.302 16.711 240.601 16.6057C240.916 16.483 241.197 16.4216 241.442 16.4216C241.758 16.4216 242.047 16.5268 242.31 16.7373C242.573 16.9302 242.705 17.1582 242.705 17.4212C242.705 17.5089 242.679 17.6053 242.626 17.7106L241.968 19.0521H241.811L241.521 18.8417C241.381 18.7364 241.223 18.6663 241.048 18.6312C240.89 18.5786 240.732 18.5523 240.574 18.5523C240.259 18.5523 239.969 18.6225 239.706 18.7627C239.461 18.8855 239.18 19.1573 238.864 19.5782C238.566 19.9815 238.18 20.5953 237.707 21.4195L236.471 28.5218H234.471Z" fill="#161616"/>
</g>
<defs>
<clipPath id="clip0_368_1544">
<rect width="135.152" height="39.9108" fill="white" transform="translate(108 0.0446777)"/>
</clipPath>
</defs>
</svg>
