<svg width="235" height="52" viewBox="0 0 235 52" fill="none" xmlns="http://www.w3.org/2000/svg">
<path d="M2.725 33.25C2.05833 33.25 1.6 33.0083 1.35 32.525C1.1 32.025 1.04167 31.35 1.175 30.5L3.7 16.075L1.6 15.25V15.05L6.25 14.25H6.325L3.55 29.975C3.4 30.8583 3.53333 31.3 3.95 31.3C4.21667 31.3 4.50833 31.1583 4.825 30.875C5.14167 30.575 5.45 30.1 5.75 29.45L6.125 29.6C5.64167 30.85 5.11667 31.775 4.55 32.375C3.98333 32.9583 3.375 33.25 2.725 33.25ZM12.165 33.25C10.6817 33.25 9.58171 32.7917 8.86504 31.875C8.16504 30.9583 7.81504 29.7833 7.81504 28.35C7.81504 27.55 7.95671 26.75 8.24004 25.95C8.54004 25.1333 8.95671 24.3833 9.49004 23.7C10.0234 23.0167 10.6567 22.475 11.39 22.075C12.1234 21.6583 12.9317 21.45 13.815 21.45C15.3317 21.45 16.4484 21.9167 17.165 22.85C17.8817 23.7667 18.24 24.9417 18.24 26.375C18.24 27.1417 18.0984 27.9333 17.815 28.75C17.5317 29.55 17.1234 30.2917 16.59 30.975C16.0567 31.6583 15.415 32.2083 14.665 32.625C13.9317 33.0417 13.0984 33.25 12.165 33.25ZM12.44 32.225C13.1067 32.225 13.6817 31.9417 14.165 31.375C14.665 30.8083 15.0484 30.0583 15.315 29.125C15.5984 28.1917 15.74 27.175 15.74 26.075C15.74 24.8917 15.59 23.9917 15.29 23.375C14.99 22.7583 14.44 22.45 13.64 22.45C12.99 22.45 12.415 22.7083 11.915 23.225C11.415 23.7417 11.0234 24.4583 10.74 25.375C10.4567 26.2917 10.315 27.35 10.315 28.55C10.315 29.7167 10.465 30.625 10.765 31.275C11.065 31.9083 11.6234 32.225 12.44 32.225ZM24.3197 29.15C23.7364 29.15 23.2114 29.0583 22.7447 28.875C22.4114 29.0417 22.1697 29.2583 22.0197 29.525C21.8864 29.775 21.8197 30.0333 21.8197 30.3C21.8197 30.6333 21.9864 30.8917 22.3197 31.075C22.6697 31.2583 23.1114 31.4083 23.6447 31.525C24.1781 31.6417 24.7447 31.7583 25.3447 31.875C25.9447 31.9917 26.5114 32.1583 27.0447 32.375C27.5781 32.5917 28.0114 32.8833 28.3447 33.25C28.6947 33.6167 28.8697 34.1167 28.8697 34.75C28.8697 35.4333 28.6531 36.1 28.2197 36.75C27.7864 37.4 27.1364 37.9333 26.2697 38.35C25.4031 38.7833 24.3197 39 23.0197 39C21.5531 39 20.4614 38.7583 19.7447 38.275C19.0281 37.7917 18.6697 37.1917 18.6697 36.475C18.6697 35.975 18.7447 35.575 18.8947 35.275C19.0447 34.975 19.3031 34.6417 19.6697 34.275L21.5697 33.2V33.15C21.0697 33 20.6447 32.7833 20.2947 32.5C19.9614 32.2 19.7947 31.7833 19.7947 31.25C19.7947 30.8833 19.8447 30.5667 19.9447 30.3C20.0614 30.0333 20.2447 29.7667 20.4947 29.5L22.1697 28.65V28.6C21.2364 28 20.7697 27.1167 20.7697 25.95C20.7697 25.25 20.9781 24.5583 21.3947 23.875C21.8114 23.175 22.3781 22.6 23.0947 22.15C23.8281 21.6833 24.6531 21.45 25.5697 21.45C26.0531 21.45 26.5447 21.5333 27.0447 21.7H30.9447V22.8H28.6947L28.5697 22.9C28.9697 23.3833 29.1697 24.0083 29.1697 24.775C29.1697 25.425 28.9697 26.0917 28.5697 26.775C28.1697 27.4417 27.6031 28.0083 26.8697 28.475C26.1531 28.925 25.3031 29.15 24.3197 29.15ZM24.7447 28.175C25.1947 28.175 25.5864 28 25.9197 27.65C26.2697 27.3 26.5364 26.8667 26.7197 26.35C26.9197 25.8167 27.0197 25.2917 27.0197 24.775C27.0197 24.0583 26.8614 23.4917 26.5447 23.075C26.2447 22.6417 25.8114 22.425 25.2447 22.425C24.7614 22.425 24.3447 22.5917 23.9947 22.925C23.6614 23.2583 23.3947 23.6833 23.1947 24.2C23.0114 24.7167 22.9197 25.25 22.9197 25.8C22.9197 26.5 23.0781 27.075 23.3947 27.525C23.7114 27.9583 24.1614 28.175 24.7447 28.175ZM20.6447 36.175C20.6447 36.7583 20.8947 37.2417 21.3947 37.625C21.8947 38.0083 22.5781 38.2 23.4447 38.2C24.5447 38.2 25.3614 37.95 25.8947 37.45C26.4447 36.95 26.7197 36.3583 26.7197 35.675C26.7197 35.2083 26.5781 34.8417 26.2947 34.575C26.0281 34.325 25.6781 34.125 25.2447 33.975C24.8114 33.825 24.3281 33.7083 23.7947 33.625C23.2781 33.5417 22.7697 33.4417 22.2697 33.325C21.5697 33.8083 21.1197 34.2833 20.9197 34.75C20.7364 35.2167 20.6447 35.6917 20.6447 36.175ZM35.1996 18.5C34.7829 18.5 34.4246 18.35 34.1246 18.05C33.8246 17.75 33.6746 17.3917 33.6746 16.975C33.6746 16.5583 33.8246 16.2 34.1246 15.9C34.4246 15.6 34.7829 15.45 35.1996 15.45C35.6163 15.45 35.9663 15.6 36.2496 15.9C36.5496 16.2 36.6996 16.5583 36.6996 16.975C36.6996 17.3917 36.5496 17.75 36.2496 18.05C35.9663 18.35 35.6163 18.5 35.1996 18.5ZM33.4496 33.25C32.7829 33.25 32.3163 33.0083 32.0496 32.525C31.7996 32.025 31.7579 31.35 31.9246 30.5L33.1746 23.3L31.1496 22.45V22.25L35.7246 21.45H35.7996L34.2746 29.975C34.1246 30.8583 34.2579 31.3 34.6746 31.3C34.9413 31.3 35.2329 31.1583 35.5496 30.875C35.8663 30.575 36.1746 30.1 36.4746 29.45L36.8496 29.6C36.3663 30.85 35.8413 31.775 35.2746 32.375C34.7079 32.9583 34.0996 33.25 33.4496 33.25ZM41.0744 33.25C40.2744 33.25 39.6161 33.1417 39.0994 32.925C38.5994 32.6917 38.2244 32.4083 37.9744 32.075C37.7577 31.8083 37.6494 31.5583 37.6494 31.325C37.6494 31.225 37.6661 31.125 37.6994 31.025C37.7327 30.9083 37.8161 30.8167 37.9494 30.75L38.5994 30.35H38.7744L39.1994 31.025C39.4661 31.4417 39.7994 31.7583 40.1994 31.975C40.5994 32.175 41.0077 32.275 41.4244 32.275C42.0244 32.275 42.5077 32.125 42.8744 31.825C43.2577 31.5083 43.4494 31.0667 43.4494 30.5C43.4494 29.8833 43.2494 29.4167 42.8494 29.1C42.4661 28.7667 41.9577 28.4083 41.3244 28.025C40.7411 27.6583 40.2827 27.325 39.9494 27.025C39.6161 26.725 39.3827 26.4083 39.2494 26.075C39.1327 25.725 39.0744 25.3 39.0744 24.8C39.0744 24.3 39.2744 23.7917 39.6744 23.275C40.0744 22.7583 40.5911 22.325 41.2244 21.975C41.8577 21.625 42.5327 21.45 43.2494 21.45C43.9327 21.45 44.4744 21.5583 44.8744 21.775C45.2744 21.9917 45.5827 22.2583 45.7994 22.575C45.9827 22.8583 46.0744 23.0917 46.0744 23.275C46.0744 23.3917 46.0494 23.5 45.9994 23.6C45.9661 23.7 45.8911 23.7833 45.7744 23.85L45.1494 24.25H44.9744L44.3994 23.475C44.1661 23.1583 43.9161 22.9167 43.6494 22.75C43.3827 22.5667 43.0411 22.475 42.6244 22.475C42.1577 22.475 41.7661 22.6083 41.4494 22.875C41.1494 23.1417 40.9994 23.5 40.9994 23.95C40.9994 24.4167 41.1494 24.825 41.4494 25.175C41.7661 25.525 42.1744 25.8333 42.6744 26.1C43.5244 26.5833 44.1744 27.0667 44.6244 27.55C45.0744 28.0167 45.2994 28.7 45.2994 29.6C45.2994 30.2333 45.1161 30.825 44.7494 31.375C44.3827 31.925 43.8827 32.375 43.2494 32.725C42.6161 33.075 41.8911 33.25 41.0744 33.25ZM49.9576 33.25C49.3243 33.25 48.8493 33.0583 48.5326 32.675C48.216 32.2917 48.0576 31.7417 48.0576 31.025C48.0576 30.875 48.066 30.7167 48.0826 30.55C48.0993 30.3667 48.1243 30.1833 48.1576 30L49.4326 22.8H47.6576V22.6L49.9576 21.55L52.1326 18.975H52.3826L51.9076 21.7H55.0076V22.8H51.7076L50.6076 29C50.5743 29.2333 50.5493 29.4333 50.5326 29.6C50.516 29.7667 50.5076 29.9167 50.5076 30.05C50.5076 30.45 50.5743 30.7333 50.7076 30.9C50.841 31.0667 51.0326 31.15 51.2826 31.15C51.666 31.15 52.066 30.95 52.4826 30.55C52.916 30.15 53.3076 29.5333 53.6576 28.7L54.0326 28.85C53.4993 30.4167 52.8826 31.5417 52.1826 32.225C51.4826 32.9083 50.741 33.25 49.9576 33.25ZM59.809 18.5C59.3923 18.5 59.034 18.35 58.734 18.05C58.434 17.75 58.284 17.3917 58.284 16.975C58.284 16.5583 58.434 16.2 58.734 15.9C59.034 15.6 59.3923 15.45 59.809 15.45C60.2257 15.45 60.5757 15.6 60.859 15.9C61.159 16.2 61.309 16.5583 61.309 16.975C61.309 17.3917 61.159 17.75 60.859 18.05C60.5757 18.35 60.2257 18.5 59.809 18.5ZM58.059 33.25C57.3923 33.25 56.9257 33.0083 56.659 32.525C56.409 32.025 56.3673 31.35 56.534 30.5L57.784 23.3L55.759 22.45V22.25L60.334 21.45H60.409L58.884 29.975C58.734 30.8583 58.8673 31.3 59.284 31.3C59.5507 31.3 59.8423 31.1583 60.159 30.875C60.4757 30.575 60.784 30.1 61.084 29.45L61.459 29.6C60.9757 30.85 60.4507 31.775 59.884 32.375C59.3173 32.9583 58.709 33.25 58.059 33.25ZM66.5838 38.75V38.35L68.3838 37.65L69.7088 30.275H69.6088C68.9755 31.2083 68.3171 31.9417 67.6338 32.475C66.9671 32.9917 66.2505 33.25 65.4838 33.25C64.8171 33.25 64.2755 32.9667 63.8588 32.4C63.4421 31.8333 63.2338 30.9833 63.2338 29.85C63.2338 28.7667 63.4088 27.725 63.7588 26.725C64.1255 25.725 64.6088 24.8333 65.2088 24.05C65.8255 23.25 66.5255 22.6167 67.3088 22.15C68.0921 21.6833 68.9088 21.45 69.7588 21.45C70.2088 21.45 70.6255 21.5083 71.0088 21.625C71.4088 21.7417 71.7588 21.8917 72.0588 22.075L73.3838 21.5H73.5588L70.6588 37.6L72.3838 38.35V38.75H66.5838ZM65.5588 28.775C65.5588 29.675 65.6505 30.3417 65.8338 30.775C66.0338 31.1917 66.4005 31.4 66.9338 31.4C67.4671 31.4 67.9921 31.1583 68.5088 30.675C69.0421 30.175 69.5171 29.6167 69.9338 29L70.9088 23.6C70.6255 23.2333 70.3421 22.9583 70.0588 22.775C69.7755 22.575 69.4171 22.475 68.9838 22.475C68.3005 22.475 67.7005 22.775 67.1838 23.375C66.6671 23.975 66.2671 24.7583 65.9838 25.725C65.7005 26.675 65.5588 27.6917 65.5588 28.775ZM78.217 33.25C77.5837 33.25 77.0587 33.0083 76.642 32.525C76.242 32.0417 76.042 31.375 76.042 30.525C76.042 30.375 76.0503 30.2167 76.067 30.05C76.0837 29.8833 76.1087 29.7167 76.142 29.55L77.242 23.3L75.392 22.45V22.25L79.717 21.45H79.817L78.492 29.125C78.4253 29.525 78.392 29.8167 78.392 30C78.392 30.4333 78.5003 30.8 78.717 31.1C78.9337 31.4 79.2753 31.55 79.742 31.55C80.0587 31.55 80.3753 31.45 80.692 31.25C81.0087 31.0333 81.317 30.775 81.617 30.475C81.9337 30.1583 82.2087 29.8583 82.442 29.575L83.542 23.3L81.917 22.45V22.25L86.042 21.45H86.142L84.642 29.975C84.4753 30.8583 84.617 31.3 85.067 31.3C85.3503 31.3 85.642 31.1583 85.942 30.875C86.2587 30.575 86.567 30.1 86.867 29.45L87.242 29.6C86.7587 30.85 86.2337 31.775 85.667 32.375C85.1003 32.9583 84.492 33.25 83.842 33.25C83.1753 33.25 82.7087 33.0167 82.442 32.55C82.192 32.0667 82.1337 31.4417 82.267 30.675H82.217C81.667 31.2917 81.1837 31.7917 80.767 32.175C80.3503 32.5583 79.9503 32.8333 79.567 33C79.1837 33.1667 78.7337 33.25 78.217 33.25ZM92.4982 33.25C91.1982 33.25 90.2399 32.8833 89.6232 32.15C89.0232 31.4167 88.7232 30.4333 88.7232 29.2C88.7232 28.2333 88.8816 27.2917 89.1982 26.375C89.5316 25.4417 89.9899 24.6083 90.5732 23.875C91.1732 23.125 91.8649 22.5333 92.6482 22.1C93.4316 21.6667 94.2816 21.45 95.1982 21.45C96.0482 21.45 96.6816 21.6417 97.0982 22.025C97.5316 22.4083 97.7482 22.8667 97.7482 23.4C97.7482 23.95 97.5566 24.4583 97.1732 24.925C96.7899 25.3917 96.1066 25.8167 95.1232 26.2C94.1566 26.5833 92.7982 26.9333 91.0482 27.25C91.0149 27.5667 90.9982 27.8833 90.9982 28.2C90.9982 29.1667 91.2149 29.9417 91.6482 30.525C92.0982 31.1083 92.7649 31.4 93.6482 31.4C94.1816 31.4 94.7066 31.2583 95.2232 30.975C95.7399 30.6917 96.2816 30.2333 96.8482 29.6H96.8982L97.1732 29.825C96.6232 30.825 95.9316 31.65 95.0982 32.3C94.2816 32.9333 93.4149 33.25 92.4982 33.25ZM94.4732 22.375C93.6566 22.375 92.9482 22.7417 92.3482 23.475C91.7649 24.2083 91.3649 25.1667 91.1482 26.35C92.3149 26.1167 93.2232 25.875 93.8732 25.625C94.5232 25.3583 94.9816 25.0583 95.2482 24.725C95.5316 24.375 95.6732 23.9583 95.6732 23.475C95.6732 23.1583 95.5732 22.9 95.3732 22.7C95.1732 22.4833 94.8732 22.375 94.4732 22.375ZM101.133 29.94C102.053 29.94 102.813 30.7 102.813 31.62C102.813 32.54 102.073 33.26 101.133 33.26C100.193 33.26 99.4928 32.54 99.4928 31.6C99.4928 30.7 100.253 29.94 101.133 29.94ZM116.293 18.22V33H113.853V31.56C112.906 32.6267 111.786 33.1933 110.493 33.26C110.386 33.26 110.286 33.26 110.193 33.26C108.566 33.26 107.213 32.66 106.133 31.46C105.133 30.3533 104.633 29.0133 104.633 27.44C104.633 25.7067 105.213 24.26 106.373 23.1C107.426 22.0467 108.693 21.52 110.173 21.52C111.559 21.52 112.673 21.9333 113.513 22.76C113.553 22.8133 113.593 22.86 113.633 22.9V18.22H116.293ZM110.553 23.96C109.473 23.96 108.613 24.3933 107.973 25.26C107.533 25.86 107.313 26.5467 107.313 27.32C107.313 28.48 107.733 29.4067 108.573 30.1C109.159 30.58 109.839 30.82 110.613 30.82C111.666 30.82 112.513 30.3867 113.153 29.52C113.606 28.9067 113.833 28.2 113.833 27.4C113.833 26.2267 113.399 25.3067 112.533 24.64C111.906 24.2133 111.246 23.9867 110.553 23.96ZM130.336 21.92V33H127.896V31.56C127.016 32.56 125.989 33.12 124.816 33.24C124.629 33.2533 124.429 33.26 124.216 33.26C122.469 33.26 121.063 32.64 119.996 31.4C119.089 30.3333 118.636 29.0333 118.636 27.5C118.636 25.66 119.249 24.18 120.476 23.06C121.516 22.1267 122.783 21.66 124.276 21.66C125.729 21.66 126.883 22.1667 127.736 23.18C127.789 23.2467 127.843 23.32 127.896 23.4V21.92H130.336ZM124.556 24.1C123.383 24.1 122.496 24.5667 121.896 25.5C121.509 26.0867 121.316 26.7733 121.316 27.56C121.316 28.8 121.783 29.7133 122.716 30.3C123.249 30.6467 123.876 30.82 124.596 30.82C125.649 30.82 126.456 30.4867 127.016 29.82C127.509 29.1533 127.776 28.3933 127.816 27.54C127.816 26.2733 127.363 25.32 126.456 24.68C125.909 24.2933 125.276 24.1 124.556 24.1ZM133.519 33V24.34H132.219V21.92H133.519V18.22H136.179V21.92H137.779V24.34H136.179V33H133.519ZM150.979 21.92V33H148.539V31.56C147.659 32.56 146.632 33.12 145.459 33.24C145.272 33.2533 145.072 33.26 144.859 33.26C143.112 33.26 141.706 32.64 140.639 31.4C139.732 30.3333 139.279 29.0333 139.279 27.5C139.279 25.66 139.892 24.18 141.119 23.06C142.159 22.1267 143.426 21.66 144.919 21.66C146.372 21.66 147.526 22.1667 148.379 23.18C148.432 23.2467 148.486 23.32 148.539 23.4V21.92H150.979ZM145.199 24.1C144.026 24.1 143.139 24.5667 142.539 25.5C142.152 26.0867 141.959 26.7733 141.959 27.56C141.959 28.8 142.426 29.7133 143.359 30.3C143.892 30.6467 144.519 30.82 145.239 30.82C146.292 30.82 147.099 30.4867 147.659 29.82C148.152 29.1533 148.419 28.3933 148.459 27.54C148.459 26.2733 148.006 25.32 147.099 24.68C146.552 24.2933 145.919 24.1 145.199 24.1ZM155.182 29.94C156.102 29.94 156.862 30.7 156.862 31.62C156.862 32.54 156.122 33.26 155.182 33.26C154.242 33.26 153.542 32.54 153.542 31.6C153.542 30.7 154.302 29.94 155.182 29.94ZM168.162 21.92H170.702V30.9C170.702 32.9267 170.329 34.4267 169.582 35.4C168.515 36.7467 166.975 37.42 164.962 37.42C162.842 37.42 161.215 36.7133 160.082 35.3C159.749 34.8867 159.475 34.42 159.262 33.9H162.282C162.922 34.6067 163.689 34.9933 164.582 35.06C164.729 35.0733 164.889 35.08 165.062 35.08C167.035 35.08 168.069 33.9 168.162 31.54C167.309 32.54 166.322 33.1 165.202 33.22C164.989 33.2467 164.762 33.26 164.522 33.26C162.815 33.26 161.442 32.6267 160.402 31.36C159.522 30.28 159.082 28.9533 159.082 27.38C159.082 25.6067 159.675 24.1667 160.862 23.06C161.875 22.1267 163.102 21.66 164.542 21.66C166.142 21.66 167.349 22.2133 168.162 23.32V21.92ZM164.842 24.1C163.629 24.1 162.749 24.6 162.202 25.6C161.909 26.1467 161.762 26.78 161.762 27.5C161.762 28.8733 162.255 29.8467 163.242 30.42C163.709 30.6867 164.255 30.82 164.882 30.82C166.135 30.82 167.042 30.3267 167.602 29.34C167.895 28.82 168.042 28.2067 168.042 27.5C168.042 26.1933 167.575 25.2333 166.642 24.62C166.189 24.3133 165.669 24.14 165.082 24.1C165.002 24.1 164.922 24.1 164.842 24.1ZM178.945 21.66C180.678 21.66 182.118 22.2667 183.265 23.48C184.332 24.6 184.865 25.9533 184.865 27.54C184.865 29.1 184.278 30.4467 183.105 31.58C181.945 32.7 180.565 33.26 178.965 33.26C177.325 33.26 175.925 32.68 174.765 31.52C173.645 30.3867 173.085 29.0333 173.085 27.46C173.085 25.8467 173.672 24.4733 174.845 23.34C175.992 22.22 177.358 21.66 178.945 21.66ZM178.965 24.1C177.965 24.1 177.138 24.5067 176.485 25.32C176.005 25.9333 175.765 26.6333 175.765 27.42C175.765 28.5533 176.185 29.46 177.025 30.14C177.598 30.5933 178.252 30.82 178.985 30.82C180.012 30.82 180.845 30.4 181.485 29.56C181.952 28.9467 182.185 28.2467 182.185 27.46C182.185 26.38 181.778 25.5 180.965 24.82C180.378 24.34 179.712 24.1 178.965 24.1ZM197.018 21.92V33H194.558V31.94C193.785 32.7 192.945 33.1267 192.038 33.22L191.378 33.26C189.885 33.26 188.758 32.7133 187.998 31.62C187.491 30.8733 187.218 29.86 187.178 28.58C187.165 28.3667 187.158 28.1267 187.158 27.86V21.92H189.818V27.34C189.818 28.74 189.998 29.6667 190.358 30.12C190.705 30.5867 191.225 30.82 191.918 30.82C192.865 30.82 193.538 30.48 193.938 29.8C194.218 29.3733 194.358 28.4867 194.358 27.14V21.92H197.018ZM203.35 33L198.89 21.92H201.85L204.41 29.26L206.93 21.92H209.93L205.47 33H203.35ZM213.362 29.94C214.282 29.94 215.042 30.7 215.042 31.62C215.042 32.54 214.302 33.26 213.362 33.26C212.422 33.26 211.722 32.54 211.722 31.6C211.722 30.7 212.482 29.94 213.362 29.94ZM217.987 22.95L218.162 22.15H220.512C221.287 19.7 221.812 18.55 222.562 17.55C223.487 16.375 224.487 15.825 225.712 15.825C226.962 15.825 227.887 16.525 227.887 17.45C227.887 18 227.387 18.475 226.812 18.475C226.262 18.475 225.887 18.075 225.887 17.475C225.887 17.275 225.912 17.15 226.037 16.95C226.112 16.825 226.137 16.75 226.137 16.7C226.137 16.5 225.937 16.375 225.587 16.375C224.187 16.375 223.212 18.15 222.462 22.15H225.187L225.037 22.95H222.262L220.387 31.075C219.287 35.75 217.512 38.25 215.237 38.25C214.137 38.25 213.262 37.575 213.262 36.725C213.262 36.125 213.662 35.65 214.187 35.65C214.737 35.65 215.187 36.075 215.187 36.625C215.187 36.775 215.162 36.875 215.062 37.05C214.987 37.175 214.962 37.225 214.962 37.3C214.962 37.55 215.162 37.725 215.462 37.725C216.537 37.725 217.362 36.35 217.962 33.6L220.262 22.95H217.987ZM227.445 33H225.52L227.645 25.6C227.845 24.85 228.045 23.825 228.045 23.5C228.045 23.05 227.72 22.8 227.17 22.8C226.97 22.8 226.87 22.825 226.32 22.925V22.5C228.145 22.2 228.42 22.15 230.245 21.825L230.32 21.875L228.92 27.375L229.295 26.45C229.695 25.475 230.745 23.95 231.795 22.9C232.445 22.2 233.145 21.825 233.72 21.825C234.42 21.825 234.895 22.325 234.895 23.125C234.895 23.925 234.47 24.375 233.72 24.375C233.22 24.375 233.02 24.25 232.82 23.825C232.695 23.575 232.57 23.475 232.395 23.475C231.97 23.475 231.27 24.25 230.395 25.675C229.245 27.6 228.82 28.625 227.445 33Z" fill="black"/>
</svg>
