<svg width="582" height="56" viewBox="0 0 582 56" fill="none" xmlns="http://www.w3.org/2000/svg">
<path d="M0.119263 33.2109C0.119263 33.2109 2.34908 33.2109 6.80872 33.2109C7.13424 34.3828 7.58997 35.2373 8.1759 35.7744C8.76184 36.2952 9.54309 36.5557 10.5197 36.5557C11.3986 36.5557 12.1147 36.3034 12.6681 35.7988C13.2378 35.278 13.5226 34.627 13.5226 33.8457C13.5226 32.9342 13.0994 32.2181 12.2531 31.6973C11.895 31.4857 11.545 31.3066 11.2032 31.1602C10.8615 31.0137 10.0639 30.7288 8.81067 30.3057C6.04374 29.3779 4.0662 28.2874 2.87805 27.0342C1.70618 25.7809 1.12024 24.137 1.12024 22.1025C1.12024 19.7262 1.99915 17.7243 3.75696 16.0967C5.53105 14.4691 7.72017 13.6553 10.3243 13.6553C11.7566 13.6553 13.1075 13.9401 14.3771 14.5098C15.6629 15.0794 16.7452 15.877 17.6241 16.9023C18.2264 17.6185 18.6577 18.359 18.9181 19.124C19.1948 19.889 19.3575 20.833 19.4064 21.9561H12.9122C12.6193 20.4912 11.7566 19.7588 10.3243 19.7588C9.60819 19.7588 8.99784 19.9867 8.49329 20.4424C8.005 20.8818 7.76086 21.4352 7.76086 22.1025C7.76086 22.9489 8.19218 23.5674 9.05481 23.958C9.52681 24.1533 10.6661 24.5358 12.4728 25.1055C15.2723 25.9681 17.2498 27.0098 18.4054 28.2305C19.5773 29.4512 20.1632 31.1113 20.1632 33.2109C20.1632 35.8639 19.2029 38.1019 17.2823 39.9248C15.3618 41.7477 13.018 42.6592 10.2511 42.6592C8.54211 42.6592 6.93079 42.3011 5.41711 41.585C3.91972 40.8525 2.73157 39.876 1.85266 38.6553C1.33183 37.9066 0.941203 37.1335 0.680786 36.3359C0.420369 35.5384 0.233195 34.4967 0.119263 33.2109ZM26.9962 42C26.9962 42 26.9962 32.7633 26.9962 14.29C26.9962 14.29 29.2098 14.29 33.6368 14.29C33.6368 14.29 33.6368 23.5267 33.6368 42C33.6368 42 31.4233 42 26.9962 42ZM26.9962 11.3115C26.9962 11.3115 26.9962 9.22819 26.9962 5.06152C26.9962 5.06152 29.2098 5.06152 33.6368 5.06152C33.6368 5.06152 33.6368 7.14486 33.6368 11.3115C33.6368 11.3115 31.4233 11.3115 26.9962 11.3115ZM42.0568 42C42.0568 42 42.0568 32.7633 42.0568 14.29C42.0568 14.29 44.0831 14.29 48.1359 14.29C48.1359 14.29 48.1359 15.1608 48.1359 16.9023C49.1124 15.7305 50.146 14.9004 51.2365 14.4121C52.3432 13.9076 53.7104 13.6553 55.338 13.6553C57.2749 13.6553 58.8781 13.9889 60.1476 14.6562C61.4334 15.3236 62.5483 16.4222 63.4923 17.9521C64.6154 16.4548 65.8849 15.3643 67.3009 14.6807C68.7169 13.9971 70.4015 13.6553 72.3546 13.6553C74.5356 13.6553 76.4562 14.0622 78.1163 14.876C79.7928 15.6735 81.0704 16.8128 81.9493 18.2939C83.0398 20.2145 83.5851 22.7861 83.5851 26.0088V42H76.9445V26.79C76.9445 25.374 76.8387 24.2428 76.6271 23.3965C76.4155 22.5501 76.0737 21.8665 75.6017 21.3457C74.6902 20.2878 73.4044 19.7588 71.7443 19.7588C69.5144 19.7588 67.9357 20.6865 67.0079 22.542C66.4383 23.6976 66.1534 25.6344 66.1534 28.3525V42H59.4884C59.4884 42 59.4884 36.93 59.4884 26.79C59.4884 24.2184 59.0734 22.4199 58.2433 21.3945C57.2993 20.304 55.9321 19.7588 54.1417 19.7588C51.7817 19.7588 50.1866 20.7598 49.3566 22.7617C48.9171 23.8522 48.6974 25.7158 48.6974 28.3525C48.6974 28.3525 48.6974 32.9017 48.6974 42C48.6974 42 46.4838 42 42.0568 42ZM91.8829 51.2529C91.8829 51.2529 91.8829 38.932 91.8829 14.29C91.8829 14.29 93.9093 14.29 97.962 14.29C97.962 14.29 97.962 15.3805 97.962 17.5615C100.159 14.9574 103.195 13.6553 107.068 13.6553C109.705 13.6553 112.073 14.2738 114.173 15.5107C116.273 16.7314 117.908 18.4404 119.08 20.6377C120.268 22.835 120.862 25.3089 120.862 28.0596C120.862 30.8265 120.268 33.3249 119.08 35.5547C117.892 37.7682 116.24 39.5098 114.124 40.7793C112.025 42.0326 109.656 42.6592 107.02 42.6592C105.327 42.6592 103.805 42.3988 102.454 41.8779C101.103 41.3571 99.7931 40.5352 98.5236 39.4121V51.2529H91.8829ZM106.068 19.7588C103.821 19.7588 101.933 20.5726 100.403 22.2002C98.8898 23.8115 98.1329 25.8298 98.1329 28.2549C98.1329 30.6149 98.9142 32.5924 100.477 34.1875C102.039 35.7663 103.968 36.5557 106.263 36.5557C108.493 36.5557 110.364 35.7581 111.878 34.1631C113.408 32.5518 114.173 30.5661 114.173 28.2061C114.173 25.7646 113.408 23.7464 111.878 22.1514C110.348 20.5563 108.411 19.7588 106.068 19.7588ZM127.988 42C127.988 42 127.988 29.6872 127.988 5.06152C127.988 5.06152 130.202 5.06152 134.629 5.06152C134.629 5.06152 134.629 17.3743 134.629 42C134.629 42 132.415 42 127.988 42ZM143.049 42C143.049 42 143.049 32.7633 143.049 14.29C143.049 14.29 145.262 14.29 149.69 14.29C149.69 14.29 149.69 23.5267 149.69 42C149.69 42 147.476 42 143.049 42ZM143.049 11.3115C143.049 11.3115 143.049 9.22819 143.049 5.06152C143.049 5.06152 145.262 5.06152 149.69 5.06152C149.69 5.06152 149.69 7.14486 149.69 11.3115C149.69 11.3115 147.476 11.3115 143.049 11.3115ZM158.793 42C158.793 42 158.793 34.7816 158.793 20.3447C158.793 20.3447 157.996 20.3447 156.401 20.3447C156.401 20.3447 156.401 18.4974 156.401 14.8027C156.401 14.8027 157.198 14.8027 158.793 14.8027C158.956 13.0286 159.208 11.6533 159.55 10.6768C159.892 9.7002 160.429 8.80501 161.161 7.99121C162.87 6.03809 165.133 5.06152 167.948 5.06152C168.518 5.06152 169.071 5.09408 169.609 5.15918V11.458C169.609 11.458 169.373 11.458 168.901 11.458C167.631 11.458 166.744 11.7021 166.239 12.1904C165.751 12.6787 165.491 13.5495 165.458 14.8027H169.193C169.193 14.8027 169.193 16.6501 169.193 20.3447C169.193 20.3447 167.948 20.3447 165.458 20.3447C165.458 20.3447 165.458 27.5632 165.458 42C165.458 42 163.236 42 158.793 42ZM175.807 42C175.807 42 175.807 32.7633 175.807 14.29C175.807 14.29 178.02 14.29 182.447 14.29C182.447 14.29 182.447 23.5267 182.447 42C182.447 42 180.234 42 175.807 42ZM175.807 11.3115C175.807 11.3115 175.807 9.22819 175.807 5.06152C175.807 5.06152 178.02 5.06152 182.447 5.06152C182.447 5.06152 182.447 7.14486 182.447 11.3115C182.447 11.3115 180.234 11.3115 175.807 11.3115ZM204.417 13.6553C207.054 13.6553 209.495 14.3063 211.741 15.6084C213.987 16.9105 215.762 18.6846 217.064 20.9307C218.366 23.1605 219.017 25.5856 219.017 28.2061C219.017 30.8102 218.358 33.2272 217.039 35.457C215.737 37.6706 213.955 39.4284 211.693 40.7305C209.43 42.0163 206.972 42.6592 204.319 42.6592C201.65 42.6592 199.176 42.0163 196.898 40.7305C194.635 39.4284 192.845 37.6706 191.526 35.457C190.208 33.2272 189.549 30.8102 189.549 28.2061C189.549 26.2204 189.931 24.3324 190.696 22.542C191.478 20.7354 192.527 19.1891 193.846 17.9033C195.18 16.6012 196.767 15.5677 198.607 14.8027C200.446 14.0378 202.383 13.6553 204.417 13.6553ZM204.149 19.7588C202 19.7588 200.145 20.5889 198.582 22.249C197.036 23.8929 196.263 25.8623 196.263 28.1572C196.263 30.4684 197.044 32.446 198.607 34.0898C200.169 35.7337 202.049 36.5557 204.246 36.5557C206.46 36.5557 208.356 35.7419 209.935 34.1143C211.513 32.4704 212.303 30.501 212.303 28.2061C212.303 25.8298 211.513 23.8278 209.935 22.2002C208.356 20.5726 206.427 19.7588 204.149 19.7588ZM226.094 42C226.094 42 226.094 32.7633 226.094 14.29C226.094 14.29 228.137 14.29 232.222 14.29C232.222 14.29 232.222 15.1771 232.222 16.9512C233.443 15.763 234.647 14.9167 235.835 14.4121C237.023 13.9076 238.423 13.6553 240.034 13.6553C244.071 13.6553 247.017 15.0713 248.872 17.9033C249.54 18.9775 250.003 20.1901 250.264 21.541C250.54 22.8919 250.679 24.7637 250.679 27.1562V42H244.038C244.038 42 244.038 37.4834 244.038 28.4502C244.038 24.8695 243.566 22.5176 242.622 21.3945C241.727 20.304 240.433 19.7588 238.74 19.7588C236.462 19.7588 234.81 20.654 233.784 22.4443C233.377 23.0791 233.101 23.8685 232.954 24.8125C232.808 25.7565 232.734 27.1318 232.734 28.9385V42C232.734 42 230.521 42 226.094 42ZM257.024 33.2109C257.024 33.2109 259.253 33.2109 263.713 33.2109C264.039 34.3828 264.494 35.2373 265.08 35.7744C265.666 36.2952 266.447 36.5557 267.424 36.5557C268.303 36.5557 269.019 36.3034 269.572 35.7988C270.142 35.278 270.427 34.627 270.427 33.8457C270.427 32.9342 270.004 32.2181 269.157 31.6973C268.799 31.4857 268.449 31.3066 268.108 31.1602C267.766 31.0137 266.968 30.7288 265.715 30.3057C262.948 29.3779 260.97 28.2874 259.782 27.0342C258.61 25.7809 258.025 24.137 258.025 22.1025C258.025 19.7262 258.903 17.7243 260.661 16.0967C262.435 14.4691 264.624 13.6553 267.229 13.6553C268.661 13.6553 270.012 13.9401 271.281 14.5098C272.567 15.0794 273.65 15.877 274.528 16.9023C275.131 17.6185 275.562 18.359 275.822 19.124C276.099 19.889 276.262 20.833 276.311 21.9561H269.817C269.524 20.4912 268.661 19.7588 267.229 19.7588C266.512 19.7588 265.902 19.9867 265.398 20.4424C264.909 20.8818 264.665 21.4352 264.665 22.1025C264.665 22.9489 265.096 23.5674 265.959 23.958C266.431 24.1533 267.57 24.5358 269.377 25.1055C272.177 25.9681 274.154 27.0098 275.31 28.2305C276.482 29.4512 277.068 31.1113 277.068 33.2109C277.068 35.8639 276.107 38.1019 274.187 39.9248C272.266 41.7477 269.922 42.6592 267.155 42.6592C265.446 42.6592 263.835 42.3011 262.321 41.585C260.824 40.8525 259.636 39.876 258.757 38.6553C258.236 37.9066 257.845 37.1335 257.585 36.3359C257.325 35.5384 257.137 34.4967 257.024 33.2109ZM284.901 42C284.901 42 284.901 39.8678 284.901 35.6035C284.901 35.6035 287.115 35.6035 291.542 35.6035C291.542 35.6035 291.542 37.7357 291.542 42C291.542 42 289.329 42 284.901 42ZM303.138 42.55C301.671 42.55 300.48 41.9267 299.563 40.68C298.683 39.3967 298.243 37.49 298.243 34.96C298.243 32.6867 298.591 30.4683 299.288 28.305C300.021 26.1417 301.011 24.18 302.258 22.42C303.541 20.66 305.008 19.2667 306.658 18.24C308.308 17.2133 310.068 16.7 311.938 16.7C313.258 16.7 314.523 16.9383 315.733 17.415L317.988 4.6L313.203 2.73V2.4L322.718 0.749997H322.883L316.778 35.455C316.595 36.555 316.558 37.3433 316.668 37.82C316.778 38.2967 317.09 38.535 317.603 38.535C318.226 38.535 318.905 38.205 319.638 37.545C320.371 36.8483 321.068 35.8033 321.728 34.41L322.443 34.74C321.38 37.49 320.225 39.4883 318.978 40.735C317.768 41.945 316.521 42.55 315.238 42.55C313.955 42.55 313.075 42.055 312.598 41.065C312.121 40.075 312.03 38.755 312.323 37.105L312.598 35.675H312.378C309.298 40.2583 306.218 42.55 303.138 42.55ZM302.423 32.815C302.423 35.125 302.68 36.72 303.193 37.6C303.706 38.48 304.55 38.92 305.723 38.92C306.786 38.92 307.978 38.3883 309.298 37.325C310.618 36.225 311.865 34.7767 313.038 32.98L315.018 21.705C314.248 20.6783 313.496 19.945 312.763 19.505C312.066 19.065 311.26 18.845 310.343 18.845C308.876 18.845 307.538 19.4867 306.328 20.77C305.155 22.0533 304.201 23.7583 303.468 25.885C302.771 27.975 302.423 30.285 302.423 32.815ZM331.519 42.55C330.052 42.55 328.86 41.9267 327.944 40.68C327.064 39.3967 326.624 37.49 326.624 34.96C326.624 32.6867 326.972 30.4683 327.669 28.305C328.402 26.1417 329.392 24.18 330.639 22.42C331.922 20.66 333.389 19.2667 335.039 18.24C336.689 17.2133 338.449 16.7 340.319 16.7C341.235 16.7 342.115 16.81 342.959 17.03C343.802 17.25 344.554 17.5433 345.214 17.91L347.139 16.7H348.514L345.159 35.455C344.975 36.555 344.939 37.3433 345.049 37.82C345.195 38.2967 345.507 38.535 345.984 38.535C346.607 38.535 347.285 38.205 348.019 37.545C348.752 36.8483 349.449 35.8033 350.109 34.41L350.824 34.74C349.76 37.49 348.605 39.4883 347.359 40.735C346.149 41.945 344.902 42.55 343.619 42.55C342.335 42.55 341.455 42.055 340.979 41.065C340.502 40.075 340.41 38.755 340.704 37.105L340.979 35.675H340.759C339.365 37.8017 337.899 39.4883 336.359 40.735C334.819 41.945 333.205 42.55 331.519 42.55ZM330.804 32.815C330.804 34.8683 331.024 36.4083 331.464 37.435C331.94 38.425 332.82 38.92 334.104 38.92C334.984 38.92 335.864 38.6267 336.744 38.04C337.624 37.4533 338.467 36.7017 339.274 35.785C340.08 34.8683 340.795 33.9333 341.419 32.98L343.454 21.65C342.757 20.7333 342.042 20.0367 341.309 19.56C340.612 19.0833 339.75 18.845 338.724 18.845C337.147 18.845 335.754 19.5233 334.544 20.88C333.37 22.2367 332.454 23.9783 331.794 26.105C331.134 28.2317 330.804 30.4683 330.804 32.815ZM359.36 42.55C358.15 42.55 357.233 42.165 356.61 41.395C355.986 40.625 355.675 39.5433 355.675 38.15C355.675 37.8567 355.693 37.5267 355.73 37.16C355.766 36.7933 355.821 36.4267 355.895 36.06L358.81 19.67H354.74V19.34L359.415 17.25L364.145 11.2H364.475L363.43 17.25H370.305V19.67H362.99L360.515 33.64C360.441 34.1167 360.386 34.5567 360.35 34.96C360.313 35.3267 360.295 35.6567 360.295 35.95C360.295 36.83 360.441 37.4533 360.735 37.82C361.028 38.1867 361.413 38.37 361.89 38.37C362.733 38.37 363.631 37.8933 364.585 36.94C365.575 35.9867 366.473 34.6117 367.28 32.815L367.995 33.145C366.785 36.6283 365.428 39.0667 363.925 40.46C362.458 41.8533 360.936 42.55 359.36 42.55ZM377.17 42.55C375.703 42.55 374.511 41.9267 373.595 40.68C372.715 39.3967 372.275 37.49 372.275 34.96C372.275 32.6867 372.623 30.4683 373.32 28.305C374.053 26.1417 375.043 24.18 376.29 22.42C377.573 20.66 379.04 19.2667 380.69 18.24C382.34 17.2133 384.1 16.7 385.97 16.7C386.886 16.7 387.766 16.81 388.61 17.03C389.453 17.25 390.205 17.5433 390.865 17.91L392.79 16.7H394.165L390.81 35.455C390.626 36.555 390.59 37.3433 390.7 37.82C390.846 38.2967 391.158 38.535 391.635 38.535C392.258 38.535 392.936 38.205 393.67 37.545C394.403 36.8483 395.1 35.8033 395.76 34.41L396.475 34.74C395.411 37.49 394.256 39.4883 393.01 40.735C391.8 41.945 390.553 42.55 389.27 42.55C387.986 42.55 387.106 42.055 386.63 41.065C386.153 40.075 386.061 38.755 386.355 37.105L386.63 35.675H386.41C385.016 37.8017 383.55 39.4883 382.01 40.735C380.47 41.945 378.856 42.55 377.17 42.55ZM376.455 32.815C376.455 34.8683 376.675 36.4083 377.115 37.435C377.591 38.425 378.471 38.92 379.755 38.92C380.635 38.92 381.515 38.6267 382.395 38.04C383.275 37.4533 384.118 36.7017 384.925 35.785C385.731 34.8683 386.446 33.9333 387.07 32.98L389.105 21.65C388.408 20.7333 387.693 20.0367 386.96 19.56C386.263 19.0833 385.401 18.845 384.375 18.845C382.798 18.845 381.405 19.5233 380.195 20.88C379.021 22.2367 378.105 23.9783 377.445 26.105C376.785 28.2317 376.455 30.4683 376.455 32.815ZM402.371 42.275C401.454 42.275 400.776 42.0183 400.336 41.505C399.932 40.9917 399.731 40.3317 399.731 39.525C399.731 38.6083 400.042 37.7833 400.666 37.05C401.289 36.3167 402.096 35.95 403.086 35.95C404.002 35.95 404.662 36.2067 405.066 36.72C405.506 37.2333 405.726 37.8933 405.726 38.7C405.726 39.6533 405.414 40.4967 404.791 41.23C404.204 41.9267 403.397 42.275 402.371 42.275ZM422.645 33.585C421.545 33.585 420.536 33.42 419.62 33.09C418.776 33.4933 418.171 34.0067 417.805 34.63C417.475 35.2167 417.31 35.84 417.31 36.5C417.31 37.2333 417.676 37.8017 418.41 38.205C419.143 38.6083 420.078 38.9383 421.215 39.195C422.388 39.4517 423.635 39.7267 424.955 40.02C426.275 40.2767 427.503 40.6433 428.64 41.12C429.813 41.56 430.766 42.165 431.5 42.935C432.233 43.7417 432.6 44.805 432.6 46.125C432.6 47.5917 432.141 49.0217 431.225 50.415C430.308 51.8083 428.933 52.945 427.1 53.825C425.303 54.7417 423.011 55.2 420.225 55.2C416.961 55.2 414.541 54.6683 412.965 53.605C411.425 52.5417 410.655 51.2033 410.655 49.59C410.655 48.4167 410.838 47.5 411.205 46.84C411.535 46.18 412.103 45.4467 412.91 44.64L417.31 42.165V42.055C416.173 41.725 415.22 41.2667 414.45 40.68C413.716 40.0933 413.35 39.2317 413.35 38.095C413.35 37.325 413.441 36.6833 413.625 36.17C413.808 35.6567 414.156 35.1067 414.67 34.52L418.355 32.65V32.485C417.365 31.8983 416.576 31.11 415.99 30.12C415.44 29.0933 415.165 27.9383 415.165 26.655C415.165 25.115 415.605 23.5933 416.485 22.09C417.401 20.55 418.63 19.2667 420.17 18.24C421.746 17.2133 423.543 16.7 425.56 16.7C426.55 16.7 427.576 16.8833 428.64 17.25H436.945V19.67H432.05L431.83 19.835C432.6 20.8617 432.985 22.2183 432.985 23.905C432.985 24.9317 432.746 26.0133 432.27 27.15C431.793 28.25 431.096 29.295 430.18 30.285C429.263 31.275 428.163 32.0817 426.88 32.705C425.633 33.2917 424.221 33.585 422.645 33.585ZM423.635 31.44C424.661 31.44 425.56 31.055 426.33 30.285C427.136 29.515 427.76 28.58 428.2 27.48C428.676 26.3433 428.915 25.225 428.915 24.125C428.915 22.5483 428.53 21.2833 427.76 20.33C426.99 19.34 425.981 18.845 424.735 18.845C423.635 18.845 422.663 19.2117 421.82 19.945C421.013 20.6417 420.39 21.54 419.95 22.64C419.51 23.74 419.29 24.8767 419.29 26.05C419.29 27.6633 419.675 28.965 420.445 29.955C421.251 30.945 422.315 31.44 423.635 31.44ZM414.78 48.985C414.78 50.3417 415.348 51.4233 416.485 52.23C417.658 53.0733 419.216 53.495 421.16 53.495C423.69 53.495 425.56 52.9267 426.77 51.79C427.98 50.6533 428.585 49.2967 428.585 47.72C428.585 46.6933 428.273 45.8683 427.65 45.245C427.063 44.6583 426.275 44.2 425.285 43.87C424.295 43.54 423.213 43.265 422.04 43.045C420.903 42.8617 419.785 42.6417 418.685 42.385C416.998 43.5583 415.916 44.6767 415.44 45.74C415 46.84 414.78 47.9217 414.78 48.985ZM447.876 42.55C444.686 42.55 442.321 41.56 440.781 39.58C439.277 37.6 438.526 35.0333 438.526 31.88C438.526 30.1567 438.837 28.415 439.461 26.655C440.084 24.8583 440.982 23.2083 442.156 21.705C443.329 20.2017 444.722 18.9917 446.336 18.075C447.949 17.1583 449.727 16.7 451.671 16.7C454.861 16.7 457.207 17.69 458.711 19.67C460.251 21.65 461.021 24.2167 461.021 27.37C461.021 29.02 460.709 30.7433 460.086 32.54C459.499 34.3 458.619 35.95 457.446 37.49C456.309 38.9933 454.934 40.2217 453.321 41.175C451.707 42.0917 449.892 42.55 447.876 42.55ZM448.481 40.46C450.057 40.46 451.432 39.855 452.606 38.645C453.779 37.3983 454.677 35.7667 455.301 33.75C455.924 31.6967 456.236 29.46 456.236 27.04C456.236 24.3267 455.869 22.2733 455.136 20.88C454.439 19.45 453.119 18.735 451.176 18.735C449.636 18.735 448.261 19.3033 447.051 20.44C445.877 21.54 444.961 23.08 444.301 25.06C443.641 27.04 443.311 29.3683 443.311 32.045C443.311 34.7583 443.677 36.8483 444.411 38.315C445.144 39.745 446.501 40.46 448.481 40.46ZM472.207 42.55C470.85 42.55 469.732 42.0183 468.852 40.955C468.009 39.8917 467.587 38.4433 467.587 36.61C467.587 36.2433 467.605 35.8767 467.642 35.51C467.715 35.1433 467.77 34.7767 467.807 34.41L470.282 20.605L465.992 18.68V18.35L474.792 16.7H475.012L472.152 33.53C472.005 34.4467 471.932 35.1067 471.932 35.51C471.932 36.5367 472.17 37.4167 472.647 38.15C473.16 38.8467 473.985 39.195 475.122 39.195C475.892 39.195 476.662 38.92 477.432 38.37C478.239 37.82 479.009 37.16 479.742 36.39C480.475 35.62 481.135 34.905 481.722 34.245L484.087 20.605L480.292 18.68V18.35L488.652 16.7H488.872L485.572 35.455C485.389 36.555 485.352 37.3433 485.462 37.82C485.609 38.2967 485.957 38.535 486.507 38.535C487.13 38.535 487.809 38.205 488.542 37.545C489.275 36.8483 489.972 35.8033 490.632 34.41L491.347 34.74C490.284 37.49 489.129 39.4883 487.882 40.735C486.672 41.945 485.425 42.55 484.142 42.55C482.859 42.55 481.979 42.055 481.502 41.065C481.062 40.075 480.97 38.755 481.227 37.105L481.282 36.775H481.117C479.87 38.1683 478.789 39.2867 477.872 40.13C476.955 40.9733 476.057 41.5967 475.177 42C474.334 42.3667 473.344 42.55 472.207 42.55ZM502.198 42L497.303 20.33L492.628 18.68V18.35L500.768 16.7H500.933L505.113 35.895H505.333L509.458 29.735C510.742 27.7917 511.512 26.2883 511.768 25.225C512.062 24.1617 512.208 23.2817 512.208 22.585C512.208 21.9983 512.062 21.54 511.768 21.21C511.475 20.8433 511.108 20.5317 510.668 20.275L509.953 19.835V19.615L510.833 17.965C511.127 17.4517 511.365 17.1217 511.548 16.975C511.768 16.7917 512.08 16.7 512.483 16.7C513.07 16.7 513.602 16.9383 514.078 17.415C514.592 17.8917 514.995 18.46 515.288 19.12C515.582 19.78 515.728 20.4217 515.728 21.045C515.728 21.925 515.435 23.0067 514.848 24.29C514.262 25.5733 513.235 27.2967 511.768 29.46L503.353 42H502.198ZM524.797 34.6416C525.925 34.6416 526.802 35.0444 527.428 35.8501C528.055 36.6379 528.252 37.5868 528.019 38.6968C527.769 39.8247 527.16 40.7915 526.193 41.5972C525.226 42.3849 524.179 42.7788 523.051 42.7788C521.941 42.7788 521.073 42.3849 520.446 41.5972C519.819 40.7915 519.631 39.8247 519.882 38.6968C520.115 37.5688 520.715 36.611 521.681 35.8232C522.648 35.0355 523.687 34.6416 524.797 34.6416ZM540.002 55.2C539.158 55.2 538.498 54.9983 538.022 54.595C537.545 54.2283 537.307 53.8067 537.307 53.33C537.307 53 537.417 52.615 537.637 52.175L538.407 50.525H538.737L539.782 51.13C540.332 51.46 541.083 51.625 542.037 51.625C543.687 51.625 544.97 50.8183 545.887 49.205C546.84 47.5917 547.518 45.5017 547.922 42.935L551.332 19.67H546.987V17.25H551.662L551.992 15.05C552.102 14.3167 552.432 13.3633 552.982 12.19C553.532 11.0167 554.265 9.78833 555.182 8.505C556.098 7.185 557.143 5.93833 558.317 4.765C559.527 3.59166 560.81 2.63833 562.167 1.905C563.56 1.135 564.99 0.749997 566.457 0.749997C566.787 0.749997 567.135 0.804997 567.502 0.914998C567.868 0.98833 568.162 1.08 568.382 1.19C568.858 1.44667 569.188 1.685 569.372 1.905C569.555 2.08833 569.647 2.30833 569.647 2.565C569.647 2.71166 569.592 2.91333 569.482 3.17C569.408 3.39 569.317 3.59166 569.207 3.775L568.327 5.425H567.942L566.677 4.82C565.76 4.41666 564.66 4.215 563.377 4.215C561.47 4.215 559.948 5.02167 558.812 6.635C557.675 8.24833 556.923 10.32 556.557 12.85L555.897 17.25H562.112V19.67H555.567L552.432 40.845C552.322 41.5417 552.028 42.4767 551.552 43.65C551.075 44.86 550.433 46.125 549.627 47.445C548.857 48.765 547.958 50.0117 546.932 51.185C545.942 52.3583 544.86 53.3117 543.687 54.045C542.513 54.815 541.285 55.2 540.002 55.2ZM564.405 42L568.2 20.605L563.91 18.68V18.35L571.665 16.7H571.83V23.465H572.05C573.223 21.3017 574.213 19.7617 575.02 18.845C575.863 17.8917 576.597 17.305 577.22 17.085C577.88 16.8283 578.467 16.7 578.98 16.7C579.64 16.7 580.245 16.92 580.795 17.36C581.345 17.7633 581.62 18.24 581.62 18.79C581.62 18.9733 581.565 19.175 581.455 19.395L580.08 22.2H579.75L579.145 21.76C578.852 21.54 578.522 21.3933 578.155 21.32C577.825 21.21 577.495 21.155 577.165 21.155C576.505 21.155 575.9 21.3017 575.35 21.595C574.837 21.8517 574.25 22.42 573.59 23.3C572.967 24.1433 572.16 25.4267 571.17 27.15L568.585 42H564.405Z" fill="black"/>
</svg>
