<svg width="609" height="56" viewBox="0 0 609 56" fill="none" xmlns="http://www.w3.org/2000/svg">
<path d="M0.876221 33.2109C0.876221 33.2109 3.10604 33.2109 7.56567 33.2109C7.89119 34.3828 8.34692 35.2373 8.93286 35.7744C9.5188 36.2952 10.3 36.5557 11.2766 36.5557C12.1555 36.5557 12.8717 36.3034 13.425 35.7988C13.9947 35.278 14.2795 34.627 14.2795 33.8457C14.2795 32.9342 13.8564 32.2181 13.01 31.6973C12.6519 31.4857 12.302 31.3066 11.9602 31.1602C11.6184 31.0137 10.8209 30.7288 9.56763 30.3057C6.8007 29.3779 4.82316 28.2874 3.63501 27.0342C2.46313 25.7809 1.8772 24.137 1.8772 22.1025C1.8772 19.7262 2.7561 17.7243 4.51392 16.0967C6.288 14.4691 8.47713 13.6553 11.0813 13.6553C12.5136 13.6553 13.8645 13.9401 15.134 14.5098C16.4198 15.0794 17.5022 15.877 18.3811 16.9023C18.9833 17.6185 19.4146 18.359 19.675 19.124C19.9517 19.889 20.1145 20.833 20.1633 21.9561H13.6692C13.3762 20.4912 12.5136 19.7588 11.0813 19.7588C10.3652 19.7588 9.7548 19.9867 9.25024 20.4424C8.76196 20.8818 8.51782 21.4352 8.51782 22.1025C8.51782 22.9489 8.94914 23.5674 9.81177 23.958C10.2838 24.1533 11.4231 24.5358 13.2297 25.1055C16.0292 25.9681 18.0068 27.0098 19.1624 28.2305C20.3342 29.4512 20.9202 31.1113 20.9202 33.2109C20.9202 35.8639 19.9599 38.1019 18.0393 39.9248C16.1187 41.7477 13.775 42.6592 11.0081 42.6592C9.29907 42.6592 7.68774 42.3011 6.17407 41.585C4.67668 40.8525 3.48853 39.876 2.60962 38.6553C2.08879 37.9066 1.69816 37.1335 1.43774 36.3359C1.17733 35.5384 0.990153 34.4967 0.876221 33.2109ZM24.9932 42C24.9932 42 24.9932 32.7633 24.9932 14.29C24.9932 14.29 27.2067 14.29 31.6338 14.29C31.6338 14.29 31.6338 23.5267 31.6338 42C31.6338 42 29.4203 42 24.9932 42ZM24.9932 11.3115C24.9932 11.3115 24.9932 9.22819 24.9932 5.06152C24.9932 5.06152 27.2067 5.06152 31.6338 5.06152C31.6338 5.06152 31.6338 7.14486 31.6338 11.3115C31.6338 11.3115 29.4203 11.3115 24.9932 11.3115ZM37.2937 42C37.2937 42 37.2937 32.7633 37.2937 14.29C37.2937 14.29 39.3201 14.29 43.3728 14.29C43.3728 14.29 43.3728 15.1608 43.3728 16.9023C44.3494 15.7305 45.3829 14.9004 46.4734 14.4121C47.5802 13.9076 48.9474 13.6553 50.575 13.6553C52.5118 13.6553 54.115 13.9889 55.3845 14.6562C56.6703 15.3236 57.7853 16.4222 58.7293 17.9521C59.8523 16.4548 61.1218 15.3643 62.5379 14.6807C63.9539 13.9971 65.6384 13.6553 67.5916 13.6553C69.7726 13.6553 71.6931 14.0622 73.3533 14.876C75.0297 15.6735 76.3074 16.8128 77.1863 18.2939C78.2768 20.2145 78.822 22.7861 78.822 26.0088V42H72.1814V26.79C72.1814 25.374 72.0756 24.2428 71.864 23.3965C71.6524 22.5501 71.3106 21.8665 70.8386 21.3457C69.9272 20.2878 68.6414 19.7588 66.9812 19.7588C64.7514 19.7588 63.1726 20.6865 62.2449 22.542C61.6752 23.6976 61.3904 25.6344 61.3904 28.3525V42H54.7254C54.7254 42 54.7254 36.93 54.7254 26.79C54.7254 24.2184 54.3103 22.4199 53.4802 21.3945C52.5362 20.304 51.169 19.7588 49.3787 19.7588C47.0187 19.7588 45.4236 20.7598 44.5935 22.7617C44.1541 23.8522 43.9343 25.7158 43.9343 28.3525C43.9343 28.3525 43.9343 32.9017 43.9343 42C43.9343 42 41.7208 42 37.2937 42ZM84.3599 51.2529C84.3599 51.2529 84.3599 38.932 84.3599 14.29C84.3599 14.29 86.3863 14.29 90.439 14.29C90.439 14.29 90.439 15.3805 90.439 17.5615C92.6363 14.9574 95.6717 13.6553 99.5454 13.6553C102.182 13.6553 104.55 14.2738 106.65 15.5107C108.75 16.7314 110.385 18.4404 111.557 20.6377C112.745 22.835 113.339 25.3089 113.339 28.0596C113.339 30.8265 112.745 33.3249 111.557 35.5547C110.369 37.7682 108.717 39.5098 106.601 40.7793C104.501 42.0326 102.133 42.6592 99.4966 42.6592C97.8039 42.6592 96.2821 42.3988 94.9312 41.8779C93.5803 41.3571 92.2701 40.5352 91.0005 39.4121V51.2529H84.3599ZM98.5445 19.7588C96.2984 19.7588 94.4103 20.5726 92.8804 22.2002C91.3667 23.8115 90.6099 25.8298 90.6099 28.2549C90.6099 30.6149 91.3911 32.5924 92.9536 34.1875C94.5161 35.7663 96.4449 36.5557 98.7398 36.5557C100.97 36.5557 102.841 35.7581 104.355 34.1631C105.885 32.5518 106.65 30.5661 106.65 28.2061C106.65 25.7646 105.885 23.7464 104.355 22.1514C102.825 20.5563 100.888 19.7588 98.5445 19.7588ZM117.705 42C117.705 42 117.705 29.6872 117.705 5.06152C117.705 5.06152 119.919 5.06152 124.346 5.06152C124.346 5.06152 124.346 17.3743 124.346 42C124.346 42 122.132 42 117.705 42ZM130.006 42C130.006 42 130.006 32.7633 130.006 14.29C130.006 14.29 132.219 14.29 136.647 14.29C136.647 14.29 136.647 23.5267 136.647 42C136.647 42 134.433 42 130.006 42ZM130.006 11.3115C130.006 11.3115 130.006 9.22819 130.006 5.06152C130.006 5.06152 132.219 5.06152 136.647 5.06152C136.647 5.06152 136.647 7.14486 136.647 11.3115C136.647 11.3115 134.433 11.3115 130.006 11.3115ZM142.99 42C142.99 42 142.99 34.7816 142.99 20.3447C142.99 20.3447 142.193 20.3447 140.597 20.3447C140.597 20.3447 140.597 18.4974 140.597 14.8027C140.597 14.8027 141.395 14.8027 142.99 14.8027C143.153 13.0286 143.405 11.6533 143.747 10.6768C144.089 9.7002 144.626 8.80501 145.358 7.99121C147.067 6.03809 149.33 5.06152 152.145 5.06152C152.715 5.06152 153.268 5.09408 153.805 5.15918V11.458C153.805 11.458 153.569 11.458 153.097 11.458C151.828 11.458 150.941 11.7021 150.436 12.1904C149.948 12.6787 149.688 13.5495 149.655 14.8027H153.39C153.39 14.8027 153.39 16.6501 153.39 20.3447C153.39 20.3447 152.145 20.3447 149.655 20.3447C149.655 20.3447 149.655 27.5632 149.655 42C149.655 42 147.433 42 142.99 42ZM157.244 42C157.244 42 157.244 32.7633 157.244 14.29C157.244 14.29 159.457 14.29 163.884 14.29C163.884 14.29 163.884 23.5267 163.884 42C163.884 42 161.671 42 157.244 42ZM157.244 11.3115C157.244 11.3115 157.244 9.22819 157.244 5.06152C157.244 5.06152 159.457 5.06152 163.884 5.06152C163.884 5.06152 163.884 7.14486 163.884 11.3115C163.884 11.3115 161.671 11.3115 157.244 11.3115ZM189.295 32.8936C189.295 32.8936 191.794 32.8936 196.79 32.8936C195.635 36.0023 193.861 38.4111 191.468 40.1201C189.092 41.8128 186.284 42.6592 183.045 42.6592C181.027 42.6592 179.098 42.2767 177.259 41.5117C175.436 40.7467 173.866 39.7214 172.547 38.4355C171.229 37.1497 170.179 35.6117 169.398 33.8213C168.617 32.0309 168.226 30.1429 168.226 28.1572C168.226 25.488 168.869 23.0465 170.155 20.833C171.44 18.6032 173.198 16.8535 175.428 15.584C177.674 14.2982 180.14 13.6553 182.826 13.6553C184.811 13.6553 186.699 14.0133 188.49 14.7295C190.296 15.4294 191.875 16.4385 193.226 17.7568C194.105 18.6195 194.797 19.4658 195.301 20.2959C195.822 21.1097 196.318 22.1921 196.79 23.543H189.295C187.993 21.0202 185.837 19.7588 182.826 19.7588C180.514 19.7588 178.618 20.54 177.137 22.1025C175.672 23.6488 174.94 25.6507 174.94 28.1084C174.94 30.5335 175.705 32.5518 177.235 34.1631C178.781 35.7581 180.701 36.5557 182.996 36.5557C184.364 36.5557 185.544 36.2627 186.536 35.6768C187.546 35.0908 188.465 34.1631 189.295 32.8936ZM228.964 14.29C228.964 14.29 228.964 23.5267 228.964 42C228.964 42 226.938 42 222.885 42C222.885 42 222.885 40.8037 222.885 38.4111C221.55 39.9248 220.167 41.0153 218.734 41.6826C217.318 42.3337 215.634 42.6592 213.681 42.6592C211.011 42.6592 208.611 42.0488 206.479 40.8281C204.363 39.5911 202.703 37.874 201.498 35.6768C200.31 33.4795 199.716 31.0055 199.716 28.2549C199.716 25.4717 200.318 22.9733 201.523 20.7598C202.727 18.5299 204.403 16.7884 206.552 15.5352C208.7 14.2819 211.125 13.6553 213.827 13.6553C215.829 13.6553 217.554 14.0052 219.003 14.7051C220.452 15.3887 221.746 16.4873 222.885 18.001V14.29H228.964ZM214.413 19.7588C212.102 19.7588 210.19 20.5726 208.676 22.2002C207.178 23.8278 206.43 25.8949 206.43 28.4014C206.43 30.8265 207.187 32.7959 208.7 34.3096C210.23 35.807 212.208 36.5557 214.633 36.5557C217.042 36.5557 218.979 35.7907 220.443 34.2607C221.925 32.7308 222.665 30.7288 222.665 28.2549C222.665 25.7484 221.892 23.7057 220.346 22.127C218.816 20.5482 216.838 19.7588 214.413 19.7588ZM235.82 42C235.82 42 235.82 34.7816 235.82 20.3447C235.82 20.3447 234.738 20.3447 232.573 20.3447C232.573 20.3447 232.573 18.3265 232.573 14.29C232.573 14.29 233.655 14.29 235.82 14.29C235.82 14.29 235.82 11.2139 235.82 5.06152C235.82 5.06152 238.034 5.06152 242.461 5.06152C242.461 5.06152 242.461 8.1377 242.461 14.29C242.461 14.29 243.795 14.29 246.465 14.29C246.465 14.29 246.465 16.3083 246.465 20.3447C246.465 20.3447 245.13 20.3447 242.461 20.3447C242.461 20.3447 242.461 27.5632 242.461 42C242.461 42 240.247 42 235.82 42ZM250.001 42C250.001 42 250.001 32.7633 250.001 14.29C250.001 14.29 252.214 14.29 256.641 14.29C256.641 14.29 256.641 23.5267 256.641 42C256.641 42 254.428 42 250.001 42ZM250.001 11.3115C250.001 11.3115 250.001 9.22819 250.001 5.06152C250.001 5.06152 252.214 5.06152 256.641 5.06152C256.641 5.06152 256.641 7.14486 256.641 11.3115C256.641 11.3115 254.428 11.3115 250.001 11.3115ZM275.851 13.6553C278.488 13.6553 280.929 14.3063 283.175 15.6084C285.421 16.9105 287.195 18.6846 288.497 20.9307C289.8 23.1605 290.451 25.5856 290.451 28.2061C290.451 30.8102 289.791 33.2272 288.473 35.457C287.171 37.6706 285.389 39.4284 283.126 40.7305C280.864 42.0163 278.406 42.6592 275.753 42.6592C273.084 42.6592 270.61 42.0163 268.331 40.7305C266.069 39.4284 264.279 37.6706 262.96 35.457C261.642 33.2272 260.983 30.8102 260.983 28.2061C260.983 26.2204 261.365 24.3324 262.13 22.542C262.911 20.7354 263.961 19.1891 265.28 17.9033C266.614 16.6012 268.201 15.5677 270.04 14.8027C271.88 14.0378 273.816 13.6553 275.851 13.6553ZM275.582 19.7588C273.434 19.7588 271.578 20.5889 270.016 22.249C268.47 23.8929 267.697 25.8623 267.697 28.1572C267.697 30.4684 268.478 32.446 270.04 34.0898C271.603 35.7337 273.483 36.5557 275.68 36.5557C277.894 36.5557 279.79 35.7419 281.369 34.1143C282.947 32.4704 283.737 30.501 283.737 28.2061C283.737 25.8298 282.947 23.8278 281.369 22.2002C279.79 20.5726 277.861 19.7588 275.582 19.7588ZM294.768 42C294.768 42 294.768 32.7633 294.768 14.29C294.768 14.29 296.81 14.29 300.896 14.29C300.896 14.29 300.896 15.1771 300.896 16.9512C302.116 15.763 303.321 14.9167 304.509 14.4121C305.697 13.9076 307.097 13.6553 308.708 13.6553C312.745 13.6553 315.691 15.0713 317.546 17.9033C318.213 18.9775 318.677 20.1901 318.938 21.541C319.214 22.8919 319.353 24.7637 319.353 27.1562V42H312.712C312.712 42 312.712 37.4834 312.712 28.4502C312.712 24.8695 312.24 22.5176 311.296 21.3945C310.401 20.304 309.107 19.7588 307.414 19.7588C305.136 19.7588 303.484 20.654 302.458 22.4443C302.051 23.0791 301.775 23.8685 301.628 24.8125C301.482 25.7565 301.408 27.1318 301.408 28.9385V42C301.408 42 299.195 42 294.768 42ZM325.891 42C325.891 42 325.891 39.8678 325.891 35.6035C325.891 35.6035 328.105 35.6035 332.532 35.6035C332.532 35.6035 332.532 37.7357 332.532 42C332.532 42 330.319 42 325.891 42ZM344.128 42.55C342.661 42.55 341.47 41.9267 340.553 40.68C339.673 39.3967 339.233 37.49 339.233 34.96C339.233 32.6867 339.581 30.4683 340.278 28.305C341.011 26.1417 342.001 24.18 343.248 22.42C344.531 20.66 345.998 19.2667 347.648 18.24C349.298 17.2133 351.058 16.7 352.928 16.7C354.248 16.7 355.513 16.9383 356.723 17.415L358.978 4.6L354.193 2.73V2.4L363.708 0.749997H363.873L357.768 35.455C357.585 36.555 357.548 37.3433 357.658 37.82C357.768 38.2967 358.08 38.535 358.593 38.535C359.216 38.535 359.895 38.205 360.628 37.545C361.361 36.8483 362.058 35.8033 362.718 34.41L363.433 34.74C362.37 37.49 361.215 39.4883 359.968 40.735C358.758 41.945 357.511 42.55 356.228 42.55C354.945 42.55 354.065 42.055 353.588 41.065C353.111 40.075 353.02 38.755 353.313 37.105L353.588 35.675H353.368C350.288 40.2583 347.208 42.55 344.128 42.55ZM343.413 32.815C343.413 35.125 343.67 36.72 344.183 37.6C344.696 38.48 345.54 38.92 346.713 38.92C347.776 38.92 348.968 38.3883 350.288 37.325C351.608 36.225 352.855 34.7767 354.028 32.98L356.008 21.705C355.238 20.6783 354.486 19.945 353.753 19.505C353.056 19.065 352.25 18.845 351.333 18.845C349.866 18.845 348.528 19.4867 347.318 20.77C346.145 22.0533 345.191 23.7583 344.458 25.885C343.761 27.975 343.413 30.285 343.413 32.815ZM372.509 42.55C371.042 42.55 369.85 41.9267 368.934 40.68C368.054 39.3967 367.614 37.49 367.614 34.96C367.614 32.6867 367.962 30.4683 368.659 28.305C369.392 26.1417 370.382 24.18 371.629 22.42C372.912 20.66 374.379 19.2667 376.029 18.24C377.679 17.2133 379.439 16.7 381.309 16.7C382.225 16.7 383.105 16.81 383.949 17.03C384.792 17.25 385.544 17.5433 386.204 17.91L388.129 16.7H389.504L386.149 35.455C385.965 36.555 385.929 37.3433 386.039 37.82C386.185 38.2967 386.497 38.535 386.974 38.535C387.597 38.535 388.275 38.205 389.009 37.545C389.742 36.8483 390.439 35.8033 391.099 34.41L391.814 34.74C390.75 37.49 389.595 39.4883 388.349 40.735C387.139 41.945 385.892 42.55 384.609 42.55C383.325 42.55 382.445 42.055 381.969 41.065C381.492 40.075 381.4 38.755 381.694 37.105L381.969 35.675H381.749C380.355 37.8017 378.889 39.4883 377.349 40.735C375.809 41.945 374.195 42.55 372.509 42.55ZM371.794 32.815C371.794 34.8683 372.014 36.4083 372.454 37.435C372.93 38.425 373.81 38.92 375.094 38.92C375.974 38.92 376.854 38.6267 377.734 38.04C378.614 37.4533 379.457 36.7017 380.264 35.785C381.07 34.8683 381.785 33.9333 382.409 32.98L384.444 21.65C383.747 20.7333 383.032 20.0367 382.299 19.56C381.602 19.0833 380.74 18.845 379.714 18.845C378.137 18.845 376.744 19.5233 375.534 20.88C374.36 22.2367 373.444 23.9783 372.784 26.105C372.124 28.2317 371.794 30.4683 371.794 32.815ZM400.35 42.55C399.14 42.55 398.223 42.165 397.6 41.395C396.976 40.625 396.665 39.5433 396.665 38.15C396.665 37.8567 396.683 37.5267 396.72 37.16C396.756 36.7933 396.811 36.4267 396.885 36.06L399.8 19.67H395.73V19.34L400.405 17.25L405.135 11.2H405.465L404.42 17.25H411.295V19.67H403.98L401.505 33.64C401.431 34.1167 401.376 34.5567 401.34 34.96C401.303 35.3267 401.285 35.6567 401.285 35.95C401.285 36.83 401.431 37.4533 401.725 37.82C402.018 38.1867 402.403 38.37 402.88 38.37C403.723 38.37 404.621 37.8933 405.575 36.94C406.565 35.9867 407.463 34.6117 408.27 32.815L408.985 33.145C407.775 36.6283 406.418 39.0667 404.915 40.46C403.448 41.8533 401.926 42.55 400.35 42.55ZM418.16 42.55C416.693 42.55 415.501 41.9267 414.585 40.68C413.705 39.3967 413.265 37.49 413.265 34.96C413.265 32.6867 413.613 30.4683 414.31 28.305C415.043 26.1417 416.033 24.18 417.28 22.42C418.563 20.66 420.03 19.2667 421.68 18.24C423.33 17.2133 425.09 16.7 426.96 16.7C427.876 16.7 428.756 16.81 429.6 17.03C430.443 17.25 431.195 17.5433 431.855 17.91L433.78 16.7H435.155L431.8 35.455C431.616 36.555 431.58 37.3433 431.69 37.82C431.836 38.2967 432.148 38.535 432.625 38.535C433.248 38.535 433.926 38.205 434.66 37.545C435.393 36.8483 436.09 35.8033 436.75 34.41L437.465 34.74C436.401 37.49 435.246 39.4883 434 40.735C432.79 41.945 431.543 42.55 430.26 42.55C428.976 42.55 428.096 42.055 427.62 41.065C427.143 40.075 427.051 38.755 427.345 37.105L427.62 35.675H427.4C426.006 37.8017 424.54 39.4883 423 40.735C421.46 41.945 419.846 42.55 418.16 42.55ZM417.445 32.815C417.445 34.8683 417.665 36.4083 418.105 37.435C418.581 38.425 419.461 38.92 420.745 38.92C421.625 38.92 422.505 38.6267 423.385 38.04C424.265 37.4533 425.108 36.7017 425.915 35.785C426.721 34.8683 427.436 33.9333 428.06 32.98L430.095 21.65C429.398 20.7333 428.683 20.0367 427.95 19.56C427.253 19.0833 426.391 18.845 425.365 18.845C423.788 18.845 422.395 19.5233 421.185 20.88C420.011 22.2367 419.095 23.9783 418.435 26.105C417.775 28.2317 417.445 30.4683 417.445 32.815ZM443.361 42.275C442.444 42.275 441.766 42.0183 441.326 41.505C440.922 40.9917 440.721 40.3317 440.721 39.525C440.721 38.6083 441.032 37.7833 441.656 37.05C442.279 36.3167 443.086 35.95 444.076 35.95C444.992 35.95 445.652 36.2067 446.056 36.72C446.496 37.2333 446.716 37.8933 446.716 38.7C446.716 39.6533 446.404 40.4967 445.781 41.23C445.194 41.9267 444.387 42.275 443.361 42.275ZM463.635 33.585C462.535 33.585 461.526 33.42 460.61 33.09C459.766 33.4933 459.161 34.0067 458.795 34.63C458.465 35.2167 458.3 35.84 458.3 36.5C458.3 37.2333 458.666 37.8017 459.4 38.205C460.133 38.6083 461.068 38.9383 462.205 39.195C463.378 39.4517 464.625 39.7267 465.945 40.02C467.265 40.2767 468.493 40.6433 469.63 41.12C470.803 41.56 471.756 42.165 472.49 42.935C473.223 43.7417 473.59 44.805 473.59 46.125C473.59 47.5917 473.131 49.0217 472.215 50.415C471.298 51.8083 469.923 52.945 468.09 53.825C466.293 54.7417 464.001 55.2 461.215 55.2C457.951 55.2 455.531 54.6683 453.955 53.605C452.415 52.5417 451.645 51.2033 451.645 49.59C451.645 48.4167 451.828 47.5 452.195 46.84C452.525 46.18 453.093 45.4467 453.9 44.64L458.3 42.165V42.055C457.163 41.725 456.21 41.2667 455.44 40.68C454.706 40.0933 454.34 39.2317 454.34 38.095C454.34 37.325 454.431 36.6833 454.615 36.17C454.798 35.6567 455.146 35.1067 455.66 34.52L459.345 32.65V32.485C458.355 31.8983 457.566 31.11 456.98 30.12C456.43 29.0933 456.155 27.9383 456.155 26.655C456.155 25.115 456.595 23.5933 457.475 22.09C458.391 20.55 459.62 19.2667 461.16 18.24C462.736 17.2133 464.533 16.7 466.55 16.7C467.54 16.7 468.566 16.8833 469.63 17.25H477.935V19.67H473.04L472.82 19.835C473.59 20.8617 473.975 22.2183 473.975 23.905C473.975 24.9317 473.736 26.0133 473.26 27.15C472.783 28.25 472.086 29.295 471.17 30.285C470.253 31.275 469.153 32.0817 467.87 32.705C466.623 33.2917 465.211 33.585 463.635 33.585ZM464.625 31.44C465.651 31.44 466.55 31.055 467.32 30.285C468.126 29.515 468.75 28.58 469.19 27.48C469.666 26.3433 469.905 25.225 469.905 24.125C469.905 22.5483 469.52 21.2833 468.75 20.33C467.98 19.34 466.971 18.845 465.725 18.845C464.625 18.845 463.653 19.2117 462.81 19.945C462.003 20.6417 461.38 21.54 460.94 22.64C460.5 23.74 460.28 24.8767 460.28 26.05C460.28 27.6633 460.665 28.965 461.435 29.955C462.241 30.945 463.305 31.44 464.625 31.44ZM455.77 48.985C455.77 50.3417 456.338 51.4233 457.475 52.23C458.648 53.0733 460.206 53.495 462.15 53.495C464.68 53.495 466.55 52.9267 467.76 51.79C468.97 50.6533 469.575 49.2967 469.575 47.72C469.575 46.6933 469.263 45.8683 468.64 45.245C468.053 44.6583 467.265 44.2 466.275 43.87C465.285 43.54 464.203 43.265 463.03 43.045C461.893 42.8617 460.775 42.6417 459.675 42.385C457.988 43.5583 456.906 44.6767 456.43 45.74C455.99 46.84 455.77 47.9217 455.77 48.985ZM488.866 42.55C485.676 42.55 483.311 41.56 481.771 39.58C480.268 37.6 479.516 35.0333 479.516 31.88C479.516 30.1567 479.828 28.415 480.451 26.655C481.074 24.8583 481.973 23.2083 483.146 21.705C484.319 20.2017 485.713 18.9917 487.326 18.075C488.939 17.1583 490.718 16.7 492.661 16.7C495.851 16.7 498.198 17.69 499.701 19.67C501.241 21.65 502.011 24.2167 502.011 27.37C502.011 29.02 501.699 30.7433 501.076 32.54C500.489 34.3 499.609 35.95 498.436 37.49C497.299 38.9933 495.924 40.2217 494.311 41.175C492.698 42.0917 490.883 42.55 488.866 42.55ZM489.471 40.46C491.048 40.46 492.423 39.855 493.596 38.645C494.769 37.3983 495.668 35.7667 496.291 33.75C496.914 31.6967 497.226 29.46 497.226 27.04C497.226 24.3267 496.859 22.2733 496.126 20.88C495.429 19.45 494.109 18.735 492.166 18.735C490.626 18.735 489.251 19.3033 488.041 20.44C486.868 21.54 485.951 23.08 485.291 25.06C484.631 27.04 484.301 29.3683 484.301 32.045C484.301 34.7583 484.668 36.8483 485.401 38.315C486.134 39.745 487.491 40.46 489.471 40.46ZM513.197 42.55C511.84 42.55 510.722 42.0183 509.842 40.955C508.999 39.8917 508.577 38.4433 508.577 36.61C508.577 36.2433 508.595 35.8767 508.632 35.51C508.705 35.1433 508.76 34.7767 508.797 34.41L511.272 20.605L506.982 18.68V18.35L515.782 16.7H516.002L513.142 33.53C512.995 34.4467 512.922 35.1067 512.922 35.51C512.922 36.5367 513.16 37.4167 513.637 38.15C514.15 38.8467 514.975 39.195 516.112 39.195C516.882 39.195 517.652 38.92 518.422 38.37C519.229 37.82 519.999 37.16 520.732 36.39C521.465 35.62 522.125 34.905 522.712 34.245L525.077 20.605L521.282 18.68V18.35L529.642 16.7H529.862L526.562 35.455C526.379 36.555 526.342 37.3433 526.452 37.82C526.599 38.2967 526.947 38.535 527.497 38.535C528.12 38.535 528.799 38.205 529.532 37.545C530.265 36.8483 530.962 35.8033 531.622 34.41L532.337 34.74C531.274 37.49 530.119 39.4883 528.872 40.735C527.662 41.945 526.415 42.55 525.132 42.55C523.849 42.55 522.969 42.055 522.492 41.065C522.052 40.075 521.96 38.755 522.217 37.105L522.272 36.775H522.107C520.86 38.1683 519.779 39.2867 518.862 40.13C517.945 40.9733 517.047 41.5967 516.167 42C515.324 42.3667 514.334 42.55 513.197 42.55ZM543.188 42L538.293 20.33L533.618 18.68V18.35L541.758 16.7H541.923L546.103 35.895H546.323L550.448 29.735C551.732 27.7917 552.502 26.2883 552.758 25.225C553.052 24.1617 553.198 23.2817 553.198 22.585C553.198 21.9983 553.052 21.54 552.758 21.21C552.465 20.8433 552.098 20.5317 551.658 20.275L550.943 19.835V19.615L551.823 17.965C552.117 17.4517 552.355 17.1217 552.538 16.975C552.758 16.7917 553.07 16.7 553.473 16.7C554.06 16.7 554.592 16.9383 555.068 17.415C555.582 17.8917 555.985 18.46 556.278 19.12C556.572 19.78 556.718 20.4217 556.718 21.045C556.718 21.925 556.425 23.0067 555.838 24.29C555.252 25.5733 554.225 27.2967 552.758 29.46L544.343 42H543.188ZM565.787 34.6416C566.915 34.6416 567.792 35.0444 568.418 35.8501C569.045 36.6379 569.242 37.5868 569.009 38.6968C568.759 39.8247 568.15 40.7915 567.183 41.5972C566.216 42.3849 565.169 42.7788 564.041 42.7788C562.931 42.7788 562.063 42.3849 561.436 41.5972C560.809 40.7915 560.621 39.8247 560.872 38.6968C561.105 37.5688 561.705 36.611 562.671 35.8232C563.638 35.0355 564.677 34.6416 565.787 34.6416ZM567.002 55.2C566.158 55.2 565.498 54.9983 565.022 54.595C564.545 54.2283 564.307 53.8067 564.307 53.33C564.307 53 564.417 52.615 564.637 52.175L565.407 50.525H565.737L566.782 51.13C567.332 51.46 568.083 51.625 569.037 51.625C570.687 51.625 571.97 50.8183 572.887 49.205C573.84 47.5917 574.518 45.5017 574.922 42.935L578.332 19.67H573.987V17.25H578.662L578.992 15.05C579.102 14.3167 579.432 13.3633 579.982 12.19C580.532 11.0167 581.265 9.78833 582.182 8.505C583.098 7.185 584.143 5.93833 585.317 4.765C586.527 3.59166 587.81 2.63833 589.167 1.905C590.56 1.135 591.99 0.749997 593.457 0.749997C593.787 0.749997 594.135 0.804997 594.502 0.914998C594.868 0.98833 595.162 1.08 595.382 1.19C595.858 1.44667 596.188 1.685 596.372 1.905C596.555 2.08833 596.647 2.30833 596.647 2.565C596.647 2.71166 596.592 2.91333 596.482 3.17C596.408 3.39 596.317 3.59166 596.207 3.775L595.327 5.425H594.942L593.677 4.82C592.76 4.41666 591.66 4.215 590.377 4.215C588.47 4.215 586.948 5.02167 585.812 6.635C584.675 8.24833 583.923 10.32 583.557 12.85L582.897 17.25H589.112V19.67H582.567L579.432 40.845C579.322 41.5417 579.028 42.4767 578.552 43.65C578.075 44.86 577.433 46.125 576.627 47.445C575.857 48.765 574.958 50.0117 573.932 51.185C572.942 52.3583 571.86 53.3117 570.687 54.045C569.513 54.815 568.285 55.2 567.002 55.2ZM591.405 42L595.2 20.605L590.91 18.68V18.35L598.665 16.7H598.83V23.465H599.05C600.223 21.3017 601.213 19.7617 602.02 18.845C602.863 17.8917 603.597 17.305 604.22 17.085C604.88 16.8283 605.467 16.7 605.98 16.7C606.64 16.7 607.245 16.92 607.795 17.36C608.345 17.7633 608.62 18.24 608.62 18.79C608.62 18.9733 608.565 19.175 608.455 19.395L607.08 22.2H606.75L606.145 21.76C605.852 21.54 605.522 21.3933 605.155 21.32C604.825 21.21 604.495 21.155 604.165 21.155C603.505 21.155 602.9 21.3017 602.35 21.595C601.837 21.8517 601.25 22.42 600.59 23.3C599.967 24.1433 599.16 25.4267 598.17 27.15L595.585 42H591.405Z" fill="black"/>
</svg>
