<svg xmlns="http://www.w3.org/2000/svg" width="77" height="76" fill="none" viewBox="0 0 77 76">
  <path fill="#000091" d="M64.508 75.895H12.054c-2.162 0-4.08-1.74-4.08-3.832V38.14l-5.693-.056c-.548 0-1.456-.52-1.7-.954-.246-.435-.13-1.74.288-2.148L36.616 1.44c.865-.814 2.047-1.18 3.042-.253l35.92 33.726c.534.492.65 1.656.404 2.162-.245.505-1.269 1.038-1.845 1.052h-5.535v33.586c0 2.007-1.571 4.197-4.08 4.197zM45.942 54.758c.49.337.966.87 1.125 1.235v17.375H64.32c.865 0 1.657-.884 1.657-1.74V37.116c0-.884.764-1.572 1.514-1.544l4.872-.112L38.26 3.446 4.083 35.53l5.16.028c.62.098 1.326.828 1.326 1.6v34.554c.058.913.865 1.685 1.788 1.685h17.052V56.316c0-.814.778-1.53 1.557-1.53H45.97zm-.59 18.61V56.414h-14.27v16.954zM61.856 19.67V5.691h-9.413v4.87c-2.782-1.052-1.845-6.442-.879-6.456l10.263-.112c.937 0 1.744.8 1.744 1.684l-.029 15.425-1.7-1.418z"/>
</svg>
