<svg xmlns="http://www.w3.org/2000/svg" width="80" height="80" fill="none" viewBox="0 0 80 80">
  <path fill="#58b77d" d="M54.561 79.985H25.44c-.713-.152-1.289-.743-1.47-1.485V56.01H1.576C.743 56.01 0 55.148 0 54.33V25.626c0-.879.682-1.682 1.561-1.682h22.407V1.47c0-.652.804-1.41 1.44-1.47h29.017c.819.09 1.455.697 1.622 1.515v22.46l22.573-.016A2.95 2.95 0 0 1 80 25.262V54.36a1.77 1.77 0 0 1-1.774 1.682H56.032v22.444c-.167.681-.667 1.242-1.47 1.515zm-1.258-2.743v-22.52c.137-.712.743-1.273 1.47-1.44h22.498v-26.61H54.773c-.727-.182-1.318-.713-1.485-1.425V2.727H26.682v22.187c0 .985-.682 1.697-1.668 1.773l-22.285-.03v26.64l22.68-.03c.545.319 1.03.819 1.288 1.395v22.58z"/>
</svg>
