<svg xmlns="http://www.w3.org/2000/svg" width="80" height="69" fill="none" viewBox="0 0 80 69">
  <path fill="#000091" d="M.014 64.466v-2.312l2.863.028V33.735h2.441v28.504l13.893.014V47.578l1.67.113v14.562h10.482V47.62l1.642.029v14.618l13.724-.014v-28.56l2.526-.014v28.588H55.4l-.21-1.382 3.115.466c2.287-.55 4.378-.494 6.665 0l3.087-.465-.252 1.395H79.62l-.098 2.538L0 64.509zm0 4.356v-2.608l79.537.07.014 2.538zM2.4 32.255c-.478 0-1.053-.113-1.151-.296-.14-.226-.154-.987-.028-1.241l2.722-5.639c.45-.352 1.656-.493 2.358-.521v-7.993h1.67v8.05h9.696V15.24H4.87c-.393 0-1.347-.79-1.108-1.156L6.708 9.46h11.549L26.17.762l7.816 8.684h11.226l2.807 4.088c.154.211.35.888.266 1.085-.112.282-.687.494-1.08.62H34.422v9.375h9.697v-8.05h1.67v8.078c1.529-.268 2.399.38 2.932 1.58.87 1.959 1.712 3.537 2.428 5.99l-48.721.043zM31.587 9.347l-5.472-6.146-5.445 6.188 10.932-.042zm-13.948 4.23v-2.482H7.578l-1.46 2.453H17.64zM32.766 24.6V11.095H19.31v13.52zm13.079-11.052-1.516-2.467-9.921.028v2.467zm2.989 17.03-2.077-4.286H5.234l-2.063 4.3h45.663z"/>
  <path fill="#000091" d="M51.22 58.137h21.54c2.82-1.001 4.251-3.835 3.69-6.753-3.256-5.16-11.437-10.812-17.064-11.587-2.75-.381-5.445-.1-8.209-.184l-.07-1.663c2.82.113 5.711-.282 8.56.183 6.328 1.03 15.029 6.88 18.368 12.715.898 3.891-1.164 7.782-5.023 8.924H51.205v-1.65zM34.198 46.295H17.934l-.66-.268c-.21-.084-.253-.944-.112-1.127l2.498-3.158h13.078l2.133 2.918c.154.197.45 1.071.239 1.184zm-1.572-1.677-.954-1.24H20.74l-1.207 1.225h13.093z"/>
  <path fill="#000091" d="M51.163 51.596c-.239-.113.309-.818.828-.917v-7.175l-.8-.268c-.126-.042-.098-.48-.07-.733h4.083c2.75 0 4.687 2.242 4.617 4.75-.084 2.609-2.189 4.61-4.968 4.498l-3.676-.141zm3.901-.733c2.26 0 3.803-1.692 3.873-3.638.056-1.691-1.319-3.665-3.227-3.75l-2.905-.126-.028 7.5h2.287zM44.301 39.684h-6.82v-5.625l6.778-.07.042 5.68zm-.856-.818-.07-4.018h-5.01l-.042 4.018zm.87 10.347-6.806.042-.056-5.666 6.764-.043zm-.912-.79v-4.03h-5.066l.042 4.017h5.038zm.898 10.559h-6.82v-5.61l6.778-.07zm-.856-.817-.07-4.018h-5.01l-.042 4.018zM29.44 39.698h-6.79V34.03h6.763zm-.87-.832V34.85h-5.093l.042 4.003h5.051zm-13.78.776-6.805.084v-5.695h6.75l.07 5.61zm-.898-.776V34.85H8.8l.042 4.003h5.051zm.87 10.347-6.791.028v-5.68h6.763l.042 5.652zm-.828-.79-.056-4.017H8.855l-.042 4.018zm.828 10.573H7.985V53.33h6.763l.028 5.666zm-.87-.831v-4.018H8.8l.042 4.004h5.051zm60.27-7.232c.239 0 .969.578.955.663l-9.094.07c-3.634.028-3.536-5.977-2.245-8.134.099-.155.548-.564.702-.507l.87.324c-1.937 1.269-1.754 5.216-.982 6.513.322.55 1.501 1.015 2.343 1.029l7.451.028zM24.459 13.266c2.89-.916 5.613.719 6.413 3.313s-.604 5.526-3.326 6.386a5.07 5.07 0 0 1-6.273-3.045c-.968-2.552.225-5.71 3.186-6.64zm.715.719c-2.553.55-3.816 3.045-3.185 5.202s2.778 3.496 4.8 3.059c2.287-.494 3.83-2.763 3.353-4.92-.491-2.185-2.512-3.863-4.968-3.341"/>
  <path fill="#000091" d="M24.697 19.384c-.28-.225.239-1.1.66-1.55L25.904 15c1.067 1.353 1.067 3.637-1.207 4.384"/>
</svg>
