<svg xmlns="http://www.w3.org/2000/svg" width="228" height="228" viewBox="0 0 228 228">
  <g fill="#000091">
    <path d="M6.21 222.14c-.4-.27-.87-.76-1.02-1.05-.22-.45-.27-11.89-.22-55.55.04-51.52.07-55 .42-55.06.27-.04.98.82 2.49 3.12l2.14 3.18v101.2h58.12v-87.9l2.14-1.36c1.16-.73 2.32-1.36 2.56-1.36.42 0 .42.62.42 46.71-.02 37.54-.07 46.8-.31 47.2-.16.29-.58.71-.94.96-.62.4-1.4.42-32.84.42H6.97zm71.54-1.75.07-2.29 5.41-.07 5.39-.04v-16.25c0-17.92-.04-17.39 1.38-18.26.73-.45 1.07-.45 23.96-.45h23.2l.8.73c.65.58.85.98 1 1.85.09.6.18 8.13.18 16.74l.02 15.63h10.94l-.07 2.29-.07 2.27-36.14.07-36.14.04.07-2.27zm33.53-17.48.04-14.98H93.74v30.06l8.75-.04 8.73-.07.07-14.96zm22.71 0 .04-14.98h-17.58v30.06l8.75-.04 8.73-.07.07-14.96zm21.71 19.3c-1.51-.91-1.4 3.14-1.4-48.43 0-42.22.02-46.65.36-46.65.18 0 1.34.62 2.56 1.38l2.2 1.38v88.08l29.08-.04 29.06-.07.04-50.43.04-50.45 2.2-3.27c1.49-2.18 2.36-3.27 2.63-3.27.38 0 .4 2.14.4 54.88 0 59.03.07 55.73-1.11 56.78-.49.45-.85.45-32.93.51-31.84.04-32.44.04-33.13-.4"/>
    <path d="M16.28 200.03c-.45-.58-.47-.85-.47-8.33 0-7.28.02-7.77.42-8.26l.42-.53h11.72l.29.56c.22.42.29 2.47.29 8.19 0 7.57-.07 8.33-.76 8.77-.13.09-2.76.18-5.86.18h-5.61l-.45-.58zm9.77-8.33v-6.23h-7.34v12.46h7.34zm7.17 8.53c-.47-.4-.47-.6-.49-8.19-.04-9.33-.07-8.46.36-8.88.29-.31 1.16-.36 6.08-.36 5.28 0 5.77.02 6.1.4s.38 1.29.38 8.46c0 7.77-.02 8.08-.45 8.51-.42.42-.73.45-5.99.45-4.94 0-5.59-.04-5.99-.38zm9.75-8.53v-6.23h-7.58v12.46h7.58zm6.91 8.47c-.42-.42-.45-.73-.45-8.53 0-7.57.02-8.13.4-8.46.36-.33 1.14-.38 6.23-.38 5.74 0 5.81 0 6.15.49.31.42.36 1.6.36 8.33 0 7.57-.02 7.84-.47 8.42l-.45.58h-5.68c-5.37 0-5.68-.02-6.1-.45zm9.8-8.46v-6.23l-1.94-.04c-1.09-.02-2.36-.07-2.85-.11-.49-.02-1.31 0-1.83.07l-.96.11v6.08c0 3.34.07 6.15.16 6.21.07.09 1.78.16 3.79.16h3.63v-6.23zm106.02 8.39c-.49-.51-.49-.62-.49-8.42 0-6.79.04-7.97.36-8.39.33-.49.4-.49 6.21-.49s5.88 0 6.21.49c.31.42.36 1.6.36 8.33 0 7.57-.02 7.84-.47 8.42l-.45.58h-5.63c-5.59 0-5.63 0-6.1-.51zm9.75-8.39v-6.23h-7.34l-.02 2.63c-.02 1.42-.02 3.52-.02 4.61.02 1.11.04 2.74.04 3.63v1.6h7.34v-6.23zm7.13 8.46c-.42-.42-.45-.73-.45-8.39v-7.95l.6-.62.6-.62h5.37c5.1 0 5.39.02 5.86.45.53.49.56 1.14.6 13.43 0 4.5.53 4.16-6.59 4.16-5.25 0-5.57-.02-5.99-.45zm9.8-8.44v-6.19l-3.23-.11c-1.78-.07-3.5-.07-3.79 0l-.56.09v12.42h7.58zm6.99 8.42c-.4-.45-.42-.91-.42-8.55 0-6.5.07-8.13.31-8.42.27-.33.98-.38 6.15-.38 5.37 0 5.86.02 6.19.4s.38 1.29.38 8.46c0 7.77-.02 8.08-.45 8.51-.42.42-.73.45-6.08.45-5.46 0-5.68-.02-6.08-.47m9.93-8.39v-6.21l-3.05-.11c-1.69-.07-3.41-.09-3.79-.02l-.73.11v12.42h7.58v-6.19zM16.99 175.9c-1.18-.47-1.2-.65-1.14-9.08.07-7.17.11-7.86.47-8.22s.98-.4 6.03-.47l5.63-.07.49.6c.47.58.47.78.47 8.42 0 6.32-.07 7.93-.31 8.26-.22.31-.71.47-1.94.58-2.29.24-9.11.22-9.71-.02zm9.06-8.91v-6.23h-7.34v12.46h7.34zm7.06 8.53c-.29-.36-.36-1.54-.42-8.46-.07-7.5-.04-8.1.33-8.46.36-.36.98-.4 6.06-.47 5.46-.07 5.66-.07 6.1.38.45.45.47.69.47 8.55 0 7.57-.02 8.13-.4 8.46-.36.33-1.11.38-6.1.38-5.12 0-5.7-.04-6.03-.38zm9.86-8.53v-6.23h-7.58v12.46h7.58zm6.84 8.51c-.33-.38-.38-1.29-.38-8.42 0-6.12.07-8.1.29-8.42.24-.33.91-.4 6.08-.51l5.79-.13.49.62c.49.6.49.71.49 8.48 0 7.59-.02 7.9-.45 8.33-.42.42-.73.45-6.19.45-5.3 0-5.79-.02-6.12-.4m9.86-8.51v-6.23h-7.58v12.46h7.58zm105.99 8.46c-.42-.42-.45-.73-.45-8.42v-7.99l.51-.47c.51-.47.67-.49 6.1-.49h5.61l.45.58c.45.58.47.85.47 8.46 0 7.59-.02 7.9-.45 8.33-.42.42-.73.45-6.12.45s-5.7-.02-6.12-.45m9.8-8.46v-6.23h-7.34v12.46h7.34zm7.05 8.51c-.33-.38-.38-1.29-.38-8.42 0-6.57.07-8.1.31-8.46.29-.4.67-.42 6.08-.49 5.32-.07 5.79-.04 6.12.33.31.36.38 1.4.42 8.46.07 7.61.04 8.08-.33 8.51-.4.45-.65.47-6.15.47-5.25 0-5.74-.02-6.08-.4zm9.86-8.51v-6.23h-7.58v12.46h7.58zm7 8.6c-.4-.31-.42-.67-.42-8.44 0-7.68.02-8.15.42-8.59.4-.45.62-.47 6.08-.47 5.34 0 5.66.02 6.08.45.42.42.45.73.45 8.53 0 7.57-.02 8.13-.4 8.46-.36.33-1.11.38-6.08.38-4.56 0-5.77-.07-6.12-.31zm9.93-8.59v-6.23h-7.58v12.46h7.58zm-124-1.7c-.45-.58-.47-.85-.47-8.55v-7.95l.51-.47c.51-.49.65-.49 7.57-.49 7.01 0 7.04 0 7.37.49.31.42.36 1.63.36 8.53v8.06l-.51.47c-.51.49-.65.49-7.44.49h-6.95l-.45-.58zm12.45-2.36c0-.16.02-2.98.04-6.3l.04-6.01-5.05-.07-5.05-.04v12.7h5.01c3.85 0 5.01-.07 5.01-.27zm8.57 2.38-.56-.53v-7.88c0-7.44.02-7.93.42-8.42l.42-.53 7.24-.07 7.24-.07.47.6c.45.58.47.8.47 8.48v7.88l-.56.53-.53.56h-14.08l-.53-.56zm12.76-8.51.04-6.3h-10.46v12.7l5.19-.04 5.17-.07.07-6.28zm8.59 8.53-.62-.51-.07-6.77c-.02-3.72 0-7.35.07-8.08.22-2.23-.13-2.14 7.97-2.14h7.01l.45.58c.45.58.47.85.47 8.48v7.88l-.56.53-.53.56h-13.58l-.6-.53zm12.34-8.53.04-6.3h-10.24v6.19c0 3.41.07 6.28.16 6.37.09.07 2.36.11 5.05.09l4.92-.07zm-123.67-5.43c-.4-.45-.42-.96-.49-8.31-.04-6.01.02-7.95.24-8.37l.29-.56h11.98l.29.56c.22.42.29 2.49.29 8.26 0 7.46-.02 7.73-.47 8.31l-.45.58h-5.63c-5.43 0-5.66-.02-6.06-.47zm9.71-8.44v-6.23h-7.34v12.46h7.34zm7.06 8.53c-.29-.36-.36-1.45-.38-8.08-.04-9.26-.07-8.57.36-9 .29-.31 1.16-.36 6.08-.36 5.28 0 5.77.02 6.1.4s.38 1.29.38 8.46c0 7.77-.02 8.08-.45 8.51-.42.42-.73.45-6.08.45-5.1 0-5.68-.04-6.01-.38m9.86-8.53v-6.23h-7.58v12.46h7.58zm6.82 8.42c-.31-.42-.36-1.6-.36-8.42 0-6.81.04-7.99.36-8.42.33-.49.4-.49 6.21-.49s5.88 0 6.21.49c.31.42.36 1.6.36 8.42v7.95l-.51.47c-.51.47-.67.49-6.23.49-5.63 0-5.7 0-6.03-.49zm9.89-8.42v-6.23H52.1v12.46h7.58zm106.02 8.4c-.49-.51-.49-.62-.49-8.44 0-7.21.04-7.97.4-8.39.38-.47.49-.47 6.28-.42l5.88.07.29.56c.22.42.29 2.49.29 8.26 0 7.46-.02 7.73-.47 8.31l-.45.58h-5.63c-5.59 0-5.63 0-6.1-.51zm9.75-8.39v-6.23h-7.34v12.46h7.34zm7.13 8.46c-.42-.42-.45-.73-.45-8.53 0-7.57.02-8.13.4-8.46.36-.33 1.14-.38 6.23-.38 5.43 0 5.83.02 6.03.42.13.24.24 3.63.27 8.46.04 7.48.02 8.06-.36 8.48s-.69.45-6.06.45c-5.34 0-5.66-.02-6.08-.45zm9.8-8.46v-6.23h-7.58v12.46h7.58zm6.99 8.43c-.4-.45-.42-.91-.42-8.55 0-6.5.07-8.13.31-8.42.27-.33.98-.38 6.15-.38 5.28 0 5.86.04 6.19.4.29.33.36 1.36.38 7.5.04 9.46.07 8.95-.45 9.46-.42.42-.73.45-6.08.45-5.46 0-5.68-.02-6.08-.47zm9.93-8.44v-6.23h-7.58v12.46h7.58zM77.71 129.92v-2.56h36.05c32.66 0 36.05.02 36.18.36.07.2.13 1.34.13 2.56v2.2H77.71zm-36.63.45c-11.22-1.83-20.93-7.59-27.61-16.41-1.94-2.56-3.09-4.5-4.68-7.84-2.45-5.14-3.58-9.89-3.83-15.83-.38-9.89 2.69-19.64 8.68-27.61 1.71-2.27 5.52-6.08 7.84-7.82 5.28-3.96 11.51-6.77 17.66-7.93 2.2-.4 3.43-.49 8.06-.49 4.9-.02 5.7.02 7.9.49 3.61.78 7.46 2.09 10.35 3.54l2.56 1.29.07 1.63.07 1.63-2.58-1.34c-5.7-2.94-10.82-4.34-16.92-4.63-9.75-.45-19.77 3.07-27.25 9.53-5.97 5.17-10.46 12.62-12.47 20.64-.82 3.34-1.02 5.01-1.02 9.4 0 4.41.18 5.99 1.05 9.46 3.65 14.7 15.5 26.01 30.39 29.03 3.05.62 7.55 1 10.09.82 8.04-.56 16.48-4.01 22.96-9.4 4.65-3.87 8.51-9.13 10.87-14.87 2.03-4.92 2.89-9.13 3.05-14.72.07-2.65.16-3.36.4-3.41.18-.04.82.24 1.47.65l1.16.71-.16 2.81c-.2 3.87-.67 6.86-1.56 10.09-2.45 8.95-7.77 16.74-15.19 22.31-2.52 1.89-6.92 4.52-8.75 5.21-6.52 2.52-9.73 3.16-15.92 3.27-3.38.07-5.23 0-6.68-.22zm134.71.08c-9.02-1.16-17.83-5.43-24.4-11.82-6.01-5.83-10.22-13.52-11.89-21.64-.31-1.49-.67-4.28-.8-6.21-.29-3.92-.33-3.74 1.2-4.59 1.42-.8 1.49-.73 1.49 1.65 0 4.12.73 8.86 2 12.8.91 2.83 3.45 7.86 5.28 10.46 2.27 3.23 6.92 7.75 10.2 9.93 6.26 4.16 12.16 6.19 19.73 6.79 5.25.42 9.04-.07 14.32-1.83 13.63-4.56 23.29-15.43 26.45-29.81.45-2.09.51-2.92.49-7.68 0-4.68-.07-5.63-.49-7.66-3.76-17.34-16.99-29.55-34.33-31.64-7.66-.91-16.81 1-23.58 4.99-.76.45-1.42.8-1.49.8-.04 0-.09-.73-.09-1.63v-1.65l2.85-1.34c3.34-1.6 4.72-2.12 7.57-2.85 3.14-.82 6.75-1.22 11.02-1.22 6.9 0 12.36 1.29 18.59 4.43 12.11 6.08 20.68 18.21 22.64 32.04.56 3.96.38 10.44-.42 14.18-2.14 10.18-7.9 19.26-15.99 25.23-1.14.85-2.72 1.91-3.52 2.38s-1.71 1.02-2.05 1.27c-.33.22-.65.4-.71.4-.04 0-.73.29-1.51.65-5.81 2.63-11.33 3.83-17.55 3.79-1.89-.02-4.14-.13-5.01-.22"/>
    <path d="M66.64 114.47c-1.05-.49-1.63-1.38-1.63-2.52 0-.4.31-2.07.67-3.72.71-3.25 1.29-4.43 2.45-5.03l.67-.36v-8.46c0-5.34-.09-8.62-.22-8.88-.27-.51-1.4-.85-5.79-1.76-1.78-.38-5.3-1.11-7.82-1.67l-4.61-.98-1.07.53c-1.94.98-5.05.53-5.99-.87-.56-.87-.65-2-.22-2.92.53-1.14 1.58-1.69 3.38-1.83 1.29-.11 1.67-.04 2.52.4.56.29 1.22.87 1.51 1.29.58.87-.07.69 12.02 3.23 3.27.69 6.39 1.47 6.95 1.74.67.33 1.16.78 1.49 1.38.49.89.51 1 .51 9.8v8.91l.78.62c.42.33.94.85 1.11 1.11.36.58 1.67 6.48 1.67 7.61 0 .85-.8 1.94-1.8 2.45-.98.51-5.39.45-6.59-.09zm5.43-2.61c.11-.31-.16-1.94-.85-5.05-.27-1.11-.89-1.65-1.65-1.36-.51.2-1.87 5.72-1.58 6.46.18.49 3.87.45 4.07-.04zM47.51 79.57c.53-.2.42-.73-.18-.89-1.25-.31-2.27.36-1.2.78.62.27.94.29 1.38.11m104.9 34.32-.56-.53V98.75c0-14.29 0-14.58.45-15.03.42-.42.73-.45 5.41-.45 2.74 0 8.59-.07 13.03-.16l8.06-.13V79.7h-4.79c-5.97 0-6.75-.24-7.7-2.34-.38-.82-.42-1.63-.42-9.69 0-8.08.04-8.86.42-9.69.65-1.4 1.6-2.16 2.96-2.36.65-.09 7.68-.18 15.61-.18 12.54-.02 14.52.02 15.25.31 1.05.45 1.76 1.11 2.29 2.16.38.76.42 1.36.42 6.86v6.01h-2.68v-11.4l-.65-.65-.65-.65H169.9l-.62.53-.62.53-.07 6.26-.07 6.26h19.02l-1.05 1.11c-.56.6-1.02 1.2-1.02 1.31 0 .16-2.83.27-8.39.29l-8.42.07.04.87c.11 1.74-.16 1.69 8.48 1.69h7.66l-.11.51c-.07.27-.2.87-.27 1.34l-.16.82h-2.62v3.28l1.14.16c.89.11 1.11.22 1 .49-.07.2-.13.45-.13.56s-.67.2-1.49.2c-2.34.02-4.54.38-5.74.94-.98.45-1.56.51-4.9.62-3.36.09-3.79.16-3.85.51-.07.36.2.38 3.16.38 1.78 0 3.25.09 3.25.2s-.16.31-.33.47c-.18.16-.45.67-.6 1.14l-.24.87h-5.28v11.98c0 11.33-.02 12.02-.4 12.36-.56.51-1.45.47-1.96-.09-.4-.45-.42-1.02-.49-12.36l-.07-11.89-5.05.04-5.05.07-.04 12.02-.04 12.02-.49.38c-.65.53-1 .51-1.65-.16zm12.36-27.5c0-.42-.16-.45-5.01-.45s-5.01.02-5.01.45c0 .42.16.45 5.01.45s5.01-.02 5.01-.45m42.57 27.54c-.49-.51-.49-.53-.49-11.2 0-9.53.04-10.98.45-13.67.73-4.88.89-5.57 1.34-5.57.22 0 .49.13.62.29.16.18.24 5.05.29 15.07l.04 14.78-.51.4c-.67.53-1.16.51-1.74-.11z"/>
    <path d="M176.54 113c-.89-.47-1.4-1.42-1.4-2.56 0-1.25.56-2.12 1.54-2.47.56-.2.78-.47.98-1.09.13-.42.53-1.09.91-1.45.69-.65.76-.67 3.36-.73l2.65-.09v-3.52h-3.83c-4.39 0-5.34-.27-6.19-1.6-.53-.85-.51-1.98.11-6.75.42-3.18 1-4.36 2.56-5.23.94-.51 1.27-.56 4.74-.62 2.05-.07 3.72-.16 3.72-.22 0-.07.36-2.45.8-5.28.87-5.72 1.2-6.72 2.56-7.61l.87-.58 6.9-.11c6.17-.09 6.99-.07 7.9.27 1.31.51 2.16 1.6 2.29 2.98.09.98-2.74 19.53-3.32 21.75-.31 1.11-1.63 2.45-2.76 2.76-.51.13-2.76.24-5.28.24h-4.41v3.56h2.63c2.12 0 2.76.09 3.36.4.76.4 1.58 1.6 1.58 2.27 0 .2.29.47.67.6 1 .38 1.6 1.51 1.49 2.83-.09.94-.22 1.22-.94 1.87-.78.71-.91.76-2.07.67-1.07-.09-1.34-.22-1.98-.91-.6-.69-.73-.98-.73-1.85 0-.58.18-1.31.38-1.67.29-.49.33-.76.16-1.05-.22-.33-.91-.38-7.35-.45-3.9-.02-7.33 0-7.57.07-.71.16-.78.65-.29 1.78.49 1.11.42 2-.2 2.96-.71 1.09-2.63 1.49-3.85.82zm11.96-9.95c-.07-.89-.11-1.69-.13-1.78 0-.11-.24-.18-.56-.18-.56 0-.56.02-.56 1.78v1.78h1.38zm11.76-4.88c.67-.31.94-.94 1.22-2.98.13-.85.85-5.34 1.58-10 1.25-7.79 1.31-8.48 1-8.95l-.33-.53h-6.12c-6.32 0-6.9.07-7.44.94-.29.47-.94 4.48-2.25 13.65-.38 2.69-.82 5.32-1.02 5.83-.58 1.6-.96 1.74-5.59 1.8-2.29.04-4.07.18-4.07.29 0 .31 22.33.27 23.02-.04zm-15.94-3.14c.18-.24.94-4.5.94-5.3 0-.13-1.27-.22-3.18-.22h-3.18l-.62.65c-.62.65-1 2.29-1.02 4.32v.82h3.43c2.47 0 3.47-.07 3.65-.27zM41.41 106.67c-5.12-1-9.53-3.16-11.56-5.66-1.58-1.98-1.67-2.38-1.8-8.15l-.11-5.19-6.57-2.98c-7.55-3.43-8.02-3.76-8.02-5.63 0-1.47.62-2.18 2.72-3.14.89-.4 5.39-2.45 9.98-4.56 17.5-8.06 19.39-8.86 20.75-8.97 1.2-.09 1.47 0 5.9 2.03 6.86 3.14 22.64 10.35 24.54 11.22 2.67 1.22 3.34 1.94 3.36 3.5 0 1.8-.91 2.56-5.66 4.52l-1.56.65-.51-1c-.29-.56-.51-1.09-.51-1.18 0-.2 1.25-.89 3.18-1.74.96-.42 1.83-.89 1.96-1.02.31-.4-.11-.65-5.14-2.94l-14.14-6.48c-5.37-2.47-10.2-4.61-10.69-4.74-.85-.22-1.05-.18-2.58.53-.91.42-2.85 1.31-4.32 1.96s-3.23 1.45-3.9 1.78-2.03.96-3.01 1.4c-.98.45-5.08 2.32-9.13 4.16-4.03 1.87-7.57 3.47-7.86 3.58s-.49.31-.45.47c.18.51 29.75 13.98 30.7 13.98.4 0 3.92-1.47 8.57-3.58 8.62-3.92 8.53-3.9 10.67-3.01l.87.38-.58.49-.6.49-.07 5.23c-.07 5.19-.07 5.25-.67 6.46-1.49 3.01-5.5 5.46-11.31 6.92-2.74.69-9.46.8-12.47.22zm12.02-2.87c5.46-1.45 8.62-3.52 9.53-6.26.27-.73.4-8.48.16-8.48-.04 0-2.29.98-4.94 2.2-10.33 4.68-10.11 4.59-11.31 4.56-.94-.02-2.25-.53-8.51-3.38-4.07-1.87-7.44-3.38-7.5-3.38-.09 0-.13 1.78-.13 3.96 0 3.67.04 4.03.53 5.05 1.27 2.72 5.54 5.03 11.13 6.01 2.67.47 8.84.31 11.04-.29z"/>
    <path d="M156.17 47.58c0 23.31-18.88 42.2-42.19 42.2s-42.22-18.89-42.22-42.2S90.67 5.37 113.98 5.37s42.19 18.9 42.19 42.21m-2.85 0c0-21.73-17.63-39.34-39.36-39.34-21.74 0-39.35 17.61-39.35 39.34s17.61 39.35 39.35 39.35c21.73 0 39.36-17.62 39.36-39.35m-31.86 38.83"/>
    <path d="M122.86 75.93c-.31-.22-.69-.73-.85-1.11-.33-.78-.62-.82-1.6-.22-1.07.65-2.25.58-2.83-.13-.27-.33-.47-.85-.47-1.16 0-.49 2.18-9.37 2.36-9.6.04-.04.67.11 1.42.33 1 .31 1.31.51 1.2.76-.22.6-1.65 5.97-1.65 6.21 0 .18.11.2.42.02.76-.4 1.63-.24 2.27.36l.6.58.49-1.63c.65-2.34.62-2.32 2.2-2.38l1.4-.07-.16.71c-.27 1.16-1.87 6.19-2.14 6.72-.6 1.11-1.74 1.36-2.69.6zm10.44 0c-.4-.31-.78-1.07-1.25-2.52-1.07-3.32-1.56-5.12-1.45-5.32.07-.09.71-.18 1.42-.18 1.05 0 1.34.07 1.42.4.8 2.81 1.07 3.61 1.16 3.61s.33-.24.58-.56c.47-.6 1.42-.73 2.23-.31.24.13.49.18.56.11.09-.07-.27-1.51-.78-3.18-.71-2.38-.87-3.12-.65-3.32.36-.31 2.14-1.07 2.25-.96.2.2 2.43 8.37 2.52 9.22.22 1.94-1.49 2.74-3.38 1.56-.49-.29-.96-.56-1.05-.56s-.36.45-.6 1c-.65 1.45-1.89 1.87-2.98 1zm-8.23-9.8c-.36-.29-.65-.85-.82-1.56-.29-1.18-.27-1.18-2.09-1.42-.91-.11-1.8-.78-1.98-1.47-.04-.2.11-.96.36-1.67.49-1.42.42-1.69-.87-3.45-.4-.53-.51-.94-.42-1.34.13-.58 1.34-1.78 1.8-1.78.53 0 .98-.82.98-1.87 0-2.07.65-2.65 2.78-2.47l1.56.13 1-1c.85-.89 1.11-1.02 1.89-1.02.8 0 1 .11 1.89 1.11 1 1.09 1 1.11 1.89.89 1.45-.33 2.09-.27 2.67.33.47.45.56.76.56 1.85 0 1.38.27 1.85 1.27 2.14.67.2 1.63 1.38 1.63 1.98 0 .53-.67 1.76-1.38 2.54-.42.47-.45.53-.09 1.54.38 1.11.45 2.03.22 2.65-.2.51-1.27 1-2.25 1-1.11 0-1.34.18-1.51 1.18-.09.47-.42 1.16-.71 1.51-.71.82-1.56.85-3.14.04l-1.2-.6-1.07.6c-1.27.71-2.18.76-2.96.16zm2.52-2.78c.31-.18 1-.31 1.56-.31s1.25.13 1.56.31c.8.45.82.45 1.31-.65.45-1.02 1.69-1.91 2.67-1.91.4 0 .42-.13.31-1.74-.11-1.65-.09-1.76.49-2.45l.62-.73-.82-.69c-1-.82-1.47-1.69-1.47-2.72v-.76l-1.31.11c-1.25.11-1.34.09-2.18-.69-.49-.45-1-.8-1.11-.8-.13 0-.6.36-1.09.8-.82.78-.89.8-2.23.69l-1.38-.11-.09 1.25c-.09 1.07-.22 1.34-.89 1.94-.42.4-.91.76-1.07.82-.24.07-.2.22.18.62.73.8 1 1.94.73 3.09-.24 1.16-.18 1.36.51 1.36.82 0 1.98.94 2.47 1.96.49 1.05.47 1.05 1.22.6z"/>
    <path d="M134.46 57.11c0 2.92-2.36 5.3-5.27 5.3-2.92 0-5.28-2.38-5.28-5.3s2.36-5.28 5.28-5.28c2.91 0 5.27 2.36 5.27 5.28m-2.65.05c0-1.47-1.18-2.65-2.65-2.65s-2.65 1.18-2.65 2.65 1.18 2.65 2.65 2.65 2.65-1.18 2.65-2.65m-1.69 2.42"/>
    <path d="M91.73 59.89c-3.54-.13-4.03-.29-5.28-1.6-1.42-1.49-1.4-1.14-1.4-17.63 0-16.68-.07-15.88 1.58-17.43 1.58-1.49-.18-1.4 27.41-1.4 23.87 0 25.05.02 25.89.42.49.22 1.16.69 1.49 1.05 1.34 1.42 1.29.89 1.29 17.5 0 17.06.07 16.21-1.65 17.7-1.36 1.22-2.89 1.25-1.96.04.96-1.22 1.2-1.98 1.05-3.3-.09-.69-.2-7.5-.24-15.16-.07-10.33-.16-14.05-.36-14.43-.62-1.2.42-1.16-25.81-1.16H89.45l-.76.76-.76.76v29.66l.65.71.65.73 14.63.11 14.63.11.53.62c.53.62.56 1.27.09 1.78-.2.22-22.76.36-27.39.16z"/>
    <path d="M93 49.25c-.49-.53-.47-1.45.02-1.89.38-.33 1.63-.38 13.34-.38 12.22 0 12.94.02 13.27.4.49.53.47 1.45-.02 1.89-.38.33-1.63.38-13.34.38-12.22 0-12.94-.02-13.27-.4m.11-7.52c-.56-.38-.69-1.58-.22-2.05.2-.2 5.19-.27 21.02-.27h20.77l.33.49c.49.69.45 1.14-.16 1.69l-.51.49h-20.37c-18.08 0-20.42-.04-20.86-.36zm-.04-7.66c-.49-.49-.6-1.54-.18-1.96.2-.2 5.19-.27 21.02-.27h20.77l.33.49c.49.69.45 1-.2 1.63l-.53.56h-20.4c-20.08 0-20.37 0-20.82-.45z"/>
  </g>
</svg>
