<svg xmlns="http://www.w3.org/2000/svg" width="80" height="80" fill="none" viewBox="0 0 80 80"><g fill="#000091" clip-path="url(#a)"><path d="M.685 76.891c-.28-.585-.592-1.393-.67-1.877-.077-.485.686-1.353 1.028-1.534 4.437-2.14 7.737-6.46 9.294-12.395-9.979-9.83-13.7-25.839-6.725-39.626 3.44-6.824 8.328-11.81 14.213-15.282C31.43-1.857 47.34-2.019 61.1 5.491c5.371 2.927 9.87 7.085 13.497 12.617 7.037 10.699 7.223 25.334.39 36.255C63.435 72.47 41.735 76.548 24.72 70.31 19.023 80.162 8.936 82.745.7 76.85zm22.93-10.8c11.583 4.744 22.993 4.401 33.75-.424 5.822-2.785 10.928-6.823 14.914-12.778 6.055-9.084 6.647-21.418.98-30.986-3.362-5.673-7.705-9.912-12.952-12.84C47.885 2.1 33.625 1.899 21.031 8.358c-6.18 3.17-11.442 8.115-15.053 15.12-4.312 8.378-4.063 18.471.233 26.707 1.993 3.654 4.406 6.52 7.27 9.488-.887 6.601-4.063 11.93-8.624 15.624 7.317 3.17 14.587-.686 18.759-9.184z"/><path d="M50.796 47.943H29.11c-.436-.181-.919-.444-1.168-.686-.296-.303.436-1.615.778-1.696h22.09c.358.344.825.868 1.012 1.232.187.363-.716 1.11-1.043 1.15zm.218-10.82H29.095l-1.012-.585c-.28-.161 0-1.312.203-1.776l22.557-.04.98.968c.218.222-.467 1.171-.825 1.433zm.016-10.941H29.08l-1.183-.928c-.265-.223.56-1.292.825-1.434h22.12l.981.868c.218.202-.451 1.232-.794 1.494"/></g><defs><clipPath id="a"><path fill="#fff" d="M0 0h80v80H0z"/></clipPath></defs></svg>