<svg xmlns="http://www.w3.org/2000/svg" width="76" height="71" fill="none" viewBox="0 0 76 71">
  <path fill="#000091" d="m23.432 70.618-23.13.056L.274 32.16l23.144-.084.028 38.54zm-1.67-1.643v-35.27H1.93V68.99l19.831-.028zm31.003-32.814v32.843h19.817v-35.2l-3.396-.155c1.277-1.572 3.003-2.035 5.053-1.263v38.288h-23.13V35.656l1.656.52zM49.34 70.66H24.975l.057-1.642 3.677-.057.098-11.663h16.898l.099 11.663 3.607.028-.07 1.657zm-12.912-1.755V58.94l-6.035.014v9.965zm7.691 0V58.94l-6.035.014v9.965zm5.207-28.715H25.088l-.085-1.67h24.365zM32.737 51.446h-5.25l-.083-6.064 5.305-.042v6.106zm-.842-.87V46.21h-3.593l.028 4.378h3.565zm15.298.828-5.291.07-.028-6.12h5.249zm-.884-.843-.028-4.364h-3.565v4.392zm-6.359.871h-5.318l-.014-6.05 5.263-.042zm-.87-.843v-4.392l-3.634.027.042 4.365z"/>
  <path fill="#000091" d="m64.821 54.716-4.253.056-.056-5.979 4.253-.098zm-.856-.828v-4.225l-2.583-.042v4.309l2.583-.028zm6.512.856-4.309.028-.056-5.951 4.351-.07v6.007zm-.842-.856v-4.253h-2.667v4.309l2.667-.042zm-10.385.828-4.366.042v-5.993l4.28-.028.1 5.979zm-.885-.814v-4.253h-2.667v4.253zm6.456-7.27h-4.28v-5.993h4.238l.028 5.993zm-.856-.843-.042-4.308h-2.54v4.252zm-4.73 17.32-4.35.028v-6.035l4.294-.07zm-.856-.828-.042-4.38h-2.61l-.043 4.38zm6.442.814-4.253.056-.042-6.105h4.253l.056 6.049zm-.842-.828-.042-4.365h-2.555v4.393zm-4.758-15.649h-4.35v-5.994h4.308zm-.842-.829-.042-4.294h-2.61l-.043 4.294zm12.084.857-4.337-.043.028-5.95h4.323v5.993zm-.828-.857v-4.322l-2.653.028v4.252l2.653.056zm.828 17.348-4.35-.056.041-6.021h4.295v6.077zm-.828-.87v-4.38l-2.667.029v4.393zm-61.207.898-4.393.084v-6.105h4.337zm-.884-.814-.042-4.337H4.905v4.337zm.87-7.509H4.035l-.028-5.965 4.365-.07zm-.87-.884-.028-4.253h-2.61v4.253zm.884-7.298-4.379.07v-6.021h4.337l.056 5.95zm-.884-.8-.028-4.267H4.919v4.267h2.639zm6.568 17.29-4.337.127-.056-6.133 4.31-.028.083 6.02zm-.884-.785V58l-2.653.014v4.337zm6.526.87h-4.308l-.056-6.05 4.308-.07.056 6.106zm-.842-.898-.028-4.323h-2.652v4.309h2.68zm.842-15.649-4.35.028v-5.98l4.294-.055zm-.856-.828v-4.253h-2.666v4.253zm.856 8.954-4.35.07-.029-6.035h4.323l.042 5.951zm-.842-.856-.028-4.253h-2.652v4.253zm-4.814-7.284-4.365.042-.028-5.993 4.309-.028.07 5.979zm-.87-.786v-4.31l-2.653.015v4.253l2.653.028zm.856 8.898-4.337.112-.028-6.049 4.337.028zm-.856-.8V49.69l-2.653.028v4.253zm54.569-28.87h-1.46v4.154c0 .506-.52.856-.94.898-.394.043-1.095-.266-1.11-.8l-.055-4.196-.267.042v4.042c-.014.505-.533.856-.969.898-.378.043-1.108-.266-1.108-.8l-.028-4.252h-1.53c-.323 0-.702-.38-.632-.758l2.063-10.134-1.642 4.548c-.21.59-.758.842-1.319.66a1.023 1.023 0 0 1-.646-1.32l2.12-6.456c.252-.744 1.235-1.179 1.965-1.235a27 27 0 0 1 3.705 0c.744.056 1.712.491 1.965 1.235l2.133 6.47c.112.337-.056.786-.21 1.025.196.337.294.688.28 1.15l-.028 9.755h-.224V19.937l-.197-.477c-.042-.113-.393-.085-.505-.056l-.463.098c-.098.014-.112.309-.126.407l-.029.294s-.168.169-.196.113c-.239-.477.196-.491-.168-1.432l-1.699-4.379 1.965 9.684c.084.436-.168.857-.66.857zm-2.976.28v3.818c0 .183.323.421.477.421.155 0 .477-.239.477-.407v-4.603l2.176-.099-1.853-8.926c-.35.14-.673.197-.982.084-.225-.084-.505-.393-.534-.66.127 0 .408.127.464.197.14.239.814.435.898-.042.028-.786-.505-1.754.196-1.895a.656.656 0 0 1 .758.393l1.74 4.955c.07.182.408.336.604.294.169-.028.351-.379.28-.59l-2.09-6.371c-.421-1.277-3.172-1.039-4.997-.969-.575.029-1.431.351-1.628.955l-2.091 6.386c-.07.21.126.59.309.603.182.014.435-.112.561-.224l1.768-5.039c.085-.337.534-.505.857-.35.617.28 0 1.22.098 1.88.028.14.407.35.52.267l.462-.31.267-.181s.154.168.112.196l-.154.197c-.351.42-.884.477-1.376.224l-1.852 8.954 2.175.056v4.646c.014.183.407.421.576.365.14-.042.393-.309.393-.477V25.34c0-.463.308-.772.701-.772s.716.295.716.842zm-16.267 3.678v-14.12l-1.361 4.239c-.056.168-.337.45-.491.59.168.336.323.87.042 1.094l-.337-.912c-.07-.21-.716-.21-.856-.042-.21.28-.309.758-.309 1.123v9.052h-.238v-9.53c0-.379.266-.771.435-1.038-.099-.225-.267-.702-.183-.954l1.67-5.348c.407-1.32 1.32-2.933 2.569-2.933h3.368c1.165 0 2.148 1.417 2.526 2.624l1.769 5.628c.182.576-.197 1.137-.702 1.264-.547.14-1.067-.14-1.263-.744l-1.263-4.014-.028 13.908c0 .716-.604 1.207-1.207 1.207-.646 0-1.18-.477-1.235-1.178v-6.765l-.113-.31c-.028-.083-.35.071-.35.183v6.892c0 .73-.604 1.136-1.194 1.178-.477.029-1.235-.378-1.235-1.108zm3.467-6.892v6.85c0 .322.393.59.66.59.238 0 .645-.282.645-.633v-14.23c0-.239.365-.477.534-.477.154 0 .505.168.547.322l1.347 4.38c.07.238.464.35.66.238.14-.084.225-.393.169-.59l-1.685-5.36c-.35-1.11-1.123-2.429-2.161-2.429H49.62c-1.01 0-1.782 1.361-2.133 2.456l-1.684 5.376c-.07.21.126.561.308.59.183.027.491-.127.548-.338l1.29-4.21c.085-.28.394-.477.646-.45.253.029.492.296.492.576v14.105c0 .393.393.66.715.646.253-.014.604-.323.604-.632v-6.989c0-.477.533-.716.926-.674.365.056.688.365.688.856zM65.13 5.677c.996.534 1.445 1.544 1.22 2.597-.224 1.052-1.164 1.782-2.245 1.782-1.08 0-1.965-.702-2.217-1.684-.281-1.08.182-2.161 1.207-2.709-.407-.407-.351-.982.084-1.333a1.52 1.52 0 0 1 1.853 0c.42.323.49.87.098 1.333zm-.323-.182c.337-.14.35-.646.084-.884a1.195 1.195 0 0 0-1.572 0c-.112.098-.224.378-.21.519.014.14.21.365.337.379h1.375zm-1.235.617a1.73 1.73 0 0 0-1.08 2.274 1.716 1.716 0 0 0 2.133 1.025c.926-.295 1.431-1.278 1.136-2.176-.294-.898-1.207-1.446-2.19-1.123m-10.876.786h.617c.351 1.01.028 2.007-.758 2.61a2.255 2.255 0 0 1-2.652.057c-.786-.548-1.18-1.628-.828-2.653h.617c-.365.8-.21 1.544.407 2.091.548.492 1.432.562 2.035.113.66-.492.955-1.235.562-2.204zm1.375-.618-5.445.029-.31-.225.913-.112.365-1.291c.056-.183.35-.463.533-.492.464-.056.716.31 1.025.393.154.043.996-.856 1.417-.252.337.477.478 1.067.618 1.656.28 0 .632-.042.884.295M49.537 6c1.235.07 2.19.07 3.354 0l-.407-1.305c-.042-.127-.28-.295-.393-.28-.365.07-.898.883-1.488.224-.084-.085-.392-.183-.49-.113a.7.7 0 0 0-.267.337L49.55 6z"/>
  <path stroke="#000091" stroke-miterlimit="10" stroke-width=".5" d="M57.677 35.67c9.697 0 17.558-7.86 17.558-17.558 0-9.697-7.86-17.558-17.558-17.558-9.697 0-17.558 7.861-17.558 17.558S47.98 35.67 57.677 35.67Z"/>
</svg>
