<svg xmlns="http://www.w3.org/2000/svg" width="80" height="80" fill="none" viewBox="0 0 80 80"><path fill="#000091" d="m76.253 16.212.126 35.312c-.561-.169-1.375-.69-1.684-1.24l-.098-21.526-17.418 10.29-17.544-10.29-.042 25.98c0 .296.491 1.086.14 1.368-.224.183-.631.296-1.094.324-.351 0-.716-.536-.716-1.198V16.578c0-1.734 1.866-2.016 3.13-2.396l.182-8.91c.028-1.522 1.053-2.594 2.54-2.58l5.348.029c1.375 0 2.274 1.184 2.274 2.509l.028 7.33c0 3.257 2.779 5.653 5.754 5.61 3.172-.041 5.656-2.607 5.656-5.878v-7.23c0-1.382 1.263-2.383 2.583-2.368l5.375.042c1.137 0 2.161 1.043 2.19 2.185l.196 9.36c.968.07 3.088.494 3.102 1.932zm-4.814-2.03-.21-9.586c-2.176-.325-4.45-.282-6.611-.043l-.337 9.558c-.702 3.764-4.253 6.062-7.804 5.78-3.55-.282-6.638-2.904-6.708-6.583l-.155-8.755c-2.217-.225-4.393-.282-6.624.043l-.127 9.416c-.028 1.565-1.67 2.073-3.06 2.284l-.168 10.375L57.18 37.103l17.46-10.432-.113-10.445c-1.431.042-3.031-.592-3.073-2.016z"/><path fill="#000091" d="M75.55 78.224H24.506c-1.544.014-2.414-1.438-2.414-2.75v-4.99c.028-3.82 2.414-7.527 6.133-8.754l21.32-7.02c.112-1.184.337-2.213.94-2.791.716-.705 1.839-.902 2.821-.508l5.474 2.228c4.21 1.705 8.8 1.268 12.59-1.227.884-.578 1.894-.719 2.877-.211.701.352 1.263 1.184 1.361 2.284l2.077 21.258c.098.958-.828 2.48-2.161 2.48zm-47.1-14.732c-2.962.987-4.464 4.032-4.646 6.964l33.15.099a2.4 2.4 0 0 0 0 .634l-33.052.085c-.239 1.621-.393 3.454.224 5.3l51.832-.042c.112-2.086-.098-3.595-.45-5.202l-14.736-.155v-.592l14.75-.155-1.627-16.183c-.042-.451-.8-.874-1.221-.592-4.239 2.847-9.502 3.609-14.246 1.663l-5.726-2.354c-1.895-.775-.267 3.651-4.702 3.933l3.593 3.92c.45.492.182 1.409-.28 1.733-.408.282-1.194.338-1.685-.141l-4.463-4.398c-.94.197-1.642.409-2.232.761l3.228 3.299c.59.592.646 1.339.197 1.875-.45.535-1.32.718-1.88.155l-4.52-4.47-3.018 1.143 3.34 3.327c.548.535.534 1.282.24 1.72-.394.563-1.32.747-1.825.225l-4.492-4.483-5.754 1.917z"/><path fill="#000091" d="m5.39 67.228 15.48.028c-.056.536-.112 1.015-.393 1.734l-15.775-.169C1.965 68.793.393 65.776.716 63.38s2.526-4.23 5.235-4.244h8.098v-24.4l-9.488-.141c-2.526-.043-4-2.707-3.887-4.962s1.937-4.624 4.575-4.624l24.084-.042c2.737 0 4.758 1.874 5.053 4.454.253 2.312-1.361 5.174-4.014 5.202l-9.923.127v24.373l9.39.17c-1.362.352-2.625 1.212-3.888 1.466l-20.365.127c-1.782 0-3.018 1.282-3.2 2.833-.182 1.55.954 3.496 3.004 3.496zm24.477-34.213c1.922 0 2.905-1.917 2.82-3.37-.084-1.451-1.333-2.945-3.059-2.945H5.656c-1.937-.015-3.368 1.578-3.284 3.284s1.361 3.087 3.214 3.087zM19.579 58.98V34.763h-4.646v24.331c1.643.127 3.13.31 4.646-.127zm6.105-37.454-15.916-.042c-.687 0-1.29.197-1.6.606-.308.409-.308 1.113-.322 1.804-.085.395-1.32.38-1.628.043-.45-1.89.785-4.103 2.877-4.13l4.982-.043c-.168-1.776-.028-3.242 1.18-4.23 1.01-.817 2.624-.958 3.76-.126 1.137.832 1.67 2.213 1.32 4.144l6.035.325c2.02.112 2.933 2.58 2.414 4.215-.632.127-1.376.084-1.572-.24.154-1-.182-2.354-1.53-2.354zm-6.203-1.79c.308-1.819-.042-2.763-.899-3.482-.743-.62-1.796-.663-2.793.042-.814.592-1.333 2.89-.519 3.341 1.39.451 2.99.127 4.21.099m.885 56.542c0 2.059-1.726 3.186-3.425 3.031-3.831-.352-2.498-5.046-3.256-5.06l-4.21-.029c-1.123 0-2.05-.493-2.639-1.268-.632-.832-.842-1.988-.59-3.045h1.643c-.07.733-.028 1.226.154 1.762.14.394.716.817 1.376.831l11.017.029c-.168 1.395-.07 2.495-.07 3.735zm-.856.014.028-2.1h-4.52c-.14.79-.196 1.692.057 2.594.322 1.142 1.473 1.776 2.414 1.635 1.01-.155 1.993-.818 2.02-2.129m37.082-44.25-.113-6.653c-.673.38-1.08.62-1.46.69-.28.057-.786-.38-.968-.944 1.08-1.03 2.597-1.974 4.28-1.706v8.67l-1.74-.07z"/></svg>