<svg xmlns="http://www.w3.org/2000/svg" width="79" height="68" fill="none" viewBox="0 0 79 68">
  <path fill="#000091" d="m44.839 52.187.056 13.118h7.817V37.168l1.348.331c.294.072.337 1.067.308 1.427l-.028 28.065-30.105-.029-.028-33.124 14.596-20.815.113-3.963c-2.709-.101-4.828 1.311-7.41.432l.027-5.838c3.383.562 5.769-1.326 8.239-.173.056 3.388-.042 6.3.21 9.543.085 1.023 1.306 2.335.029 3.358l-.674-1.124-12.562 17.931h19.678l2.203 1.788-22.75.028V65.32h7.887c.197-4.353.182-8.317-.014-13.06l11.074-.057zM35.954 8.512l2.962-.332V4l-2.765.303-3.79.461v4.209l3.607-.461zm8.113 56.764V53.08a94 94 0 0 0-9.446 0v12.24z"/>
  <path fill="#000091" d="M23.477 34.991h-21.6v30.3h21.544l.169 1.7H.25L.22 33.852l10.863-14.558h22.232a8.2 8.2 0 0 1-1.137 1.715H11.954L2.79 33.261h20.702zm53.249 30.314v-30.3l-6.61-.057c.42-.433 1.431-1.528 2.007-1.557l3.649-.216-1.418-2.133c-.21-.318.856-1.413.927-1.356l3.003 3.806.028 33.485-23.242.043.225-1.701h21.431zm-20.8-64.188c9.769-1.931 18.639 4.497 20.435 14.14 1.783 9.615-4.35 19.042-13.88 20.83-9.165 1.73-18.204-4.296-20.14-13.867C40.403 12.649 46.2 3.034 55.925 1.117m1.081.72c-9.25 1.399-15.242 10.134-13.993 19.042 1.305 9.34 9.684 15.755 18.653 14.4 8.884-1.326 15.2-9.802 13.979-18.97C74.425 7.23 66.284.426 57.007 1.824zM37.765 38.696c2.75-.937 5.53.691 6.288 3.286.772 2.667-.492 5.622-3.369 6.458a4.92 4.92 0 0 1-6.035-3.186c-.828-2.407.183-5.55 3.13-6.544zm.379.836c-2.358.764-3.425 3.286-2.639 5.463.716 1.974 2.948 3.214 4.913 2.58 2.203-.72 3.41-2.883 2.835-5.132-.548-2.104-2.71-3.675-5.11-2.897z"/>
  <path fill="#000091" d="m73.33 49.305-5.895.043V40.67h5.895zm-.856-.88-.042-6.919h-4.225l.042 6.962zm-8.786.923-5.91-.044-.027-8.62 5.909-.028v8.692zm-.8-.894v-6.948l-4.239.058.028 6.919zm.814 13.146-5.909.13-.042-8.562 5.909-.044.028 8.476zm-.8-.793V53.99h-4.239v6.818zm10.442.822-5.923.072-.028-8.476 5.909-.144zm-.884-.822v-6.803h-4.24v6.818h4.239zM11.225 49.319H5.288v-8.663h5.937zm-.8-.865-.057-6.948-4.252.044v6.904zm10.372.807-5.811.101-.028-8.692h5.824zm-.829-.793v-6.947h-4.196v6.947zm-8.729 13.204H5.316l-.042-8.49 5.923-.072.042 8.576zm-.828-.836v-6.832H6.1v6.818l4.31.028zm10.357.822-5.81.043v-8.548h5.796v8.52zm-.8-.85v-6.819h-4.196v6.818zm50.05-49.485H48.6l-.084 5.42c-.014 1.138.912 2.291 2.33 2.046l.73 1.01c-1.053.071-1.98-.058-2.794-.592-.66-.432-1.22-1.86-1.193-2.796l.169-5.247c.337-.706 2.19-.88 2.92-.548h17.529c.505-.374 2.568-.144 2.597.52l.224 5.275c.042.937-.435 2.119-1.025 2.666-.715.664-2.133 1.312-2.835.173.828-.273 2.555-.735 2.71-1.427.462-2.118.392-4.18.154-6.472zm0 14.687c0 .419-.758 1.125-1.11 1.125H49.625c-1.403-.115-1.36-4.57-.575-7.221l.562 6.385 19.396.043.337-6.068h.533l.155 5.737z"/>
  <path fill="#000091" d="M66.55 21.37c.057 1.297-.715 2.147-1.711 2.147s-1.783-.836-1.727-2.018l.21-4.425h3.046zm-.911-2.523c.028-.274-.253-.952-.506-.952-.266 0-.982 0-.982.245v1.125l.112 1.182c.028.274 1.151.26 1.18 0zm-10.106 2.594c.042 1.11-.673 2.018-1.501 2.047-1.165.058-1.895-.75-1.853-1.974l.14-4.382 3.06-.087.168 4.41zm-.912-2.68c.014-.289-.28-.866-.561-.88-.239 0-.885-.086-.899.13l-.042 1.225c0 .433-.028 1.11.225 1.268.252.16 1.15.188 1.165-.115l.112-1.643zm9.081-8.563-.842-3.157-6.864.058c-.645.144-.856 2.033-.884 2.84-.912-.23-.94-1.701-.505-2.681.758-1.73 3.018-.822 6.61-1.096 1.067-.086 2.246.13 2.751 1.024.464.836.492 2.392-.252 3.027z"/>
  <path fill="#000091" d="M62.172 9.953c-1.544-1.283-4.168-1.412-5.825.029l-.028-1.816h5.937l-.07 1.787zm.14 9.86-5.993.043.014-.937 5.98.029zm-22.638 24c-.913.26-2.021.302-3.088-.36l2.19-.505.392-2.624c.828 1.125.744 2.191.506 3.489"/>
</svg>
