<svg xmlns="http://www.w3.org/2000/svg" width="79" height="80" fill="none" viewBox="0 0 79 80">
  <path fill="#000091" d="M20.13 80h-2.106c9.728-9.713 21.73-15.986 34.954-19.609l.491 1.325C40.821 65.212 29.395 71.02 20.129 80m25.76 0h-1.67c3.593-5.864 8.773-9.572 14.64-13.195.899-.564 1.952-.634 3.047-.042C55.603 70.245 50.058 74.065 45.903 80zm9.433-30.069-.547 3.75-1.699 2.34-29.016-.056-1.825-1.621 18.123-.029.042-14.378 7.356-5.78 14.051-.042 7.693 5.638.028 5.865-1.656-.818-.028-3.736H55.476c-.028 2.975.295 5.808-.154 8.881zm10.514-10.629-4.45-3.552-10.809.07 4.282 3.567 10.977-.099zm-13.94.014-3.775-3.312-4.254 3.326h8.03zm-.63 11.052.041 3.933h2.513v-13.25H42.21v13.236h2.584l.028-4.102c.014-1.875 1.572-3.13 3.228-3.13 1.7 0 3.201 1.27 3.23 3.327zm-1.657 3.863v-3.792c.014-.888-.73-1.748-1.573-1.734-.842.014-1.614.846-1.6 1.734l.028 3.806h3.13z"/>
  <path fill="#000091" d="M76.547 49.889 76.42 24.64H55.547l-.113 7.627h-1.67l.07-8.952 10.725-9.332c.758-.987 1.81-.86 2.68-.113l10.852 9.516-.028 29.913c-.07.198-.239.804-.323.72l-.463-.522c.112-.832-.73-2.481-.73-3.61m-1.544-26.94L65.948 15l-9.096 7.979zM40.358 33.48H17.996v19.243l-1.642-.917V32.141l13.195-9.924L41.944 32c.112 1.452.155 2.974.127 4.356l-1.559 1-.14-3.89zm-1.544-1.72-9.335-7.471-9.7 7.457h19.035zm14.978-17.452H42.084v15.76c-1.15-.112-1.67-1.141-1.67-2.325l.056-14.421c0-3.652 2.653-6.5 6.163-7.176V2.03c-.014-.522.547-1.41 1.01-1.523.52-.126 1.517.663 1.53 1.199v4.398c3.398.648 6.163 3.411 6.233 7.02l.113 6.823-1.7 1.537-.027-7.162zm-.084-1.72c-.758-3.41-3.3-4.933-6.008-4.877-2.71.056-5.012 2.058-5.517 4.934zM14.936 41.12H2.007v13.167l2.92.085c-.786 1.804-3.158 2.17-4.562 1.015L.337 39.922l8.801-8.937 5.812 5.92-.042 2.425-5.784-5.977-5.952 6.104h11.582l.196 1.65zm2.569 14.662c-1.067-.987-2.176-2.51-3.72-2.496-1.656.014-2.822 1.156-3.818 2.481-1.516.043-3.243-.127-4.422 1.185-.94 1.057-.955 2.79-.744 4.285-1.502 1.142-2.611 2.622-2.358 4.497.28 1.974 1.712 2.96 3.565 3.792l4.8 2.171c-1.964.973-3.62-.733-5.25-1.396-1.992-.817-3.438-2.058-3.887-3.848-.618-2.453.59-4.088 2.091-5.71-.042-1.55.042-3.298 1.221-4.538.997-1.072 2.808-1.185 4.338-1.424 1.235-.889 2.443-2.326 4.085-2.355 1.965-.028 3.214 1.227 4.506 2.411 1.376.085 3.187.38 4.099 1.085 1.684 1.312 1.039 3.313 1.684 4.723.829 1.804 2.527 3.059 1.994 5.329-.492 2.072-1.657 3.411-3.832 4.243-1.91.719-3.763 2.622-6.163 1.79l5.53-2.467c1.7-.761 3.187-1.776 3.538-3.44.435-2.086-.688-3.693-2.288-4.905.183-1.34.155-3.087-.59-4.032-1.094-1.381-2.47-1.367-4.393-1.353z"/>
  <path fill="#000091" d="M69.907 49.24c-.969-1-2.19-2.551-3.706-2.565-1.769-.014-2.835 1.31-3.93 2.566-1.32-.1-3.075 0-4.1.845-1.445 1.199-.73 2.918-1.164 4.286-.59 1.65-2.724 2.523-2.176 4.722.463 1.861 1.628 2.947 3.551 3.792l4.871 2.171c-1.797 1.03-3.551-.705-5.081-1.325-2.008-.818-3.496-1.931-4.001-3.721-.688-2.397.407-4.215 1.965-5.823 0-1.55.267-3.284 1.137-4.482 1.165-1.607 3.27-.973 4.534-1.706 1.53-.874 2.4-2.326 4.408-2.227 1.656.084 2.794 1.438 4.155 2.283 1.306.367 3.145.466 4.212 1.325 1.445 1.17.926 3.2 1.544 4.582.87 1.931 2.597 3.186 1.965 5.639-.576 2.227-2.19 3.284-4.366 4.257-1.684.747-3.537 2.312-5.587 1.48l5.573-2.439c1.811-.789 3.257-1.889 3.552-3.806.308-2.03-1.095-3.312-2.359-4.638.169-1.353.169-3.172-.772-4.172-1.067-1.156-2.526-1.142-4.24-1.058zm-53.02 29.266c-2.176.098-4.225.098-6.513-.07 3.453-6.429-1.432-10.01-.534-11.11.225-.267.983-.154 1.208.114l2.063 2.382.66-3.37c.042-.197.323-.662.45-.83.168-.212 1.038.182 1.01.45l-.253 3.031c.955-.79 1.067-1.24 2.54-1.438l-2.245 4.187c-.14 2.241.533 4.23 1.628 6.64zm-1.474-.846c-.842-2.636-1.361-4.638-.772-6.752.07-.24.492-.987.267-1.044l-.856-.183c-.295.465-.674 1.03-.94.93l-1.25-.437c.884 2.481.8 4.793-.113 7.528l3.664-.056z"/>
  <path fill="#000091" d="M69.275 71.979h-6.5c1.784-3.538 1.727-6.992-.532-9.995l-.07-1.142c-.029-.338 1.052-.24 1.29.043l2.064 2.34.66-3.553c.07-.38 1.039-.747 1.376-.493l-.099 3.313c.969-.903 1.292-1.48 2.471-1.255l-2.274 3.961c-.112 2.326.477 4.145 1.614 6.78m-1.446-.917c-.884-2.79-1.333-4.61-.772-6.794.239-.296.478-1.043.21-1.03-1.375 0-1.375 1.157-1.95.847l-1.025-.564c.884 2.636.73 5.004-.084 7.626zM25.225 43.207l-4.169.028v-5.949h4.17zm-.842-.832v-4.187l-2.47-.014v4.201zm12.929.79-4.253.07-.029-5.935h4.254l.042 5.865zm-.884-.804v-4.187h-2.541v4.201h2.54zm-5.18.86h-4.226l-.042-5.92h4.268zm-.843-.86v-4.215l-2.54.028v4.187zM8.31 50.82l-4.225.056-.056-5.935 4.253-.028.028 5.892zm-.87-.832-.028-4.215h-2.54l.013 4.229 2.555-.029zm17.8.662-4.184.043-.042-5.907 4.183-.042.028 5.92zm-.843-.831-.028-4.216h-2.456v4.215zm6.865.831-4.254.028-.042-5.892 4.254-.07.042 5.92zm-.857-.832v-4.215l-2.54.015v4.186h2.54zm6.921.804-4.282.056v-5.92l4.212-.014.07 5.892zm-.898-.818-.029-4.2h-2.526v4.215h2.555zm25.576-17.043-4.253.042-.043-5.836 4.254-.028.042 5.836zm-.842-.832V27.8h-2.527l-.028 4.13zm12.844.818-4.267.042v-5.85l4.239.014zm-.87-.832-.056-4.13h-2.5v4.13h2.57zM50.058 27.01H45.79l-.043-3.553c-.014-1.283.787-2.283 1.98-2.382 1.053-.085 2.26.817 2.288 2.03l.056 3.905zm-.87-.874-.043-2.933c0-.563-.954-1.296-1.46-1.226-.505.07-1.123.93-1.108 1.466l.056 2.707h2.554zM14.122 50.82H9.98l.028-5.921 4.113.07zm-.842-.832v-4.23l-2.471.029v4.229l2.47-.014zm54.662-17.213h-4.155V26.94h4.127zm-.842-.86v-4.13h-2.471v4.13zm-6.22 14.111-.982 1.27-.154-2.426 3.958.17z"/>
</svg>
