<svg xmlns="http://www.w3.org/2000/svg" width="80" height="80" fill="none" viewBox="0 0 80 80"><g fill="#000091" clip-path="url(#a)"><path d="M69.165 80h-2.583l-.056-20.018c-.07-9.712-8.66-17.818-18.273-17.818H31.046c-10.021.014-18.19 8.67-18.246 18.664l-.379 19.158h-2.302l.127-18.876c.042-11.573 9.235-21.441 20.814-21.498l16.112-.07c11.48-.056 21.403 8.74 21.88 20.454l.1 20.004z"/><path d="M22.246 80h-2.47l.013-7.767c0-.832.52-1.636 1.348-1.65.66 0 1.249.888 1.235 1.65zm37.487 0h-2.61l-.042-8.176c0-.48.884-1.283 1.347-1.255.393.028 1.193.691 1.193 1.156zM36.66.874C46.442-.818 55.158 5.667 56.688 15.14s-4.744 18.171-14.092 19.778a17.173 17.173 0 0 1-19.873-14.026C21.067 11.447 27.003 2.537 36.66.874m.379 2.51C28.814 4.905 23.832 12.8 25.263 20.51s9.151 13.28 16.983 11.87c7.831-1.41 13.263-9.036 11.93-16.874S45.36 1.847 37.038 3.383m4.436 73.177c-.913 1.17-2.681 1.015-3.467.029l-4.168-5.259 3.424-18.734-1.6-3.623c-.154-1.198.927-3.327 2.021-4.102.884-.62 3.074-.62 4.014-.043 1.151.72 2.33 2.904 2.007 4.215-.294 1.213-.926 2.213-1.544 3.341l3.467 18.862zm-.758-.493 3.958-5.06-3.41-18.623 1.697-3.693c-.196-.888-.954-2.538-1.67-3.102-.603-.479-2.596-.45-3.172.043-.743.719-1.501 2.326-1.628 3.2.604 1.212 1.39 2.65 1.685 3.764l-3.397 18.382 4.07 5.202c.309.394 1.586.268 1.88-.113z"/></g><defs><clipPath id="a"><path fill="#fff" d="M0 0h80v80H0z"/></clipPath></defs></svg>