<svg aria-hidden="true" width="200" height="40" viewBox="0 0 200 40" fill="none" xmlns="http://www.w3.org/2000/svg">
<path d="M1.80205 26L3.52705 16.275L1.57705 15.4V15.25L5.12705 14.5H5.20205V17.125H5.30205C5.88538 16.475 6.38538 15.9583 6.80205 15.575C7.21872 15.1917 7.62705 14.9167 8.02705 14.75C8.42705 14.5833 8.89372 14.5 9.42705 14.5C10.0437 14.5 10.5521 14.7333 10.9521 15.2C11.3521 15.6667 11.5687 16.3083 11.6021 17.125H11.7271C12.3104 16.475 12.8104 15.9583 13.2271 15.575C13.6437 15.1917 14.0437 14.9167 14.4271 14.75C14.8271 14.5833 15.3021 14.5 15.8521 14.5C16.6021 14.5 17.1854 14.8333 17.6021 15.5C18.0187 16.1667 18.1271 17.0667 17.9271 18.2L17.0521 23.025C16.9687 23.525 16.9521 23.8833 17.0021 24.1C17.0521 24.3167 17.1937 24.425 17.4271 24.425C17.7104 24.425 18.0187 24.275 18.3521 23.975C18.6854 23.6583 19.0021 23.1833 19.3021 22.55L19.6271 22.7C19.1437 23.95 18.6187 24.8583 18.0521 25.425C17.5021 25.975 16.9354 26.25 16.3521 26.25C15.7687 26.25 15.3687 26.025 15.1521 25.575C14.9354 25.125 14.8937 24.525 15.0271 23.775L16.0021 18.275C16.1021 17.6917 16.0437 17.175 15.8271 16.725C15.6271 16.2583 15.1937 16.025 14.5271 16.025C14.1604 16.025 13.7937 16.15 13.4271 16.4C13.0771 16.6333 12.7354 16.925 12.4021 17.275C12.0687 17.6083 11.7687 17.925 11.5021 18.225L10.1021 26H8.20205L9.57705 18.275C9.67705 17.6917 9.61872 17.175 9.40205 16.725C9.20205 16.2583 8.76872 16.025 8.10205 16.025C7.73538 16.025 7.36872 16.15 7.00205 16.4C6.63538 16.65 6.27705 16.95 5.92705 17.3C5.59372 17.6333 5.29372 17.9583 5.02705 18.275L3.70205 26H1.80205ZM24.7938 26.25C23.5105 26.25 22.5688 25.9 21.9688 25.2C21.3688 24.4833 21.0688 23.5167 21.0688 22.3C21.0688 21.3167 21.2272 20.3667 21.5438 19.45C21.8772 18.5167 22.3272 17.6833 22.8938 16.95C23.4772 16.2 24.1438 15.6083 24.8938 15.175C25.6605 14.725 26.4855 14.5 27.3688 14.5C28.2022 14.5 28.8272 14.6917 29.2438 15.075C29.6772 15.4583 29.8938 15.9083 29.8938 16.425C29.8938 16.9917 29.6938 17.5167 29.2938 18C28.8938 18.4667 28.1938 18.9 27.1938 19.3C26.2105 19.6833 24.8188 20.025 23.0188 20.325C22.9855 20.6583 22.9688 21.0083 22.9688 21.375C22.9688 22.3917 23.1855 23.2 23.6188 23.8C24.0522 24.4 24.7355 24.7 25.6688 24.7C26.2188 24.7 26.7605 24.55 27.2938 24.25C27.8272 23.95 28.3772 23.4583 28.9438 22.775H28.9938L29.2438 22.975C28.6772 23.9583 27.9938 24.75 27.1938 25.35C26.4105 25.95 25.6105 26.25 24.7938 26.25ZM26.6938 15.375C25.7938 15.375 25.0272 15.75 24.3938 16.5C23.7772 17.2333 23.3605 18.2083 23.1438 19.425C24.3938 19.2083 25.3688 18.975 26.0688 18.725C26.7688 18.475 27.2605 18.1833 27.5438 17.85C27.8272 17.5 27.9688 17.0667 27.9688 16.55C27.9688 16.2167 27.8605 15.9417 27.6438 15.725C27.4272 15.4917 27.1105 15.375 26.6938 15.375ZM34.1778 26.25C33.6278 26.25 33.2112 26.075 32.9278 25.725C32.6445 25.375 32.5028 24.8833 32.5028 24.25C32.5028 24.1167 32.5112 23.9667 32.5278 23.8C32.5445 23.6333 32.5695 23.4667 32.6028 23.3L33.9278 15.85H32.0778V15.7L34.2028 14.75L36.3528 12H36.5028L36.0278 14.75H39.1528V15.85H35.8278L34.7028 22.2C34.6695 22.4167 34.6445 22.6167 34.6278 22.8C34.6112 22.9667 34.6028 23.1167 34.6028 23.25C34.6028 23.65 34.6695 23.9333 34.8028 24.1C34.9362 24.2667 35.1112 24.35 35.3278 24.35C35.7112 24.35 36.1195 24.1333 36.5528 23.7C37.0028 23.2667 37.4112 22.6417 37.7778 21.825L38.1028 21.975C37.5528 23.5583 36.9362 24.6667 36.2528 25.3C35.5862 25.9333 34.8945 26.25 34.1778 26.25ZM43.7392 26.25C42.4558 26.25 41.5142 25.9 40.9142 25.2C40.3142 24.4833 40.0142 23.5167 40.0142 22.3C40.0142 21.3167 40.1725 20.3667 40.4892 19.45C40.8225 18.5167 41.2725 17.6833 41.8392 16.95C42.4225 16.2 43.0892 15.6083 43.8392 15.175C44.6058 14.725 45.4308 14.5 46.3142 14.5C47.1475 14.5 47.7725 14.6917 48.1892 15.075C48.6225 15.4583 48.8392 15.9083 48.8392 16.425C48.8392 16.9917 48.6392 17.5167 48.2392 18C47.8392 18.4667 47.1392 18.9 46.1392 19.3C45.1558 19.6833 43.7642 20.025 41.9642 20.325C41.9308 20.6583 41.9142 21.0083 41.9142 21.375C41.9142 22.3917 42.1308 23.2 42.5642 23.8C42.9975 24.4 43.6808 24.7 44.6142 24.7C45.1642 24.7 45.7058 24.55 46.2392 24.25C46.7725 23.95 47.3225 23.4583 47.8892 22.775H47.9392L48.1892 22.975C47.6225 23.9583 46.9392 24.75 46.1392 25.35C45.3558 25.95 44.5558 26.25 43.7392 26.25ZM45.6392 15.375C44.7392 15.375 43.9725 15.75 43.3392 16.5C42.7225 17.2333 42.3058 18.2083 42.0892 19.425C43.3392 19.2083 44.3142 18.975 45.0142 18.725C45.7142 18.475 46.2058 18.1833 46.4892 17.85C46.7725 17.5 46.9142 17.0667 46.9142 16.55C46.9142 16.2167 46.8058 15.9417 46.5892 15.725C46.3725 15.4917 46.0558 15.375 45.6392 15.375ZM55.3481 26.25C53.8981 26.25 52.8231 25.8 52.1231 24.9C51.4398 24 51.0981 22.8333 51.0981 21.4C51.0981 20.6167 51.2398 19.825 51.5231 19.025C51.8065 18.2083 52.2148 17.4583 52.7481 16.775C53.2815 16.0917 53.9148 15.5417 54.6481 15.125C55.3815 14.7083 56.1898 14.5 57.0731 14.5C58.5231 14.5 59.5898 14.95 60.2731 15.85C60.9731 16.75 61.3231 17.9167 61.3231 19.35C61.3231 20.1 61.1815 20.8833 60.8981 21.7C60.6315 22.5 60.2315 23.25 59.6981 23.95C59.1815 24.6333 58.5565 25.1917 57.8231 25.625C57.0898 26.0417 56.2648 26.25 55.3481 26.25ZM55.6231 25.3C56.3398 25.3 56.9648 25.025 57.4981 24.475C58.0315 23.9083 58.4398 23.1667 58.7231 22.25C59.0065 21.3167 59.1481 20.3 59.1481 19.2C59.1481 17.9667 58.9815 17.0333 58.6481 16.4C58.3315 15.75 57.7315 15.425 56.8481 15.425C56.1481 15.425 55.5231 15.6833 54.9731 16.2C54.4398 16.7 54.0231 17.4 53.7231 18.3C53.4231 19.2 53.2731 20.2583 53.2731 21.475C53.2731 22.7083 53.4398 23.6583 53.7731 24.325C54.1065 24.975 54.7231 25.3 55.6231 25.3ZM65.6929 26.125C65.2762 26.125 64.9179 25.975 64.6179 25.675C64.3179 25.375 64.1679 25.0167 64.1679 24.6C64.1679 24.1833 64.3179 23.825 64.6179 23.525C64.9179 23.225 65.2762 23.075 65.6929 23.075C66.1095 23.075 66.4679 23.225 66.7679 23.525C67.0679 23.825 67.2179 24.1833 67.2179 24.6C67.2179 25.0167 67.0679 25.375 66.7679 25.675C66.4679 25.975 66.1095 26.125 65.6929 26.125Z" fill="#161616"/>
<g clip-path="url(#clip0_108_36752)">
<path d="M78.6131 25.5782H81.447V10.9928H78.6131V16.2043C77.5903 15.2532 76.418 14.7777 75.0543 14.7777C72.1144 14.7777 69.7271 17.0366 69.7271 20.3267C69.7271 23.5569 72.242 25.8562 75.1185 25.8562C76.5464 25.8562 77.6119 25.3803 78.6131 24.4683V25.5782ZM75.6306 17.1954C77.4201 17.1954 78.7407 18.4439 78.7407 20.2871C78.7407 22.2094 77.377 23.4381 75.6306 23.4381C73.8613 23.4381 72.5829 22.114 72.5829 20.3104C72.5829 18.5859 73.7548 17.2002 75.6301 17.2002L75.6306 17.1954ZM92.68 25.5782H95.5138V15.0548H92.68V16.2043C91.6572 15.2532 90.4849 14.7777 89.1212 14.7777C86.1808 14.7777 83.7939 17.0366 83.7939 20.3267C83.7939 23.5569 86.3088 25.8562 89.1854 25.8562C90.6151 25.8562 91.6796 25.3803 92.6826 24.4683V25.5782H92.68ZM89.6974 17.1954C91.4865 17.1954 92.8075 18.4439 92.8075 20.2871C92.8075 22.2094 91.4438 23.4381 89.6974 23.4381C87.9281 23.4381 86.6498 22.114 86.6498 20.3104C86.6498 18.5859 87.8217 17.2002 89.697 17.2002L89.6974 17.1954ZM97.2647 15.0548V17.3142H98.7137V25.5782H101.551V17.3142H103.236V15.0548H101.555V11.1705H98.7225V15.0548H97.2647ZM113.155 25.5782H115.99V15.0548H113.155V16.2043C112.133 15.2532 110.961 14.7777 109.597 14.7777C106.657 14.7777 104.27 17.0366 104.27 20.3267C104.27 23.5569 106.785 25.8562 109.661 25.8562C111.089 25.8562 112.154 25.3803 113.156 24.4683L113.155 25.5782ZM110.173 17.1954C111.963 17.1954 113.284 18.4439 113.284 20.2871C113.284 22.2094 111.92 23.4381 110.173 23.4381C108.404 23.4381 107.125 22.114 107.125 20.3104C107.125 18.5859 108.297 17.2002 110.173 17.2002V17.1954ZM120.404 22.8235C119.509 22.8235 118.763 23.4777 118.763 24.3298C118.763 25.1621 119.509 25.8562 120.404 25.8562C121.32 25.8562 122.023 25.1621 122.023 24.3298C122.023 23.4975 121.299 22.8235 120.404 22.8235ZM136.008 15.0548H133.174V16.2043C132.109 15.273 131.001 14.7777 129.594 14.7777C126.717 14.7777 124.306 16.9178 124.306 20.1678C124.306 23.3189 126.691 25.5787 129.739 25.5787C131.208 25.5787 132.229 25.1225 133.17 24.2704C133.17 25.2611 133.148 25.9746 132.467 26.5693C131.956 27.0048 131.103 27.26 130.056 27.26C128.859 27.26 128.01 26.9828 127.434 26.3494H124.302C125.067 28.5489 127.047 29.6795 130.162 29.6795C131.886 29.6795 133.25 29.3011 134.27 28.5093C135.568 27.4799 135.995 26.1118 135.995 24.0707V15.0526L136.008 15.0548ZM130.232 17.1954C132.108 17.1954 133.322 18.5033 133.322 20.2074C133.322 21.9912 132.022 23.1605 130.275 23.1605C128.507 23.1605 127.164 21.9319 127.164 20.1876C127.164 18.5626 128.358 17.1954 130.232 17.1954ZM144.194 14.7777C141.104 14.7777 138.334 17.1356 138.334 20.3267C138.334 23.4183 140.934 25.8562 144.215 25.8562C147.667 25.8562 150.202 23.3585 150.202 20.3069C150.202 17.1954 147.496 14.7777 144.194 14.7777ZM144.236 17.2746C146.09 17.2746 147.347 18.5428 147.347 20.3267C147.347 22.1698 145.984 23.3585 144.236 23.3585C142.404 23.3585 141.189 22.0902 141.189 20.3069C141.189 18.5626 142.467 17.2746 144.236 17.2746ZM152.497 19.8709C152.497 20.7428 152.454 21.2381 152.603 22.0902C153.051 24.5475 154.734 25.836 157.462 25.836C159.038 25.836 160.21 25.4401 161.105 24.5075C162.302 23.2793 162.429 21.8527 162.429 19.9105V15.0548H159.596V20.6636C159.596 22.447 158.981 23.4183 157.467 23.4183C155.976 23.4183 155.338 22.4272 155.338 20.5444V15.0544H152.505V19.8714L152.497 19.8709ZM170.748 25.5782L175.564 15.0548H172.687L169.832 21.2575L166.977 15.0548H164.078L168.913 25.5782H170.748Z" fill="#161616"/>
<path d="M177.94 23.4926C178.299 23.4926 178.6 23.6091 178.842 23.8419C179.092 24.0648 179.218 24.3405 179.218 24.6689C179.218 24.9945 179.093 25.2731 178.842 25.5048C178.593 25.7306 178.292 25.8435 177.94 25.8435C177.591 25.8435 177.291 25.7306 177.039 25.5048C176.798 25.2701 176.678 24.9901 176.678 24.6645C176.678 24.339 176.8 24.0633 177.043 23.8375C177.295 23.6029 177.596 23.4856 177.945 23.4856L177.94 23.4926ZM189.829 15.3126L189.604 16.0816H187.775L186.397 21.1739C185.787 23.4189 185.173 25.155 184.555 26.3824C183.678 28.1144 182.734 29.3107 181.723 29.9711C180.955 30.4761 180.187 30.7286 179.418 30.7286C178.92 30.7286 178.495 30.5887 178.143 30.309C177.885 30.1148 177.756 29.8623 177.756 29.5514C177.756 29.303 177.864 29.0856 178.081 28.8991C178.289 28.7202 178.549 28.6307 178.86 28.6307C179.086 28.6307 179.278 28.6967 179.436 28.8287C179.589 28.9606 179.665 29.1123 179.665 29.2835C179.665 29.4536 179.577 29.612 179.401 29.7586C179.269 29.8671 179.203 29.9478 179.203 30.0006C179.203 30.071 179.232 30.1252 179.291 30.1633C179.367 30.2161 179.484 30.2425 179.643 30.2425C180.003 30.2425 180.383 30.1369 180.782 29.9258C181.175 29.7146 181.526 29.3994 181.833 28.98C182.144 28.5665 182.436 27.9682 182.709 27.1852C182.826 26.8597 183.14 25.7834 183.65 23.9563L185.827 16.0737H183.649L183.824 15.3038C184.517 15.3038 185 15.2613 185.276 15.1762C185.552 15.0824 185.803 14.9113 186.028 14.6629C186.263 14.406 186.564 13.9324 186.93 13.242C187.423 12.3094 187.895 11.5865 188.347 11.0733C188.965 10.382 189.613 9.86544 190.289 9.52349C190.973 9.1745 191.615 9 192.216 9C192.85 9 193.358 9.15133 193.743 9.45398C194.127 9.7493 194.319 10.0719 194.319 10.4218C194.319 10.6933 194.224 10.9224 194.033 11.1089C193.839 11.2945 193.593 11.3874 193.294 11.3874C193.034 11.3874 192.821 11.317 192.653 11.1762C192.495 11.0354 192.416 10.8683 192.416 10.6747C192.416 10.5515 192.47 10.4005 192.579 10.2216C192.687 10.0339 192.741 9.90928 192.741 9.84769C192.741 9.73918 192.704 9.6578 192.628 9.60355C192.52 9.52495 192.361 9.48565 192.153 9.48565C191.627 9.48565 191.155 9.64109 190.737 9.95195C190.177 10.364 189.675 11.0092 189.232 11.8875C189.006 12.345 188.593 13.4829 187.992 15.3012H189.83L189.829 15.3126Z" fill="#161616"/>
<path d="M190.681 15.6857L195.004 15.0328L193.2 20.6962C194.661 18.3735 195.989 16.7499 197.183 15.8256C197.86 15.2971 198.411 15.0328 198.838 15.0328C199.113 15.0328 199.33 15.1106 199.489 15.266C199.648 15.4135 199.727 15.6311 199.727 15.9188C199.727 16.4314 199.585 16.9208 199.3 17.3868C199.1 17.7364 198.812 17.9111 198.436 17.9111C198.244 17.9111 198.077 17.8529 197.935 17.7365C197.801 17.6198 197.718 17.4409 197.684 17.1998C197.668 17.0526 197.63 16.9558 197.572 16.9095C197.505 16.847 197.426 16.8158 197.334 16.8158C197.192 16.8158 197.058 16.8469 196.933 16.909C196.716 17.0175 196.386 17.3196 195.943 17.8153C195.25 18.5748 194.498 19.5617 193.688 20.7758C193.336 21.289 193.035 21.8668 192.786 22.509C192.434 23.3947 192.233 23.927 192.184 24.1059L191.783 25.5708H189.865L192.184 18.3343C192.45 17.4956 192.584 16.8973 192.584 16.5395C192.584 16.3987 192.521 16.2815 192.395 16.1876C192.228 16.0615 192.006 15.9984 191.73 15.9984C191.554 15.9984 191.232 16.0322 190.763 16.0996L190.675 15.6685L190.681 15.6857Z" fill="#161616"/>
</g>
<defs>
<clipPath id="clip0_108_36752">
<rect width="130" height="40" fill="white" transform="translate(69.7271)"/>
</clipPath>
</defs>
</svg>
