<svg width="581" height="57" viewBox="0 0 581 57" fill="none" xmlns="http://www.w3.org/2000/svg">
<g clip-path="url(#clip0_292_4831)">
<path d="M1.6 38.35L5.8 34.55C7.35 36.5 9.2 37.9 11.6 37.9C13.65 37.9 14.7 36.7 14.7 35.2C14.7 30.8 2.65 32.45 2.65 23.6C2.65 19.15 6.4 15.8 11.65 15.8C15.5 15.8 19 17.65 20.8 20.1L16.6 23.8C15.3 22.2 13.65 20.9 11.7 20.9C9.7 20.9 8.75 22 8.75 23.3C8.75 27.6 20.8 26.1 20.8 34.8C20.7 40.1 16.45 43 11.7 43C7.2 43 4 41.2 1.6 38.35ZM33.8516 12.4C31.6016 12.4 29.7016 10.5 29.7016 8.25C29.7016 6 31.6016 4.1 33.8516 4.1C36.1016 4.1 37.9516 6 37.9516 8.25C37.9516 10.5 36.1016 12.4 33.8516 12.4ZM30.6516 42V16.8H37.0016V42H30.6516ZM48.6164 42V16.8H54.9664V18.7C56.6664 17.05 58.8164 15.8 61.9164 15.8C65.1164 15.8 67.9164 17.2 69.5664 19.9C71.3664 17.7 73.7664 15.8 78.0164 15.8C83.2164 15.8 87.3164 19.4 87.3164 26.5V42H80.9164V26.75C80.9164 23.7 79.2664 21.8 76.4164 21.8C73.6664 21.8 72.1664 23.7 71.1664 25.4C71.2164 25.75 71.2164 26.1 71.2164 26.5V42H64.8164V26.75C64.8164 23.7 63.1664 21.8 60.3164 21.8C57.4164 21.8 55.9164 23.95 54.9664 25.55V42H48.6164ZM98.5637 54.3V16.8H104.914V18.85C106.864 16.9 109.314 15.8 112.764 15.8C120.764 15.8 125.564 22.05 125.564 29.4C125.564 36.75 120.764 43 112.764 43C109.314 43 106.864 41.9 104.914 39.95V54.3H98.5637ZM111.864 21.8C108.914 21.8 106.514 23.1 104.914 25.45V33.35C106.614 35.75 108.964 37 111.864 37C116.164 37 118.964 33.8 118.964 29.4C118.964 25 116.164 21.8 111.864 21.8ZM135.376 42V4.5H141.726V42H135.376ZM156.541 12.4C154.291 12.4 152.391 10.5 152.391 8.25C152.391 6 154.291 4.1 156.541 4.1C158.791 4.1 160.641 6 160.641 8.25C160.641 10.5 158.791 12.4 156.541 12.4ZM153.341 42V16.8H159.691V42H153.341ZM168.206 16.8H172.906V14.15C172.906 8.8 176.456 4.5 182.756 4.5C185.056 4.5 187.006 5.05 188.606 5.9L185.906 11.2C185.156 10.65 184.156 10.2 182.856 10.2C180.706 10.2 179.306 11.7 179.306 14V16.8H187.006V22.5H179.306V42H172.906V22.5H168.206V16.8ZM198.965 12.4C196.715 12.4 194.815 10.5 194.815 8.25C194.815 6 196.715 4.1 198.965 4.1C201.215 4.1 203.065 6 203.065 8.25C203.065 10.5 201.215 12.4 198.965 12.4ZM195.765 42V16.8H202.115V42H195.765ZM225.73 15.8C233.93 15.8 239.53 21.85 239.53 29.4C239.53 36.95 233.93 43 225.73 43C217.53 43 211.93 36.95 211.93 29.4C211.93 21.85 217.53 15.8 225.73 15.8ZM225.83 37C229.88 37 232.93 33.75 232.93 29.4C232.93 25 229.88 21.8 225.83 21.8C221.63 21.8 218.53 25 218.53 29.4C218.53 33.8 221.63 37 225.83 37ZM249.321 42V16.8H255.671V18.8C257.421 17.1 259.771 15.8 263.121 15.8C268.571 15.8 272.921 19.55 272.921 27V42H266.521V27.25C266.521 23.9 264.621 21.8 261.521 21.8C258.321 21.8 256.621 23.95 255.671 25.55V42H249.321ZM281.932 38.35L286.132 34.55C287.682 36.5 289.532 37.9 291.932 37.9C293.982 37.9 295.032 36.7 295.032 35.2C295.032 30.8 282.982 32.45 282.982 23.6C282.982 19.15 286.732 15.8 291.982 15.8C295.832 15.8 299.332 17.65 301.132 20.1L296.932 23.8C295.632 22.2 293.982 20.9 292.032 20.9C290.032 20.9 289.082 22 289.082 23.3C289.082 27.6 301.132 26.1 301.132 34.8C301.032 40.1 296.782 43 292.032 43C287.532 43 284.332 41.2 281.932 38.35ZM311.749 42.275C310.832 42.275 310.154 42.0183 309.714 41.505C309.31 40.9917 309.109 40.3317 309.109 39.525C309.109 38.6083 309.42 37.7833 310.044 37.05C310.667 36.3167 311.474 35.95 312.464 35.95C313.38 35.95 314.04 36.2067 314.444 36.72C314.884 37.2333 315.104 37.8933 315.104 38.7C315.104 39.6533 314.792 40.4967 314.169 41.23C313.582 41.9267 312.775 42.275 311.749 42.275ZM326.026 42.55C324.559 42.55 323.367 41.9267 322.451 40.68C321.571 39.3967 321.131 37.49 321.131 34.96C321.131 32.6867 321.479 30.4683 322.176 28.305C322.909 26.1417 323.899 24.18 325.146 22.42C326.429 20.66 327.896 19.2667 329.546 18.24C331.196 17.2133 332.956 16.7 334.826 16.7C336.146 16.7 337.411 16.9383 338.621 17.415L340.876 4.6L336.091 2.73V2.4L345.606 0.749997H345.771L339.666 35.455C339.482 36.555 339.446 37.3433 339.556 37.82C339.666 38.2967 339.977 38.535 340.491 38.535C341.114 38.535 341.792 38.205 342.526 37.545C343.259 36.8483 343.956 35.8033 344.616 34.41L345.331 34.74C344.267 37.49 343.112 39.4883 341.866 40.735C340.656 41.945 339.409 42.55 338.126 42.55C336.842 42.55 335.962 42.055 335.486 41.065C335.009 40.075 334.917 38.755 335.211 37.105L335.486 35.675H335.266C332.186 40.2583 329.106 42.55 326.026 42.55ZM325.311 32.815C325.311 35.125 325.567 36.72 326.081 37.6C326.594 38.48 327.437 38.92 328.611 38.92C329.674 38.92 330.866 38.3883 332.186 37.325C333.506 36.225 334.752 34.7767 335.926 32.98L337.906 21.705C337.136 20.6783 336.384 19.945 335.651 19.505C334.954 19.065 334.147 18.845 333.231 18.845C331.764 18.845 330.426 19.4867 329.216 20.77C328.042 22.0533 327.089 23.7583 326.356 25.885C325.659 27.975 325.311 30.285 325.311 32.815ZM354.406 42.55C352.94 42.55 351.748 41.9267 350.831 40.68C349.951 39.3967 349.511 37.49 349.511 34.96C349.511 32.6867 349.86 30.4683 350.556 28.305C351.29 26.1417 352.28 24.18 353.526 22.42C354.81 20.66 356.276 19.2667 357.926 18.24C359.576 17.2133 361.336 16.7 363.206 16.7C364.123 16.7 365.003 16.81 365.846 17.03C366.69 17.25 367.441 17.5433 368.101 17.91L370.026 16.7H371.401L368.046 35.455C367.863 36.555 367.826 37.3433 367.936 37.82C368.083 38.2967 368.395 38.535 368.871 38.535C369.495 38.535 370.173 38.205 370.906 37.545C371.64 36.8483 372.336 35.8033 372.996 34.41L373.711 34.74C372.648 37.49 371.493 39.4883 370.246 40.735C369.036 41.945 367.79 42.55 366.506 42.55C365.223 42.55 364.343 42.055 363.866 41.065C363.39 40.075 363.298 38.755 363.591 37.105L363.866 35.675H363.646C362.253 37.8017 360.786 39.4883 359.246 40.735C357.706 41.945 356.093 42.55 354.406 42.55ZM353.691 32.815C353.691 34.8683 353.911 36.4083 354.351 37.435C354.828 38.425 355.708 38.92 356.991 38.92C357.871 38.92 358.751 38.6267 359.631 38.04C360.511 37.4533 361.355 36.7017 362.161 35.785C362.968 34.8683 363.683 33.9333 364.306 32.98L366.341 21.65C365.645 20.7333 364.93 20.0367 364.196 19.56C363.5 19.0833 362.638 18.845 361.611 18.845C360.035 18.845 358.641 19.5233 357.431 20.88C356.258 22.2367 355.341 23.9783 354.681 26.105C354.021 28.2317 353.691 30.4683 353.691 32.815ZM382.247 42.55C381.037 42.55 380.121 42.165 379.497 41.395C378.874 40.625 378.562 39.5433 378.562 38.15C378.562 37.8567 378.581 37.5267 378.617 37.16C378.654 36.7933 378.709 36.4267 378.782 36.06L381.697 19.67H377.627V19.34L382.302 17.25L387.032 11.2H387.362L386.317 17.25H393.192V19.67H385.877L383.402 33.64C383.329 34.1167 383.274 34.5567 383.237 34.96C383.201 35.3267 383.182 35.6567 383.182 35.95C383.182 36.83 383.329 37.4533 383.622 37.82C383.916 38.1867 384.301 38.37 384.777 38.37C385.621 38.37 386.519 37.8933 387.472 36.94C388.462 35.9867 389.361 34.6117 390.167 32.815L390.882 33.145C389.672 36.6283 388.316 39.0667 386.812 40.46C385.346 41.8533 383.824 42.55 382.247 42.55ZM400.057 42.55C398.591 42.55 397.399 41.9267 396.482 40.68C395.602 39.3967 395.162 37.49 395.162 34.96C395.162 32.6867 395.511 30.4683 396.207 28.305C396.941 26.1417 397.931 24.18 399.177 22.42C400.461 20.66 401.927 19.2667 403.577 18.24C405.227 17.2133 406.987 16.7 408.857 16.7C409.774 16.7 410.654 16.81 411.497 17.03C412.341 17.25 413.092 17.5433 413.752 17.91L415.677 16.7H417.052L413.697 35.455C413.514 36.555 413.477 37.3433 413.587 37.82C413.734 38.2967 414.046 38.535 414.522 38.535C415.146 38.535 415.824 38.205 416.557 37.545C417.291 36.8483 417.987 35.8033 418.647 34.41L419.362 34.74C418.299 37.49 417.144 39.4883 415.897 40.735C414.687 41.945 413.441 42.55 412.157 42.55C410.874 42.55 409.994 42.055 409.517 41.065C409.041 40.075 408.949 38.755 409.242 37.105L409.517 35.675H409.297C407.904 37.8017 406.437 39.4883 404.897 40.735C403.357 41.945 401.744 42.55 400.057 42.55ZM399.342 32.815C399.342 34.8683 399.562 36.4083 400.002 37.435C400.479 38.425 401.359 38.92 402.642 38.92C403.522 38.92 404.402 38.6267 405.282 38.04C406.162 37.4533 407.006 36.7017 407.812 35.785C408.619 34.8683 409.334 33.9333 409.957 32.98L411.992 21.65C411.296 20.7333 410.581 20.0367 409.847 19.56C409.151 19.0833 408.289 18.845 407.262 18.845C405.686 18.845 404.292 19.5233 403.082 20.88C401.909 22.2367 400.992 23.9783 400.332 26.105C399.672 28.2317 399.342 30.4683 399.342 32.815ZM425.258 42.275C424.342 42.275 423.663 42.0183 423.223 41.505C422.82 40.9917 422.618 40.3317 422.618 39.525C422.618 38.6083 422.93 37.7833 423.553 37.05C424.177 36.3167 424.983 35.95 425.973 35.95C426.89 35.95 427.55 36.2067 427.953 36.72C428.393 37.2333 428.613 37.8933 428.613 38.7C428.613 39.6533 428.302 40.4967 427.678 41.23C427.092 41.9267 426.285 42.275 425.258 42.275ZM445.532 33.585C444.432 33.585 443.424 33.42 442.507 33.09C441.664 33.4933 441.059 34.0067 440.692 34.63C440.362 35.2167 440.197 35.84 440.197 36.5C440.197 37.2333 440.564 37.8017 441.297 38.205C442.031 38.6083 442.966 38.9383 444.102 39.195C445.276 39.4517 446.522 39.7267 447.842 40.02C449.162 40.2767 450.391 40.6433 451.527 41.12C452.701 41.56 453.654 42.165 454.387 42.935C455.121 43.7417 455.487 44.805 455.487 46.125C455.487 47.5917 455.029 49.0217 454.112 50.415C453.196 51.8083 451.821 52.945 449.987 53.825C448.191 54.7417 445.899 55.2 443.112 55.2C439.849 55.2 437.429 54.6683 435.852 53.605C434.312 52.5417 433.542 51.2033 433.542 49.59C433.542 48.4167 433.726 47.5 434.092 46.84C434.422 46.18 434.991 45.4467 435.797 44.64L440.197 42.165V42.055C439.061 41.725 438.107 41.2667 437.337 40.68C436.604 40.0933 436.237 39.2317 436.237 38.095C436.237 37.325 436.329 36.6833 436.512 36.17C436.696 35.6567 437.044 35.1067 437.557 34.52L441.242 32.65V32.485C440.252 31.8983 439.464 31.11 438.877 30.12C438.327 29.0933 438.052 27.9383 438.052 26.655C438.052 25.115 438.492 23.5933 439.372 22.09C440.289 20.55 441.517 19.2667 443.057 18.24C444.634 17.2133 446.431 16.7 448.447 16.7C449.437 16.7 450.464 16.8833 451.527 17.25H459.832V19.67H454.937L454.717 19.835C455.487 20.8617 455.872 22.2183 455.872 23.905C455.872 24.9317 455.634 26.0133 455.157 27.15C454.681 28.25 453.984 29.295 453.067 30.285C452.151 31.275 451.051 32.0817 449.767 32.705C448.521 33.2917 447.109 33.585 445.532 33.585ZM446.522 31.44C447.549 31.44 448.447 31.055 449.217 30.285C450.024 29.515 450.647 28.58 451.087 27.48C451.564 26.3433 451.802 25.225 451.802 24.125C451.802 22.5483 451.417 21.2833 450.647 20.33C449.877 19.34 448.869 18.845 447.622 18.845C446.522 18.845 445.551 19.2117 444.707 19.945C443.901 20.6417 443.277 21.54 442.837 22.64C442.397 23.74 442.177 24.8767 442.177 26.05C442.177 27.6633 442.562 28.965 443.332 29.955C444.139 30.945 445.202 31.44 446.522 31.44ZM437.667 48.985C437.667 50.3417 438.236 51.4233 439.372 52.23C440.546 53.0733 442.104 53.495 444.047 53.495C446.577 53.495 448.447 52.9267 449.657 51.79C450.867 50.6533 451.472 49.2967 451.472 47.72C451.472 46.6933 451.161 45.8683 450.537 45.245C449.951 44.6583 449.162 44.2 448.172 43.87C447.182 43.54 446.101 43.265 444.927 43.045C443.791 42.8617 442.672 42.6417 441.572 42.385C439.886 43.5583 438.804 44.6767 438.327 45.74C437.887 46.84 437.667 47.9217 437.667 48.985ZM470.763 42.55C467.573 42.55 465.208 41.56 463.668 39.58C462.165 37.6 461.413 35.0333 461.413 31.88C461.413 30.1567 461.725 28.415 462.348 26.655C462.972 24.8583 463.87 23.2083 465.043 21.705C466.217 20.2017 467.61 18.9917 469.223 18.075C470.837 17.1583 472.615 16.7 474.558 16.7C477.748 16.7 480.095 17.69 481.598 19.67C483.138 21.65 483.908 24.2167 483.908 27.37C483.908 29.02 483.597 30.7433 482.973 32.54C482.387 34.3 481.507 35.95 480.333 37.49C479.197 38.9933 477.822 40.2217 476.208 41.175C474.595 42.0917 472.78 42.55 470.763 42.55ZM471.368 40.46C472.945 40.46 474.32 39.855 475.493 38.645C476.667 37.3983 477.565 35.7667 478.188 33.75C478.812 31.6967 479.123 29.46 479.123 27.04C479.123 24.3267 478.757 22.2733 478.023 20.88C477.327 19.45 476.007 18.735 474.063 18.735C472.523 18.735 471.148 19.3033 469.938 20.44C468.765 21.54 467.848 23.08 467.188 25.06C466.528 27.04 466.198 29.3683 466.198 32.045C466.198 34.7583 466.565 36.8483 467.298 38.315C468.032 39.745 469.388 40.46 471.368 40.46ZM495.095 42.55C493.738 42.55 492.62 42.0183 491.74 40.955C490.896 39.8917 490.475 38.4433 490.475 36.61C490.475 36.2433 490.493 35.8767 490.53 35.51C490.603 35.1433 490.658 34.7767 490.695 34.41L493.17 20.605L488.88 18.68V18.35L497.68 16.7H497.9L495.04 33.53C494.893 34.4467 494.82 35.1067 494.82 35.51C494.82 36.5367 495.058 37.4167 495.535 38.15C496.048 38.8467 496.873 39.195 498.01 39.195C498.78 39.195 499.55 38.92 500.32 38.37C501.126 37.82 501.896 37.16 502.63 36.39C503.363 35.62 504.023 34.905 504.61 34.245L506.975 20.605L503.18 18.68V18.35L511.54 16.7H511.76L508.46 35.455C508.276 36.555 508.24 37.3433 508.35 37.82C508.496 38.2967 508.845 38.535 509.395 38.535C510.018 38.535 510.696 38.205 511.43 37.545C512.163 36.8483 512.86 35.8033 513.52 34.41L514.235 34.74C513.171 37.49 512.016 39.4883 510.77 40.735C509.56 41.945 508.313 42.55 507.03 42.55C505.746 42.55 504.866 42.055 504.39 41.065C503.95 40.075 503.858 38.755 504.115 37.105L504.17 36.775H504.005C502.758 38.1683 501.676 39.2867 500.76 40.13C499.843 40.9733 498.945 41.5967 498.065 42C497.221 42.3667 496.231 42.55 495.095 42.55ZM525.086 42L520.191 20.33L515.516 18.68V18.35L523.656 16.7H523.821L528.001 35.895H528.221L532.346 29.735C533.629 27.7917 534.399 26.2883 534.656 25.225C534.949 24.1617 535.096 23.2817 535.096 22.585C535.096 21.9983 534.949 21.54 534.656 21.21C534.362 20.8433 533.996 20.5317 533.556 20.275L532.841 19.835V19.615L533.721 17.965C534.014 17.4517 534.252 17.1217 534.436 16.975C534.656 16.7917 534.967 16.7 535.371 16.7C535.957 16.7 536.489 16.9383 536.966 17.415C537.479 17.8917 537.882 18.46 538.176 19.12C538.469 19.78 538.616 20.4217 538.616 21.045C538.616 21.925 538.322 23.0067 537.736 24.29C537.149 25.5733 536.122 27.2967 534.656 29.46L526.241 42H525.086ZM545.355 36.6484C546.175 36.6484 546.813 36.9414 547.269 37.5273C547.725 38.1003 547.868 38.7904 547.699 39.5977C547.517 40.418 547.074 41.1211 546.371 41.707C545.668 42.2799 544.906 42.5664 544.086 42.5664C543.278 42.5664 542.647 42.2799 542.191 41.707C541.735 41.1211 541.599 40.418 541.781 39.5977C541.95 38.7773 542.386 38.0807 543.089 37.5078C543.793 36.9349 544.548 36.6484 545.355 36.6484ZM546.304 51.6C545.691 51.6 545.211 51.4533 544.864 51.16C544.517 50.8933 544.344 50.5867 544.344 50.24C544.344 50 544.424 49.72 544.584 49.4L545.144 48.2H545.384L546.144 48.64C546.544 48.88 547.091 49 547.784 49C548.984 49 549.917 48.4133 550.584 47.24C551.277 46.0667 551.771 44.5467 552.064 42.68L554.544 25.76H551.384V24H554.784L555.024 22.4C555.104 21.8667 555.344 21.1733 555.744 20.32C556.144 19.4667 556.677 18.5733 557.344 17.64C558.011 16.68 558.771 15.7733 559.624 14.92C560.504 14.0667 561.437 13.3733 562.424 12.84C563.437 12.28 564.477 12 565.544 12C565.784 12 566.037 12.04 566.304 12.12C566.571 12.1733 566.784 12.24 566.944 12.32C567.291 12.5067 567.531 12.68 567.664 12.84C567.797 12.9733 567.864 13.1333 567.864 13.32C567.864 13.4267 567.824 13.5733 567.744 13.76C567.691 13.92 567.624 14.0667 567.544 14.2L566.904 15.4H566.624L565.704 14.96C565.037 14.6667 564.237 14.52 563.304 14.52C561.917 14.52 560.811 15.1067 559.984 16.28C559.157 17.4533 558.611 18.96 558.344 20.8L557.864 24H562.384V25.76H557.624L555.344 41.16C555.264 41.6667 555.051 42.3467 554.704 43.2C554.357 44.08 553.891 45 553.304 45.96C552.744 46.92 552.091 47.8267 551.344 48.68C550.624 49.5333 549.837 50.2267 548.984 50.76C548.131 51.32 547.237 51.6 546.304 51.6ZM564.118 42L566.878 26.44L563.758 25.04V24.8L569.398 23.6H569.518V28.52H569.678C570.531 26.9467 571.251 25.8267 571.838 25.16C572.451 24.4667 572.984 24.04 573.438 23.88C573.918 23.6933 574.344 23.6 574.718 23.6C575.198 23.6 575.638 23.76 576.038 24.08C576.438 24.3733 576.638 24.72 576.638 25.12C576.638 25.2533 576.598 25.4 576.518 25.56L575.518 27.6H575.278L574.838 27.28C574.624 27.12 574.384 27.0133 574.118 26.96C573.878 26.88 573.638 26.84 573.398 26.84C572.918 26.84 572.478 26.9467 572.078 27.16C571.704 27.3467 571.278 27.76 570.798 28.4C570.344 29.0133 569.758 29.9467 569.038 31.2L567.158 42H564.118Z" fill="black"/>
</g>
<defs>
<clipPath id="clip0_292_4831">
<rect width="581" height="57" fill="white"/>
</clipPath>
</defs>
</svg>
