<svg width="447" height="73" viewBox="0 0 447 73" fill="none" xmlns="http://www.w3.org/2000/svg">
<path d="M2.78663 53.9273L8.17312 48.9592C10.3696 51.7832 13.2981 53.4566 16.279 53.4566C19.2076 53.4566 20.9856 51.8877 20.9856 49.2729C20.9856 42.5268 4.35551 44.3571 4.35551 31.963C4.35551 26.1581 9.16675 21.3469 16.1744 21.3469C21.6655 21.3469 25.8492 23.8048 28.9869 27.5178L23.5481 32.4336C21.404 29.6619 18.9984 27.8316 16.2267 27.8316C13.6119 27.8316 11.8861 29.5051 11.8861 31.7015C11.8861 38.3431 28.5163 36.4604 28.5163 49.0115C28.4117 55.9145 23.0775 60.0459 16.3313 60.0459C10.1604 60.0459 6.02899 57.7972 2.78663 53.9273ZM39.2835 28.0408C36.9302 28.0408 34.943 26.0535 34.943 23.7002C34.943 21.3469 36.9302 19.3596 39.2835 19.3596C41.6368 19.3596 43.5718 21.3469 43.5718 23.7002C43.5718 26.0535 41.6368 28.0408 39.2835 28.0408ZM35.9366 59V32.6428H42.5782V59H35.9366ZM51.0656 59V32.6428H57.7072V34.6301C59.4853 32.9043 61.734 31.5969 64.9764 31.5969C68.3233 31.5969 71.2519 33.0612 72.9777 35.8852C74.8603 33.5841 77.3705 31.5969 81.8157 31.5969C87.2545 31.5969 91.5428 35.3622 91.5428 42.7882V59H84.8489V43.0497C84.8489 39.8597 83.1231 37.8724 80.1422 37.8724C77.2659 37.8724 75.6971 39.8597 74.6511 41.6377C74.7034 42.0038 74.7034 42.3699 74.7034 42.7882V59H68.0096V43.0497C68.0096 39.8597 66.2838 37.8724 63.3029 37.8724C60.2697 37.8724 58.7009 40.1211 57.7072 41.7946V59H51.0656ZM99.6458 71.8648V32.6428H106.287V34.7869C108.327 32.7474 110.889 31.5969 114.498 31.5969C122.865 31.5969 127.886 38.1339 127.886 45.8214C127.886 53.5089 122.865 60.0459 114.498 60.0459C110.889 60.0459 108.327 58.8954 106.287 56.8559V71.8648H99.6458ZM113.557 37.8724C110.471 37.8724 107.961 39.2321 106.287 41.69V49.9528C108.065 52.463 110.523 53.7704 113.557 53.7704C118.054 53.7704 120.983 50.4235 120.983 45.8214C120.983 41.2194 118.054 37.8724 113.557 37.8724ZM134.488 59V19.778H141.13V59H134.488ZM152.964 28.0408C150.611 28.0408 148.623 26.0535 148.623 23.7002C148.623 21.3469 150.611 19.3596 152.964 19.3596C155.317 19.3596 157.252 21.3469 157.252 23.7002C157.252 26.0535 155.317 28.0408 152.964 28.0408ZM149.617 59V32.6428H156.259V59H149.617ZM161.504 32.6428H166.42V29.8711C166.42 24.2755 170.133 19.778 176.722 19.778C179.128 19.778 181.167 20.3533 182.841 21.2423L180.017 26.7857C179.232 26.2104 178.186 25.7397 176.827 25.7397C174.578 25.7397 173.113 27.3086 173.113 29.7142V32.6428H181.167V38.6046H173.113V59H166.42V38.6046H161.504V32.6428ZM190.014 28.0408C187.661 28.0408 185.674 26.0535 185.674 23.7002C185.674 21.3469 187.661 19.3596 190.014 19.3596C192.368 19.3596 194.303 21.3469 194.303 23.7002C194.303 26.0535 192.368 28.0408 190.014 28.0408ZM186.668 59V32.6428H193.309V59H186.668ZM214.348 31.5969C222.924 31.5969 228.781 37.9247 228.781 45.8214C228.781 53.7181 222.924 60.0459 214.348 60.0459C205.771 60.0459 199.914 53.7181 199.914 45.8214C199.914 37.9247 205.771 31.5969 214.348 31.5969ZM214.452 53.7704C218.688 53.7704 221.878 50.3712 221.878 45.8214C221.878 41.2194 218.688 37.8724 214.452 37.8724C210.059 37.8724 206.817 41.2194 206.817 45.8214C206.817 50.4235 210.059 53.7704 214.452 53.7704ZM235.362 59V32.6428H242.004V34.7347C243.834 32.9566 246.292 31.5969 249.796 31.5969C255.496 31.5969 260.046 35.5191 260.046 43.3112V59H253.352V43.5727C253.352 40.0688 251.365 37.8724 248.122 37.8724C244.775 37.8724 242.997 40.1211 242.004 41.7946V59H235.362ZM265.809 55.1824L270.202 51.2079C271.823 53.2474 273.758 54.7117 276.269 54.7117C278.413 54.7117 279.511 53.4566 279.511 51.8877C279.511 47.2857 266.908 49.0115 266.908 39.7551C266.908 35.1007 270.83 31.5969 276.321 31.5969C280.348 31.5969 284.008 33.5318 285.891 36.0944L281.498 39.9643C280.138 38.2908 278.413 36.9311 276.373 36.9311C274.281 36.9311 273.288 38.0816 273.288 39.4413C273.288 43.9388 285.891 42.3699 285.891 51.4694C285.786 57.0128 281.341 60.0459 276.373 60.0459C271.667 60.0459 268.32 58.1633 265.809 55.1824ZM295.672 59.5753C294.155 59.5753 293.057 58.477 293.057 57.0128C293.057 55.5485 294.155 54.4502 295.672 54.4502C297.136 54.4502 298.287 55.5485 298.287 57.0128C298.287 58.477 297.136 59.5753 295.672 59.5753ZM301.087 45.8214C301.087 38.1339 306.473 31.5969 314.684 31.5969C318.815 31.5969 322.319 33.3227 324.777 36.4081V19.778H327.862V59H324.777V55.2347C322.319 58.3202 318.815 60.0459 314.684 60.0459C306.473 60.0459 301.087 53.5089 301.087 45.8214ZM304.329 45.8214C304.329 52.0446 308.722 57.1173 314.945 57.1173C319.024 57.1173 322.633 55.1824 324.777 51.6263V40.0166C322.58 36.4081 318.972 34.5255 314.945 34.5255C308.722 34.5255 304.329 39.5982 304.329 45.8214ZM342.983 59.7321C337.858 59.7321 334.458 56.9605 334.458 52.6199C334.458 48.6454 337.492 45.926 343.035 44.9847L352.448 43.4158V40.9579C352.448 36.7219 349.467 34.4209 345.336 34.4209C341.937 34.4209 339.165 35.9375 337.387 38.4477L335.034 36.6173C337.282 33.5318 340.891 31.5969 345.441 31.5969C351.507 31.5969 355.481 35.153 355.481 40.9579V59H352.448V55.1824C350.2 58.1633 346.643 59.7321 342.983 59.7321ZM337.596 52.5676C337.596 55.1301 339.793 57.065 343.349 57.065C347.166 57.065 350.461 55.2347 352.448 51.8354V45.8214L343.715 47.2857C339.531 48.0178 337.596 49.9528 337.596 52.5676ZM364.61 50.6849V35.4145H359.641V32.6428H364.61V26.0535H367.747V32.6428H377.631V35.4145H367.747V50.6849C367.747 55.4962 370.205 56.6467 373.761 56.6467C375.435 56.6467 376.585 56.4375 377.631 56.0714V58.8954C376.428 59.3138 375.121 59.523 373.448 59.523C368.061 59.523 364.61 57.1173 364.61 50.6849ZM389.818 59.7321C384.693 59.7321 381.294 56.9605 381.294 52.6199C381.294 48.6454 384.327 45.926 389.871 44.9847L399.284 43.4158V40.9579C399.284 36.7219 396.303 34.4209 392.172 34.4209C388.772 34.4209 386.001 35.9375 384.223 38.4477L381.869 36.6173C384.118 33.5318 387.726 31.5969 392.276 31.5969C398.343 31.5969 402.317 35.153 402.317 40.9579V59H399.284V55.1824C397.035 58.1633 393.479 59.7321 389.818 59.7321ZM384.432 52.5676C384.432 55.1301 386.628 57.065 390.184 57.065C394.002 57.065 397.297 55.2347 399.284 51.8354V45.8214L390.55 47.2857C386.367 48.0178 384.432 49.9528 384.432 52.5676Z" fill="#3558A2"/>
<path d="M432.917 15.801C432.917 15.801 432.917 15.7829 432.917 15.7708C432.905 14.7935 432.382 13.8885 431.54 13.4059L427.329 10.9687C426.938 10.7394 426.486 10.6188 426.023 10.6067C425.957 10.6067 425.897 10.6067 425.831 10.6127C425.506 10.6308 425.199 10.6911 424.91 10.8058C424.796 10.854 424.688 10.9083 424.579 10.9687L422.017 12.4527L420.422 13.3758C420.326 13.4301 420.236 13.4904 420.152 13.5567C420.152 13.5567 420.116 13.5809 420.11 13.5809C419.773 13.8282 419.508 14.148 419.322 14.5039C419.31 14.528 419.292 14.5522 419.279 14.5763C419.267 14.6004 419.255 14.6246 419.249 14.6487C419.081 15.0167 418.991 15.4329 418.991 15.8733V20.5428V20.6151C418.991 20.6996 418.997 20.7901 419.009 20.8987C419.009 20.953 419.021 21.0133 419.033 21.0797C419.081 21.4054 419.189 21.7131 419.34 21.9906C419.586 22.4491 419.953 22.8292 420.404 23.0886L424.543 25.4836C424.694 25.5681 424.808 25.6224 424.922 25.6707C425.211 25.7913 425.518 25.8577 425.831 25.8697C425.843 25.8697 425.855 25.8697 425.867 25.8697C426.162 25.8758 426.462 25.8456 426.751 25.7551C426.95 25.6948 427.148 25.6103 427.329 25.5017L431.51 23.0826C431.937 22.8352 432.292 22.4793 432.538 22.051C432.785 21.6226 432.917 21.134 432.917 20.6453V15.801Z" fill="#3558A2"/>
<path d="M418.99 24.7637V30.7292V32.4474L425.631 36.2922V28.6085L424.083 27.7134L418.99 24.7637Z" fill="#3558A2"/>
<path d="M432.032 13.0286C432.032 13.0286 432.086 13.0707 432.11 13.0887C432.11 13.0887 432.122 13.0947 432.128 13.1007C432.171 13.1307 432.213 13.1668 432.255 13.1968C432.255 13.1968 432.261 13.2028 432.267 13.2088C432.273 13.2148 432.285 13.2209 432.291 13.2269C432.34 13.2689 432.394 13.311 432.436 13.353C432.448 13.365 432.46 13.377 432.472 13.3891C432.503 13.4191 432.533 13.4491 432.563 13.4792C432.575 13.4912 432.587 13.5032 432.593 13.5092C432.635 13.5573 432.678 13.6053 432.72 13.6534C432.744 13.6774 432.762 13.7075 432.78 13.7315C432.792 13.7495 432.81 13.7675 432.822 13.7856C432.834 13.7976 432.847 13.8156 432.859 13.8276C432.901 13.8817 432.937 13.9418 432.973 14.0018C433.009 14.0619 433.046 14.116 433.082 14.1761C433.118 14.2421 433.148 14.3082 433.184 14.3743C433.215 14.4344 433.239 14.4885 433.263 14.5485C433.287 14.6026 433.305 14.6627 433.323 14.7167C433.323 14.7288 433.329 14.7348 433.335 14.7468C433.335 14.7588 433.341 14.7708 433.347 14.7768C433.366 14.8309 433.384 14.885 433.402 14.939C433.426 15.0291 433.444 15.1192 433.456 15.2154C433.456 15.2154 433.456 15.2214 433.456 15.2274C433.456 15.2394 433.462 15.2574 433.462 15.2694C433.462 15.2995 433.474 15.3235 433.48 15.3535C433.498 15.4917 433.51 15.6359 433.51 15.7801V20.448L434.44 20.9826V13.299L427.753 9.4541V10.5535L431.827 12.8964C431.893 12.9325 431.959 12.9745 432.026 13.0226L432.032 13.0286Z" fill="#3558A2"/>
<path d="M410 9.4541V17.1685L416.687 21.0288V13.3143L410 9.4541Z" fill="#3558A2"/>
<path d="M432.852 22.6513C432.798 22.7298 432.738 22.7962 432.678 22.8687C432.636 22.917 432.594 22.9653 432.552 23.0136C432.486 23.0861 432.408 23.1465 432.336 23.2129C432.3 23.2431 432.264 23.2793 432.228 23.3155L433.368 23.9798C433.458 24.0341 433.518 24.1308 433.518 24.2395V30.6828L434.442 31.2203V23.4967L432.9 22.5969C432.9 22.5969 432.87 22.6332 432.858 22.6513H432.852Z" fill="#3558A2"/>
<path d="M424.525 8.94253V10.3306C424.525 10.3306 424.567 10.3185 424.591 10.3065C424.711 10.2524 424.842 10.2104 424.968 10.1743C425.07 10.1443 425.172 10.1203 425.28 10.1022C425.382 10.0842 425.478 10.0662 425.58 10.0542C425.616 10.0542 425.645 10.0421 425.681 10.0361V8.22748L419.041 4.38184V5.58961L424.375 8.67814C424.465 8.73222 424.525 8.82836 424.525 8.93652V8.94253Z" fill="#3558A2"/>
<path d="M410 27.3334L416.687 31.1743V23.4866L410 19.6458V27.3334Z" fill="#3558A2"/>
<path d="M441.68 27.3334V19.6458L435.039 23.4866V31.1743L441.68 27.3334Z" fill="#3558A2"/>
<path d="M426.231 36.2922L432.917 32.4474V30.8313V24.7637L426.231 28.6085V36.2922Z" fill="#3558A2"/>
<path d="M417.286 21.0288L418.383 20.3894V15.8174C418.383 14.7679 418.88 13.7667 419.719 13.1334C419.719 13.1334 419.731 13.1274 419.737 13.1213C419.737 13.1213 419.743 13.1213 419.749 13.1153C419.761 13.1093 419.773 13.0972 419.779 13.0972C419.887 13.0188 419.965 12.9645 420.055 12.9102L423.926 10.6604V9.4541L417.286 13.3143V21.0288Z" fill="#3558A2"/>
<path d="M441.68 17.1685V9.4541L435.039 13.3143V21.0288L441.68 17.1685Z" fill="#3558A2"/>
<path d="M426.393 10.0465C426.459 10.0525 426.519 10.0705 426.585 10.0765C426.663 10.0885 426.746 10.1065 426.824 10.1244C426.896 10.1424 426.962 10.1664 427.028 10.1904C427.082 10.2084 427.136 10.2204 427.19 10.2383V8.92557C427.19 8.81767 427.25 8.72176 427.34 8.66781L432.967 5.41886V4.38184L426.327 8.21823V10.0345C426.327 10.0345 426.375 10.0465 426.399 10.0465H426.393Z" fill="#3558A2"/>
<path d="M418.443 24.0901C418.461 24.0601 418.491 24.0362 418.521 24.0122C418.527 24.0122 418.533 24.0002 418.539 23.9942L419.684 23.3355C419.684 23.3355 419.636 23.2876 419.606 23.2636C419.509 23.1798 419.413 23.096 419.322 23.0002C419.28 22.9582 419.244 22.9103 419.208 22.8684C419.136 22.7846 419.069 22.7007 419.009 22.6109C418.997 22.5929 418.979 22.575 418.961 22.551L418.931 22.569L417.286 23.5152V31.1744L418.388 30.5396V24.2517C418.388 24.2038 418.407 24.1559 418.425 24.114C418.425 24.102 418.437 24.096 418.443 24.0841V24.0901Z" fill="#3558A2"/>
<path d="M423.652 8.91979L416.992 5.07227L410.325 8.91979L416.992 12.7733L423.652 8.91979Z" fill="#3558A2"/>
<path d="M432.689 3.85354L426.002 0L419.316 3.85354L426.002 7.70107L432.689 3.85354Z" fill="#3558A2"/>
<path d="M434.3 12.5144L434.739 12.7733L441.406 8.91979L434.739 5.07227L433.427 5.83093L428.079 8.91979L430.894 10.5515L434.3 12.5144Z" fill="#3558A2"/>
<path d="M434.595 21.7866L433.483 21.1462C433.477 21.1881 433.459 21.236 433.453 21.2779C433.435 21.3796 433.411 21.4813 433.387 21.5771C433.369 21.6369 433.345 21.6968 433.326 21.7507C433.296 21.8404 433.266 21.9242 433.224 22.014C433.212 22.0379 433.206 22.0559 433.2 22.0798L434.746 22.9656L441.409 19.1353L440.452 18.5847L434.902 21.7746C434.854 21.7985 434.806 21.8165 434.752 21.8165C434.698 21.8165 434.649 21.8045 434.601 21.7746L434.595 21.7866Z" fill="#3558A2"/>
<path d="M427.603 26.0128C427.381 26.1384 427.14 26.2402 426.899 26.318C426.731 26.3718 426.556 26.4018 426.382 26.4257C426.322 26.4317 426.262 26.4317 426.202 26.4377C426.111 26.4437 426.027 26.4556 425.937 26.4556C425.889 26.4556 425.841 26.4556 425.792 26.4556C425.792 26.4556 425.786 26.4556 425.78 26.4556C425.588 26.4496 425.401 26.4257 425.215 26.3838C425.028 26.3419 424.848 26.2881 424.673 26.2162C424.535 26.1564 424.396 26.0906 424.258 26.0187L420.227 23.7026L419.908 23.8882L419.27 24.2532L425.937 28.0835L426.659 27.6645L427.339 27.2755L428.698 26.4915L432.597 24.2532L431.959 23.8882L431.641 23.7026L427.609 26.0187L427.603 26.0128Z" fill="#3558A2"/>
<path d="M418.437 21.1582C418.437 21.1163 418.425 21.0804 418.419 21.0385L417.138 21.7746C417.089 21.7985 417.041 21.8165 416.987 21.8165C416.933 21.8165 416.885 21.8045 416.837 21.7746L411.282 18.5847L410.325 19.1353L416.993 22.9656L418.672 22.002C418.57 21.7626 418.492 21.4873 418.443 21.1821C418.443 21.1821 418.443 21.1701 418.443 21.1641L418.437 21.1582Z" fill="#3558A2"/>
</svg>
