<svg width="64" height="64" viewBox="0 0 64 64" fill="none" xmlns="http://www.w3.org/2000/svg">
<path fill-rule="evenodd" clip-rule="evenodd" d="M60.0001 12.0004C59.559 12.0004 59.2001 11.6415 59.2001 11.2004C59.2001 10.7592 59.559 10.4004 60.0001 10.4004C60.4412 10.4004 60.8001 10.7592 60.8001 11.2004C60.8001 11.6415 60.4412 12.0004 60.0001 12.0004Z" fill="#ECECFE"/>
<path fill-rule="evenodd" clip-rule="evenodd" d="M5.60005 4.8002C5.15893 4.8002 4.80005 4.44132 4.80005 4.0002C4.80005 3.55904 5.15893 3.2002 5.60005 3.2002C6.04117 3.2002 6.40005 3.55904 6.40005 4.0002C6.40005 4.44132 6.04117 4.8002 5.60005 4.8002Z" fill="#ECECFE"/>
<path fill-rule="evenodd" clip-rule="evenodd" d="M8.00007 60.0004C7.55895 60.0004 7.20007 59.6415 7.20007 59.2004C7.20007 58.7592 7.55895 58.4004 8.00007 58.4004C8.44119 58.4004 8.80007 58.7592 8.80007 59.2004C8.80007 59.6415 8.44119 60.0004 8.00007 60.0004Z" fill="#ECECFE"/>
<path d="M44.56 55.4503C44.4 55.4503 44.16 55.3703 44.08 55.2903C43.92 55.1303 43.84 54.9703 43.76 54.7303L40 10.0903C40 9.6103 40.32 9.2903 40.72 9.2103L55.04 8.0103C55.52 7.9303 55.84 8.3303 55.92 8.7303L56.08 10.8103L59.68 53.4503C59.68 53.8503 59.36 54.2503 58.96 54.3303L44.56 55.4503ZM41.68 10.7303L45.28 53.7703L58 52.7303L54.4 9.6903L41.68 10.7303Z" fill="#E1000F"/>
<path d="M51.2 51.6903C50.24 51.6903 49.36 51.3703 48.64 50.7303C47.84 50.0103 47.36 49.0503 47.2 48.0103C47.12 46.9703 47.44 45.9303 48.16 45.1303C48.88 44.3303 49.84 43.8503 50.88 43.6903C51.92 43.6103 52.96 43.9303 53.76 44.6503C54.56 45.3703 55.04 46.3303 55.2 47.3703C55.28 48.4103 54.96 49.4503 54.24 50.2503C53.52 51.0503 52.56 51.5303 51.52 51.6903C51.36 51.6903 51.28 51.6903 51.2 51.6903ZM51.2 45.2903C51.12 45.2903 51.04 45.2903 50.96 45.2903C50.32 45.3703 49.76 45.6103 49.36 46.1703C48.96 46.7303 48.72 47.2903 48.8 47.9303C48.88 48.5703 49.12 49.1303 49.68 49.5303C50.16 49.9303 50.8 50.1703 51.44 50.0903C52.08 50.0103 52.64 49.7703 53.04 49.2103C53.44 48.7303 53.68 48.0903 53.6 47.4503C53.52 46.8103 53.28 46.2503 52.72 45.8503C52.32 45.4503 51.76 45.2903 51.2 45.2903Z" fill="#E1000F"/>
<path d="M46 34.4903C45.6 34.4903 45.2 34.1703 45.2 33.7703L43.44 13.0503C43.44 12.5703 43.76 12.2503 44.16 12.1703L52.16 11.5303C52.4 11.5303 52.56 11.6103 52.72 11.6903C52.88 11.8503 52.96 12.0103 53.04 12.2503L54.8 32.9703C54.8 33.2103 54.72 33.3703 54.64 33.5303C54.48 33.6903 54.32 33.7703 54.08 33.8503L46 34.4903ZM45.12 13.6903L46.72 32.8103L53.12 32.2503L51.52 13.1303L45.12 13.6903Z" fill="#E1000F"/>
<path d="M46.24 37.6103C45.84 37.6103 45.44 37.2903 45.44 36.8903C45.44 36.4903 45.76 36.0903 46.16 36.0103L50.96 35.6103C51.44 35.5303 51.76 35.9303 51.84 36.3303C51.84 36.7303 51.52 37.1303 51.12 37.2103L46.24 37.6103Z" fill="#E1000F"/>
<path d="M54.24 36.9703C54 36.9703 53.84 36.8903 53.68 36.7303C53.52 36.5703 53.44 36.4103 53.44 36.1703C53.44 36.0903 53.44 35.9303 53.52 35.8503C53.6 35.7703 53.6 35.6903 53.68 35.6103L53.76 35.5303C53.84 35.5303 53.84 35.4503 53.92 35.4503C54 35.4503 54 35.3703 54.08 35.3703C54.16 35.3703 54.32 35.3703 54.4 35.3703C54.48 35.3703 54.48 35.3703 54.56 35.4503C54.64 35.4503 54.64 35.4503 54.72 35.5303C54.8 35.5303 54.8 35.6103 54.88 35.6103C54.96 35.6903 55.04 35.7703 55.04 35.8503C55.04 35.9303 55.12 36.0103 55.12 36.1703C55.12 36.4103 55.04 36.5703 54.88 36.7303C54.64 36.8903 54.4 36.9703 54.24 36.9703Z" fill="#E1000F"/>
<path d="M37.6001 55.4498H23.2001C22.7201 55.4498 22.4001 55.1298 22.4001 54.6498V9.8498C22.4001 9.3698 22.7201 9.0498 23.2001 9.0498H37.6001C38.0801 9.0498 38.4001 9.3698 38.4001 9.8498V54.6498C38.4001 55.1298 38.0801 55.4498 37.6001 55.4498ZM24 53.8498H36.8001V10.6498H24V53.8498Z" fill="#000091"/>
<path d="M30.4001 52.2498C28.1601 52.2498 26.4001 50.4898 26.4001 48.2498C26.4001 46.0098 28.1601 44.2498 30.4001 44.2498C32.6401 44.2498 34.4001 46.0098 34.4001 48.2498C34.4001 50.4898 32.6401 52.2498 30.4001 52.2498ZM30.4001 45.8498C29.0401 45.8498 28.0001 46.8898 28.0001 48.2498C28.0001 49.6098 29.0401 50.6498 30.4001 50.6498C31.7601 50.6498 32.8001 49.6098 32.8001 48.2498C32.8001 46.8898 31.7601 45.8498 30.4001 45.8498Z" fill="#000091"/>
<path d="M34.4001 34.6498H26.4001C25.9201 34.6498 25.6 34.3298 25.6 33.8498V13.0498C25.6 12.5698 25.9201 12.2498 26.4001 12.2498H34.4001C34.8801 12.2498 35.2001 12.5698 35.2001 13.0498V33.8498C35.2001 34.3298 34.8801 34.6498 34.4001 34.6498ZM27.2001 33.0498H33.6001V13.8498H27.2001V33.0498Z" fill="#000091"/>
<path d="M31.2001 37.8498H26.4001C25.9201 37.8498 25.6 37.5298 25.6 37.0498C25.6 36.5698 25.9201 36.2498 26.4001 36.2498H31.2001C31.6801 36.2498 32.0001 36.5698 32.0001 37.0498C32.0001 37.5298 31.6801 37.8498 31.2001 37.8498Z" fill="#000091"/>
<path d="M34.4001 37.8498C34.3201 37.8498 34.16 37.8498 34.08 37.7698C34 37.6898 33.9201 37.6898 33.8401 37.6098C33.68 37.4498 33.6001 37.2898 33.6001 37.0498C33.6001 36.9698 33.6 36.8098 33.68 36.7298C33.68 36.6498 33.7601 36.5698 33.8401 36.4898C34.0001 36.3298 34.3201 36.2498 34.5601 36.2498C34.6401 36.2498 34.6401 36.2498 34.7201 36.3298C34.8001 36.3298 34.8001 36.3298 34.8801 36.4098C34.9601 36.4098 34.9601 36.4898 35.0401 36.4898C35.2001 36.6498 35.2801 36.8898 35.2801 37.0498C35.2801 37.2898 35.2001 37.4498 35.0401 37.6098C34.9601 37.6898 34.8801 37.7698 34.8001 37.7698C34.7201 37.7698 34.4801 37.8498 34.4001 37.8498Z" fill="#000091"/>
<path d="M20.0001 55.4498H5.60005C5.12005 55.4498 4.80005 55.1298 4.80005 54.6498V46.8098C4.80005 46.3298 5.12005 46.0098 5.60005 46.0098C6.08005 46.0098 6.40005 46.3298 6.40005 46.8098V53.8498H19.2001V10.6498H6.40005V42.0098C6.40005 42.4898 6.08005 42.8098 5.60005 42.8098C5.12005 42.8098 4.80005 42.4898 4.80005 42.0098V9.8498C4.80005 9.3698 5.12005 9.0498 5.60005 9.0498H20.0001C20.4801 9.0498 20.8001 9.3698 20.8001 9.8498V54.6498C20.8001 55.1298 20.4801 55.4498 20.0001 55.4498Z" fill="#000091"/>
<path d="M12.8 52.2498C10.56 52.2498 8.80005 50.4898 8.80005 48.2498C8.80005 46.0098 10.56 44.2498 12.8 44.2498C15.04 44.2498 16.8 46.0098 16.8 48.2498C16.8 50.4898 15.04 52.2498 12.8 52.2498ZM12.8 45.8498C11.44 45.8498 10.4 46.8898 10.4 48.2498C10.4 49.6098 11.44 50.6498 12.8 50.6498C14.16 50.6498 15.2 49.6098 15.2 48.2498C15.2 46.8898 14.16 45.8498 12.8 45.8498Z" fill="#000091"/>
<path d="M16.8 34.6498H8.80005C8.32005 34.6498 8.00005 34.3298 8.00005 33.8498V13.0498C8.00005 12.5698 8.32005 12.2498 8.80005 12.2498H16.8C17.2801 12.2498 17.6 12.5698 17.6 13.0498V33.8498C17.6 34.3298 17.2801 34.6498 16.8 34.6498ZM9.60005 33.0498H16V13.8498H9.60005V33.0498Z" fill="#000091"/>
<path d="M13.6 37.8498H8.80005C8.32005 37.8498 8.00005 37.5298 8.00005 37.0498C8.00005 36.5698 8.32005 36.2498 8.80005 36.2498H13.6C14.08 36.2498 14.4 36.5698 14.4 37.0498C14.4 37.5298 14.08 37.8498 13.6 37.8498Z" fill="#000091"/>
<path d="M16.8 37.8498C16.72 37.8498 16.5601 37.8498 16.4801 37.7698C16.4001 37.6898 16.32 37.6898 16.24 37.6098C16.08 37.4498 16 37.2898 16 37.0498C16 36.9698 16.0001 36.8098 16.0801 36.7298C16.1601 36.6498 16.16 36.5698 16.24 36.4898C16.56 36.1698 17.0401 36.1698 17.3601 36.4898C17.4401 36.5698 17.5201 36.6498 17.5201 36.7298C17.6 36.8098 17.6 36.9698 17.6 37.0498C17.6 37.2898 17.5201 37.4498 17.3601 37.6098C17.2801 37.6898 17.2 37.7698 17.12 37.7698C17.04 37.7698 16.88 37.8498 16.8 37.8498Z" fill="#000091"/>
</svg>
