<svg width="188" height="273" viewBox="0 0 188 273" fill="none" xmlns="http://www.w3.org/2000/svg">
<path d="M53.588 80.2637L51.7852 281.999H132.053V83.0146L53.588 80.2637Z" fill="#455A64"/>
<path d="M56.1064 113.788V142.069H94.126V115.13L56.1064 113.788Z" fill="#263238"/>
<path d="M96.8299 81.7812L96.1138 281.999H132.052V83.0142L96.8299 81.7812Z" fill="#263238"/>
<path d="M56.1064 82.7549V111.036H94.126V84.0884L56.1064 82.7549Z" fill="#263238"/>
<path d="M69.2148 90.5307V94.7075H80.849V90.1533L69.2148 90.5307Z" fill="#263238"/>
<path d="M81.2281 98.2207H69.2148V99.9317H81.2281V98.2207Z" fill="#263238"/>
<g opacity="0.4">
<path d="M69.2144 90.5307V94.7075H80.8485V90.1533L69.2144 90.5307Z" fill="black"/>
<path d="M81.2276 98.2207H69.2144V99.9317H81.2276V98.2207Z" fill="black"/>
</g>
<path d="M56.1064 181.847V210.12H94.126V183.18L56.1064 181.847Z" fill="#263238"/>
<path d="M69.2148 189.623V193.799H80.849V189.245L69.2148 189.623Z" fill="#263238"/>
<path d="M81.2281 197.314H69.2148V199.025H81.2281V197.314Z" fill="#263238"/>
<g opacity="0.4">
<path d="M69.2163 189.622V193.798H80.8505V189.244L69.2163 189.622Z" fill="black"/>
<path d="M81.2296 197.312H69.2163V199.023H81.2296V197.312Z" fill="black"/>
</g>
<path d="M56.1064 213.718V241.991H94.126V215.052L56.1064 213.718Z" fill="#263238"/>
<path d="M69.2148 221.496V225.673H80.849V221.119L69.2148 221.496Z" fill="#263238"/>
<path d="M81.2281 229.186H69.2148V230.897H81.2281V229.186Z" fill="#263238"/>
<g opacity="0.4">
<path d="M69.2144 221.495V225.672H80.8485V221.118L69.2144 221.495Z" fill="black"/>
<path d="M81.2276 229.185H69.2144V230.896H81.2276V229.185Z" fill="black"/>
</g>
<path d="M55.7026 245.591V273.864H93.7222V246.925L55.7026 245.591Z" fill="#263238"/>
<path d="M68.8032 253.366V257.542H80.4374V252.988L68.8032 253.366Z" fill="#263238"/>
<path d="M80.8165 261.056H68.8032V262.767H80.8165V261.056Z" fill="#263238"/>
<g opacity="0.4">
<path d="M68.8018 253.365V257.542H80.4359V252.988L68.8018 253.365Z" fill="black"/>
<path d="M80.815 261.055H68.8018V262.766H80.815V261.055Z" fill="black"/>
</g>
<path d="M55.3823 147.125H17.3628V175.407H55.3823V147.125Z" fill="#455A64"/>
<path d="M30.7241 159.867V163.793H41.6591V159.515L30.7241 159.867Z" fill="#263238"/>
<path d="M42.0129 167.094H30.7241V168.696H42.0129V167.094Z" fill="#263238"/>
<g opacity="0.4">
<path d="M30.7241 159.867V163.792H41.6591V159.515L30.7241 159.867Z" fill="black"/>
<path d="M42.0129 167.097H30.7241V168.699H42.0129V167.097Z" fill="black"/>
</g>
<path d="M55.3828 147.124L92.8632 146.847L92.1808 175.397H55.3828V147.124Z" fill="#263238"/>
<path opacity="0.4" d="M55.3828 147.124L92.8632 146.847L92.1808 175.397H55.3828V147.124Z" fill="black"/>
<path d="M91.532 121.443H54.0601V146.84H91.532V121.443Z" fill="#FAFAFA"/>
<path d="M44.9685 125.495L46.8556 147.075L91.5052 146.849L88.8599 125.738C88.7678 125.081 88.4187 124.487 87.8885 124.085C87.3584 123.683 86.6902 123.505 86.0293 123.591L68.0094 125.151L64.9429 122.887C64.6627 122.692 64.3233 122.6 63.9825 122.627L46.1901 124.187C45.8557 124.204 45.5411 124.35 45.3131 124.594C45.0851 124.839 44.9615 125.162 44.9685 125.495Z" fill="#263238"/>
<path d="M44.9685 125.495L46.8556 147.075L91.5052 146.849L88.8599 125.738C88.7678 125.081 88.4187 124.487 87.8885 124.085C87.3584 123.683 86.6902 123.505 86.0293 123.591L68.0094 125.151L64.9429 122.887C64.6627 122.692 64.3233 122.6 63.9825 122.627L46.1901 124.187C45.8557 124.204 45.5411 124.35 45.3131 124.594C45.0851 124.839 44.9615 125.162 44.9685 125.495Z" fill="#00A95F"/>
<path d="M32.1564 141.455L31.2129 135.836L72.518 133.118L76.1489 147.066L32.9736 146.848L32.1564 141.455Z" fill="#FAFAFA"/>
<path d="M26.8829 138.721L27.6158 147.108H71.7936L70.749 138.947C70.6568 138.292 70.3089 137.699 69.7807 137.297C69.2524 136.895 68.5863 136.717 67.9268 136.8L49.9069 138.36L46.832 136.096C46.5557 135.899 46.2183 135.807 45.88 135.836L28.0876 137.404C27.7531 137.421 27.439 137.569 27.2135 137.816C26.9879 138.062 26.8691 138.388 26.8829 138.721Z" fill="#00A95F"/>
<path opacity="0.7" d="M26.8829 138.721L27.6158 147.108H71.7936L70.749 138.947C70.6568 138.292 70.3089 137.699 69.7807 137.297C69.2524 136.895 68.5863 136.717 67.9268 136.8L49.9069 138.36L46.832 136.096C46.5557 135.899 46.2183 135.807 45.88 135.836L28.0876 137.404C27.7531 137.421 27.439 137.569 27.2135 137.816C26.9879 138.062 26.8691 138.388 26.8829 138.721Z" fill="#FAFAFA"/>
<path d="M73.5029 136.886H79.4C79.6231 136.887 79.8432 136.937 80.0439 137.034C80.2446 137.131 80.4208 137.272 80.5592 137.446C80.6977 137.62 80.7949 137.823 80.8437 138.04C80.8924 138.257 80.8913 138.482 80.8406 138.698L78.9367 146.842H76.1819L73.5029 136.886Z" fill="#263238"/>
<path d="M146.568 62.277L120.36 67.8712C120.138 67.9173 119.91 67.9184 119.688 67.8745C119.466 67.8307 119.255 67.7427 119.068 67.6159C118.88 67.489 118.721 67.326 118.598 67.1364C118.476 66.9468 118.393 66.7346 118.355 66.5125L114.817 48.8996C114.718 48.4526 114.801 47.9852 115.048 47.5989C115.294 47.2125 115.683 46.9385 116.131 46.8363L142.331 41.2253C142.552 41.1793 142.781 41.1782 143.003 41.222C143.225 41.2659 143.436 41.3539 143.623 41.4807C143.81 41.6075 143.97 41.7706 144.092 41.9601C144.215 42.1497 144.298 42.3619 144.336 42.5841L147.883 60.197C147.979 60.6458 147.895 61.1144 147.65 61.5029C147.405 61.8914 147.016 62.1691 146.568 62.277Z" fill="#00A95F"/>
<path d="M132.069 52.5206L136.079 53.9045L132.912 56.798L129.744 59.6916L128.902 55.4141L128.059 51.1367L132.069 52.5206Z" fill="#FAFAFA"/>
<path d="M96.9148 53.0495L97.1759 52.7056C97.3613 52.4875 97.6224 52.1605 97.9594 51.7159C98.9388 50.4224 99.7854 49.0344 100.487 47.5727C100.991 46.5188 101.413 45.4281 101.75 44.3101C102.113 43.0856 102.399 41.7185 102.761 40.2675C103.469 37.3488 104.278 34.0359 105.162 30.3707C106.047 26.7056 107.041 22.6881 108.086 18.3855C108.326 17.2744 108.636 16.1792 109.012 15.1062C109.426 14.0052 109.945 12.9463 110.562 11.9442C111.209 10.9141 111.959 9.95288 112.803 9.07584C113.231 8.62823 113.684 8.20539 114.16 7.80938H114.202C114.379 8.49712 114.202 7.9939 114.269 8.14487H114.16L113.932 8.08616L113.477 7.97712L112.567 7.75906L97.3023 4.05196L89.2233 2.08098L85.0953 1.07453L83.006 0.571301H82.8797H82.8123C82.7701 0.571301 83.0313 0.571301 82.9049 0.571301L82.6606 0.66356L82.1636 0.85646C81.8519 1.01581 81.5149 1.14162 81.2116 1.31775C78.7063 2.63111 76.6896 4.70933 75.4577 7.24745C74.8734 8.49666 74.4543 9.81606 74.2109 11.1726C73.8992 12.5146 73.5875 13.8481 73.2842 15.1733C72.0542 20.4572 70.8748 25.5565 69.7459 30.421L68.9035 34.0191C68.0316 37.4369 66.4946 40.6512 64.3796 43.4798C64.0426 43.9243 63.6972 44.3185 63.3433 44.7714L63.2086 44.9308L63.1412 45.0146C62.9643 44.4359 63.1412 44.8553 63.0738 44.7295H63.1496L63.5456 44.8301L64.329 45.023L67.3955 45.7779L73.1747 47.2037L90.5796 51.5146L95.3141 52.714L96.5357 53.0327L96.9569 53.1585L96.5273 53.0746L95.2889 52.7979L90.5459 51.6824L73.0989 47.4888L67.3197 46.0966L64.2448 45.3501L63.4613 45.1656L63.0654 45.065H62.9895C62.939 44.9391 63.0569 45.3501 62.8716 44.7714L62.939 44.6959L63.0654 44.5366C63.4192 44.1256 63.7562 43.6979 64.0847 43.2533C65.4443 41.4207 66.5627 39.4223 67.4124 37.3069C68.255 35.0366 68.9032 32.6995 69.35 30.3204C70.4704 25.4559 71.6499 20.3565 72.863 15.0642C73.1747 13.7391 73.478 12.4055 73.7897 11.0636C74.0375 9.67802 74.4651 8.33039 75.0618 7.05454C76.2941 4.38124 78.3631 2.17727 80.9589 0.77259C81.279 0.588073 81.6244 0.453881 81.953 0.302913L82.4669 0.101618L82.7196 0.000976562H82.8712H82.9386H83.0734L85.1543 0.512591L89.2822 1.6113L97.3613 3.58227L112.618 7.31454L113.528 7.54099L113.983 7.65002L114.21 7.70873H114.32C114.362 7.86809 114.269 7.36487 114.421 8.061H114.379C113.915 8.45519 113.469 8.8997 113.048 9.30229C111.417 10.9855 110.149 12.9836 109.324 15.1733C108.953 16.2301 108.646 17.3085 108.406 18.4023L105.432 30.3791L102.972 40.2591C102.593 41.7101 102.29 43.0688 101.91 44.3017C101.563 45.4262 101.129 46.5225 100.613 47.5811C99.8999 49.0429 99.0299 50.4236 98.0184 51.6992C97.6774 52.1704 97.3089 52.6213 96.9148 53.0495Z" fill="#263238"/>
<path d="M102.501 17.0774C102.181 17.0747 101.864 17.0266 101.557 16.9348C100.959 16.8174 100.092 16.6329 99.0302 16.398C96.8988 15.92 93.9755 15.2322 90.7236 14.4103C87.4718 13.5883 84.5738 12.7329 82.4761 12.1458C81.4231 11.8354 80.5806 11.567 79.9993 11.3741C79.6904 11.2994 79.3928 11.1838 79.1147 11.0303C79.432 11.0595 79.7454 11.1213 80.0499 11.2148L82.5772 11.8522L90.8416 13.9825L99.1228 16.0961L101.65 16.7754C101.943 16.8473 102.228 16.9484 102.501 17.0774Z" fill="#263238"/>
<path d="M101.918 20.592C101.599 20.5784 101.283 20.5306 100.974 20.4495C100.368 20.332 99.5085 20.1475 98.447 19.9043C96.3156 19.4262 93.3923 18.7385 90.1321 17.9165C86.8718 17.0946 83.9907 16.2391 81.893 15.6604C80.8399 15.3417 79.9975 15.0817 79.4162 14.8888C79.1232 14.8062 78.8406 14.6909 78.5737 14.5449C78.8912 14.5678 79.2049 14.6269 79.5088 14.7211L82.0362 15.3585L90.3005 17.4972L98.5481 19.6107L101.075 20.2817C101.367 20.3541 101.649 20.4581 101.918 20.592Z" fill="#263238"/>
<path d="M101.077 24.0968C100.758 24.0948 100.44 24.0496 100.133 23.9626C99.5266 23.8452 98.6673 23.6523 97.6058 23.4175C95.4745 22.9394 92.5512 22.2517 89.2909 21.4297C86.0307 20.6078 83.1495 19.7942 81.0518 19.1652C79.9987 18.8549 79.1563 18.5949 78.575 18.402C78.2691 18.3178 77.9727 18.2025 77.6904 18.0581C78.0086 18.0756 78.323 18.1348 78.6256 18.2342L81.1529 18.8717L89.4173 21.002L97.7069 23.1155L100.234 23.7949C100.524 23.8687 100.806 23.9698 101.077 24.0968Z" fill="#263238"/>
<path d="M100.343 27.6111C100.024 27.6028 99.7071 27.5549 99.3998 27.4685C98.8016 27.3511 97.9339 27.1666 96.8724 26.9317C94.7411 26.4537 91.8178 25.7659 88.5659 24.9356C85.3141 24.1053 82.4161 23.3085 80.3184 22.6795C79.2737 22.3691 78.4313 22.1007 77.85 21.9078C77.5388 21.8318 77.2387 21.7162 76.957 21.564C77.2744 21.5924 77.5879 21.6542 77.8922 21.7485L80.4195 22.3775L88.6923 24.5162L96.9651 26.6298L99.4924 27.3091C99.7861 27.3791 100.071 27.4804 100.343 27.6111Z" fill="#263238"/>
<path d="M99.2078 31.1251C98.8891 31.1114 98.5727 31.0636 98.2643 30.9825C97.6577 30.8651 96.7984 30.6805 95.7369 30.4373C93.6056 29.9593 90.6823 29.2715 87.422 28.4496C84.1617 27.6276 81.2806 26.7722 79.1829 26.1851C78.1298 25.8747 77.2874 25.6147 76.7061 25.4218C76.3936 25.3489 76.091 25.2391 75.8047 25.0947C76.1228 25.1122 76.4372 25.1715 76.7398 25.2709L79.2671 25.9083L87.5315 28.047L95.8128 30.1522L98.3401 30.8315C98.6402 30.8941 98.9315 30.9927 99.2078 31.1251Z" fill="#263238"/>
<path d="M98.3804 34.6316C98.0607 34.6289 97.743 34.5808 97.4369 34.489C96.8387 34.3716 95.971 34.1871 94.9095 33.9522C92.7781 33.4742 89.8549 32.7864 86.603 31.9645C83.3512 31.1425 80.4532 30.2871 78.3555 29.7C77.3109 29.3896 76.46 29.1212 75.8787 28.9283C75.5697 28.8536 75.2722 28.738 74.9941 28.5845C75.3114 28.6137 75.6248 28.6755 75.9292 28.769L78.4566 29.4064L86.7294 31.5367L95.0022 33.6503L97.5295 34.3296C97.8227 34.4015 98.1077 34.5026 98.3804 34.6316Z" fill="#263238"/>
<path d="M97.3368 38.2716C97.0177 38.2696 96.7003 38.2244 96.3933 38.1374C95.7951 38.02 94.9274 37.8355 93.8659 37.5923C91.7346 37.1142 88.8113 36.4265 85.551 35.6045C82.2908 34.7826 79.4096 33.9271 77.3119 33.34C76.2673 33.0297 75.4164 32.7697 74.8351 32.5768C74.5422 32.4942 74.2595 32.3789 73.9927 32.2329C74.3108 32.2504 74.6252 32.3096 74.9278 32.409L77.4551 33.0465L85.7195 35.1852L94.0007 37.2903L96.5281 37.9697C96.8068 38.0441 97.0777 38.1452 97.3368 38.2716Z" fill="#263238"/>
<path d="M96.5607 41.7718C95.8772 41.7321 95.1997 41.6224 94.5388 41.4447C93.3004 41.1847 91.5987 40.8073 89.7284 40.3293C87.8582 39.8512 86.1902 39.3312 84.9771 38.9705C84.3095 38.8122 83.6623 38.5787 83.0479 38.2744C83.7302 38.3406 84.4045 38.4726 85.0613 38.6686C86.2913 38.9622 87.9762 39.4235 89.838 39.9099C91.6998 40.3964 93.3931 40.8073 94.6146 41.1428C95.284 41.2826 95.9365 41.4935 96.5607 41.7718Z" fill="#263238"/>
<path d="M42.292 124.81L13.5057 136.065C11.2283 122.149 6.76492 108.677 0.279297 96.1424L17.9706 88.594C19.5852 87.9046 21.3245 87.5517 23.0812 87.5572C24.838 87.5626 26.575 87.9263 28.1852 88.6256C29.7955 89.325 31.2447 90.3453 32.4437 91.6237C33.6426 92.902 34.5659 94.4113 35.1565 96.0585C38.5489 105.364 40.9408 115.002 42.292 124.81Z" fill="#FAFAFA"/>
<path d="M42.2907 124.81C42.2907 124.81 42.2907 124.684 42.2233 124.45C42.1559 124.215 42.1222 123.854 42.0549 123.418C41.9032 122.512 41.6842 121.162 41.364 119.434C40.4538 114.551 39.2954 109.716 37.8932 104.949C37.4383 103.44 36.9581 101.855 36.4105 100.228C35.8629 98.6004 35.3153 96.8727 34.5908 95.1953C33.8206 93.4664 32.6688 91.9327 31.221 90.7081C29.6638 89.4241 27.8304 88.5143 25.8631 88.0494C23.7921 87.583 21.6365 87.6435 19.5953 88.2256C19.0645 88.3598 18.5675 88.5862 18.0536 88.7623L16.5203 89.4249L13.3949 90.7585L0.379098 96.3359L0.48862 96.0423C0.71608 96.4953 0.960389 96.9901 1.21312 97.4849C4.44624 103.975 7.16986 110.705 9.35956 117.614C11.2564 123.651 12.7065 129.818 13.6982 136.066L13.4623 135.931L34.3718 127.855L40.2183 125.615L41.7684 125.037C42.1138 124.902 42.3076 124.844 42.3076 124.844C42.3076 124.844 42.1475 124.928 41.8105 125.062L40.311 125.674L34.5234 127.955L13.5886 136.233L13.3864 136.317V136.091C12.3677 129.867 10.9037 123.723 9.00574 117.706C6.7955 110.832 4.06082 104.137 0.825592 97.6778L0.109509 96.2353L0 96.0256L0.219031 95.9417L13.2348 90.3727L16.3603 89.0307L17.8935 88.3765C18.4327 88.192 18.9466 87.9656 19.4857 87.823C21.5978 87.2309 23.8253 87.1761 25.9641 87.6636C27.9894 88.1447 29.8753 89.0863 31.4737 90.4146C32.9706 91.6771 34.1578 93.2635 34.9446 95.0527C35.686 96.7804 36.1999 98.4914 36.7559 100.127C37.3119 101.762 37.7668 103.348 38.2133 104.857C39.6004 109.641 40.7253 114.496 41.5831 119.4C41.8695 121.145 42.0717 122.487 42.1896 123.418C42.2402 123.862 42.2823 124.206 42.316 124.466C42.3186 124.581 42.3101 124.697 42.2907 124.81Z" fill="#263238"/>
<path d="M18.9282 88.2013C18.9282 88.2013 23.2247 96.9742 22.8456 97.2845C22.4665 97.5948 33.5109 93.1832 33.6457 93.0909C33.6794 93.1161 27.934 85.4838 18.9282 88.2013Z" fill="#263238"/>
<path d="M17.32 100.025C16.0882 100.783 14.7811 101.413 13.4195 101.904C12.1175 102.527 10.7575 103.021 9.35889 103.38C10.586 102.619 11.8906 101.989 13.251 101.502C14.555 100.877 15.918 100.382 17.32 100.025Z" fill="#263238"/>
<path d="M31.6099 98.7654C31.6604 98.8744 26.9933 101.131 21.1888 103.798C15.3844 106.465 10.633 108.536 10.5824 108.427C10.5319 108.318 15.199 106.071 21.0035 103.395C26.8079 100.72 31.5593 98.6563 31.6099 98.7654Z" fill="#263238"/>
<path d="M33.5464 103.934C33.5969 104.043 28.9298 106.291 23.1253 108.966C17.3209 111.642 12.5695 113.713 12.519 113.604C12.4684 113.495 17.1356 111.248 22.94 108.572C28.7444 105.897 33.4958 103.817 33.5464 103.934Z" fill="#263238"/>
<path d="M35.5274 109.059C35.5779 109.168 30.9108 111.415 25.1063 114.091C19.3019 116.766 14.5505 118.83 14.4999 118.721C14.4494 118.612 19.1165 116.364 24.921 113.688C30.7254 111.013 35.4768 108.966 35.5274 109.059Z" fill="#263238"/>
<path d="M29.9571 118.58C29.3401 118.983 28.6856 119.325 28.0027 119.603C26.7727 120.182 25.0625 120.962 23.1586 121.792C20.1764 123.101 17.6153 124.166 16.6465 124.493L16.5117 124.543V124.418C16.5791 124.107 16.6297 123.965 16.6549 123.965C16.6802 123.965 16.6549 124.124 16.6549 124.443L16.5538 124.359C17.4468 123.872 19.9236 122.681 22.948 121.398C24.8519 120.559 26.5874 119.83 27.851 119.318C28.5245 118.998 29.2306 118.75 29.9571 118.58Z" fill="#263238"/>
<path d="M163.3 124.063L131.346 110.308C134.707 107.546 137.339 104.008 139.012 100.001L148.338 77.7077C149.223 75.6742 150.603 73.8923 152.353 72.5231C154.103 71.1539 156.169 70.2406 158.363 69.8657L188 82.6477C184.794 84.5004 182.269 87.3285 180.797 90.7161L170.157 115.148C168.634 118.631 166.28 121.691 163.3 124.063Z" fill="#00A95F"/>
<path opacity="0.7" d="M163.3 124.063L131.346 110.308C134.707 107.546 137.339 104.008 139.012 100.001L148.338 77.7077C149.223 75.6742 150.603 73.8923 152.353 72.5231C154.103 71.1539 156.169 70.2406 158.363 69.8657L188 82.6477C184.794 84.5004 182.269 87.3285 180.797 90.7161L170.157 115.148C168.634 118.631 166.28 121.691 163.3 124.063Z" fill="#FAFAFA"/>
<path d="M174.816 91.8835C174.766 91.9926 169.534 89.8203 163.123 87.019C156.712 84.2177 151.556 81.8693 151.607 81.7603C151.657 81.6512 156.889 83.8235 163.3 86.6248C169.711 89.4261 174.867 91.7745 174.816 91.8835Z" fill="#263238"/>
<path d="M173.526 96.2698C173.476 96.3788 168.067 94.1226 161.437 91.2375C154.807 88.3523 149.483 85.9117 149.534 85.8026C149.584 85.6936 154.993 87.9413 161.614 90.8349C168.236 93.7285 173.526 96.1607 173.526 96.2698Z" fill="#263238"/>
<path d="M171.844 100.144C171.802 100.253 166.385 97.9966 159.764 95.1114C153.142 92.2263 147.809 89.794 147.851 89.685C147.893 89.5759 153.31 91.8237 159.94 94.7172C166.57 97.6108 171.844 100.026 171.844 100.144Z" fill="#263238"/>
<path d="M170.098 104.017C170.048 104.126 164.639 101.87 158.009 98.9846C151.379 96.0995 146.055 93.6672 146.105 93.5498C146.156 93.4324 151.564 95.6969 158.186 98.582C164.808 101.467 170.157 103.933 170.098 104.017Z" fill="#263238"/>
<path d="M168.388 107.885C168.388 108.002 162.929 105.746 156.307 102.852C149.686 99.9588 144.353 97.5349 144.404 97.4175C144.454 97.3 149.854 99.5646 156.484 102.45C163.114 105.335 168.472 107.776 168.388 107.885Z" fill="#263238"/>
<path d="M155.153 106.728C154.5 106.586 153.867 106.366 153.266 106.074C152.12 105.621 150.553 104.967 148.835 104.212C147.116 103.457 145.566 102.761 144.454 102.233C143.833 101.988 143.242 101.673 142.693 101.293C143.343 101.446 143.976 101.665 144.58 101.948C145.726 102.409 147.293 103.063 149.012 103.81C150.73 104.556 152.28 105.269 153.392 105.797C154.011 106.044 154.602 106.356 155.153 106.728Z" fill="#263238"/>
<path d="M163.199 115.675C163.157 115.675 163.291 115.373 163.367 114.836C163.46 114.063 163.301 113.281 162.912 112.605C162.598 112.071 162.142 111.634 161.594 111.343C161.047 111.051 160.428 110.915 159.808 110.951C159.188 110.987 158.59 111.194 158.08 111.547C157.57 111.9 157.168 112.387 156.919 112.953C156.669 113.52 156.582 114.144 156.666 114.757C156.751 115.37 157.004 115.947 157.397 116.426C157.791 116.904 158.31 117.265 158.896 117.469C159.483 117.672 160.115 117.71 160.722 117.579C161.486 117.408 162.173 116.993 162.676 116.396C163.03 115.968 163.165 115.675 163.199 115.691C163.145 116 163.011 116.289 162.811 116.53C162.327 117.214 161.613 117.702 160.798 117.906C160.189 118.064 159.55 118.067 158.94 117.913C158.33 117.759 157.769 117.453 157.31 117.025C156.743 116.493 156.355 115.8 156.2 115.04C156.044 114.28 156.128 113.491 156.441 112.781C156.754 112.07 157.28 111.474 157.947 111.073C158.614 110.672 159.389 110.487 160.166 110.542C160.794 110.586 161.4 110.789 161.927 111.131C162.455 111.473 162.887 111.943 163.182 112.496C163.578 113.233 163.701 114.085 163.527 114.903C163.478 115.182 163.366 115.446 163.199 115.675Z" fill="#263238"/>
<path d="M162.793 81.4408L153.534 77.4019L152.949 78.7309L162.208 82.7698L162.793 81.4408Z" fill="#263238"/>
<path d="M144.809 163.525L110.311 162.72L123.15 145.61H156.806L144.809 163.525Z" fill="#00A95F"/>
<path d="M115.432 160.153L142.719 160.984L138.928 155.432L133.562 157.721L129.316 150.416L115.432 160.153Z" fill="#00A95F"/>
<path d="M138.203 150.365C138.203 150.714 138.099 151.054 137.905 151.344C137.71 151.633 137.434 151.859 137.111 151.993C136.787 152.126 136.432 152.161 136.089 152.093C135.745 152.025 135.43 151.857 135.183 151.611C134.935 151.364 134.767 151.051 134.699 150.709C134.63 150.367 134.665 150.013 134.799 149.691C134.933 149.369 135.16 149.094 135.451 148.901C135.742 148.707 136.084 148.604 136.434 148.604C136.903 148.604 137.353 148.79 137.685 149.12C138.016 149.45 138.203 149.898 138.203 150.365Z" fill="#00A95F"/>
<g opacity="0.7">
<path d="M115.43 160.152L142.717 160.982L138.926 155.43L133.56 157.72L129.314 150.415L115.43 160.152Z" fill="#FAFAFA"/>
<path d="M138.203 150.362C138.203 150.711 138.099 151.051 137.905 151.341C137.71 151.631 137.434 151.856 137.111 151.99C136.787 152.123 136.432 152.158 136.089 152.09C135.745 152.022 135.43 151.854 135.183 151.608C134.935 151.361 134.767 151.048 134.699 150.706C134.63 150.364 134.665 150.01 134.799 149.688C134.933 149.367 135.16 149.091 135.451 148.898C135.742 148.704 136.084 148.601 136.434 148.601C136.903 148.601 137.353 148.787 137.685 149.117C138.016 149.447 138.203 149.895 138.203 150.362Z" fill="#FAFAFA"/>
</g>
<path d="M51.2458 62.954L20.8588 76.3901L20.1343 53.3423L50.4876 39.0591L51.2458 62.954Z" fill="#00A95F"/>
<path opacity="0.7" d="M51.2458 62.954L20.8588 76.3901L20.1343 53.3423L50.4876 39.0591L51.2458 62.954Z" fill="#FAFAFA"/>
<path d="M22.2075 72.3409L49.7807 59.5421L40.8171 54.3589L37.3715 60.3976L27.2538 55.5583L22.2075 72.3409Z" fill="#00A95F"/>
<path d="M37.8255 54.36C37.8255 54.654 37.7378 54.9413 37.5736 55.1857C37.4094 55.43 37.176 55.6202 36.9031 55.7323C36.6301 55.8444 36.3299 55.8734 36.0404 55.8154C35.7509 55.7574 35.4852 55.6152 35.277 55.4067C35.0688 55.1983 34.9275 54.933 34.8709 54.6445C34.8143 54.356 34.8451 54.0572 34.9592 53.7861C35.0734 53.515 35.2658 53.2837 35.5121 53.1216C35.7584 52.9595 36.0475 52.8739 36.3428 52.8755C36.5382 52.8755 36.7317 52.914 36.9122 52.9887C37.0926 53.0634 37.2564 53.1729 37.3942 53.3108C37.532 53.4488 37.6411 53.6125 37.7151 53.7926C37.7891 53.9726 37.8266 54.1655 37.8255 54.36Z" fill="#00A95F"/>
</svg>
