<svg width="195" height="235" viewBox="0 0 195 235" fill="none" xmlns="http://www.w3.org/2000/svg">
<g clip-path="url(#clip0_434_17208)">
<path d="M54.1579 74.2637L52.3359 275.999H133.458V77.0146L54.1579 74.2637Z" fill="#455A64"/>
<path d="M56.7031 107.788V136.069H95.1271V109.13L56.7031 107.788Z" fill="#263238"/>
<path d="M97.8585 75.7812L97.1348 275.999H133.456V77.0142L97.8585 75.7812Z" fill="#263238"/>
<path d="M56.7031 76.7549V105.036H95.1271V78.0884L56.7031 76.7549Z" fill="#263238"/>
<path d="M69.9512 84.5307V88.7075H81.7091V84.1533L69.9512 84.5307Z" fill="#263238"/>
<path d="M82.0922 92.2207H69.9512V93.9317H82.0922V92.2207Z" fill="#263238"/>
<g opacity="0.4">
<path d="M69.9512 84.5307V88.7075H81.7091V84.1533L69.9512 84.5307Z" fill="black"/>
<path d="M82.0922 92.2207H69.9512V93.9317H82.0922V92.2207Z" fill="black"/>
</g>
<path d="M56.7031 175.847V204.12H95.1271V177.18L56.7031 175.847Z" fill="#263238"/>
<path d="M69.9512 183.623V187.799H81.7091V183.245L69.9512 183.623Z" fill="#263238"/>
<path d="M82.0922 191.314H69.9512V193.025H82.0922V191.314Z" fill="#263238"/>
<g opacity="0.4">
<path d="M69.9512 183.622V187.798H81.7091V183.244L69.9512 183.622Z" fill="black"/>
<path d="M82.0922 191.312H69.9512V193.023H82.0922V191.312Z" fill="black"/>
</g>
<path d="M56.7031 207.718V235.991H95.1271V209.051L56.7031 207.718Z" fill="#263238"/>
<path d="M69.9512 215.496V219.672H81.7091V215.118L69.9512 215.496Z" fill="#263238"/>
<path d="M82.0922 223.186H69.9512V224.897H82.0922V223.186Z" fill="#263238"/>
<g opacity="0.4">
<path d="M69.9512 215.496V219.672H81.7091V215.118L69.9512 215.496Z" fill="black"/>
<path d="M82.0922 223.186H69.9512V224.897H82.0922V223.186Z" fill="black"/>
</g>
<path d="M55.9709 141.126H17.5469V169.407H55.9709V141.126Z" fill="#455A64"/>
<path d="M31.0508 153.868V157.793H42.102V153.516L31.0508 153.868Z" fill="#263238"/>
<path d="M42.4596 161.094H31.0508V162.696H42.4596V161.094Z" fill="#263238"/>
<g opacity="0.4">
<path d="M31.0508 153.867V157.792H42.102V153.515L31.0508 153.867Z" fill="black"/>
<path d="M42.4596 161.097H31.0508V162.699H42.4596V161.097Z" fill="black"/>
</g>
<path d="M55.9707 141.124L93.8498 140.848L93.1602 169.397H55.9707V141.124Z" fill="#263238"/>
<path opacity="0.4" d="M55.9707 141.124L93.8498 140.848L93.1602 169.397H55.9707V141.124Z" fill="black"/>
<path d="M92.5054 115.443H54.6348V140.84H92.5054V115.443Z" fill="#FAFAFA"/>
<path d="M45.4456 119.495L47.3528 141.075L92.4773 140.849L89.8039 119.738C89.7108 119.081 89.358 118.487 88.8222 118.085C88.2864 117.683 87.6111 117.505 86.9432 117.591L68.7316 119.151L65.6325 116.887C65.3493 116.692 65.0062 116.6 64.6619 116.627L46.6801 118.187C46.3421 118.204 46.0243 118.35 45.7938 118.594C45.5634 118.839 45.4385 119.162 45.4456 119.495Z" fill="#263238"/>
<path d="M45.4456 119.495L47.3528 141.075L92.4773 140.849L89.8039 119.738C89.7108 119.081 89.358 118.487 88.8222 118.085C88.2864 117.683 87.6111 117.505 86.9432 117.591L68.7316 119.151L65.6325 116.887C65.3493 116.692 65.0062 116.6 64.6619 116.627L46.6801 118.187C46.3421 118.204 46.0243 118.35 45.7938 118.594C45.5634 118.839 45.4385 119.162 45.4456 119.495Z" fill="#FF725E"/>
<path d="M32.4985 135.455L31.5449 129.836L73.2894 127.118L76.959 141.066L33.3244 140.848L32.4985 135.455Z" fill="#FAFAFA"/>
<path d="M27.1691 132.721L27.9098 141.108H72.5576L71.5018 132.948C71.4087 132.292 71.057 131.699 70.5232 131.297C69.9893 130.895 69.3161 130.717 68.6496 130.801L50.438 132.361L47.3304 130.096C47.0511 129.9 46.7101 129.808 46.3683 129.836L28.3866 131.404C28.0485 131.422 27.7311 131.57 27.5031 131.816C27.2752 132.063 27.1551 132.388 27.1691 132.721Z" fill="#FF725E"/>
<path opacity="0.7" d="M27.1691 132.721L27.9098 141.108H72.5576L71.5018 132.948C71.4087 132.292 71.057 131.699 70.5232 131.297C69.9893 130.895 69.3161 130.717 68.6496 130.801L50.438 132.361L47.3304 130.096C47.0511 129.9 46.7101 129.808 46.3683 129.836L28.3866 131.404C28.0485 131.422 27.7311 131.57 27.5031 131.816C27.2752 132.063 27.1551 132.388 27.1691 132.721Z" fill="#FAFAFA"/>
<path d="M74.2852 130.887H80.245C80.4705 130.887 80.6929 130.938 80.8957 131.035C81.0986 131.132 81.2766 131.272 81.4165 131.447C81.5565 131.621 81.6547 131.824 81.704 132.04C81.7532 132.257 81.7522 132.482 81.7009 132.698L79.7767 140.842H76.9927L74.2852 130.887Z" fill="#263238"/>
<path d="M148.128 56.2775L121.641 61.8717C121.417 61.9178 121.186 61.9189 120.962 61.875C120.737 61.8311 120.524 61.7432 120.335 61.6164C120.146 61.4895 119.984 61.3265 119.861 61.1369C119.737 60.9473 119.653 60.7351 119.615 60.513L116.039 42.9C115.94 42.4531 116.023 41.9857 116.272 41.5993C116.521 41.213 116.914 40.939 117.367 40.8368L143.846 35.2258C144.07 35.1798 144.301 35.1786 144.525 35.2225C144.75 35.2664 144.963 35.3544 145.152 35.4812C145.341 35.608 145.502 35.7711 145.626 35.9606C145.75 36.1502 145.833 36.3624 145.872 36.5845L149.456 54.1975C149.554 54.6463 149.47 55.1149 149.221 55.5034C148.973 55.8918 148.581 56.1696 148.128 56.2775Z" fill="#FF725E"/>
<path d="M133.475 46.5206L137.527 47.9045L134.326 50.798L131.125 53.6916L130.273 49.4141L129.422 45.1367L133.475 46.5206Z" fill="#FAFAFA"/>
<path d="M97.9464 47.0495L98.2103 46.7056C98.3976 46.4876 98.6616 46.1605 99.0021 45.7159C99.9919 44.4224 100.848 43.0344 101.556 41.5727C102.066 40.5188 102.493 39.4281 102.833 38.3101C103.2 37.0856 103.489 35.7185 103.855 34.2675C104.57 31.3488 105.388 28.0359 106.282 24.3707C107.176 20.7056 108.18 16.6881 109.236 12.3855C109.479 11.2744 109.792 10.1792 110.173 9.10617C110.591 8.00519 111.115 6.94635 111.739 5.94423C112.392 4.91408 113.151 3.95288 114.004 3.07584C114.436 2.62823 114.894 2.20538 115.375 1.80938H115.417C115.596 2.49712 115.417 1.9939 115.485 2.14487H115.375L115.145 2.08616L114.685 1.97712L113.766 1.75906L98.338 -1.94804L90.173 -3.91902L86.0011 -4.92547L83.8896 -5.4287H83.7619H83.6938C83.6513 -5.4287 83.9152 -5.4287 83.7875 -5.4287L83.5406 -5.33644L83.0382 -5.14354C82.7232 -4.98419 82.3827 -4.85838 82.0762 -4.68225C79.5441 -3.36888 77.5061 -1.29067 76.261 1.24744C75.6705 2.49666 75.2469 3.81606 75.0009 5.17262C74.6859 6.51455 74.3709 7.8481 74.0644 9.17327C72.8214 14.4572 71.6294 19.5565 70.4885 24.421L69.6371 28.0191C68.7559 31.4369 67.2026 34.6512 65.065 37.4798C64.7245 37.9243 64.3754 38.3185 64.0178 38.7714L63.8816 38.9308L63.8135 39.0146C63.6347 38.4359 63.8135 38.8553 63.7454 38.7295H63.822L64.2222 38.8301L65.014 39.023L68.1131 39.7779L73.9537 41.2037L91.5438 45.5146L96.3287 46.714L97.5632 47.0327L97.9889 47.1585L97.5547 47.0747L96.3032 46.7979L91.5097 45.6824L73.8771 41.4888L68.0364 40.0966L64.9288 39.3501L64.137 39.1656L63.7368 39.065H63.6602C63.6091 38.9391 63.7283 39.3501 63.541 38.7714L63.6091 38.6959L63.7368 38.5366C64.0944 38.1256 64.435 37.6979 64.767 37.2533C66.1411 35.4207 67.2714 33.4223 68.1301 31.3069C68.9817 29.0366 69.6368 26.6995 70.0883 24.3204C71.2207 19.4559 72.4127 14.3565 73.6387 9.06424C73.9537 7.73907 74.2602 6.40552 74.5752 5.06358C74.8257 3.67802 75.2579 2.33039 75.8609 1.05454C77.1063 -1.61876 79.1973 -3.82273 81.8207 -5.22741C82.1443 -5.41193 82.4933 -5.54612 82.8254 -5.69709L83.3448 -5.89838L83.6002 -5.99902H83.7534H83.8215H83.9578L86.0607 -5.48741L90.2326 -4.3887L98.3976 -2.41773L113.817 1.31454L114.736 1.54099L115.196 1.65002L115.426 1.70873H115.536C115.579 1.86809 115.485 1.36487 115.639 2.061H115.596C115.128 2.45519 114.677 2.8997 114.251 3.30229C112.602 4.98549 111.322 6.98358 110.488 9.17327C110.112 10.2301 109.802 11.3085 109.56 12.4023L106.554 24.3791L104.068 34.2591C103.685 35.7101 103.378 37.0688 102.995 38.3017C102.644 39.4262 102.205 40.5225 101.684 41.5811C100.963 43.0429 100.084 44.4236 99.0617 45.6992C98.7171 46.1704 98.3447 46.6213 97.9464 47.0495Z" fill="#263238"/>
<path d="M103.592 11.0774C103.269 11.0747 102.948 11.0266 102.639 10.9348C102.034 10.8174 101.157 10.6329 100.084 10.398C97.9302 9.91996 94.9759 9.23222 91.6894 8.41028C88.403 7.58834 85.4742 6.73285 83.3542 6.14576C82.2899 5.83543 81.4385 5.56705 80.851 5.37414C80.5388 5.29942 80.2381 5.18376 79.957 5.03027C80.2777 5.05949 80.5944 5.12132 80.9021 5.21478L83.4563 5.85221L91.8086 7.98254L100.178 10.0961L102.732 10.7754C103.028 10.8473 103.317 10.9484 103.592 11.0774Z" fill="#263238"/>
<path d="M103.003 14.592C102.681 14.5784 102.361 14.5306 102.049 14.4495C101.436 14.332 100.568 14.1475 99.4948 13.9043C97.3408 13.4262 94.3864 12.7385 91.0915 11.9165C87.7965 11.0946 84.8847 10.2391 82.7647 9.66041C81.7004 9.3417 80.849 9.0817 80.2616 8.8888C79.9655 8.80625 79.6798 8.69089 79.4102 8.54492C79.731 8.56784 80.0481 8.62693 80.3552 8.72105L82.9094 9.35847L91.2617 11.4972L99.597 13.6107L102.151 14.2817C102.446 14.3541 102.731 14.4581 103.003 14.592Z" fill="#263238"/>
<path d="M102.153 18.0963C101.83 18.0943 101.509 18.0491 101.199 17.9621C100.586 17.8447 99.7176 17.6518 98.6449 17.417C96.4908 16.9389 93.5364 16.2512 90.2415 15.4292C86.9465 14.6073 84.0347 13.7937 81.9147 13.1647C80.8505 12.8544 79.999 12.5944 79.4116 12.4015C79.1024 12.3173 78.8029 12.202 78.5176 12.0576C78.8391 12.0751 79.1569 12.1344 79.4627 12.2337L82.0169 12.8712L90.3692 15.0015L98.747 17.115L101.301 17.7944C101.594 17.8682 101.879 17.9693 102.153 18.0963Z" fill="#263238"/>
<path d="M101.41 21.6106C101.088 21.6023 100.767 21.5544 100.457 21.468C99.8524 21.3506 98.9754 21.1661 97.9027 20.9312C95.7486 20.4532 92.7942 19.7654 89.5078 18.9351C86.2213 18.1048 83.2925 17.308 81.1725 16.679C80.1168 16.3686 79.2654 16.1002 78.6779 15.9073C78.3633 15.8313 78.06 15.7157 77.7754 15.5635C78.0961 15.5919 78.413 15.6538 78.7205 15.748L81.2747 16.377L89.6355 18.5157L97.9963 20.6293L100.551 21.3086C100.847 21.3786 101.136 21.4799 101.41 21.6106Z" fill="#263238"/>
<path d="M100.263 25.1251C99.9413 25.1114 99.6216 25.0636 99.3098 24.9825C98.6968 24.8651 97.8284 24.6805 96.7556 24.4373C94.6016 23.9593 91.6472 23.2715 88.3522 22.4496C85.0573 21.6276 82.1455 20.7722 80.0255 20.1851C78.9612 19.8747 78.1098 19.6147 77.5223 19.4218C77.2065 19.3489 76.9007 19.2391 76.6113 19.0947C76.9328 19.1122 77.2506 19.1715 77.5564 19.2709L80.1106 19.9083L88.4629 22.047L96.8322 24.1522L99.3865 24.8315C99.6897 24.8941 99.9842 24.9927 100.263 25.1251Z" fill="#263238"/>
<path d="M99.4261 28.6311C99.1029 28.6284 98.7819 28.5804 98.4725 28.4885C97.868 28.3711 96.991 28.1866 95.9183 27.9517C93.7642 27.4737 90.8098 26.7859 87.5234 25.964C84.237 25.1421 81.3081 24.2866 79.1881 23.6995C78.1324 23.3891 77.2725 23.1208 76.685 22.9279C76.3727 22.8531 76.0721 22.7375 75.791 22.584C76.1117 22.6132 76.4284 22.675 76.7361 22.7685L79.2903 23.4059L87.6511 25.5362L96.0119 27.6498L98.5662 28.3292C98.8624 28.401 99.1505 28.5021 99.4261 28.6311Z" fill="#263238"/>
<path d="M98.3718 32.2711C98.0492 32.2691 97.7284 32.2239 97.4182 32.137C96.8137 32.0195 95.9368 31.835 94.864 31.5918C92.7099 31.1137 89.7555 30.426 86.4606 29.604C83.1657 28.7821 80.2538 27.9266 78.1338 27.3395C77.0781 27.0292 76.2182 26.7692 75.6307 26.5763C75.3346 26.4937 75.049 26.3784 74.7793 26.2324C75.1008 26.2499 75.4186 26.3092 75.7243 26.4086L78.2786 27.046L86.6309 29.1847L95.0002 31.2899L97.5544 31.9692C97.8361 32.0436 98.1099 32.1448 98.3718 32.2711Z" fill="#263238"/>
<path d="M97.5882 35.7718C96.8975 35.7321 96.2128 35.6224 95.5448 35.4447C94.2933 35.1847 92.5734 34.8073 90.6833 34.3293C88.7932 33.8512 87.1074 33.3312 85.8814 32.9705C85.2067 32.8122 84.5526 32.5787 83.9316 32.2744C84.6213 32.3406 85.3028 32.4726 85.9665 32.6686C87.2095 32.9622 88.9124 33.4235 90.794 33.9099C92.6756 34.3964 94.3869 34.8073 95.6214 35.1428C96.298 35.2826 96.9574 35.4935 97.5882 35.7718Z" fill="#263238"/>
<path d="M42.7429 118.81L13.6503 130.066C11.3487 116.149 6.83783 102.677 0.283203 90.1429L18.1628 82.5945C19.7945 81.9051 21.5522 81.5522 23.3277 81.5577C25.1032 81.5631 26.8587 81.9267 28.486 82.6261C30.1134 83.3255 31.578 84.3458 32.7898 85.6242C34.0015 86.9025 34.9345 88.4118 35.5315 90.059C38.9599 99.3647 41.3772 109.002 42.7429 118.81Z" fill="#FAFAFA"/>
<path d="M42.7406 118.81C42.7406 118.81 42.7406 118.684 42.6725 118.449C42.6044 118.214 42.5704 117.854 42.5022 117.417C42.349 116.512 42.1276 115.161 41.8041 113.434C40.8842 108.55 39.7134 103.716 38.2963 98.949C37.8365 97.4393 37.3512 95.8541 36.7978 94.227C36.2444 92.5999 35.691 90.8722 34.9588 89.1948C34.1804 87.4659 33.0163 85.9322 31.5531 84.7077C29.9793 83.4236 28.1265 82.5139 26.1382 82.0489C24.0452 81.5825 21.8667 81.6431 19.8037 82.2251C19.2673 82.3593 18.765 82.5857 18.2456 82.7618L16.6961 83.4244L13.5374 84.758L0.383131 90.3354L0.493818 90.0419C0.723698 90.4948 0.970606 90.9896 1.22603 91.4844C4.49354 97.9748 7.24613 104.705 9.45913 111.614C11.3762 117.65 12.8417 123.817 13.8439 130.065L13.6055 129.931L34.7374 121.854L40.6462 119.615L42.2128 119.036C42.5618 118.902 42.7577 118.843 42.7577 118.843C42.7577 118.843 42.5959 118.927 42.2553 119.061L40.7398 119.674L34.8907 121.955L13.7332 130.233L13.5289 130.317V130.09C12.4993 123.866 11.0197 117.722 9.10154 111.706C6.86779 104.832 4.10402 98.1363 0.834375 91.6773L0.110674 90.2348L0 90.0251L0.221361 89.9412L13.3756 84.3722L16.5343 83.0302L18.0839 82.376C18.6288 82.1915 19.1481 81.9651 19.693 81.8225C21.8275 81.2304 24.0788 81.1756 26.2404 81.6631C28.2872 82.1442 30.1931 83.0858 31.8086 84.4141C33.3213 85.6766 34.5212 87.263 35.3164 89.0522C36.0656 90.7799 36.585 92.4909 37.1469 94.1264C37.7088 95.7619 38.1686 97.347 38.6198 98.8567C40.0217 103.64 41.1586 108.495 42.0255 113.4C42.3149 115.145 42.5193 116.486 42.6385 117.417C42.6896 117.862 42.7321 118.206 42.7662 118.466C42.7688 118.581 42.7602 118.696 42.7406 118.81Z" fill="#263238"/>
<path d="M19.1289 82.2013C19.1289 82.2013 23.4711 90.9742 23.0879 91.2845C22.7048 91.5948 33.8668 87.1832 34.003 87.0909C34.037 87.1161 28.2304 79.4838 19.1289 82.2013Z" fill="#263238"/>
<path d="M17.5048 94.0254C16.2598 94.7835 14.9388 95.413 13.5628 95.9041C12.2469 96.5266 10.8725 97.021 9.45898 97.3802C10.6992 96.619 12.0177 95.9892 13.3925 95.5015C14.7104 94.8769 16.0879 94.3824 17.5048 94.0254Z" fill="#263238"/>
<path d="M31.9468 92.7658C31.9979 92.8749 27.2811 95.131 21.4149 97.7981C15.5487 100.465 10.7468 102.537 10.6957 102.428C10.6446 102.319 15.3614 100.071 21.2276 97.3955C27.0938 94.7201 31.8958 92.6568 31.9468 92.7658Z" fill="#263238"/>
<path d="M33.9039 97.9334C33.955 98.0425 29.2382 100.29 23.372 102.966C17.5058 105.641 12.7038 107.713 12.6528 107.604C12.6017 107.495 17.3185 105.247 23.1847 102.572C29.0509 99.896 33.8528 97.816 33.9039 97.9334Z" fill="#263238"/>
<path d="M35.9058 103.059C35.9569 103.168 31.2401 105.415 25.3739 108.091C19.5077 110.766 14.7058 112.83 14.6547 112.721C14.6036 112.612 19.3204 110.364 25.1866 107.688C31.0528 105.013 35.8548 102.966 35.9058 103.059Z" fill="#263238"/>
<path d="M30.276 112.58C29.6523 112.983 28.9909 113.325 28.3007 113.603C27.0576 114.182 25.3293 114.962 23.4051 115.792C20.3911 117.101 17.8028 118.166 16.8237 118.493L16.6875 118.543V118.418C16.7556 118.107 16.8067 117.965 16.8322 117.965C16.8578 117.965 16.8322 118.124 16.8322 118.443L16.7301 118.359C17.6326 117.872 20.1357 116.681 23.1923 115.398C25.1164 114.559 26.8703 113.83 28.1474 113.318C28.828 112.998 29.5417 112.75 30.276 112.58Z" fill="#263238"/>
<path d="M165.036 118.064L132.742 104.309C136.139 101.547 138.799 98.0081 140.49 94.0011L149.915 71.7082C150.809 69.6747 152.204 67.8928 153.973 66.5236C155.742 65.1544 157.83 64.2411 160.047 63.8662L189.999 76.6482C186.759 78.5009 184.207 81.329 182.72 84.7166L171.967 109.148C170.427 112.631 168.048 115.692 165.036 118.064Z" fill="#FF725E"/>
<path opacity="0.7" d="M165.036 118.064L132.742 104.309C136.139 101.547 138.799 98.0081 140.49 94.0011L149.915 71.7082C150.809 69.6747 152.204 67.8928 153.973 66.5236C155.742 65.1544 157.83 64.2411 160.047 63.8662L189.999 76.6482C186.759 78.5009 184.207 81.329 182.72 84.7166L171.967 109.148C170.427 112.631 168.048 115.692 165.036 118.064Z" fill="#FAFAFA"/>
<path d="M176.675 85.884C176.624 85.9931 171.337 83.8208 164.858 81.0195C158.379 78.2182 153.168 75.8698 153.219 75.7608C153.27 75.6517 158.557 77.824 165.037 80.6253C171.516 83.4266 176.726 85.775 176.675 85.884Z" fill="#263238"/>
<path d="M175.371 90.2698C175.32 90.3788 169.854 88.1226 163.154 85.2375C156.453 82.3523 151.072 79.9117 151.123 79.8026C151.174 79.6936 156.641 81.9413 163.333 84.8349C170.025 87.7285 175.371 90.1607 175.371 90.2698Z" fill="#263238"/>
<path d="M173.672 94.1432C173.63 94.2522 168.155 91.9961 161.463 89.1109C154.771 86.2258 149.382 83.7935 149.424 83.6845C149.467 83.5754 154.941 85.8232 161.642 88.7167C168.342 91.6103 173.672 94.0258 173.672 94.1432Z" fill="#263238"/>
<path d="M171.907 98.0164C171.856 98.1255 166.389 95.8693 159.689 92.9842C152.988 90.099 147.607 87.6667 147.659 87.5493C147.71 87.4319 153.176 89.6964 159.868 92.5816C166.56 95.4667 171.966 97.9325 171.907 98.0164Z" fill="#263238"/>
<path d="M170.179 101.885C170.179 102.002 164.662 99.7459 157.97 96.8523C151.278 93.9588 145.889 91.5349 145.94 91.4175C145.991 91.3 151.448 93.5646 158.149 96.4497C164.85 99.3349 170.265 101.776 170.179 101.885Z" fill="#263238"/>
<path d="M156.803 100.728C156.143 100.585 155.503 100.365 154.896 100.074C153.738 99.6207 152.155 98.9665 150.418 98.2117C148.681 97.4568 147.114 96.7607 145.99 96.2323C145.362 95.9877 144.765 95.6725 144.211 95.293C144.868 95.4456 145.507 95.6648 146.118 95.9472C147.276 96.4085 148.86 97.0627 150.596 97.8091C152.333 98.5556 153.9 99.2685 155.024 99.7968C155.649 100.043 156.246 100.355 156.803 100.728Z" fill="#263238"/>
<path d="M164.936 109.675C164.893 109.675 165.029 109.373 165.106 108.836C165.2 108.063 165.039 107.281 164.646 106.605C164.329 106.071 163.868 105.634 163.314 105.343C162.761 105.051 162.136 104.915 161.509 104.951C160.882 104.987 160.278 105.194 159.762 105.547C159.247 105.9 158.841 106.387 158.589 106.953C158.336 107.52 158.248 108.144 158.334 108.757C158.419 109.37 158.675 109.947 159.072 110.426C159.47 110.904 159.995 111.265 160.588 111.469C161.181 111.672 161.819 111.71 162.433 111.579C163.205 111.408 163.899 110.993 164.408 110.396C164.765 109.968 164.902 109.675 164.936 109.691C164.881 110 164.746 110.289 164.544 110.53C164.055 111.214 163.333 111.702 162.509 111.906C161.894 112.064 161.248 112.067 160.632 111.913C160.015 111.759 159.449 111.453 158.984 111.025C158.411 110.493 158.019 109.8 157.862 109.04C157.705 108.28 157.79 107.491 158.106 106.781C158.422 106.07 158.954 105.474 159.628 105.073C160.302 104.672 161.085 104.487 161.871 104.542C162.505 104.586 163.118 104.789 163.651 105.131C164.184 105.473 164.62 105.943 164.919 106.496C165.319 107.233 165.443 108.085 165.268 108.903C165.218 109.182 165.105 109.446 164.936 109.675Z" fill="#263238"/>
<path d="M164.524 75.4404L155.166 71.4014L154.575 72.7304L163.933 76.7694L164.524 75.4404Z" fill="#263238"/>
<path d="M146.35 157.525L111.484 156.72L124.46 139.61H158.474L146.35 157.525Z" fill="#FF725E"/>
<path d="M116.66 154.153L144.237 154.984L140.406 149.432L134.982 151.721L130.691 144.416L116.66 154.153Z" fill="#FF725E"/>
<path d="M139.674 144.366C139.674 144.714 139.569 145.055 139.372 145.344C139.176 145.634 138.897 145.86 138.57 145.993C138.243 146.126 137.884 146.161 137.537 146.093C137.19 146.025 136.871 145.858 136.621 145.611C136.371 145.365 136.201 145.051 136.132 144.709C136.063 144.368 136.098 144.014 136.234 143.692C136.369 143.37 136.598 143.095 136.892 142.901C137.186 142.708 137.532 142.604 137.886 142.604C138.36 142.604 138.815 142.79 139.15 143.12C139.485 143.451 139.674 143.899 139.674 144.366Z" fill="#FF725E"/>
<g opacity="0.7">
<path d="M116.658 154.152L144.235 154.982L140.404 149.43L134.98 151.719L130.689 144.414L116.658 154.152Z" fill="#FAFAFA"/>
<path d="M139.674 144.362C139.674 144.71 139.569 145.051 139.372 145.34C139.176 145.63 138.897 145.856 138.57 145.989C138.243 146.122 137.884 146.157 137.537 146.089C137.19 146.021 136.871 145.854 136.621 145.607C136.371 145.361 136.201 145.047 136.132 144.705C136.063 144.364 136.098 144.01 136.234 143.688C136.369 143.366 136.598 143.091 136.892 142.897C137.186 142.704 137.532 142.601 137.886 142.601C138.36 142.601 138.815 142.786 139.15 143.116C139.485 143.447 139.674 143.895 139.674 144.362Z" fill="#FAFAFA"/>
</g>
<path d="M51.7901 56.9535L21.0799 70.3897L20.3477 47.3418L51.0239 33.0586L51.7901 56.9535Z" fill="#FF725E"/>
<path opacity="0.7" d="M51.7901 56.9535L21.0799 70.3897L20.3477 47.3418L51.0239 33.0586L51.7901 56.9535Z" fill="#FAFAFA"/>
<path d="M22.4434 66.3414L50.3099 53.5426L41.2509 48.3594L37.7687 54.3981L27.5433 49.5587L22.4434 66.3414Z" fill="#FF725E"/>
<path d="M38.2288 48.3595C38.2288 48.6535 38.1402 48.9409 37.9742 49.1852C37.8083 49.4295 37.5724 49.6197 37.2965 49.7318C37.0207 49.844 36.7172 49.8729 36.4247 49.8149C36.1321 49.7569 35.8636 49.6147 35.6532 49.4063C35.4428 49.1978 35.3 48.9325 35.2428 48.644C35.1856 48.3555 35.2167 48.0567 35.332 47.7856C35.4474 47.5145 35.6419 47.2832 35.8908 47.1211C36.1397 46.959 36.4319 46.8734 36.7304 46.875C36.9279 46.875 37.1234 46.9135 37.3058 46.9882C37.4881 47.0629 37.6537 47.1724 37.793 47.3103C37.9322 47.4483 38.0424 47.612 38.1172 47.7921C38.192 47.9721 38.2299 48.165 38.2288 48.3595Z" fill="#FF725E"/>
</g>
<defs>
<clipPath id="clip0_434_17208">
<rect width="195" height="235" fill="white"/>
</clipPath>
</defs>
</svg>
