<svg width="190" height="235" viewBox="0 0 190 235" fill="none" xmlns="http://www.w3.org/2000/svg">
<path d="M54.1584 77.2637L52.3364 278.999H133.458V80.0146L54.1584 77.2637Z" fill="#455A64"/>
<path d="M56.7036 110.788V139.069H95.1276V112.13L56.7036 110.788Z" fill="#263238"/>
<path d="M97.8604 78.7812L97.1367 278.999H133.458V80.0142L97.8604 78.7812Z" fill="#263238"/>
<path d="M56.7036 79.7549V108.036H95.1276V81.0884L56.7036 79.7549Z" fill="#263238"/>
<path d="M69.9517 87.5307V91.7075H81.7096V87.1533L69.9517 87.5307Z" fill="#263238"/>
<path d="M82.0927 95.2207H69.9517V96.9317H82.0927V95.2207Z" fill="#263238"/>
<g opacity="0.4">
<path d="M69.9512 87.5307V91.7075H81.7091V87.1533L69.9512 87.5307Z" fill="black"/>
<path d="M82.0922 95.2207H69.9512V96.9317H82.0922V95.2207Z" fill="black"/>
</g>
<path d="M56.7036 178.847V207.12H95.1276V180.18L56.7036 178.847Z" fill="#263238"/>
<path d="M69.9517 186.623V190.799H81.7096V186.245L69.9517 186.623Z" fill="#263238"/>
<path d="M82.0927 194.314H69.9517V196.025H82.0927V194.314Z" fill="#263238"/>
<g opacity="0.4">
<path d="M69.9531 186.622V190.798H81.7111V186.244L69.9531 186.622Z" fill="black"/>
<path d="M82.0942 194.312H69.9531V196.023H82.0942V194.312Z" fill="black"/>
</g>
<path d="M56.7036 210.718V238.991H95.1276V212.052L56.7036 210.718Z" fill="#263238"/>
<path d="M69.9517 218.496V222.673H81.7096V218.119L69.9517 218.496Z" fill="#263238"/>
<path d="M82.0927 226.186H69.9517V227.897H82.0927V226.186Z" fill="#263238"/>
<g opacity="0.4">
<path d="M69.9512 218.495V222.672H81.7091V218.118L69.9512 218.495Z" fill="black"/>
<path d="M82.0922 226.185H69.9512V227.896H82.0922V226.185Z" fill="black"/>
</g>
<path d="M55.9718 144.125H17.5479V172.407H55.9718V144.125Z" fill="#455A64"/>
<path d="M31.0513 156.867V160.793H42.1025V156.515L31.0513 156.867Z" fill="#263238"/>
<path d="M42.4601 164.094H31.0513V165.696H42.4601V164.094Z" fill="#263238"/>
<g opacity="0.4">
<path d="M31.0513 156.867V160.792H42.1025V156.515L31.0513 156.867Z" fill="black"/>
<path d="M42.4601 164.097H31.0513V165.699H42.4601V164.097Z" fill="black"/>
</g>
<path d="M55.9722 144.124L93.8513 143.847L93.1616 172.397H55.9722V144.124Z" fill="#263238"/>
<path opacity="0.4" d="M55.9722 144.124L93.8513 143.847L93.1616 172.397H55.9722V144.124Z" fill="black"/>
<path d="M92.5063 118.443H54.6357V143.84H92.5063V118.443Z" fill="#FAFAFA"/>
<path d="M45.4471 122.495L47.3542 144.075L92.4788 143.849L89.8054 122.738C89.7123 122.081 89.3594 121.487 88.8236 121.085C88.2879 120.683 87.6126 120.505 86.9447 120.591L68.7331 122.151L65.6339 119.887C65.3508 119.692 65.0077 119.6 64.6633 119.627L46.6816 121.187C46.3436 121.204 46.0257 121.35 45.7953 121.594C45.5649 121.839 45.44 122.162 45.4471 122.495Z" fill="#263238"/>
<path d="M45.4471 122.495L47.3542 144.075L92.4788 143.849L89.8054 122.738C89.7123 122.081 89.3594 121.487 88.8236 121.085C88.2879 120.683 87.6126 120.505 86.9447 120.591L68.7331 122.151L65.6339 119.887C65.3508 119.692 65.0077 119.6 64.6633 119.627L46.6816 121.187C46.3436 121.204 46.0257 121.35 45.7953 121.594C45.5649 121.839 45.44 122.162 45.4471 122.495Z" fill="#00A95F"/>
<path d="M32.499 138.455L31.5454 132.836L73.2899 130.118L76.9595 144.066L33.3248 143.848L32.499 138.455Z" fill="#FAFAFA"/>
<path d="M27.1695 135.721L27.9103 144.108H72.5581L71.5023 135.947C71.4092 135.292 71.0575 134.699 70.5236 134.297C69.9898 133.895 69.3166 133.717 68.6501 133.8L50.4385 135.36L47.3309 133.096C47.0516 132.899 46.7106 132.807 46.3688 132.836L28.3871 134.404C28.049 134.421 27.7316 134.569 27.5036 134.816C27.2757 135.062 27.1556 135.388 27.1695 135.721Z" fill="#00A95F"/>
<path opacity="0.7" d="M27.1695 135.721L27.9103 144.108H72.5581L71.5023 135.947C71.4092 135.292 71.0575 134.699 70.5236 134.297C69.9898 133.895 69.3166 133.717 68.6501 133.8L50.4385 135.36L47.3309 133.096C47.0516 132.899 46.7106 132.807 46.3688 132.836L28.3871 134.404C28.049 134.421 27.7316 134.569 27.5036 134.816C27.2757 135.062 27.1556 135.388 27.1695 135.721Z" fill="#FAFAFA"/>
<path d="M74.2852 133.886H80.245C80.4705 133.887 80.6929 133.937 80.8957 134.034C81.0986 134.131 81.2766 134.272 81.4165 134.446C81.5565 134.62 81.6547 134.823 81.704 135.04C81.7532 135.257 81.7522 135.482 81.7009 135.698L79.7767 143.842H76.9927L74.2852 133.886Z" fill="#263238"/>
<path d="M148.128 59.277L121.641 64.8712C121.417 64.9173 121.185 64.9184 120.961 64.8745C120.737 64.8307 120.524 64.7427 120.334 64.6159C120.145 64.489 119.984 64.326 119.86 64.1364C119.736 63.9468 119.653 63.7346 119.614 63.5125L116.038 45.8996C115.939 45.4526 116.023 44.9852 116.272 44.5989C116.52 44.2125 116.914 43.9385 117.366 43.8363L143.845 38.2253C144.069 38.1793 144.3 38.1782 144.525 38.222C144.749 38.2659 144.962 38.3539 145.151 38.4807C145.341 38.6075 145.502 38.7706 145.625 38.9601C145.749 39.1497 145.833 39.3619 145.872 39.5841L149.456 57.197C149.553 57.6458 149.469 58.1144 149.221 58.5029C148.973 58.8914 148.581 59.1691 148.128 59.277Z" fill="#00A95F"/>
<path d="M133.474 49.5206L137.527 50.9045L134.326 53.798L131.124 56.6916L130.273 52.4141L129.421 48.1367L133.474 49.5206Z" fill="#FAFAFA"/>
<path d="M97.9459 50.0495L98.2098 49.7056C98.3971 49.4875 98.6611 49.1605 99.0016 48.7159C99.9914 47.4224 100.847 46.0344 101.556 44.5727C102.065 43.5188 102.492 42.4281 102.833 41.3101C103.199 40.0856 103.489 38.7185 103.855 37.2675C104.57 34.3488 105.387 31.0359 106.281 27.3707C107.175 23.7056 108.18 19.6881 109.236 15.3855C109.479 14.2744 109.791 13.1792 110.172 12.1062C110.59 11.0052 111.115 9.94635 111.739 8.94423C112.392 7.91408 113.151 6.95288 114.003 6.07584C114.435 5.62823 114.893 5.20539 115.374 4.80938H115.417C115.596 5.49712 115.417 4.9939 115.485 5.14487H115.374L115.144 5.08616L114.685 4.97712L113.765 4.75906L98.3375 1.05196L90.1725 -0.919022L86.0007 -1.92547L83.8892 -2.4287H83.7614H83.6933C83.6508 -2.4287 83.9147 -2.4287 83.787 -2.4287L83.5401 -2.33644L83.0377 -2.14354C82.7227 -1.98419 82.3822 -1.85838 82.0757 -1.68225C79.5437 -0.368885 77.5056 1.70933 76.2606 4.24745C75.67 5.49666 75.2464 6.81606 75.0005 8.17262C74.6854 9.51455 74.3704 10.8481 74.0639 12.1733C72.8209 17.4572 71.6289 22.5565 70.488 27.421L69.6366 31.0191C68.7554 34.4369 67.2021 37.6512 65.0646 40.4798C64.724 40.9243 64.3749 41.3185 64.0173 41.7714L63.8811 41.9308L63.813 42.0146C63.6342 41.4359 63.813 41.8553 63.7449 41.7295H63.8215L64.2217 41.8301L65.0135 42.023L68.1126 42.7779L73.9532 44.2037L91.5433 48.5146L96.3282 49.714L97.5628 50.0327L97.9885 50.1585L97.5543 50.0746L96.3027 49.7979L91.5093 48.6824L73.8766 44.4888L68.036 43.0966L64.9283 42.3501L64.1365 42.1656L63.7364 42.065H63.6597C63.6087 41.9391 63.7278 42.3501 63.5405 41.7714L63.6087 41.6959L63.7364 41.5366C64.094 41.1256 64.4345 40.6979 64.7666 40.2533C66.1406 38.4207 67.2709 36.4223 68.1296 34.3069C68.9812 32.0366 69.6363 29.6995 70.0879 27.3204C71.2202 22.4559 72.4122 17.3565 73.6382 12.0642C73.9533 10.7391 74.2597 9.40552 74.5748 8.06358C74.8252 6.67802 75.2574 5.33039 75.8604 4.05454C77.1058 1.38124 79.1968 -0.822734 81.8202 -2.22741C82.1438 -2.41193 82.4928 -2.54612 82.8249 -2.69709L83.3443 -2.89838L83.5997 -2.99902H83.753H83.8211H83.9573L86.0603 -2.48741L90.2321 -1.3887L98.3971 0.582273L113.816 4.31454L114.736 4.54099L115.195 4.65002L115.425 4.70873H115.536C115.579 4.86809 115.485 4.36487 115.638 5.061H115.596C115.127 5.45519 114.676 5.8997 114.25 6.30229C112.602 7.98549 111.321 9.98358 110.487 12.1733C110.112 13.2301 109.802 14.3085 109.559 15.4023L106.554 27.3791L104.068 37.2591C103.684 38.7101 103.378 40.0688 102.995 41.3017C102.643 42.4262 102.205 43.5225 101.684 44.5811C100.963 46.0429 100.084 47.4236 99.0612 48.6992C98.7166 49.1704 98.3442 49.6213 97.9459 50.0495Z" fill="#263238"/>
<path d="M103.591 14.0774C103.268 14.0747 102.947 14.0266 102.638 13.9348C102.033 13.8174 101.156 13.6329 100.083 13.398C97.9293 12.92 94.9749 12.2322 91.6884 11.4103C88.402 10.5883 85.4732 9.73285 83.3532 9.14576C82.2889 8.83543 81.4375 8.56705 80.85 8.37414C80.5378 8.29942 80.2371 8.18376 79.9561 8.03027C80.2767 8.05949 80.5934 8.12132 80.9011 8.21478L83.4554 8.85221L91.8077 10.9825L100.177 13.0961L102.731 13.7754C103.027 13.8473 103.316 13.9484 103.591 14.0774Z" fill="#263238"/>
<path d="M103.002 17.592C102.68 17.5784 102.36 17.5306 102.049 17.4495C101.436 17.332 100.567 17.1475 99.4944 16.9043C97.3403 16.4262 94.3859 15.7385 91.091 14.9165C87.796 14.0946 84.8842 13.2391 82.7642 12.6604C81.7 12.3417 80.8485 12.0817 80.2611 11.8888C79.965 11.8062 79.6794 11.6909 79.4097 11.5449C79.7305 11.5678 80.0476 11.6269 80.3547 11.7211L82.9089 12.3585L91.2612 14.4972L99.5965 16.6107L102.151 17.2817C102.445 17.3541 102.731 17.4581 103.002 17.592Z" fill="#263238"/>
<path d="M102.152 21.0968C101.83 21.0948 101.509 21.0496 101.199 20.9626C100.586 20.8452 99.7171 20.6523 98.6444 20.4175C96.4903 19.9394 93.5359 19.2517 90.241 18.4297C86.946 17.6078 84.0342 16.7942 81.9142 16.1652C80.85 15.8549 79.9986 15.5949 79.4111 15.402C79.1019 15.3178 78.8024 15.2025 78.5171 15.0581C78.8386 15.0756 79.1564 15.1348 79.4622 15.2342L82.0164 15.8717L90.3687 18.002L98.7465 20.1155L101.301 20.7949C101.594 20.8687 101.879 20.9698 102.152 21.0968Z" fill="#263238"/>
<path d="M101.411 24.6111C101.088 24.6028 100.768 24.5549 100.457 24.4685C99.8529 24.3511 98.9759 24.1666 97.9032 23.9317C95.7491 23.4537 92.7947 22.7659 89.5083 21.9356C86.2218 21.1053 83.293 20.3085 81.173 19.6795C80.1172 19.3691 79.2658 19.1007 78.6784 18.9078C78.3638 18.8318 78.0605 18.7162 77.7759 18.564C78.0966 18.5924 78.4134 18.6542 78.721 18.7485L81.2752 19.3775L89.636 21.5162L97.9968 23.6298L100.551 24.3091C100.848 24.3791 101.136 24.4804 101.411 24.6111Z" fill="#263238"/>
<path d="M100.263 28.1251C99.9408 28.1114 99.6211 28.0636 99.3094 27.9825C98.6963 27.8651 97.8279 27.6805 96.7551 27.4373C94.6011 26.9593 91.6467 26.2715 88.3518 25.4496C85.0568 24.6276 82.145 23.7722 80.025 23.1851C78.9607 22.8747 78.1093 22.6147 77.5219 22.4218C77.206 22.3489 76.9002 22.2391 76.6108 22.0947C76.9324 22.1122 77.2501 22.1715 77.5559 22.2709L80.1101 22.9083L88.4624 25.047L96.8318 27.1522L99.386 27.8315C99.6892 27.8941 99.9837 27.9927 100.263 28.1251Z" fill="#263238"/>
<path d="M99.427 31.6316C99.1039 31.6289 98.7828 31.5808 98.4735 31.489C97.869 31.3716 96.992 31.1871 95.9192 30.9522C93.7652 30.4742 90.8108 29.7864 87.5244 28.9645C84.238 28.1425 81.3091 27.2871 79.1891 26.7C78.1334 26.3896 77.2734 26.1212 76.686 25.9283C76.3737 25.8536 76.073 25.738 75.792 25.5845C76.1126 25.6137 76.4293 25.6755 76.737 25.769L79.2913 26.4064L87.6521 28.5367L96.0129 30.6503L98.5671 31.3296C98.8634 31.4015 99.1515 31.5026 99.427 31.6316Z" fill="#263238"/>
<path d="M98.3723 35.2716C98.0497 35.2696 97.7289 35.2244 97.4187 35.1374C96.8142 35.02 95.9373 34.8355 94.8645 34.5923C92.7104 34.1142 89.756 33.4265 86.4611 32.6045C83.1661 31.7826 80.2543 30.9271 78.1343 30.34C77.0786 30.0297 76.2187 29.7697 75.6312 29.5768C75.3351 29.4942 75.0495 29.3789 74.7798 29.2329C75.1013 29.2504 75.419 29.3096 75.7248 29.409L78.2791 30.0465L86.6314 32.1852L95.0007 34.2903L97.5549 34.9697C97.8366 35.0441 98.1103 35.1452 98.3723 35.2716Z" fill="#263238"/>
<path d="M97.5882 38.7718C96.8975 38.7321 96.2128 38.6224 95.5448 38.4447C94.2933 38.1847 92.5734 37.8073 90.6833 37.3293C88.7932 36.8512 87.1074 36.3312 85.8814 35.9705C85.2067 35.8122 84.5526 35.5787 83.9316 35.2744C84.6213 35.3406 85.3028 35.4726 85.9665 35.6686C87.2095 35.9622 88.9124 36.4235 90.794 36.9099C92.6756 37.3964 94.3869 37.8073 95.6214 38.1428C96.298 38.2826 96.9574 38.4935 97.5882 38.7718Z" fill="#263238"/>
<path d="M42.7419 121.81L13.6493 133.065C11.3477 119.149 6.83685 105.677 0.282227 93.1424L18.1618 85.594C19.7935 84.9046 21.5513 84.5517 23.3267 84.5572C25.1022 84.5626 26.8577 84.9263 28.485 85.6256C30.1124 86.325 31.5771 87.3453 32.7888 88.6237C34.0005 89.902 34.9336 91.4113 35.5305 93.0585C38.959 102.364 41.3763 112.002 42.7419 121.81Z" fill="#FAFAFA"/>
<path d="M42.7406 121.81C42.7406 121.81 42.7406 121.684 42.6725 121.45C42.6044 121.215 42.5704 120.854 42.5022 120.418C42.349 119.512 42.1276 118.162 41.8041 116.434C40.8842 111.551 39.7134 106.716 38.2963 101.949C37.8365 100.44 37.3512 98.8546 36.7978 97.2275C36.2444 95.6004 35.691 93.8727 34.9588 92.1953C34.1804 90.4664 33.0163 88.9327 31.5531 87.7081C29.9793 86.4241 28.1265 85.5143 26.1382 85.0494C24.0452 84.583 21.8667 84.6435 19.8037 85.2256C19.2673 85.3598 18.765 85.5862 18.2456 85.7623L16.6961 86.4249L13.5374 87.7585L0.383131 93.3359L0.493818 93.0423C0.723698 93.4953 0.970606 93.9901 1.22603 94.4849C4.49354 100.975 7.24613 107.705 9.45913 114.614C11.3762 120.651 12.8417 126.818 13.8439 133.066L13.6055 132.931L34.7374 124.855L40.6462 122.615L42.2128 122.037C42.5618 121.902 42.7577 121.844 42.7577 121.844C42.7577 121.844 42.5959 121.928 42.2553 122.062L40.7398 122.674L34.8907 124.955L13.7332 133.233L13.5289 133.317V133.091C12.4993 126.867 11.0197 120.723 9.10154 114.706C6.86779 107.832 4.10402 101.137 0.834375 94.6778L0.110674 93.2353L0 93.0256L0.221361 92.9417L13.3756 87.3727L16.5343 86.0307L18.0839 85.3765C18.6288 85.192 19.1481 84.9656 19.693 84.823C21.8275 84.2309 24.0788 84.1761 26.2404 84.6636C28.2872 85.1447 30.1931 86.0863 31.8086 87.4146C33.3213 88.6771 34.5212 90.2635 35.3164 92.0527C36.0656 93.7804 36.585 95.4914 37.1469 97.1269C37.7088 98.7624 38.1686 100.348 38.6198 101.857C40.0217 106.641 41.1586 111.496 42.0255 116.4C42.3149 118.145 42.5193 119.487 42.6385 120.418C42.6896 120.862 42.7321 121.206 42.7662 121.466C42.7688 121.581 42.7602 121.697 42.7406 121.81Z" fill="#263238"/>
<path d="M19.1294 85.2013C19.1294 85.2013 23.4716 93.9742 23.0884 94.2845C22.7053 94.5948 33.8673 90.1832 34.0035 90.0909C34.0375 90.1161 28.2309 82.4838 19.1294 85.2013Z" fill="#263238"/>
<path d="M17.5043 97.0254C16.2593 97.7835 14.9384 98.413 13.5623 98.9041C12.2464 99.5266 10.872 100.021 9.4585 100.38C10.6987 99.619 12.0172 98.9892 13.392 98.5015C14.7099 97.8769 16.0874 97.3824 17.5043 97.0254Z" fill="#263238"/>
<path d="M31.9464 95.7654C31.9974 95.8744 27.2806 98.1305 21.4144 100.798C15.5483 103.465 10.7463 105.536 10.6952 105.427C10.6442 105.318 15.3609 103.071 21.2271 100.395C27.0933 97.7196 31.8953 95.6563 31.9464 95.7654Z" fill="#263238"/>
<path d="M33.9029 100.934C33.954 101.043 29.2372 103.291 23.371 105.966C17.5048 108.642 12.7029 110.713 12.6518 110.604C12.6007 110.495 17.3175 108.248 23.1837 105.572C29.0499 102.897 33.8518 100.817 33.9029 100.934Z" fill="#263238"/>
<path d="M35.9053 106.059C35.9564 106.168 31.2396 108.415 25.3734 111.091C19.5073 113.766 14.7053 115.83 14.6542 115.721C14.6031 115.612 19.3199 113.364 25.1861 110.688C31.0523 108.013 35.8543 105.966 35.9053 106.059Z" fill="#263238"/>
<path d="M30.276 115.58C29.6523 115.983 28.9909 116.325 28.3007 116.603C27.0576 117.182 25.3293 117.962 23.4051 118.792C20.3911 120.101 17.8028 121.166 16.8237 121.493L16.6875 121.543V121.418C16.7556 121.107 16.8067 120.965 16.8322 120.965C16.8578 120.965 16.8322 121.124 16.8322 121.443L16.7301 121.359C17.6326 120.872 20.1357 119.681 23.1923 118.398C25.1164 117.559 26.8703 116.83 28.1474 116.318C28.828 115.998 29.5417 115.75 30.276 115.58Z" fill="#263238"/>
<path d="M165.037 121.063L132.743 107.308C136.14 104.546 138.8 101.008 140.491 97.0006L149.916 74.7077C150.81 72.6742 152.205 70.8923 153.974 69.5231C155.743 68.1539 157.831 67.2406 160.048 66.8657L190 79.6477C186.76 81.5004 184.208 84.3285 182.721 87.7161L171.967 112.148C170.428 115.631 168.049 118.691 165.037 121.063Z" fill="#00A95F"/>
<path opacity="0.7" d="M165.037 121.063L132.743 107.308C136.14 104.546 138.8 101.008 140.491 97.0006L149.916 74.7077C150.81 72.6742 152.205 70.8923 153.974 69.5231C155.743 68.1539 157.831 67.2406 160.048 66.8657L190 79.6477C186.76 81.5004 184.208 84.3285 182.721 87.7161L171.967 112.148C170.428 115.631 168.049 118.691 165.037 121.063Z" fill="#FAFAFA"/>
<path d="M176.676 88.8835C176.625 88.9926 171.338 86.8203 164.858 84.019C158.379 81.2177 153.169 78.8693 153.22 78.7603C153.271 78.6512 158.558 80.8235 165.037 83.6248C171.516 86.4261 176.727 88.7745 176.676 88.8835Z" fill="#263238"/>
<path d="M175.372 93.2698C175.321 93.3788 169.855 91.1226 163.155 88.2375C156.454 85.3523 151.073 82.9117 151.124 82.8026C151.175 82.6936 156.641 84.9413 163.334 87.8349C170.026 90.7285 175.372 93.1607 175.372 93.2698Z" fill="#263238"/>
<path d="M173.672 97.1437C173.63 97.2527 168.155 94.9966 161.463 92.1114C154.771 89.2263 149.382 86.794 149.424 86.685C149.467 86.5759 154.941 88.8237 161.642 91.7172C168.342 94.6108 173.672 97.0263 173.672 97.1437Z" fill="#263238"/>
<path d="M171.908 101.017C171.857 101.126 166.39 98.8698 159.69 95.9846C152.989 93.0995 147.608 90.6672 147.66 90.5498C147.711 90.4324 153.177 92.6969 159.869 95.582C166.561 98.4672 171.967 100.933 171.908 101.017Z" fill="#263238"/>
<path d="M170.179 104.885C170.179 105.002 164.662 102.746 157.97 99.8523C151.278 96.9588 145.889 94.5349 145.94 94.4175C145.991 94.3 151.448 96.5646 158.149 99.4497C164.85 102.335 170.265 104.776 170.179 104.885Z" fill="#263238"/>
<path d="M156.804 103.728C156.144 103.586 155.504 103.366 154.897 103.074C153.739 102.621 152.155 101.967 150.418 101.212C148.681 100.457 147.115 99.7612 145.991 99.2328C145.363 98.9882 144.766 98.673 144.211 98.2935C144.868 98.4461 145.508 98.6653 146.119 98.9477C147.277 99.4089 148.86 100.063 150.597 100.81C152.334 101.556 153.9 102.269 155.024 102.797C155.65 103.044 156.246 103.356 156.804 103.728Z" fill="#263238"/>
<path d="M164.935 112.675C164.893 112.675 165.029 112.373 165.105 111.836C165.2 111.063 165.038 110.281 164.646 109.605C164.328 109.071 163.867 108.634 163.314 108.343C162.76 108.051 162.135 107.915 161.509 107.951C160.882 107.987 160.277 108.194 159.762 108.547C159.246 108.9 158.84 109.387 158.588 109.953C158.336 110.52 158.248 111.144 158.333 111.757C158.419 112.37 158.674 112.947 159.072 113.426C159.47 113.904 159.994 114.265 160.587 114.469C161.18 114.672 161.819 114.71 162.432 114.579C163.204 114.408 163.898 113.993 164.407 113.396C164.765 112.968 164.901 112.675 164.935 112.691C164.88 113 164.745 113.289 164.544 113.53C164.054 114.214 163.332 114.702 162.509 114.906C161.894 115.064 161.248 115.067 160.631 114.913C160.015 114.759 159.448 114.453 158.984 114.025C158.411 113.493 158.019 112.8 157.861 112.04C157.704 111.28 157.79 110.491 158.106 109.781C158.422 109.07 158.954 108.474 159.628 108.073C160.301 107.672 161.085 107.487 161.87 107.542C162.505 107.586 163.117 107.789 163.65 108.131C164.184 108.473 164.62 108.943 164.918 109.496C165.319 110.233 165.442 111.085 165.267 111.903C165.218 112.182 165.104 112.446 164.935 112.675Z" fill="#263238"/>
<path d="M164.525 78.4408L155.167 74.4019L154.576 75.7309L163.934 79.7698L164.525 78.4408Z" fill="#263238"/>
<path d="M146.35 160.525L111.485 159.72L124.46 142.61H158.474L146.35 160.525Z" fill="#00A95F"/>
<path d="M116.66 157.153L144.237 157.984L140.406 152.432L134.982 154.721L130.691 147.416L116.66 157.153Z" fill="#00A95F"/>
<path d="M139.673 147.365C139.673 147.714 139.568 148.054 139.372 148.344C139.175 148.633 138.896 148.859 138.569 148.993C138.243 149.126 137.883 149.161 137.536 149.093C137.189 149.025 136.871 148.857 136.621 148.611C136.371 148.364 136.201 148.051 136.132 147.709C136.063 147.367 136.098 147.013 136.233 146.691C136.369 146.369 136.598 146.094 136.892 145.901C137.186 145.707 137.532 145.604 137.885 145.604C138.359 145.604 138.814 145.79 139.149 146.12C139.485 146.45 139.673 146.898 139.673 147.365Z" fill="#00A95F"/>
<g opacity="0.7">
<path d="M116.658 157.152L144.235 157.982L140.404 152.43L134.98 154.72L130.689 147.415L116.658 157.152Z" fill="#FAFAFA"/>
<path d="M139.673 147.362C139.673 147.711 139.568 148.051 139.372 148.341C139.175 148.631 138.896 148.856 138.569 148.99C138.243 149.123 137.883 149.158 137.536 149.09C137.189 149.022 136.871 148.854 136.621 148.608C136.371 148.361 136.201 148.048 136.132 147.706C136.063 147.364 136.098 147.01 136.233 146.688C136.369 146.367 136.598 146.091 136.892 145.898C137.186 145.704 137.532 145.601 137.885 145.601C138.359 145.601 138.814 145.787 139.149 146.117C139.485 146.447 139.673 146.895 139.673 147.362Z" fill="#FAFAFA"/>
</g>
<path d="M51.7911 59.954L21.0808 73.3901L20.3486 50.3423L51.0248 36.0591L51.7911 59.954Z" fill="#00A95F"/>
<path opacity="0.7" d="M51.7911 59.954L21.0808 73.3901L20.3486 50.3423L51.0248 36.0591L51.7911 59.954Z" fill="#FAFAFA"/>
<path d="M22.4438 69.3409L50.3104 56.5421L41.2514 51.3589L37.7692 57.3976L27.5438 52.5583L22.4438 69.3409Z" fill="#00A95F"/>
<path d="M38.2278 51.36C38.2278 51.654 38.1392 51.9413 37.9733 52.1857C37.8073 52.43 37.5714 52.6202 37.2956 52.7323C37.0197 52.8444 36.7163 52.8734 36.4237 52.8154C36.1312 52.7574 35.8627 52.6152 35.6522 52.4067C35.4418 52.1983 35.299 51.933 35.2418 51.6445C35.1846 51.356 35.2157 51.0572 35.331 50.7861C35.4464 50.515 35.6409 50.2837 35.8898 50.1216C36.1388 49.9595 36.431 49.8739 36.7294 49.8755C36.9269 49.8755 37.1224 49.914 37.3048 49.9887C37.4872 50.0634 37.6527 50.1729 37.792 50.3108C37.9312 50.4488 38.0414 50.6125 38.1162 50.7926C38.191 50.9726 38.229 51.1655 38.2278 51.36Z" fill="#00A95F"/>
</svg>
