<svg width="64" height="64" viewBox="0 0 64 64" fill="none" xmlns="http://www.w3.org/2000/svg">
<path fill-rule="evenodd" clip-rule="evenodd" d="M61.6 44.8002C61.1589 44.8002 60.8 44.4413 60.8 44.0002C60.8 43.559 61.1589 43.2002 61.6 43.2002C62.0411 43.2002 62.4 43.559 62.4 44.0002C62.4 44.4413 62.0411 44.8002 61.6 44.8002Z" fill="#ECECFE"/>
<path fill-rule="evenodd" clip-rule="evenodd" d="M4.00001 47.9999C3.55889 47.9999 3.20001 47.641 3.20001 47.1999C3.20001 46.7587 3.55889 46.3999 4.00001 46.3999C4.44113 46.3999 4.80001 46.7587 4.80001 47.1999C4.80001 47.641 4.44113 47.9999 4.00001 47.9999Z" fill="#ECECFE"/>
<path fill-rule="evenodd" clip-rule="evenodd" d="M60 17.6C59.5589 17.6 59.2 17.2411 59.2 16.8C59.2 16.3588 59.5589 16 60 16C60.4411 16 60.8 16.3588 60.8 16.8C60.8 17.2411 60.4411 17.6 60 17.6Z" fill="#ECECFE"/>
<path fill-rule="evenodd" clip-rule="evenodd" d="M2.39998 20.8002C1.95886 20.8002 1.59998 20.4413 1.59998 20.0002C1.59998 19.559 1.95886 19.2002 2.39998 19.2002C2.8411 19.2002 3.19998 19.559 3.19998 20.0002C3.19998 20.4413 2.8411 20.8002 2.39998 20.8002Z" fill="#ECECFE"/>
<path fill-rule="evenodd" clip-rule="evenodd" d="M13.6 6.3998C13.1589 6.3998 12.8 6.04092 12.8 5.5998C12.8 5.15865 13.1589 4.7998 13.6 4.7998C14.0411 4.7998 14.4 5.15865 14.4 5.5998C14.4 6.04092 14.0411 6.3998 13.6 6.3998Z" fill="#ECECFE"/>
<path fill-rule="evenodd" clip-rule="evenodd" d="M44 38.3999C49.7437 38.3999 54.4 43.0561 54.4 48.7999C54.4 54.5437 49.7437 59.1999 44 59.1999C38.2562 59.1999 33.6 54.5437 33.6 48.7999C33.6 43.0561 38.2562 38.3999 44 38.3999ZM44 39.9999C39.1399 39.9999 35.2 43.9398 35.2 48.7999C35.2 53.66 39.1399 57.5999 44 57.5999C48.8601 57.5999 52.8 53.66 52.8 48.7999C52.8 43.9398 48.8601 39.9999 44 39.9999ZM44 43.1999C44.4102 43.1999 44.7484 43.5087 44.7946 43.9066L44.8 43.9999V47.9999H48.8C49.2418 47.9999 49.6 48.3581 49.6 48.7999C49.6 49.2102 49.2911 49.5483 48.8933 49.5945L48.8 49.5999H44.8V53.5999C44.8 54.0417 44.4418 54.3999 44 54.3999C43.5897 54.3999 43.2516 54.0911 43.2054 53.6932L43.2 53.5999V49.5999H39.2C38.7581 49.5999 38.4 49.2417 38.4 48.7999C38.4 48.3896 38.7088 48.0515 39.1067 48.0053L39.2 47.9999H43.2V43.9999C43.2 43.5581 43.5581 43.1999 44 43.1999ZM34.4 23.9999C34.8418 23.9999 35.2 24.3581 35.2 24.7999C35.2 25.2102 34.8911 25.5483 34.4933 25.5945L34.4 25.5999H18.4C17.9581 25.5999 17.6 25.2417 17.6 24.7999C17.6 24.3896 17.9088 24.0515 18.3067 24.0053L18.4 23.9999H34.4ZM39.2 19.1999C39.6418 19.1999 40 19.5581 40 19.9999C40 20.4102 39.6911 20.7483 39.2933 20.7945L39.2 20.7999H18.4C17.9581 20.7999 17.6 20.4417 17.6 19.9999C17.6 19.5896 17.9088 19.2515 18.3067 19.2053L18.4 19.1999H39.2ZM31.2 14.3999C31.6418 14.3999 32 14.7581 32 15.1999C32 15.6102 31.6911 15.9483 31.2933 15.9945L31.2 15.9999H18.4C17.9581 15.9999 17.6 15.6417 17.6 15.1999C17.6 14.7896 17.9088 14.4515 18.3067 14.4053L18.4 14.3999H31.2Z" fill="#E1000F"/>
<path fill-rule="evenodd" clip-rule="evenodd" d="M44 9.6001C44.4103 9.6001 44.7484 9.90893 44.7946 10.3068L44.8 10.4001V36.0001C44.8 36.4419 44.4418 36.8001 44 36.8001C43.5897 36.8001 43.2516 36.4913 43.2054 36.0934L43.2 36.0001V11.2001H14.4V52.8001H31.2C31.6103 52.8001 31.9484 53.1089 31.9946 53.5068L32 53.6001C32 54.0104 31.6912 54.3485 31.2933 54.3947L31.2 54.4001H13.6C13.1897 54.4001 12.8516 54.0913 12.8054 53.6934L12.8 53.6001V10.4001C12.8 9.98983 13.1088 9.65169 13.5067 9.60548L13.6 9.6001H44ZM26.4 48.0001C26.8418 48.0001 27.2 48.3583 27.2 48.8001C27.2 49.2104 26.8912 49.5485 26.4933 49.5947L26.4 49.6001H18.4C17.9582 49.6001 17.6 49.2419 17.6 48.8001C17.6 48.3898 17.9088 48.0517 18.3067 48.0055L18.4 48.0001H26.4ZM29.6 43.2001C30.0418 43.2001 30.4 43.5583 30.4 44.0001C30.4 44.4104 30.0912 44.7485 29.6933 44.7947L29.6 44.8001H18.4C17.9582 44.8001 17.6 44.4419 17.6 44.0001C17.6 43.5898 17.9088 43.2517 18.3067 43.2055L18.4 43.2001H29.6ZM32.8 38.4001C33.2418 38.4001 33.6 38.7583 33.6 39.2001C33.6 39.6104 33.2912 39.9485 32.8933 39.9947L32.8 40.0001H18.4C17.9582 40.0001 17.6 39.6419 17.6 39.2001C17.6 38.7898 17.9088 38.4517 18.3067 38.4055L18.4 38.4001H32.8ZM36 33.6001C36.4418 33.6001 36.8 33.9583 36.8 34.4001C36.8 34.8104 36.4912 35.1485 36.0933 35.1947L36 35.2001H18.4C17.9582 35.2001 17.6 34.8419 17.6 34.4001C17.6 33.9898 17.9088 33.6517 18.3067 33.6055L18.4 33.6001H36ZM39.2 28.8001C39.6418 28.8001 40 29.1583 40 29.6001C40 30.0104 39.6912 30.3485 39.2933 30.3947L39.2 30.4001H18.4C17.9582 30.4001 17.6 30.0419 17.6 29.6001C17.6 29.1898 17.9088 28.8517 18.3067 28.8055L18.4 28.8001H39.2ZM47.2 9.6001C47.6103 9.6001 47.9484 9.90893 47.9946 10.3068L48 10.4001V36.0001C48 36.4419 47.6418 36.8001 47.2 36.8001C46.7897 36.8001 46.4516 36.4913 46.4054 36.0934L46.4 36.0001V10.4001C46.4 9.95827 46.7582 9.6001 47.2 9.6001Z" fill="#000091"/>
</svg>
