<svg width="64" height="64" viewBox="0 0 64 64" fill="none" xmlns="http://www.w3.org/2000/svg">
<path fill-rule="evenodd" clip-rule="evenodd" d="M61.5998 44.8002C61.1587 44.8002 60.7998 44.4413 60.7998 44.0002C60.7998 43.559 61.1587 43.2002 61.5998 43.2002C62.0409 43.2002 62.3998 43.559 62.3998 44.0002C62.3998 44.4413 62.0409 44.8002 61.5998 44.8002Z" fill="#ECECFE"/>
<path fill-rule="evenodd" clip-rule="evenodd" d="M4.0002 47.9999C3.55908 47.9999 3.2002 47.641 3.2002 47.1999C3.2002 46.7587 3.55908 46.3999 4.0002 46.3999C4.44132 46.3999 4.8002 46.7587 4.8002 47.1999C4.8002 47.641 4.44132 47.9999 4.0002 47.9999Z" fill="#ECECFE"/>
<path fill-rule="evenodd" clip-rule="evenodd" d="M60.0002 17.6C59.5591 17.6 59.2002 17.2411 59.2002 16.8C59.2002 16.3588 59.5591 16 60.0002 16C60.4413 16 60.8002 16.3588 60.8002 16.8C60.8002 17.2411 60.4413 17.6 60.0002 17.6Z" fill="#ECECFE"/>
<path fill-rule="evenodd" clip-rule="evenodd" d="M2.4001 20.8002C1.95898 20.8002 1.6001 20.4413 1.6001 20.0002C1.6001 19.559 1.95898 19.2002 2.4001 19.2002C2.84122 19.2002 3.2001 19.559 3.2001 20.0002C3.2001 20.4413 2.84122 20.8002 2.4001 20.8002Z" fill="#ECECFE"/>
<path fill-rule="evenodd" clip-rule="evenodd" d="M13.5998 6.3998C13.1587 6.3998 12.7998 6.04092 12.7998 5.5998C12.7998 5.15865 13.1587 4.7998 13.5998 4.7998C14.0409 4.7998 14.3998 5.15865 14.3998 5.5998C14.3998 6.04092 14.0409 6.3998 13.5998 6.3998Z" fill="#ECECFE"/>
<path fill-rule="evenodd" clip-rule="evenodd" d="M44.0001 38.3999C49.7439 38.3999 54.4001 43.0561 54.4001 48.7999C54.4001 54.5437 49.7439 59.1999 44.0001 59.1999C38.2563 59.1999 33.6001 54.5437 33.6001 48.7999C33.6001 43.0561 38.2563 38.3999 44.0001 38.3999ZM44.0001 39.9999C39.14 39.9999 35.2001 43.9398 35.2001 48.7999C35.2001 53.66 39.14 57.5999 44.0001 57.5999C48.8602 57.5999 52.8001 53.66 52.8001 48.7999C52.8001 43.9398 48.8602 39.9999 44.0001 39.9999ZM44.0001 43.1999C44.4104 43.1999 44.7485 43.5087 44.7947 43.9066L44.8001 43.9999V47.9999H48.8001C49.2419 47.9999 49.6001 48.3581 49.6001 48.7999C49.6001 49.2102 49.2913 49.5483 48.8934 49.5945L48.8001 49.5999H44.8001V53.5999C44.8001 54.0417 44.4419 54.3999 44.0001 54.3999C43.5898 54.3999 43.2517 54.0911 43.2055 53.6932L43.2001 53.5999V49.5999H39.2001C38.7583 49.5999 38.4001 49.2417 38.4001 48.7999C38.4001 48.3896 38.7089 48.0515 39.1068 48.0053L39.2001 47.9999H43.2001V43.9999C43.2001 43.5581 43.5583 43.1999 44.0001 43.1999ZM34.4001 23.9999C34.8419 23.9999 35.2001 24.3581 35.2001 24.7999C35.2001 25.2102 34.8913 25.5483 34.4934 25.5945L34.4001 25.5999H18.4001C17.9583 25.5999 17.6001 25.2417 17.6001 24.7999C17.6001 24.3896 17.9089 24.0515 18.3068 24.0053L18.4001 23.9999H34.4001ZM39.2001 19.1999C39.6419 19.1999 40.0001 19.5581 40.0001 19.9999C40.0001 20.4102 39.6913 20.7483 39.2934 20.7945L39.2001 20.7999H18.4001C17.9583 20.7999 17.6001 20.4417 17.6001 19.9999C17.6001 19.5896 17.9089 19.2515 18.3068 19.2053L18.4001 19.1999H39.2001ZM31.2001 14.3999C31.6419 14.3999 32.0001 14.7581 32.0001 15.1999C32.0001 15.6102 31.6913 15.9483 31.2934 15.9945L31.2001 15.9999H18.4001C17.9583 15.9999 17.6001 15.6417 17.6001 15.1999C17.6001 14.7896 17.9089 14.4515 18.3068 14.4053L18.4001 14.3999H31.2001Z" fill="#00A95F"/>
<path fill-rule="evenodd" clip-rule="evenodd" d="M43.9998 9.6001C44.4101 9.6001 44.7482 9.90893 44.7944 10.3068L44.7998 10.4001V36.0001C44.7998 36.4419 44.4416 36.8001 43.9998 36.8001C43.5895 36.8001 43.2514 36.4913 43.2052 36.0934L43.1998 36.0001V11.2001H14.3998V52.8001H31.1998C31.6101 52.8001 31.9482 53.1089 31.9944 53.5068L31.9998 53.6001C31.9998 54.0104 31.691 54.3485 31.2931 54.3947L31.1998 54.4001H13.5998C13.1895 54.4001 12.8514 54.0913 12.8052 53.6934L12.7998 53.6001V10.4001C12.7998 9.98983 13.1086 9.65169 13.5065 9.60548L13.5998 9.6001H43.9998ZM26.3998 48.0001C26.8416 48.0001 27.1998 48.3583 27.1998 48.8001C27.1998 49.2104 26.891 49.5485 26.4931 49.5947L26.3998 49.6001H18.3998C17.958 49.6001 17.5998 49.2419 17.5998 48.8001C17.5998 48.3898 17.9086 48.0517 18.3065 48.0055L18.3998 48.0001H26.3998ZM29.5998 43.2001C30.0416 43.2001 30.3998 43.5583 30.3998 44.0001C30.3998 44.4104 30.091 44.7485 29.6931 44.7947L29.5998 44.8001H18.3998C17.958 44.8001 17.5998 44.4419 17.5998 44.0001C17.5998 43.5898 17.9086 43.2517 18.3065 43.2055L18.3998 43.2001H29.5998ZM32.7998 38.4001C33.2416 38.4001 33.5998 38.7583 33.5998 39.2001C33.5998 39.6104 33.291 39.9485 32.8931 39.9947L32.7998 40.0001H18.3998C17.958 40.0001 17.5998 39.6419 17.5998 39.2001C17.5998 38.7898 17.9086 38.4517 18.3065 38.4055L18.3998 38.4001H32.7998ZM35.9998 33.6001C36.4416 33.6001 36.7998 33.9583 36.7998 34.4001C36.7998 34.8104 36.491 35.1485 36.0931 35.1947L35.9998 35.2001H18.3998C17.958 35.2001 17.5998 34.8419 17.5998 34.4001C17.5998 33.9898 17.9086 33.6517 18.3065 33.6055L18.3998 33.6001H35.9998ZM39.1998 28.8001C39.6416 28.8001 39.9998 29.1583 39.9998 29.6001C39.9998 30.0104 39.691 30.3485 39.2931 30.3947L39.1998 30.4001H18.3998C17.958 30.4001 17.5998 30.0419 17.5998 29.6001C17.5998 29.1898 17.9086 28.8517 18.3065 28.8055L18.3998 28.8001H39.1998ZM47.1998 9.6001C47.6101 9.6001 47.9482 9.90893 47.9944 10.3068L47.9998 10.4001V36.0001C47.9998 36.4419 47.6416 36.8001 47.1998 36.8001C46.7895 36.8001 46.4514 36.4913 46.4052 36.0934L46.3998 36.0001V10.4001C46.3998 9.95827 46.758 9.6001 47.1998 9.6001Z" fill="#000091"/>
</svg>
