<svg width="85" height="61" viewBox="0 0 85 61" fill="none" xmlns="http://www.w3.org/2000/svg">
<path d="M65.1208 12.8952L63.5694 39.2657C63.5431 39.7182 63.3444 40.1436 63.014 40.4551C62.6836 40.7665 62.2464 40.9405 61.7916 40.9414L14.1722 41.0859C13.9377 41.0868 13.7054 41.0416 13.4884 40.9529C13.2714 40.8641 13.0741 40.7337 12.9078 40.5689C12.7415 40.4041 12.6094 40.2082 12.519 39.9925C12.4287 39.7768 12.3819 39.5455 12.3813 39.3117L12.3176 18.7787C12.317 18.5439 12.363 18.3113 12.4529 18.0943C12.5429 17.8774 12.675 17.6802 12.8416 17.5143C13.0083 17.3484 13.2062 17.217 13.424 17.1276C13.6418 17.0382 13.8752 16.9926 14.1107 16.9935L43.3965 17.0921C43.6309 17.093 43.8631 17.0478 44.0799 16.9591C44.2968 16.8704 44.4939 16.7399 44.6601 16.5751L49.734 11.5635C50.0676 11.2344 50.5173 11.0488 50.9866 11.0465L63.332 11.0093C63.5759 11.0089 63.8173 11.0582 64.0413 11.1541C64.2653 11.2501 64.4673 11.3907 64.6348 11.5674C64.8024 11.744 64.9319 11.9529 65.0155 12.1812C65.099 12.4096 65.1349 12.6526 65.1208 12.8952Z" fill="#FF725E"/>
<path opacity="0.3" d="M65.1208 12.8952L63.5694 39.2657C63.5431 39.7182 63.3444 40.1436 63.014 40.4551C62.6836 40.7665 62.2464 40.9405 61.7916 40.9414L14.1722 41.0859C13.9377 41.0868 13.7054 41.0416 13.4884 40.9529C13.2714 40.8641 13.0741 40.7337 12.9078 40.5689C12.7415 40.4041 12.6094 40.2082 12.519 39.9925C12.4287 39.7768 12.3819 39.5455 12.3813 39.3117L12.3176 18.7787C12.317 18.5439 12.363 18.3113 12.4529 18.0943C12.5429 17.8774 12.675 17.6802 12.8416 17.5143C13.0083 17.3484 13.2062 17.217 13.424 17.1276C13.6418 17.0382 13.8752 16.9926 14.1107 16.9935L43.3965 17.0921C43.6309 17.093 43.8631 17.0478 44.0799 16.9591C44.2968 16.8704 44.4939 16.7399 44.6601 16.5751L49.734 11.5635C50.0676 11.2344 50.5173 11.0488 50.9866 11.0465L63.332 11.0093C63.5759 11.0089 63.8173 11.0582 64.0413 11.1541C64.2653 11.2501 64.4673 11.3907 64.6348 11.5674C64.8024 11.744 64.9319 11.9529 65.0155 12.1812C65.099 12.4096 65.1349 12.6526 65.1208 12.8952Z" fill="black"/>
<path d="M48.9198 1.09925L64.5786 21.5884L48.1453 34.067L32.4865 13.5778L48.9198 1.09925Z" fill="white"/>
<path d="M48.921 1.09668L48.9935 1.19744L49.2132 1.48438C49.4066 1.74066 49.6901 2.11303 50.0571 2.6015L53.25 6.80272L64.5384 21.6165L64.5494 21.5464L48.1123 34.0187L48.1936 34.0296L32.5278 13.547L32.5168 13.6127L44.4249 4.54002L47.7475 2.00132L48.6265 1.33106L48.921 1.09668L48.6221 1.31572L47.7431 1.97285L44.4205 4.48526L32.4574 13.5361L32.4201 13.5646L32.4487 13.604L48.0991 34.0997L48.1343 34.1457L48.1804 34.1107L64.6088 21.6253L64.6483 21.5946L64.6175 21.553L53.2676 6.74358L50.0592 2.56645L49.211 1.47124L48.9913 1.19087L48.921 1.09668Z" fill="#263238"/>
<path d="M48.4475 2.61613L63.0063 21.666L48.641 32.5743L34.0821 13.5244L48.4475 2.61613Z" fill="#263238"/>
<path d="M48.64 32.7972L52.4856 19.3633L43.7484 19.4838L44.5988 14.4195L34.0817 13.7471L48.64 32.7972Z" fill="#455A64"/>
<path d="M49.9813 15.8026C48.946 15.6618 48.2212 14.711 48.3624 13.679C48.5037 12.647 49.4575 11.9245 50.4929 12.0653C51.5282 12.2062 52.253 13.1569 52.1118 14.1889C51.9705 15.221 51.0166 15.9434 49.9813 15.8026Z" fill="#455A64"/>
<path d="M45.4407 0.872913L46.6248 29.5103L10.6891 30.9865L9.50508 2.34917L45.4407 0.872913Z" fill="white"/>
<path d="M9.51263 2.34363H9.68403L10.1851 2.32611L12.1342 2.25163L19.487 1.96469L45.4502 0.924239L45.3975 0.87605C45.7469 9.39897 46.149 19.1704 46.5731 29.5114L46.628 29.4523L10.6839 30.933L10.7322 30.979C10.3652 22.3487 10.062 15.1948 9.85323 10.1985C9.74336 7.69702 9.65766 5.7344 9.60052 4.39825C9.56976 3.73017 9.54779 3.21761 9.5324 2.86495C9.51702 2.51229 9.50603 2.33925 9.50603 2.33925C9.50603 2.33925 9.50603 2.5123 9.52141 2.85619C9.53679 3.20009 9.55437 3.71045 9.57855 4.37415C9.63129 5.71031 9.7082 7.65978 9.7983 10.1656C9.99827 15.1707 10.2861 22.3356 10.6333 30.9746V31.0206H10.6839L46.6324 29.564H46.6896V29.507C46.2611 19.1661 45.8545 9.39459 45.5007 0.871668V0.821289H45.4502L19.4562 1.9165L12.1166 2.23192L10.1785 2.31735L9.68183 2.33925L9.51263 2.34363Z" fill="#263238"/>
<path d="M44.2769 2.72699L45.3119 27.7598L11.9012 29.1323L10.8662 4.09952L44.2769 2.72699Z" fill="#455A64"/>
<path d="M45.3177 27.7544L33.0075 12.6733L26.1799 22.7055L21.062 17.7025L11.9073 29.1256L45.3177 27.7544Z" fill="#263238"/>
<path d="M22.6931 11.6582C22.375 10.2441 23.2671 8.84062 24.6858 8.52349C26.1045 8.20635 27.5125 9.09565 27.8307 10.5098C28.1488 11.9239 27.2567 13.3274 25.838 13.6445C24.4193 13.9617 23.0113 13.0724 22.6931 11.6582Z" fill="#263238"/>
<path d="M7.77309 14.6523L56.4517 21.3331L51.2964 56.8705L3.01774 50.0912L7.77309 14.6523Z" fill="#EBEBEB"/>
<path d="M7.58566 10.2212L55.7017 20.1613L48.1511 55.2716L0.441658 45.2592L7.58566 10.2212Z" fill="#E0E0E0"/>
<path d="M11.8369 6.2793L58.1884 22.5366L46.0033 56.3282L0.0606499 40.0534L11.8369 6.2793Z" fill="white"/>
<path d="M11.8359 6.2793C11.7085 6.64291 7.1751 19.5861 0.0157166 40.0381L0.000331879 40.0819L0.0442848 40.0972L45.9716 56.3808L46.0265 56.4005L46.0441 56.3457L46.1342 56.1004C50.4698 44.0684 54.5813 32.6629 58.2203 22.5541L58.2379 22.5037L58.1896 22.4884L11.8228 6.2793L58.1698 22.5848L58.139 22.5191L46.0375 56.061L45.9474 56.3085L46.0221 56.2734L0.0750389 40.0096L0.103607 40.0687C7.21025 19.597 11.7085 6.64291 11.8359 6.2793Z" fill="#263238"/>
<path d="M10.5285 38.6918C10.6186 38.7246 12.8446 32.9616 15.5014 25.8209C18.1581 18.6801 20.2435 12.8645 20.1534 12.8317C20.0633 12.7988 17.8395 18.5596 15.1805 25.7026C12.5216 32.8455 10.4406 38.6545 10.5285 38.6918Z" fill="#263238"/>
<path d="M14.4882 40.495C14.5761 40.5279 16.8044 34.7649 19.4611 27.6263C22.1179 20.4877 24.2011 14.6678 24.1132 14.6349C24.0253 14.602 21.797 20.365 19.1381 27.5058C16.4791 34.6466 14.3981 40.4621 14.4882 40.495Z" fill="#263238"/>
<path d="M26.7792 45.6264C26.8671 45.6592 29.0954 39.8962 31.7521 32.7554C34.4089 25.6147 36.4921 19.7991 36.4042 19.7663C36.3163 19.7334 34.088 25.4942 31.4313 32.6372C28.7745 39.7801 26.6913 45.5935 26.7792 45.6264Z" fill="#263238"/>
<path d="M22.8617 44.0531C22.9518 44.086 25.1779 38.323 27.8346 31.1822C30.4914 24.0414 32.5768 18.2259 32.4867 18.193C32.3966 18.1602 30.1727 23.921 27.5138 31.0639C24.8548 38.2069 22.7716 44.0203 22.8617 44.0531Z" fill="#263238"/>
<path d="M18.9464 42.4799C19.0343 42.5127 21.2604 36.7497 23.9193 29.6111C26.5783 22.4726 28.6593 16.6526 28.5714 16.6198C28.4835 16.5869 26.2553 22.3499 23.5963 29.4907C20.9374 36.6314 18.8564 42.447 18.9464 42.4799Z" fill="#263238"/>
<path d="M31.3162 46.9286C31.4041 46.9615 33.6323 41.1985 36.2891 34.0577C38.9459 26.9169 41.0291 21.1014 40.9412 21.0685C40.8533 21.0356 38.625 26.7964 35.9661 33.9394C33.3071 41.0824 31.2261 46.8957 31.3162 46.9286Z" fill="#263238"/>
<path d="M35.6567 48.5121C35.7446 48.5449 37.9706 42.7819 40.6296 35.6433C43.2885 28.5048 45.3695 22.687 45.2816 22.6651C45.1937 22.6432 42.9655 28.3952 40.3065 35.536C37.6476 42.6768 35.5666 48.4814 35.6567 48.5121Z" fill="#263238"/>
<path d="M39.9947 50.0985C40.0848 50.1314 42.3108 44.3684 44.9698 37.2298C47.6287 30.0912 49.7097 24.2713 49.6196 24.2384C49.5295 24.2056 47.3057 29.9686 44.6467 37.1093C41.9878 44.2501 39.9112 50.0657 39.9947 50.0985Z" fill="#263238"/>
<path d="M66.0943 27.3302L62.2202 59.6586C62.1869 59.9361 62.0531 60.1919 61.8439 60.3779C61.6346 60.5639 61.3644 60.6672 61.0841 60.6684L10.3794 60.8218C10.0902 60.8232 9.81101 60.7157 9.59789 60.5208C9.38477 60.3258 9.25342 60.0578 9.23015 59.7704L6.57779 27.4617C6.56508 27.3041 6.58515 27.1456 6.63675 26.9962C6.68834 26.8467 6.77034 26.7095 6.87762 26.5931C6.9849 26.4767 7.11514 26.3837 7.26017 26.3198C7.40521 26.2559 7.56192 26.2226 7.72049 26.2219L64.9494 26.0488C65.1122 26.0483 65.2732 26.0822 65.4218 26.1484C65.5703 26.2145 65.7032 26.3114 65.8114 26.4325C65.9196 26.5537 66.0008 26.6963 66.0496 26.8511C66.0984 27.0058 66.1136 27.1692 66.0943 27.3302Z" fill="#FF725E"/>
<path d="M58.8802 7.50713C60.2371 5.82662 62.0617 4.58608 64.1234 3.94231C66.1852 3.29853 68.3915 3.28041 70.4635 3.89024C72.5355 4.50007 74.3803 5.71047 75.7646 7.36846C77.1489 9.02646 78.0106 11.0576 78.2408 13.2052C78.4265 14.9512 78.1883 16.7162 77.5464 18.3505C76.9044 19.9847 75.8776 21.44 74.5532 22.5927L84.113 33.8129L82.7418 34.9821L73.106 23.6675C71.7224 24.5218 70.1646 25.0544 68.5475 25.2259C68.1548 25.268 67.7602 25.2891 67.3653 25.2889C65.3061 25.282 63.2907 24.6938 61.5511 23.5919C59.8116 22.4899 58.4186 20.9191 57.5326 19.0603C56.6465 17.2015 56.3034 15.1302 56.5429 13.0849C56.7823 11.0397 57.5944 9.10367 58.8858 7.49972L58.8802 7.50713ZM58.3132 15.3344C58.5376 17.4316 59.4823 19.3861 60.9863 20.8649C62.4902 22.3438 64.4604 23.2554 66.5611 23.4444C68.6618 23.6335 70.7631 23.0884 72.5069 21.9019C74.2508 20.7154 75.5293 18.9609 76.1246 16.9375C76.7199 14.914 76.5953 12.7468 75.7718 10.8049C74.9484 8.86309 73.4771 7.26684 71.6087 6.28814C69.7403 5.30944 67.5904 5.00884 65.5252 5.43757C63.46 5.86629 61.6074 6.99781 60.283 8.63934C59.5283 9.56964 58.9656 10.6404 58.6275 11.7896C58.2894 12.9388 58.1826 14.1436 58.3132 15.3344Z" fill="#263238"/>
<path d="M59.6504 6.73795C61.0069 5.05658 62.8315 3.81523 64.8934 3.17091C66.9554 2.5266 69.1622 2.50825 71.2346 3.11819C73.307 3.72813 75.152 4.93896 76.5362 6.59754C77.9204 8.25612 78.7816 10.2879 79.011 12.436C79.1971 14.182 78.959 15.9471 78.317 17.5814C77.675 19.2158 76.6481 20.671 75.3234 21.8235L85 33.1271L83.5342 34.3L73.8707 22.8909C72.4867 23.7445 70.929 24.277 69.3122 24.4493C68.9194 24.4905 68.5248 24.5116 68.1299 24.5123C66.0707 24.5054 64.0554 23.9172 62.3158 22.8153C60.5762 21.7133 59.1833 20.1425 58.2972 18.2837C57.4112 16.4249 57.0681 14.3536 57.3075 12.3084C57.5469 10.2631 58.3591 8.32707 59.6504 6.72312V6.73795ZM59.0834 14.5652C59.3076 16.6634 60.2524 18.619 61.7569 20.0987C63.2614 21.5784 65.2324 22.4907 67.3341 22.68C69.4358 22.8693 71.5381 22.3241 73.2828 21.1371C75.0275 19.9501 76.3066 18.1949 76.9022 16.1705C77.4979 14.1461 77.3731 11.9778 76.5492 10.0351C75.7253 8.09237 74.2532 6.49545 72.3839 5.51645C70.5145 4.53745 68.3635 4.23694 66.2974 4.66613C64.2313 5.09531 62.378 6.22764 61.0532 7.87015C60.2988 8.80061 59.7363 9.87136 59.3982 11.0205C59.0601 12.1697 58.9531 13.3744 59.0834 14.5652Z" fill="#455A64"/>
</svg>
