<svg width="234" height="160" viewBox="0 0 234 160" fill="none" xmlns="http://www.w3.org/2000/svg">
<path d="M178.843 32.1933L174.583 102.515C174.51 103.721 173.965 104.856 173.057 105.686C172.15 106.517 170.949 106.981 169.7 106.983L38.9203 107.368C38.2762 107.371 37.638 107.25 37.0422 107.014C36.4463 106.777 35.9045 106.429 35.4477 105.99C34.9909 105.55 34.628 105.028 34.3799 104.453C34.1318 103.877 34.0033 103.261 34.0017 102.637L33.8267 47.8825C33.8251 47.2564 33.9514 46.6362 34.1984 46.0576C34.4454 45.4789 34.8082 44.9533 35.2659 44.5108C35.7236 44.0684 36.2671 43.7179 36.8653 43.4796C37.4635 43.2412 38.1044 43.1197 38.7513 43.122L119.181 43.3849C119.824 43.3872 120.462 43.2667 121.058 43.0301C121.653 42.7936 122.194 42.4457 122.651 42.0064L136.586 28.6419C137.502 27.7644 138.737 27.2695 140.026 27.2634L173.931 27.1641C174.601 27.163 175.263 27.2945 175.879 27.5504C176.494 27.8063 177.049 28.1813 177.509 28.6523C177.969 29.1233 178.325 29.6804 178.554 30.2893C178.784 30.8983 178.882 31.5462 178.843 32.1933Z" fill="#00A95F"/>
<path opacity="0.3" d="M178.843 32.1933L174.583 102.515C174.51 103.721 173.965 104.856 173.057 105.686C172.15 106.517 170.949 106.981 169.7 106.983L38.9203 107.368C38.2762 107.371 37.638 107.25 37.0422 107.014C36.4463 106.777 35.9045 106.429 35.4477 105.99C34.9909 105.55 34.628 105.028 34.3799 104.453C34.1318 103.877 34.0033 103.261 34.0017 102.637L33.8267 47.8825C33.8251 47.2564 33.9514 46.6362 34.1984 46.0576C34.4454 45.4789 34.8082 44.9533 35.2659 44.5108C35.7236 44.0684 36.2671 43.7179 36.8653 43.4796C37.4635 43.2412 38.1044 43.1197 38.7513 43.122L119.181 43.3849C119.824 43.3872 120.462 43.2667 121.058 43.0301C121.653 42.7936 122.194 42.4457 122.651 42.0064L136.586 28.6419C137.502 27.7644 138.737 27.2695 140.026 27.2634L173.931 27.1641C174.601 27.163 175.263 27.2945 175.879 27.5504C176.494 27.8063 177.049 28.1813 177.509 28.6523C177.969 29.1233 178.325 29.6804 178.554 30.2893C178.784 30.8983 178.882 31.5462 178.843 32.1933Z" fill="black"/>
<path d="M134.349 0.737312L177.354 55.375L132.222 88.6513L89.217 34.0136L134.349 0.737312Z" fill="white"/>
<path d="M134.354 0.730469L134.553 0.999164L135.157 1.76435C135.688 2.44776 136.466 3.44075 137.474 4.74332L146.243 15.9466L177.245 55.4501L177.275 55.2632L132.133 88.5225L132.356 88.5517L89.3322 33.9314L89.3021 34.1066L122.006 9.91271L131.131 3.14285L133.545 1.35547L134.354 0.730469L133.533 1.31458L131.119 3.06692L121.994 9.76668L89.1391 33.9022L89.0365 33.9781L89.115 34.0833L132.097 88.7386L132.193 88.8613L132.32 88.7678L177.438 55.4735L177.547 55.3917L177.462 55.2807L146.291 15.7889L137.48 4.64986L135.151 1.7293L134.547 0.981642L134.354 0.730469Z" fill="#263238"/>
<path d="M133.051 4.78232L173.035 55.582L133.583 84.6709L93.5987 33.8712L133.051 4.78232Z" fill="#263238"/>
<path d="M133.581 85.2651L144.143 49.4415L120.147 49.7627L122.483 36.2581L93.5989 34.4648L133.581 85.2651Z" fill="#455A64"/>
<path d="M137.265 39.9443C134.421 39.5688 132.431 37.0334 132.819 34.2814C133.207 31.5293 135.826 29.6028 138.67 29.9783C141.513 30.3538 143.504 32.8892 143.116 35.6412C142.728 38.3933 140.108 40.3198 137.265 39.9443Z" fill="#455A64"/>
<path d="M124.795 0.13376L128.047 76.5L29.3547 80.4367L26.1029 4.07045L124.795 0.13376Z" fill="white"/>
<path d="M26.1233 4.05567H26.594L27.97 4.00894L33.3231 3.81034L53.5165 3.04516L124.821 0.270627L124.676 0.142122C125.636 22.8699 126.74 48.9272 127.905 76.5031L128.056 76.3454L29.34 80.294L29.4727 80.4166C28.4649 57.4026 27.6321 38.3255 27.0587 25.0019C26.757 18.3314 26.5216 13.0977 26.3647 9.53464C26.2802 7.7531 26.2199 6.38628 26.1776 5.44586C26.1354 4.50544 26.1052 4.04399 26.1052 4.04399C26.1052 4.04399 26.1052 4.50544 26.1474 5.4225C26.1897 6.33956 26.238 7.70053 26.3043 9.47039C26.4492 13.0335 26.6604 18.2321 26.9078 24.9143C27.457 38.2613 28.2476 57.3676 29.2012 80.405V80.5276H29.34L128.068 76.6433H128.225V76.4914C127.048 48.9155 125.931 22.8582 124.96 0.130437V-0.00390625H124.821L53.432 2.91665L33.2748 3.75778L27.9519 3.98558L26.588 4.04399L26.1233 4.05567Z" fill="#263238"/>
<path d="M121.599 5.07601L124.441 71.8301L32.6836 75.4902L29.8411 8.7361L121.599 5.07601Z" fill="#455A64"/>
<path d="M124.457 71.8177L90.6486 31.6016L71.8976 58.3539L57.8419 45.0128L32.6998 75.4742L124.457 71.8177Z" fill="#263238"/>
<path d="M62.322 28.8927C61.4482 25.1216 63.8984 21.379 67.7947 20.5333C71.6909 19.6876 75.5578 22.0591 76.4316 25.8301C77.3053 29.6012 74.8551 33.3438 70.9589 34.1895C67.0626 35.0352 63.1958 32.6637 62.322 28.8927Z" fill="#263238"/>
<path d="M21.3463 36.8789L155.035 54.6943L140.877 149.461L8.28635 131.382L21.3463 36.8789Z" fill="#EBEBEB"/>
<path d="M20.8307 25.0605L152.975 51.5676L132.238 145.195L1.21071 118.495L20.8307 25.0605Z" fill="#E0E0E0"/>
<path d="M32.5069 14.5508L159.805 57.9036L126.34 148.015L0.165027 104.615L32.5069 14.5508Z" fill="white"/>
<path d="M32.5029 14.5508C32.1529 15.5204 19.7025 50.0356 0.0402892 104.574L-0.0019607 104.691L0.118748 104.732L126.252 148.155L126.403 148.207L126.451 148.061L126.698 147.407C138.605 115.322 149.897 84.9071 159.891 57.9503L159.939 57.816L159.807 57.7751L32.4667 14.5508L159.752 58.0321L159.668 57.8568L126.433 147.302L126.185 147.962L126.391 147.869L0.203211 104.498L0.28167 104.656C19.7991 50.0648 32.1529 15.5204 32.5029 14.5508Z" fill="#263238"/>
<path d="M28.9141 100.984C29.1616 101.072 35.2751 85.7037 42.5715 66.6617C49.8679 47.6196 55.5952 32.1114 55.3477 32.0238C55.1003 31.9362 48.9928 47.2983 41.6904 66.3462C34.3879 85.3941 28.6727 100.885 28.9141 100.984Z" fill="#263238"/>
<path d="M39.7875 105.791C40.0289 105.878 46.1485 90.5103 53.4449 71.4741C60.7413 52.4379 66.4626 36.9181 66.2211 36.8305C65.9797 36.7428 59.8602 52.1108 52.5578 71.1529C45.2553 90.1949 39.5401 105.703 39.7875 105.791Z" fill="#263238"/>
<path d="M73.5434 119.474C73.7848 119.562 79.9044 104.194 87.2008 85.1519C94.4972 66.1098 100.218 50.6017 99.977 50.514C99.7356 50.4264 93.616 65.7886 86.3196 84.8365C79.0232 103.884 73.302 119.387 73.5434 119.474Z" fill="#263238"/>
<path d="M62.7833 115.281C63.0307 115.369 69.1443 100.001 76.4407 80.9585C83.7371 61.9165 89.4643 46.4083 89.2169 46.3207C88.9694 46.2331 82.862 61.5952 75.5595 80.6431C68.2571 99.691 62.5358 115.193 62.7833 115.281Z" fill="#263238"/>
<path d="M52.0317 111.086C52.2731 111.173 58.3866 95.8053 65.689 76.7691C72.9915 57.7328 78.7067 42.213 78.4653 42.1254C78.2239 42.0378 72.1043 57.4057 64.8019 76.4478C57.4994 95.4898 51.7842 110.998 52.0317 111.086Z" fill="#263238"/>
<path d="M86.0043 122.947C86.2457 123.035 92.3653 107.667 99.6617 88.6246C106.958 69.5825 112.679 54.0743 112.438 53.9867C112.197 53.8991 106.077 69.2612 98.7745 88.3091C91.4721 107.357 85.7569 122.859 86.0043 122.947Z" fill="#263238"/>
<path d="M97.9243 127.17C98.1657 127.257 104.279 111.889 111.582 92.8529C118.884 73.8167 124.599 58.3027 124.358 58.2443C124.116 58.1859 117.997 73.5247 110.694 92.5667C103.392 111.609 97.6768 127.088 97.9243 127.17Z" fill="#263238"/>
<path d="M109.838 131.402C110.085 131.49 116.199 116.122 123.501 97.0855C130.804 78.0492 136.519 62.5294 136.272 62.4418C136.024 62.3542 129.917 77.7222 122.614 96.7642C115.312 115.806 109.609 131.314 109.838 131.402Z" fill="#263238"/>
<path d="M181.517 70.6846L170.877 156.894C170.786 157.634 170.418 158.316 169.844 158.812C169.269 159.308 168.527 159.583 167.757 159.586L28.5036 159.995C27.7092 159.999 26.9426 159.713 26.3572 159.193C25.7719 158.673 25.4112 157.958 25.3473 157.192L18.063 71.0351C18.0281 70.615 18.0832 70.1924 18.2249 69.7939C18.3666 69.3953 18.5918 69.0294 18.8864 68.719C19.181 68.4086 19.5387 68.1605 19.937 67.9901C20.3354 67.8198 20.7657 67.7309 21.2012 67.729L178.373 67.2676C178.819 67.2662 179.262 67.3567 179.67 67.5331C180.078 67.7094 180.443 67.9677 180.74 68.2907C181.037 68.6138 181.26 68.9942 181.394 69.4069C181.528 69.8196 181.57 70.2551 181.517 70.6846Z" fill="#00A95F"/>
<path d="M164.267 17.7034C167.86 13.2527 172.692 9.96722 178.153 8.26222C183.613 6.55723 189.456 6.50924 194.944 8.12432C200.432 9.73941 205.317 12.9451 208.983 17.3361C212.65 21.7272 214.932 27.1066 215.541 32.7943C216.033 37.4184 215.403 42.0929 213.702 46.4211C212.002 50.7493 209.283 54.6035 205.775 57.6564L231.094 87.3721L227.462 90.4688L201.942 60.5028C198.278 62.7655 194.152 64.176 189.87 64.6301C188.83 64.7417 187.785 64.7974 186.739 64.797C181.285 64.7789 175.947 63.2209 171.34 60.3025C166.733 57.3841 163.044 53.224 160.697 48.301C158.351 43.3781 157.442 37.8925 158.076 32.4758C158.71 27.0592 160.861 21.9317 164.281 17.6837L164.267 17.7034ZM162.765 38.4332C163.359 43.9876 165.861 49.164 169.844 53.0805C173.827 56.9971 179.045 59.4114 184.609 59.9121C190.172 60.4129 195.737 58.9691 200.356 55.8267C204.974 52.6844 208.36 48.0379 209.937 42.6789C211.514 37.32 211.184 31.5801 209.003 26.4373C206.822 21.2945 202.925 17.067 197.977 14.475C193.029 11.883 187.335 11.0869 181.865 12.2223C176.396 13.3578 171.489 16.3545 167.982 20.7019C165.983 23.1658 164.493 26.0015 163.597 29.0451C162.702 32.0886 162.419 35.2796 162.765 38.4332Z" fill="#263238"/>
<path d="M166.305 15.6678C169.897 11.2148 174.73 7.92722 180.191 6.22079C185.652 4.51437 191.496 4.46578 196.985 6.08116C202.473 7.69654 207.36 10.9033 211.026 15.296C214.692 19.6886 216.972 25.0697 217.58 30.7588C218.073 35.3829 217.442 40.0576 215.742 44.386C214.042 48.7143 211.322 52.5684 207.814 55.6208L233.441 85.5574L229.559 88.6639L203.966 58.4476C200.301 60.7083 196.176 62.1186 191.893 62.5749C190.853 62.6842 189.808 62.7399 188.762 62.7418C183.309 62.7236 177.971 61.1657 173.364 58.2473C168.757 55.3289 165.068 51.1688 162.721 46.2458C160.375 41.3228 159.466 35.8373 160.1 30.4206C160.734 25.004 162.885 19.8765 166.305 15.6285V15.6678ZM164.803 36.3976C165.397 41.9547 167.899 47.1339 171.884 51.0528C175.868 54.9717 181.088 57.3877 186.655 57.8891C192.221 58.3906 197.789 56.9465 202.409 53.8028C207.03 50.6592 210.418 46.0106 211.995 40.6491C213.573 35.2877 213.242 29.5451 211.06 24.4C208.878 19.2549 204.979 15.0256 200.029 12.4328C195.078 9.83996 189.381 9.04408 183.909 10.1807C178.437 11.3174 173.529 14.3163 170.02 18.6664C168.022 21.1306 166.532 23.9664 165.637 27.0099C164.742 30.0533 164.458 33.244 164.803 36.3976Z" fill="#455A64"/>
</svg>
