<svg width="211" height="180" viewBox="0 0 211 180" fill="none" xmlns="http://www.w3.org/2000/svg">
<g clip-path="url(#clip0_434_17208)">
<path d="M145.843 52.1933L141.583 122.515C141.51 123.721 140.965 124.856 140.057 125.686C139.15 126.517 137.949 126.981 136.7 126.983L5.92027 127.368C5.27622 127.371 4.63803 127.25 4.04217 127.014C3.44632 126.777 2.90449 126.429 2.44767 125.99C1.99086 125.55 1.62803 125.028 1.37991 124.453C1.1318 123.877 1.00327 123.261 1.00169 122.637L0.826669 67.8825C0.825073 67.2564 0.951415 66.6362 1.19841 66.0576C1.4454 65.4789 1.80818 64.9533 2.26587 64.5108C2.72356 64.0684 3.26713 63.7179 3.86529 63.4796C4.46346 63.2412 5.10442 63.1197 5.75129 63.122L86.1807 63.3849C86.8243 63.3872 87.4621 63.2667 88.0576 63.0301C88.6531 62.7936 89.1945 62.4457 89.6508 62.0064L103.586 48.6419C104.502 47.7644 105.737 47.2695 107.026 47.2634L140.931 47.1641C141.601 47.163 142.263 47.2945 142.879 47.5504C143.494 47.8063 144.049 48.1813 144.509 48.6523C144.969 49.1233 145.325 49.6804 145.554 50.2893C145.784 50.8983 145.882 51.5462 145.843 52.1933Z" fill="#FF725E"/>
<path opacity="0.3" d="M145.843 52.1933L141.583 122.515C141.51 123.721 140.965 124.856 140.057 125.686C139.15 126.517 137.949 126.981 136.7 126.983L5.92027 127.368C5.27622 127.371 4.63803 127.25 4.04217 127.014C3.44632 126.777 2.90449 126.429 2.44767 125.99C1.99086 125.55 1.62803 125.028 1.37991 124.453C1.1318 123.877 1.00327 123.261 1.00169 122.637L0.826669 67.8825C0.825073 67.2564 0.951415 66.6362 1.19841 66.0576C1.4454 65.4789 1.80818 64.9533 2.26587 64.5108C2.72356 64.0684 3.26713 63.7179 3.86529 63.4796C4.46346 63.2412 5.10442 63.1197 5.75129 63.122L86.1807 63.3849C86.8243 63.3872 87.4621 63.2667 88.0576 63.0301C88.6531 62.7936 89.1945 62.4457 89.6508 62.0064L103.586 48.6419C104.502 47.7644 105.737 47.2695 107.026 47.2634L140.931 47.1641C141.601 47.163 142.263 47.2945 142.879 47.5504C143.494 47.8063 144.049 48.1813 144.509 48.6523C144.969 49.1233 145.325 49.6804 145.554 50.2893C145.784 50.8983 145.882 51.5462 145.843 52.1933Z" fill="black"/>
<path d="M101.349 20.7383L144.354 75.376L99.2218 108.652L56.217 54.0145L101.349 20.7383Z" fill="white"/>
<path d="M101.354 20.7314L101.553 21.0001L102.157 21.7653C102.688 22.4487 103.466 23.4417 104.474 24.7443L113.243 35.9476L144.245 75.4511L144.275 75.2641L99.133 108.523L99.3563 108.553L56.3322 53.9324L56.3021 54.1076L89.0061 29.9137L98.1311 23.1438L100.545 21.3564L101.354 20.7314L100.533 21.3156L98.1191 23.0679L88.994 29.7677L56.1391 53.9032L56.0365 53.9791L56.115 54.0842L99.0968 108.74L99.1933 108.862L99.3201 108.769L144.438 75.4744L144.547 75.3927L144.462 75.2817L113.291 35.7899L104.48 24.6508L102.151 21.7303L101.547 20.9826L101.354 20.7314Z" fill="#263238"/>
<path d="M100.051 24.7833L140.035 75.583L100.583 104.672L60.5987 53.8721L100.051 24.7833Z" fill="#263238"/>
<path d="M100.581 105.266L111.143 69.4425L87.1471 69.7637L89.4827 56.259L60.5989 54.4658L100.581 105.266Z" fill="#455A64"/>
<path d="M104.265 59.9443C101.421 59.5688 99.4309 57.0334 99.8189 54.2814C100.207 51.5293 102.826 49.6028 105.67 49.9783C108.513 50.3538 110.504 52.8892 110.116 55.6412C109.728 58.3933 107.108 60.3198 104.265 59.9443Z" fill="#455A64"/>
<path d="M91.7951 20.1347L95.0469 96.501L-3.64534 100.438L-6.89713 24.0714L91.7951 20.1347Z" fill="white"/>
<path d="M-6.87671 24.0557H-6.40597L-5.02998 24.0089L0.323127 23.8103L20.5165 23.0452L91.8208 20.2706L91.676 20.1421C92.6356 42.8699 93.74 68.9272 94.9048 96.5031L95.0556 96.3454L-3.66002 100.294L-3.52725 100.417C-4.53511 77.4026 -5.36795 58.3255 -5.94128 45.0019C-6.24303 38.3314 -6.4784 33.0977 -6.63531 29.5346C-6.7198 27.7531 -6.78015 26.3863 -6.82239 25.4459C-6.86464 24.5054 -6.89481 24.044 -6.89481 24.044C-6.89481 24.044 -6.89483 24.5054 -6.85258 25.4225C-6.81034 26.3396 -6.76205 27.7005 -6.69566 29.4704C-6.55082 33.0335 -6.33959 38.2321 -6.09216 44.9143C-5.54296 58.2613 -4.75238 77.3676 -3.79884 100.405V100.528H-3.66002L95.0677 96.6433H95.2246V96.4914C94.0478 68.9155 92.9313 42.8582 91.9596 20.1304V19.9961H91.8208L20.432 22.9167L0.274836 23.7578L-5.04808 23.9856L-6.41201 24.044L-6.87671 24.0557Z" fill="#263238"/>
<path d="M88.5989 25.075L91.4414 91.8291L-0.316383 95.4892L-3.15887 28.7351L88.5989 25.075Z" fill="#455A64"/>
<path d="M91.457 91.8177L57.6486 51.6016L38.8976 78.3539L24.8419 65.0128L-0.300185 95.4742L91.457 91.8177Z" fill="#263238"/>
<path d="M29.322 48.8917C28.4482 45.1206 30.8984 41.378 34.7947 40.5324C38.6909 39.6867 42.5578 42.0581 43.4316 45.8292C44.3053 49.6002 41.8551 53.3428 37.9589 54.1885C34.0626 55.0342 30.1958 52.6627 29.322 48.8917Z" fill="#263238"/>
<path d="M-11.6537 56.8789L122.035 74.6943L107.877 169.461L-24.7136 151.382L-11.6537 56.8789Z" fill="#EBEBEB"/>
<path d="M-12.1693 45.0596L119.975 71.5666L99.2381 165.194L-31.7893 138.494L-12.1693 45.0596Z" fill="#E0E0E0"/>
<path d="M-0.493054 34.5508L126.805 77.9036L93.3402 168.015L-32.835 124.615L-0.493054 34.5508Z" fill="white"/>
<path d="M-0.497083 34.5508C-0.847118 35.5204 -13.2975 70.0356 -32.9597 124.574L-33.002 124.691L-32.8813 124.732L93.2517 168.155L93.4026 168.207L93.4509 168.061L93.6983 167.407C105.605 135.322 116.897 104.907 126.891 77.9503L126.939 77.816L126.807 77.7751L-0.533292 34.5508L126.752 78.0321L126.668 77.8568L93.4328 167.302L93.1853 167.962L93.3905 167.869L-32.7968 124.498L-32.7183 124.656C-13.2009 70.0648 -0.847118 35.5204 -0.497083 34.5508Z" fill="#263238"/>
<path d="M-4.08586 120.984C-3.83842 121.072 2.27511 105.704 9.57151 86.6617C16.8679 67.6196 22.5952 52.1114 22.3477 52.0238C22.1003 51.9362 15.9928 67.2983 8.69038 86.3462C1.38794 105.394 -4.32726 120.885 -4.08586 120.984Z" fill="#263238"/>
<path d="M6.78754 125.791C7.02895 125.878 13.1485 110.51 20.4449 91.4741C27.7413 72.4379 33.4626 56.9181 33.2211 56.8305C32.9797 56.7428 26.8602 72.1108 19.5578 91.1529C12.2553 110.195 6.54011 125.703 6.78754 125.791Z" fill="#263238"/>
<path d="M40.5434 139.475C40.7848 139.563 46.9044 124.195 54.2008 105.153C61.4972 86.1108 67.2184 70.6026 66.977 70.515C66.7356 70.4274 60.616 85.7895 53.3196 104.837C46.0232 123.885 40.302 139.388 40.5434 139.475Z" fill="#263238"/>
<path d="M29.7833 135.28C30.0307 135.368 36.1443 120 43.4407 100.958C50.7371 81.9155 56.4643 66.4073 56.2169 66.3197C55.9694 66.2321 49.862 81.5942 42.5595 100.642C35.2571 119.69 29.5358 135.192 29.7833 135.28Z" fill="#263238"/>
<path d="M19.0317 131.085C19.2731 131.172 25.3866 115.804 32.689 96.7681C39.9915 77.7319 45.7067 62.212 45.4653 62.1244C45.2239 62.0368 39.1043 77.4048 31.8019 96.4468C24.4994 115.489 18.7842 130.997 19.0317 131.085Z" fill="#263238"/>
<path d="M53.0043 142.946C53.2457 143.034 59.3653 127.666 66.6617 108.624C73.9581 89.5815 79.6793 74.0733 79.4379 73.9857C79.1965 73.8981 73.077 89.2603 65.7745 108.308C58.4721 127.356 52.7569 142.858 53.0043 142.946Z" fill="#263238"/>
<path d="M64.9243 147.169C65.1657 147.256 71.2792 131.888 78.5816 112.852C85.884 93.8158 91.5993 78.3017 91.3579 78.2433C91.1165 78.1849 84.9969 93.5237 77.6945 112.566C70.392 131.608 64.6768 147.087 64.9243 147.169Z" fill="#263238"/>
<path d="M76.838 151.403C77.0854 151.491 83.1989 136.123 90.5013 117.086C97.8038 98.0502 103.519 82.5304 103.272 82.4428C103.024 82.3551 96.9166 97.7231 89.6142 116.765C82.3118 135.807 76.6086 151.315 76.838 151.403Z" fill="#263238"/>
<path d="M148.517 90.6846L137.877 176.894C137.786 177.634 137.418 178.316 136.844 178.812C136.269 179.308 135.527 179.583 134.757 179.586L-4.49636 179.995C-5.2908 179.999 -6.05745 179.713 -6.64275 179.193C-7.22806 178.673 -7.58879 177.958 -7.6527 177.192L-14.937 91.0351C-14.9719 90.615 -14.9168 90.1924 -14.7751 89.7939C-14.6334 89.3953 -14.4082 89.0294 -14.1136 88.719C-13.819 88.4086 -13.4613 88.1605 -13.063 87.9901C-12.6646 87.8198 -12.2343 87.7309 -11.7988 87.729L145.373 87.2676C145.819 87.2662 146.262 87.3567 146.67 87.5331C147.078 87.7094 147.443 87.9677 147.74 88.2907C148.037 88.6138 148.26 88.9942 148.394 89.4069C148.528 89.8196 148.57 90.2551 148.517 90.6846Z" fill="#FF725E"/>
<path d="M131.267 37.7034C134.86 33.2527 139.692 29.9672 145.153 28.2622C150.613 26.5572 156.456 26.5092 161.944 28.1243C167.432 29.7394 172.317 32.9451 175.983 37.3361C179.65 41.7272 181.932 47.1066 182.541 52.7943C183.033 57.4184 182.403 62.0929 180.702 66.4211C179.002 70.7493 176.283 74.6035 172.775 77.6564L198.094 107.372L194.462 110.469L168.942 80.5028C165.278 82.7655 161.152 84.176 156.87 84.6301C155.83 84.7417 154.785 84.7974 153.739 84.797C148.285 84.7789 142.947 83.2209 138.34 80.3025C133.733 77.3841 130.044 73.224 127.697 68.301C125.351 63.3781 124.442 57.8925 125.076 52.4758C125.71 47.0592 127.861 41.9317 131.281 37.6837L131.267 37.7034ZM129.765 58.4332C130.359 63.9876 132.861 69.164 136.844 73.0805C140.827 76.9971 146.045 79.4114 151.609 79.9121C157.172 80.4129 162.737 78.9691 167.356 75.8267C171.974 72.6844 175.36 68.0379 176.937 62.6789C178.514 57.32 178.184 51.5801 176.003 46.4373C173.822 41.2945 169.925 37.067 164.977 34.475C160.029 31.883 154.335 31.0869 148.865 32.2223C143.396 33.3578 138.489 36.3545 134.982 40.7019C132.983 43.1658 131.493 46.0015 130.597 49.0451C129.702 52.0886 129.419 55.2796 129.765 58.4332Z" fill="#263238"/>
<path d="M133.305 35.6678C136.897 31.2148 141.73 27.9272 147.191 26.2208C152.652 24.5144 158.496 24.4658 163.985 26.0812C169.473 27.6965 174.36 30.9033 178.026 35.296C181.692 39.6886 183.972 45.0697 184.58 50.7588C185.073 55.3829 184.442 60.0576 182.742 64.386C181.042 68.7143 178.322 72.5684 174.814 75.6208L200.441 105.557L196.559 108.664L170.966 78.4476C167.301 80.7083 163.176 82.1186 158.893 82.5749C157.853 82.6842 156.808 82.7399 155.762 82.7418C150.309 82.7236 144.971 81.1657 140.364 78.2473C135.757 75.3289 132.068 71.1688 129.721 66.2458C127.375 61.3228 126.466 55.8373 127.1 50.4206C127.734 45.004 129.885 39.8765 133.305 35.6285V35.6678ZM131.803 56.3976C132.397 61.9547 134.899 67.1339 138.884 71.0528C142.868 74.9717 148.088 77.3877 153.655 77.8891C159.221 78.3906 164.789 76.9465 169.409 73.8028C174.03 70.6592 177.418 66.0106 178.995 60.6491C180.573 55.2877 180.242 49.5451 178.06 44.4C175.878 39.2549 171.979 35.0256 167.029 32.4328C162.078 29.84 156.381 29.0441 150.909 30.1807C145.437 31.3174 140.529 34.3163 137.02 38.6664C135.022 41.1306 133.532 43.9664 132.637 47.0099C131.742 50.0533 131.458 53.244 131.803 56.3976Z" fill="#455A64"/>
</g>
<defs>
<clipPath id="clip0_434_17208">
<rect width="211" height="180" fill="white"/>
</clipPath>
</defs>
</svg>
