<svg width="441" height="290" viewBox="0 0 441 290" fill="none" xmlns="http://www.w3.org/2000/svg">
  <g clip-path="url(#clip0_3519_26997)">
  <rect x="35.3281" y="59.0322" width="199" height="108.655" rx="3.86778" fill="#F5F5FE"/>
  <rect x="35.3281" y="59.0322" width="199" height="108.655" rx="3.86778" stroke="#263238"/>
  <path d="M60.0683 81.5322V72.0777H63.8538C64.5494 72.0777 65.1295 72.1808 65.5942 72.387C66.059 72.5932 66.4083 72.8794 66.6422 73.2456C66.8761 73.6088 66.993 74.0274 66.993 74.5013C66.993 74.8706 66.9192 75.1953 66.7714 75.4754C66.6237 75.7524 66.4206 75.9801 66.1621 76.1586C65.9066 76.3341 65.6142 76.4587 65.2849 76.5326V76.6249C65.645 76.6403 65.982 76.7419 66.2959 76.9296C66.6129 77.1173 66.8699 77.3805 67.0669 77.719C67.2639 78.0545 67.3623 78.4546 67.3623 78.9193C67.3623 79.421 67.2377 79.8688 66.9884 80.2627C66.7422 80.6536 66.3775 80.9629 65.8943 81.1906C65.4111 81.4184 64.8156 81.5322 64.1077 81.5322H60.0683ZM62.0672 79.898H63.6969C64.2539 79.898 64.6602 79.7918 64.9156 79.5795C65.1711 79.364 65.2988 79.0778 65.2988 78.7208C65.2988 78.4592 65.2357 78.2284 65.1095 78.0283C64.9833 77.8283 64.8033 77.6713 64.5694 77.5574C64.3386 77.4436 64.0631 77.3866 63.743 77.3866H62.0672V79.898ZM62.0672 76.034H63.5491C63.823 76.034 64.0662 75.9863 64.2785 75.8909C64.494 75.7924 64.6632 75.6539 64.7864 75.4754C64.9125 75.2969 64.9756 75.083 64.9756 74.8337C64.9756 74.4921 64.8541 74.2166 64.6109 74.0074C64.3709 73.7981 64.0293 73.6934 63.5861 73.6934H62.0672V76.034ZM77.3513 76.805C77.3513 77.836 77.1558 78.7131 76.765 79.4363C76.3772 80.1596 75.8478 80.712 75.1769 81.0937C74.509 81.4722 73.7581 81.6615 72.9241 81.6615C72.0839 81.6615 71.3298 81.4707 70.662 81.089C69.9941 80.7074 69.4663 80.155 69.0785 79.4317C68.6907 78.7085 68.4968 77.8329 68.4968 76.805C68.4968 75.7739 68.6907 74.8968 69.0785 74.1736C69.4663 73.4503 69.9941 72.8994 70.662 72.5209C71.3298 72.1392 72.0839 71.9484 72.9241 71.9484C73.7581 71.9484 74.509 72.1392 75.1769 72.5209C75.8478 72.8994 76.3772 73.4503 76.765 74.1736C77.1558 74.8968 77.3513 75.7739 77.3513 76.805ZM75.3246 76.805C75.3246 76.1371 75.2246 75.5739 75.0245 75.1153C74.8276 74.6568 74.5491 74.309 74.189 74.072C73.8289 73.835 73.4072 73.7165 72.9241 73.7165C72.4409 73.7165 72.0192 73.835 71.6591 74.072C71.2991 74.309 71.019 74.6568 70.8189 75.1153C70.622 75.5739 70.5235 76.1371 70.5235 76.805C70.5235 77.4728 70.622 78.036 70.8189 78.4946C71.019 78.9532 71.2991 79.3009 71.6591 79.5379C72.0192 79.7749 72.4409 79.8934 72.9241 79.8934C73.4072 79.8934 73.8289 79.7749 74.189 79.5379C74.5491 79.3009 74.8276 78.9532 75.0245 78.4946C75.2246 78.036 75.3246 77.4728 75.3246 76.805ZM84.6718 72.0777H86.6708V78.2176C86.6708 78.907 86.5061 79.5102 86.1768 80.0273C85.8506 80.5443 85.3935 80.9475 84.8057 81.2368C84.2179 81.523 83.5331 81.6661 82.7514 81.6661C81.9666 81.6661 81.2803 81.523 80.6924 81.2368C80.1046 80.9475 79.6476 80.5443 79.3213 80.0273C78.9951 79.5102 78.832 78.907 78.832 78.2176V72.0777H80.8309V78.0468C80.8309 78.4069 80.9094 78.7269 81.0664 79.007C81.2264 79.2871 81.4511 79.5071 81.7404 79.6672C82.0297 79.8272 82.3667 79.9072 82.7514 79.9072C83.1392 79.9072 83.4762 79.8272 83.7624 79.6672C84.0517 79.5071 84.2748 79.2871 84.4318 79.007C84.5918 78.7269 84.6718 78.4069 84.6718 78.0468V72.0777ZM91.8839 78.2453H93.5828L94.4368 79.344L95.277 80.3227L96.8605 82.3078H94.9954L93.9059 80.969L93.3473 80.175L91.8839 78.2453ZM97.0036 76.805C97.0036 77.836 96.8082 78.7131 96.4173 79.4363C96.0295 80.1596 95.5002 80.712 94.8292 81.0937C94.1614 81.4722 93.4104 81.6615 92.5764 81.6615C91.7362 81.6615 90.9822 81.4707 90.3143 81.089C89.6465 80.7074 89.1187 80.155 88.7309 79.4317C88.3431 78.7085 88.1492 77.8329 88.1492 76.805C88.1492 75.7739 88.3431 74.8968 88.7309 74.1736C89.1187 73.4503 89.6465 72.8994 90.3143 72.5209C90.9822 72.1392 91.7362 71.9484 92.5764 71.9484C93.4104 71.9484 94.1614 72.1392 94.8292 72.5209C95.5002 72.8994 96.0295 73.4503 96.4173 74.1736C96.8082 74.8968 97.0036 75.7739 97.0036 76.805ZM94.977 76.805C94.977 76.1371 94.8769 75.5739 94.6769 75.1153C94.4799 74.6568 94.2014 74.309 93.8413 74.072C93.4812 73.835 93.0596 73.7165 92.5764 73.7165C92.0932 73.7165 91.6716 73.835 91.3115 74.072C90.9514 74.309 90.6713 74.6568 90.4713 75.1153C90.2743 75.5739 90.1758 76.1371 90.1758 76.805C90.1758 77.4728 90.2743 78.036 90.4713 78.4946C90.6713 78.9532 90.9514 79.3009 91.3115 79.5379C91.6716 79.7749 92.0932 79.8934 92.5764 79.8934C93.0596 79.8934 93.4812 79.7749 93.8413 79.5379C94.2014 79.3009 94.4799 78.9532 94.6769 78.4946C94.8769 78.036 94.977 77.4728 94.977 76.805ZM104.324 72.0777H106.323V78.2176C106.323 78.907 106.158 79.5102 105.829 80.0273C105.503 80.5443 105.046 80.9475 104.458 81.2368C103.87 81.523 103.185 81.6661 102.404 81.6661C101.619 81.6661 100.933 81.523 100.345 81.2368C99.7569 80.9475 99.2999 80.5443 98.9737 80.0273C98.6474 79.5102 98.4843 78.907 98.4843 78.2176V72.0777H100.483V78.0468C100.483 78.4069 100.562 78.7269 100.719 79.007C100.879 79.2871 101.103 79.5071 101.393 79.6672C101.682 79.8272 102.019 79.9072 102.404 79.9072C102.792 79.9072 103.129 79.8272 103.415 79.6672C103.704 79.5071 103.927 79.2871 104.084 79.007C104.244 78.7269 104.324 78.4069 104.324 78.0468V72.0777ZM107.968 81.5322V72.0777H114.338V73.7258H109.967V75.9786H114.011V77.6267H109.967V79.8841H114.357V81.5322H107.968ZM115.568 73.7258V72.0777H123.333V73.7258H120.438V81.5322H118.462V73.7258H115.568ZM130.972 81.5322H127.62V72.0777H130.999C131.95 72.0777 132.769 72.267 133.455 72.6455C134.142 73.021 134.669 73.5611 135.039 74.2659C135.411 74.9707 135.597 75.814 135.597 76.7957C135.597 77.7806 135.411 78.6269 135.039 79.3348C134.669 80.0426 134.139 80.5858 133.446 80.9644C132.757 81.343 131.932 81.5322 130.972 81.5322ZM129.619 79.8195H130.889C131.479 79.8195 131.976 79.7149 132.38 79.5056C132.786 79.2932 133.091 78.9655 133.294 78.5223C133.5 78.076 133.603 77.5005 133.603 76.7957C133.603 76.0971 133.5 75.5262 133.294 75.083C133.091 74.6398 132.787 74.3136 132.384 74.1043C131.981 73.895 131.484 73.7904 130.893 73.7904H129.619V79.8195ZM137.078 81.5322V72.0777H143.449V73.7258H139.077V75.9786H143.121V77.6267H139.077V79.8841H143.467V81.5322H137.078ZM151.398 81.5322H148.047V72.0777H151.426C152.377 72.0777 153.196 72.267 153.882 72.6455C154.568 73.021 155.096 73.5611 155.466 74.2659C155.838 74.9707 156.024 75.814 156.024 76.7957C156.024 77.7806 155.838 78.6269 155.466 79.3348C155.096 80.0426 154.565 80.5858 153.873 80.9644C153.183 81.343 152.359 81.5322 151.398 81.5322ZM150.046 79.8195H151.315C151.906 79.8195 152.403 79.7149 152.806 79.5056C153.213 79.2932 153.517 78.9655 153.72 78.5223C153.927 78.076 154.03 77.5005 154.03 76.7957C154.03 76.0971 153.927 75.5262 153.72 75.083C153.517 74.6398 153.214 74.3136 152.811 74.1043C152.408 73.895 151.911 73.7904 151.32 73.7904H150.046V79.8195ZM166.193 76.805C166.193 77.836 165.998 78.7131 165.607 79.4363C165.219 80.1596 164.69 80.712 164.019 81.0937C163.351 81.4722 162.6 81.6615 161.766 81.6615C160.926 81.6615 160.172 81.4707 159.504 81.089C158.836 80.7074 158.308 80.155 157.92 79.4317C157.533 78.7085 157.339 77.8329 157.339 76.805C157.339 75.7739 157.533 74.8968 157.92 74.1736C158.308 73.4503 158.836 72.8994 159.504 72.5209C160.172 72.1392 160.926 71.9484 161.766 71.9484C162.6 71.9484 163.351 72.1392 164.019 72.5209C164.69 72.8994 165.219 73.4503 165.607 74.1736C165.998 74.8968 166.193 75.7739 166.193 76.805ZM164.166 76.805C164.166 76.1371 164.066 75.5739 163.866 75.1153C163.669 74.6568 163.391 74.309 163.031 74.072C162.671 73.835 162.249 73.7165 161.766 73.7165C161.283 73.7165 160.861 73.835 160.501 74.072C160.141 74.309 159.861 74.6568 159.661 75.1153C159.464 75.5739 159.365 76.1371 159.365 76.805C159.365 77.4728 159.464 78.036 159.661 78.4946C159.861 78.9532 160.141 79.3009 160.501 79.5379C160.861 79.7749 161.283 79.8934 161.766 79.8934C162.249 79.8934 162.671 79.7749 163.031 79.5379C163.391 79.3009 163.669 78.9532 163.866 78.4946C164.066 78.036 164.166 77.4728 164.166 76.805ZM175.582 72.0777V81.5322H173.855L169.742 75.5816H169.673V81.5322H167.674V72.0777H169.428L173.509 78.0237H173.592V72.0777H175.582ZM185.141 72.0777V81.5322H183.415L179.302 75.5816H179.232V81.5322H177.233V72.0777H178.988L183.069 78.0237H183.152V72.0777H185.141ZM186.793 81.5322V72.0777H193.164V73.7258H188.792V75.9786H192.836V77.6267H188.792V79.8841H193.182V81.5322H186.793ZM189.286 71.1636L190.265 69.0631H192.083L190.675 71.1636H189.286ZM194.753 81.5322V72.0777H201.124V73.7258H196.752V75.9786H200.796V77.6267H196.752V79.8841H201.142V81.5322H194.753ZM207.842 74.7968C207.805 74.4244 207.646 74.1351 207.366 73.9289C207.086 73.7227 206.706 73.6196 206.226 73.6196C205.9 73.6196 205.624 73.6657 205.4 73.7581C205.175 73.8473 205.003 73.972 204.883 74.132C204.766 74.2921 204.707 74.4736 204.707 74.6768C204.701 74.846 204.736 74.9938 204.813 75.1199C204.893 75.2461 205.003 75.3554 205.141 75.4477C205.28 75.537 205.44 75.6154 205.621 75.6831C205.803 75.7478 205.997 75.8032 206.203 75.8493L207.052 76.0525C207.465 76.1448 207.843 76.2679 208.188 76.4218C208.533 76.5757 208.831 76.7649 209.084 76.9896C209.336 77.2143 209.531 77.479 209.67 77.7836C209.811 78.0883 209.884 78.4376 209.887 78.8316C209.884 79.4102 209.736 79.9118 209.444 80.3366C209.154 80.7582 208.736 81.086 208.188 81.3199C207.643 81.5507 206.986 81.6661 206.217 81.6661C205.453 81.6661 204.789 81.5492 204.222 81.3153C203.659 81.0814 203.219 80.7351 202.902 80.2765C202.588 79.8149 202.424 79.244 202.408 78.5638H204.342C204.364 78.8808 204.455 79.1455 204.615 79.3579C204.778 79.5671 204.995 79.7256 205.266 79.8334C205.54 79.938 205.849 79.9903 206.194 79.9903C206.532 79.9903 206.826 79.9411 207.075 79.8426C207.328 79.7441 207.523 79.6072 207.662 79.4317C207.8 79.2563 207.869 79.0547 207.869 78.827C207.869 78.6146 207.806 78.4361 207.68 78.2915C207.557 78.1468 207.375 78.0237 207.135 77.9221C206.898 77.8206 206.608 77.7282 206.263 77.6452L205.233 77.3866C204.436 77.1927 203.807 76.8896 203.345 76.4772C202.884 76.0648 202.654 75.5093 202.657 74.8106C202.654 74.2382 202.807 73.7381 203.114 73.3103C203.425 72.8825 203.852 72.5486 204.393 72.3085C204.935 72.0684 205.55 71.9484 206.24 71.9484C206.942 71.9484 207.554 72.0684 208.077 72.3085C208.603 72.5486 209.013 72.8825 209.305 73.3103C209.598 73.7381 209.748 74.2336 209.758 74.7968H207.842Z" fill="#263238"/>
  <rect x="63.526" y="93.9537" width="41.3346" height="27.1231" rx="1.3" fill="white" stroke="#263238" stroke-width="1.3"/>
  <path d="M62.876 95.2176C62.876 94.1406 63.749 93.2676 64.826 93.2676H103.561C104.638 93.2676 105.511 94.1406 105.511 95.2176V97.531H62.876V95.2176Z" fill="#263238"/>
  <line x1="62.876" y1="104.924" x2="105.511" y2="104.924" stroke="#263238" stroke-width="1.3"/>
  <line x1="62.876" y1="113.066" x2="105.511" y2="113.066" stroke="#263238" stroke-width="1.3"/>
  <line x1="91.2301" y1="97.5313" x2="91.2301" y2="121.727" stroke="#263238" stroke-width="1.3"/>
  <line x1="76.4122" y1="97.5313" x2="76.4122" y2="121.727" stroke="#263238" stroke-width="1.3"/>
  <rect x="114.161" y="93.9537" width="41.3346" height="27.1231" rx="1.3" fill="white" stroke="#263238" stroke-width="1.3"/>
  <path d="M113.511 95.2176C113.511 94.1406 114.384 93.2676 115.461 93.2676H154.195C155.272 93.2676 156.145 94.1406 156.145 95.2176V97.531H113.511V95.2176Z" fill="#263238"/>
  <line x1="113.511" y1="104.924" x2="156.145" y2="104.924" stroke="#263238" stroke-width="1.3"/>
  <line x1="113.511" y1="113.066" x2="156.145" y2="113.066" stroke="#263238" stroke-width="1.3"/>
  <line x1="141.865" y1="97.5313" x2="141.865" y2="121.727" stroke="#263238" stroke-width="1.3"/>
  <line x1="127.047" y1="97.5313" x2="127.047" y2="121.727" stroke="#263238" stroke-width="1.3"/>
  <rect x="164.796" y="93.9537" width="41.3346" height="27.1231" rx="1.3" fill="white" stroke="#263238" stroke-width="1.3"/>
  <path d="M164.146 95.2176C164.146 94.1406 165.019 93.2676 166.096 93.2676H204.83C205.907 93.2676 206.78 94.1406 206.78 95.2176V97.531H164.146V95.2176Z" fill="#263238"/>
  <line x1="164.146" y1="104.924" x2="206.78" y2="104.924" stroke="#263238" stroke-width="1.3"/>
  <line x1="164.146" y1="113.066" x2="206.78" y2="113.066" stroke="#263238" stroke-width="1.3"/>
  <line x1="192.5" y1="97.5313" x2="192.5" y2="121.727" stroke="#263238" stroke-width="1.3"/>
  <line x1="177.682" y1="97.5313" x2="177.682" y2="121.727" stroke="#263238" stroke-width="1.3"/>
  <rect x="63.526" y="130.414" width="41.3346" height="27.1231" rx="1.3" fill="white" stroke="#263238" stroke-width="1.3"/>
  <path d="M62.876 131.678C62.876 130.601 63.749 129.728 64.826 129.728H103.561C104.638 129.728 105.511 130.601 105.511 131.678V133.991H62.876V131.678Z" fill="#263238"/>
  <line x1="62.876" y1="141.384" x2="105.511" y2="141.384" stroke="#263238" stroke-width="1.3"/>
  <line x1="62.876" y1="149.526" x2="105.511" y2="149.526" stroke="#263238" stroke-width="1.3"/>
  <line x1="91.2301" y1="133.991" x2="91.2301" y2="158.187" stroke="#263238" stroke-width="1.3"/>
  <line x1="76.4122" y1="133.991" x2="76.4122" y2="158.187" stroke="#263238" stroke-width="1.3"/>
  <rect x="114.161" y="130.414" width="41.3346" height="27.1231" rx="1.3" fill="white" stroke="#263238" stroke-width="1.3"/>
  <path d="M113.511 131.678C113.511 130.601 114.384 129.728 115.461 129.728H154.195C155.272 129.728 156.145 130.601 156.145 131.678V133.991H113.511V131.678Z" fill="#263238"/>
  <line x1="113.511" y1="141.384" x2="156.145" y2="141.384" stroke="#263238" stroke-width="1.3"/>
  <line x1="113.511" y1="149.526" x2="156.145" y2="149.526" stroke="#263238" stroke-width="1.3"/>
  <line x1="141.865" y1="133.991" x2="141.865" y2="158.187" stroke="#263238" stroke-width="1.3"/>
  <line x1="127.047" y1="133.991" x2="127.047" y2="158.187" stroke="#263238" stroke-width="1.3"/>
  <rect x="164.796" y="130.414" width="41.3346" height="27.1231" rx="1.3" fill="white" stroke="#263238" stroke-width="1.3"/>
  <path d="M164.146 131.678C164.146 130.601 165.019 129.728 166.096 129.728H204.83C205.907 129.728 206.78 130.601 206.78 131.678V133.991H164.146V131.678Z" fill="#263238"/>
  <line x1="164.146" y1="141.384" x2="206.78" y2="141.384" stroke="#263238" stroke-width="1.3"/>
  <line x1="164.146" y1="149.526" x2="206.78" y2="149.526" stroke="#263238" stroke-width="1.3"/>
  <line x1="192.5" y1="133.991" x2="192.5" y2="158.187" stroke="#263238" stroke-width="1.3"/>
  <line x1="177.682" y1="133.991" x2="177.682" y2="158.187" stroke="#263238" stroke-width="1.3"/>
  <path d="M375.001 19.2236L229.347 19.2259C226.7 19.2259 224.162 20.2773 222.29 22.1489C220.419 24.0204 219.367 26.5588 219.367 29.2055V50.6437C219.367 53.2904 220.419 55.8287 222.29 57.7003C224.162 59.5718 226.7 60.6232 229.347 60.6232H231.41C229.316 65.2434 225.25 72.3277 218.828 76.5321C218.828 76.5321 232.489 75.5773 246.719 60.6232L374.97 60.621C377.617 60.621 380.155 59.5696 382.026 57.698C383.898 55.8265 384.949 53.2881 384.949 50.6414V29.2032C384.949 26.5618 383.902 24.0281 382.037 22.1575C380.172 20.2868 377.642 19.2318 375.001 19.2236Z" fill="#FEF7DA" stroke="#263238" stroke-width="1.09195" stroke-linecap="round" stroke-linejoin="round"/>
  <path d="M233.87 44.8779V35.4234H237.6C238.317 35.4234 238.928 35.5603 239.433 35.8343C239.938 36.1051 240.322 36.4821 240.587 36.9653C240.855 37.4454 240.989 37.9994 240.989 38.6272C240.989 39.2551 240.853 39.809 240.582 40.2892C240.312 40.7693 239.919 41.1432 239.405 41.411C238.894 41.6787 238.276 41.8126 237.549 41.8126H235.172V40.2107H237.226C237.611 40.2107 237.928 40.1445 238.177 40.0122C238.43 39.8767 238.617 39.6905 238.74 39.4536C238.867 39.2135 238.93 38.9381 238.93 38.6272C238.93 38.3133 238.867 38.0394 238.74 37.8055C238.617 37.5685 238.43 37.3854 238.177 37.2561C237.925 37.1238 237.605 37.0576 237.217 37.0576H235.869V44.8779H233.87ZM250.975 40.1507C250.975 41.1817 250.78 42.0588 250.389 42.782C250.001 43.5053 249.472 44.0577 248.801 44.4394C248.133 44.8179 247.382 45.0072 246.548 45.0072C245.708 45.0072 244.954 44.8164 244.286 44.4347C243.618 44.0531 243.09 43.5007 242.703 42.7774C242.315 42.0542 242.121 41.1786 242.121 40.1507C242.121 39.1196 242.315 38.2425 242.703 37.5193C243.09 36.796 243.618 36.2451 244.286 35.8666C244.954 35.4849 245.708 35.2941 246.548 35.2941C247.382 35.2941 248.133 35.4849 248.801 35.8666C249.472 36.2451 250.001 36.796 250.389 37.5193C250.78 38.2425 250.975 39.1196 250.975 40.1507ZM248.949 40.1507C248.949 39.4828 248.849 38.9196 248.649 38.461C248.452 38.0025 248.173 37.6547 247.813 37.4177C247.453 37.1807 247.031 37.0622 246.548 37.0622C246.065 37.0622 245.643 37.1807 245.283 37.4177C244.923 37.6547 244.643 38.0025 244.443 38.461C244.246 38.9196 244.148 39.4828 244.148 40.1507C244.148 40.8185 244.246 41.3817 244.443 41.8403C244.643 42.2989 244.923 42.6466 245.283 42.8836C245.643 43.1206 246.065 43.2391 246.548 43.2391C247.031 43.2391 247.453 43.1206 247.813 42.8836C248.173 42.6466 248.452 42.2989 248.649 41.8403C248.849 41.3817 248.949 40.8185 248.949 40.1507ZM252.456 44.8779V35.4234H254.455V43.2298H258.508V44.8779H252.456ZM261.831 35.4234V44.8779H259.832V35.4234H261.831ZM263.115 37.0715V35.4234H270.88V37.0715H267.986V44.8779H266.01V37.0715H263.115ZM274.158 35.4234V44.8779H272.159V35.4234H274.158ZM279.371 41.591H281.07L281.924 42.6897L282.764 43.6684L284.348 45.6535H282.483L281.393 44.3147L280.835 43.5207L279.371 41.591ZM284.491 40.1507C284.491 41.1817 284.295 42.0588 283.905 42.782C283.517 43.5053 282.987 44.0577 282.317 44.4394C281.649 44.8179 280.898 45.0072 280.064 45.0072C279.223 45.0072 278.469 44.8164 277.802 44.4347C277.134 44.0531 276.606 43.5007 276.218 42.7774C275.83 42.0542 275.636 41.1786 275.636 40.1507C275.636 39.1196 275.83 38.2425 276.218 37.5193C276.606 36.796 277.134 36.2451 277.802 35.8666C278.469 35.4849 279.223 35.2941 280.064 35.2941C280.898 35.2941 281.649 35.4849 282.317 35.8666C282.987 36.2451 283.517 36.796 283.905 37.5193C284.295 38.2425 284.491 39.1196 284.491 40.1507ZM282.464 40.1507C282.464 39.4828 282.364 38.9196 282.164 38.461C281.967 38.0025 281.689 37.6547 281.329 37.4177C280.969 37.1807 280.547 37.0622 280.064 37.0622C279.581 37.0622 279.159 37.1807 278.799 37.4177C278.439 37.6547 278.159 38.0025 277.959 38.461C277.762 38.9196 277.663 39.4828 277.663 40.1507C277.663 40.8185 277.762 41.3817 277.959 41.8403C278.159 42.2989 278.439 42.6466 278.799 42.8836C279.159 43.1206 279.581 43.2391 280.064 43.2391C280.547 43.2391 280.969 43.1206 281.329 42.8836C281.689 42.6466 281.967 42.2989 282.164 41.8403C282.364 41.3817 282.464 40.8185 282.464 40.1507ZM291.811 35.4234H293.81V41.5633C293.81 42.2527 293.646 42.8559 293.316 43.373C292.99 43.89 292.533 44.2932 291.945 44.5825C291.358 44.8687 290.673 45.0118 289.891 45.0118C289.106 45.0118 288.42 44.8687 287.832 44.5825C287.244 44.2932 286.787 43.89 286.461 43.373C286.135 42.8559 285.972 42.2527 285.972 41.5633V35.4234H287.971V41.3925C287.971 41.7526 288.049 42.0727 288.206 42.3527C288.366 42.6328 288.591 42.8528 288.88 43.0129C289.169 43.1729 289.506 43.2529 289.891 43.2529C290.279 43.2529 290.616 43.1729 290.902 43.0129C291.191 42.8528 291.414 42.6328 291.571 42.3527C291.731 42.0727 291.811 41.7526 291.811 41.3925V35.4234ZM295.455 44.8779V35.4234H301.826V37.0715H297.454V39.3243H301.498V40.9724H297.454V43.2298H301.844V44.8779H295.455ZM306.424 44.8779V35.4234H310.154C310.871 35.4234 311.482 35.5603 311.987 35.8343C312.491 36.1051 312.876 36.4821 313.141 36.9653C313.409 37.4454 313.542 37.9994 313.542 38.6272C313.542 39.2551 313.407 39.809 313.136 40.2892C312.865 40.7693 312.473 41.1432 311.959 41.411C311.448 41.6787 310.829 41.8126 310.103 41.8126H307.726V40.2107H309.78C310.165 40.2107 310.482 40.1445 310.731 40.0122C310.983 39.8767 311.171 39.6905 311.294 39.4536C311.42 39.2135 311.483 38.9381 311.483 38.6272C311.483 38.3133 311.42 38.0394 311.294 37.8055C311.171 37.5685 310.983 37.3854 310.731 37.2561C310.479 37.1238 310.159 37.0576 309.771 37.0576H308.423V44.8779H306.424ZM320.681 35.4234H322.68V41.5633C322.68 42.2527 322.515 42.8559 322.186 43.373C321.859 43.89 321.402 44.2932 320.814 44.5825C320.227 44.8687 319.542 45.0118 318.76 45.0118C317.975 45.0118 317.289 44.8687 316.701 44.5825C316.113 44.2932 315.656 43.89 315.33 43.373C315.004 42.8559 314.841 42.2527 314.841 41.5633V35.4234H316.84V41.3925C316.84 41.7526 316.918 42.0727 317.075 42.3527C317.235 42.6328 317.46 42.8528 317.749 43.0129C318.038 43.1729 318.375 43.2529 318.76 43.2529C319.148 43.2529 319.485 43.1729 319.771 43.0129C320.06 42.8528 320.284 42.6328 320.441 42.3527C320.601 42.0727 320.681 41.7526 320.681 41.3925V35.4234ZM324.324 44.8779V35.4234H328.11C328.805 35.4234 329.385 35.5265 329.85 35.7327C330.315 35.9389 330.664 36.2251 330.898 36.5914C331.132 36.9545 331.249 37.3731 331.249 37.847C331.249 38.2164 331.175 38.541 331.027 38.8211C330.88 39.0981 330.676 39.3258 330.418 39.5044C330.162 39.6798 329.87 39.8044 329.541 39.8783V39.9706C329.901 39.986 330.238 40.0876 330.552 40.2753C330.869 40.463 331.126 40.7262 331.323 41.0647C331.52 41.4002 331.618 41.8003 331.618 42.265C331.618 42.7667 331.494 43.2145 331.244 43.6084C330.998 43.9993 330.633 44.3086 330.15 44.5363C329.667 44.7641 329.071 44.8779 328.364 44.8779H324.324ZM326.323 43.2437H327.953C328.51 43.2437 328.916 43.1375 329.171 42.9252C329.427 42.7097 329.555 42.4235 329.555 42.0665C329.555 41.8049 329.492 41.5741 329.365 41.374C329.239 41.174 329.059 41.017 328.825 40.9031C328.594 40.7893 328.319 40.7323 327.999 40.7323H326.323V43.2437ZM326.323 39.3797H327.805C328.079 39.3797 328.322 39.332 328.534 39.2366C328.75 39.1381 328.919 38.9996 329.042 38.8211C329.168 38.6426 329.231 38.4287 329.231 38.1794C329.231 37.8378 329.11 37.5624 328.867 37.3531C328.627 37.1438 328.285 37.0392 327.842 37.0392H326.323V39.3797ZM332.919 44.8779V35.4234H334.918V43.2298H338.971V44.8779H332.919ZM342.294 35.4234V44.8779H340.295V35.4234H342.294ZM347.507 41.591H349.206L350.06 42.6897L350.9 43.6684L352.484 45.6535H350.618L349.529 44.3147L348.97 43.5207L347.507 41.591ZM352.627 40.1507C352.627 41.1817 352.431 42.0588 352.04 42.782C351.653 43.5053 351.123 44.0577 350.452 44.4394C349.784 44.8179 349.033 45.0072 348.199 45.0072C347.359 45.0072 346.605 44.8164 345.937 44.4347C345.27 44.0531 344.742 43.5007 344.354 42.7774C343.966 42.0542 343.772 41.1786 343.772 40.1507C343.772 39.1196 343.966 38.2425 344.354 37.5193C344.742 36.796 345.27 36.2451 345.937 35.8666C346.605 35.4849 347.359 35.2941 348.199 35.2941C349.033 35.2941 349.784 35.4849 350.452 35.8666C351.123 36.2451 351.653 36.796 352.04 37.5193C352.431 38.2425 352.627 39.1196 352.627 40.1507ZM350.6 40.1507C350.6 39.4828 350.5 38.9196 350.3 38.461C350.103 38.0025 349.824 37.6547 349.464 37.4177C349.104 37.1807 348.683 37.0622 348.199 37.0622C347.716 37.0622 347.295 37.1807 346.935 37.4177C346.574 37.6547 346.294 38.0025 346.094 38.461C345.897 38.9196 345.799 39.4828 345.799 40.1507C345.799 40.8185 345.897 41.3817 346.094 41.8403C346.294 42.2989 346.574 42.6466 346.935 42.8836C347.295 43.1206 347.716 43.2391 348.199 43.2391C348.683 43.2391 349.104 43.1206 349.464 42.8836C349.824 42.6466 350.103 42.2989 350.3 41.8403C350.5 41.3817 350.6 40.8185 350.6 40.1507ZM359.947 35.4234H361.946V41.5633C361.946 42.2527 361.782 42.8559 361.452 43.373C361.126 43.89 360.669 44.2932 360.081 44.5825C359.493 44.8687 358.808 45.0118 358.027 45.0118C357.242 45.0118 356.556 44.8687 355.968 44.5825C355.38 44.2932 354.923 43.89 354.597 43.373C354.27 42.8559 354.107 42.2527 354.107 41.5633V35.4234H356.106V41.3925C356.106 41.7526 356.185 42.0727 356.342 42.3527C356.502 42.6328 356.726 42.8528 357.016 43.0129C357.305 43.1729 357.642 43.2529 358.027 43.2529C358.415 43.2529 358.752 43.1729 359.038 43.0129C359.327 42.8528 359.55 42.6328 359.707 42.3527C359.867 42.0727 359.947 41.7526 359.947 41.3925V35.4234ZM363.591 44.8779V35.4234H369.962V37.0715H365.59V39.3243H369.634V40.9724H365.59V43.2298H369.98V44.8779H363.591Z" fill="#263238"/>
  <rect x="46.2242" y="229.046" width="41.3346" height="27.1231" rx="1.3" fill="white" stroke="#263238" stroke-width="1.3"/>
  <path d="M45.5742 230.31C45.5742 229.233 46.4473 228.36 47.5242 228.36H86.2588C87.3358 228.36 88.2088 229.233 88.2088 230.31V232.624H45.5742V230.31Z" fill="#263238"/>
  <line x1="45.5742" y1="240.017" x2="88.209" y2="240.017" stroke="#263238" stroke-width="1.3"/>
  <line x1="45.5742" y1="248.159" x2="88.209" y2="248.159" stroke="#263238" stroke-width="1.3"/>
  <line x1="73.9283" y1="232.624" x2="73.9283" y2="256.82" stroke="#263238" stroke-width="1.3"/>
  <line x1="59.1104" y1="232.624" x2="59.1104" y2="256.82" stroke="#263238" stroke-width="1.3"/>
  <rect x="61.1549" y="208.06" width="41.3346" height="27.1231" rx="1.3" fill="white" stroke="#263238" stroke-width="1.3"/>
  <path d="M60.5049 209.324C60.5049 208.247 61.3779 207.374 62.4549 207.374H101.19C102.266 207.374 103.14 208.247 103.14 209.324V211.637H60.5049V209.324Z" fill="#263238"/>
  <line x1="60.5049" y1="219.031" x2="103.14" y2="219.031" stroke="#263238" stroke-width="1.3"/>
  <line x1="60.5049" y1="227.172" x2="103.14" y2="227.172" stroke="#263238" stroke-width="1.3"/>
  <line x1="88.859" y1="211.638" x2="88.859" y2="235.833" stroke="#263238" stroke-width="1.3"/>
  <line x1="74.0411" y1="211.638" x2="74.0411" y2="235.833" stroke="#263238" stroke-width="1.3"/>
  <rect x="109.671" y="214.457" width="41.3346" height="27.1231" rx="1.3" fill="white" stroke="#263238" stroke-width="1.3"/>
  <path d="M109.021 215.721C109.021 214.644 109.894 213.771 110.971 213.771H149.705C150.782 213.771 151.655 214.644 151.655 215.721V218.034H109.021V215.721Z" fill="#263238"/>
  <line x1="109.021" y1="225.427" x2="151.655" y2="225.427" stroke="#263238" stroke-width="1.3"/>
  <line x1="109.021" y1="233.569" x2="151.655" y2="233.569" stroke="#263238" stroke-width="1.3"/>
  <line x1="137.375" y1="218.034" x2="137.375" y2="242.23" stroke="#263238" stroke-width="1.3"/>
  <line x1="122.557" y1="218.034" x2="122.557" y2="242.23" stroke="#263238" stroke-width="1.3"/>
  <rect x="173.276" y="208.599" width="41.3346" height="27.1231" rx="1.3" fill="white" stroke="#263238" stroke-width="1.3"/>
  <path d="M172.626 209.863C172.626 208.786 173.499 207.913 174.576 207.913H213.311C214.388 207.913 215.261 208.786 215.261 209.863V212.177H172.626V209.863Z" fill="#263238"/>
  <line x1="172.626" y1="219.57" x2="215.261" y2="219.57" stroke="#263238" stroke-width="1.3"/>
  <line x1="172.626" y1="227.711" x2="215.261" y2="227.711" stroke="#263238" stroke-width="1.3"/>
  <line x1="200.98" y1="212.177" x2="200.98" y2="236.372" stroke="#263238" stroke-width="1.3"/>
  <line x1="186.162" y1="212.177" x2="186.162" y2="236.372" stroke="#263238" stroke-width="1.3"/>
  <rect x="141.988" y="232.795" width="41.3346" height="27.1231" rx="1.3" fill="white" stroke="#263238" stroke-width="1.3"/>
  <path d="M141.338 234.058C141.338 232.981 142.211 232.108 143.288 232.108H182.023C183.099 232.108 183.973 232.981 183.973 234.058V236.372H141.338V234.058Z" fill="#263238"/>
  <line x1="141.338" y1="243.765" x2="183.973" y2="243.765" stroke="#263238" stroke-width="1.3"/>
  <line x1="141.338" y1="251.907" x2="183.973" y2="251.907" stroke="#263238" stroke-width="1.3"/>
  <line x1="169.692" y1="236.372" x2="169.692" y2="260.568" stroke="#263238" stroke-width="1.3"/>
  <line x1="154.874" y1="236.372" x2="154.874" y2="260.568" stroke="#263238" stroke-width="1.3"/>
  <line x1="70.9648" y1="201.922" x2="82.7341" y2="179.471" stroke="#263238" stroke-width="1.09195" stroke-linecap="round" stroke-linejoin="round" stroke-dasharray="2.18 2.18"/>
  <line x1="129.79" y1="207.404" x2="129.716" y2="179.789" stroke="#263238" stroke-width="1.09195" stroke-linecap="round" stroke-linejoin="round" stroke-dasharray="2.18 2.18"/>
  <line x1="97.5605" y1="202.008" x2="102.489" y2="179.657" stroke="#263238" stroke-width="1.09195" stroke-linecap="round" stroke-linejoin="round" stroke-dasharray="2.18 2.18"/>
  <line x1="162.075" y1="225.568" x2="159.069" y2="179.822" stroke="#263238" stroke-width="1.09195" stroke-linecap="round" stroke-linejoin="round" stroke-dasharray="2.18 2.18"/>
  <line x1="193.277" y1="204.2" x2="186.893" y2="179.908" stroke="#263238" stroke-width="1.09195" stroke-linecap="round" stroke-linejoin="round" stroke-dasharray="2.18 2.18"/>
  <path d="M227.865 248.987C227.326 249.197 226.726 249.186 226.197 248.954C225.667 248.723 225.25 248.29 225.039 247.752L218.644 231.409C218.539 231.142 218.488 230.856 218.493 230.569C218.498 230.282 218.56 229.999 218.674 229.735C218.789 229.472 218.955 229.234 219.161 229.035C219.368 228.835 219.612 228.678 219.879 228.573C220.147 228.468 220.432 228.417 220.719 228.422C221.006 228.427 221.29 228.489 221.553 228.604C221.816 228.718 222.054 228.884 222.254 229.09C222.453 229.297 222.61 229.541 222.715 229.808L229.11 246.152C229.215 246.419 229.267 246.705 229.261 246.993C229.256 247.281 229.193 247.565 229.077 247.828C228.962 248.092 228.795 248.33 228.587 248.528C228.379 248.727 228.133 248.883 227.865 248.987Z" fill="white" stroke="#263238" stroke-width="0.75" stroke-linecap="round" stroke-linejoin="round"/>
  <path d="M222.266 232.14L225.752 241.199" stroke="#263238" stroke-width="0.75" stroke-linecap="round" stroke-linejoin="round"/>
  <path d="M237.622 273.884C237.148 274.07 236.642 274.161 236.133 274.151C235.624 274.142 235.122 274.032 234.656 273.828C234.189 273.625 233.767 273.331 233.414 272.964C233.061 272.598 232.783 272.165 232.597 271.691L223.465 248.358C223.091 247.398 223.115 246.33 223.529 245.388C223.943 244.446 224.715 243.707 225.674 243.334C226.633 242.96 227.701 242.983 228.643 243.398C229.586 243.812 230.325 244.584 230.698 245.543L239.802 268.871C240.174 269.825 240.154 270.888 239.746 271.827C239.338 272.766 238.574 273.506 237.622 273.884Z" fill="#263238" stroke="#263238" stroke-width="0.75" stroke-linecap="round" stroke-linejoin="round"/>
  <path d="M204.165 187.765C199.815 189.468 196.068 192.422 193.396 196.255C190.725 200.087 189.251 204.626 189.159 209.297C189.067 213.967 190.363 218.56 192.881 222.495C195.4 226.429 199.029 229.528 203.309 231.4C207.589 233.272 212.328 233.833 216.927 233.012C221.526 232.191 225.778 230.024 229.145 226.786C232.513 223.549 234.844 219.385 235.846 214.822C236.847 210.259 236.472 205.501 234.77 201.151C232.485 195.318 227.978 190.632 222.239 188.121C216.5 185.611 209.999 185.483 204.165 187.765ZM219.891 227.949C216.294 229.356 212.36 229.665 208.588 228.837C204.815 228.008 201.373 226.08 198.696 223.295C196.02 220.51 194.229 216.994 193.55 213.192C192.872 209.39 193.336 205.471 194.884 201.933C196.432 198.394 198.995 195.394 202.248 193.312C205.502 191.23 209.299 190.159 213.161 190.235C217.023 190.311 220.775 191.53 223.944 193.739C227.113 195.948 229.555 199.047 230.963 202.643C232.85 207.467 232.743 212.843 230.667 217.589C228.591 222.334 224.715 226.061 219.891 227.949Z" fill="#263238" stroke="#263238" stroke-width="0.75" stroke-linecap="round" stroke-linejoin="round"/>
  <path d="M196.192 214.991C195.502 212.803 195.254 210.499 195.46 208.214C195.667 205.929 196.324 203.708 197.395 201.678" stroke="#263238" stroke-width="0.75" stroke-linecap="round" stroke-linejoin="round"/>
  <path d="M199.857 221.419C198.67 220.103 197.693 218.613 196.959 217" stroke="#263238" stroke-width="0.75" stroke-linecap="round" stroke-linejoin="round"/>
  <path d="M199.356 228.338C194.864 225.09 191.702 220.324 190.455 214.923C189.208 209.522 189.961 203.851 192.574 198.963C195.187 194.074 199.483 190.298 204.667 188.334C209.85 186.371 215.57 186.352 220.767 188.282" stroke="white" stroke-miterlimit="10"/>
  <path d="M227.895 192.535C232.036 196.153 234.737 201.139 235.507 206.584C236.278 212.028 235.065 217.568 232.09 222.192C229.116 226.816 224.578 230.217 219.304 231.774C214.031 233.331 208.373 232.94 203.364 230.673" stroke="white" stroke-miterlimit="10"/>
  <path d="M222.774 189.145C224.184 189.827 225.521 190.652 226.762 191.607" stroke="white" stroke-miterlimit="10"/>
  <path d="M228.769 264.718C228.979 265.238 229.291 265.711 229.687 266.108C230.083 266.505 230.555 266.819 231.075 267.03C231.886 267.361 232.971 267.289 234.22 267.993C237.043 269.58 244.088 268.165 249.194 268.711C254.3 269.257 261.18 263.605 261.18 263.605L281.44 264.718V244.609C281.44 244.609 260.297 245.493 255.715 243.726C251.133 241.959 246.027 238.268 243.736 238.44C241.445 238.613 222.593 240.731 222.593 240.731L228.762 264.718H228.769Z" fill="white" stroke="#2E353A" stroke-linecap="round" stroke-linejoin="round"/>
  <path d="M231.599 261.73C231.599 261.73 226.493 261.917 225.775 262.801C225.057 263.684 225.186 266.758 226.572 267.11C230.105 268.036 237.617 267.497 237.912 266.865C238.206 266.233 238.809 262.556 237.258 262.161C235.385 261.874 233.494 261.73 231.599 261.73Z" fill="white" stroke="#2E353A" stroke-linecap="round" stroke-linejoin="round"/>
  <path d="M230.127 254.606C230.127 254.606 224.188 254.384 223.261 255.454C222.335 256.524 222.155 260.524 223.721 261.127C227.714 262.657 236.698 262.061 237.107 261.271C237.517 260.481 238.407 256.38 236.648 255.719C234.888 255.059 230.127 254.606 230.127 254.606Z" fill="white" stroke="#2E353A" stroke-linecap="round" stroke-linejoin="round"/>
  <path d="M229.272 246.563C229.272 246.563 222.923 246.319 221.932 247.468C220.941 248.617 220.747 252.883 222.421 253.529C226.73 255.166 236.066 255.166 236.504 254.319C236.942 253.471 238.12 248.459 236.238 247.748C234.357 247.037 229.272 246.563 229.272 246.563Z" fill="white" stroke="#2E353A" stroke-linecap="round" stroke-linejoin="round"/>
  <path d="M225.61 239.036C225.61 239.036 219.261 238.799 218.27 239.941C217.279 241.083 217.042 245.485 218.758 246.002C220.475 246.519 232.403 247.64 232.841 246.799C233.28 245.959 234.457 240.932 232.576 240.221C230.694 239.51 225.61 239.036 225.61 239.036Z" fill="white" stroke="#2E353A" stroke-linecap="round" stroke-linejoin="round"/>
  <path d="M246.4 260.158C245.261 259.845 244.181 259.345 243.204 258.679C238.098 255.153 238.271 247.052 238.271 247.052L237.043 246.7C236.028 246.314 235.077 245.779 234.22 245.113C234.631 246.786 234.872 248.497 234.938 250.219C234.92 251.165 234.55 252.071 233.901 252.76C233.252 253.448 232.37 253.871 231.427 253.946C229.839 254.126 229.136 254.298 228.604 252.186C228.073 250.075 225.437 241.615 225.258 240.38C225.1 239.26 226.981 237.263 229.976 236.789C234.579 237.163 239.118 238.448 243.757 238.448C245.372 238.6 246.919 239.169 248.246 240.1" fill="white"/>
  <path d="M246.4 260.158C245.261 259.845 244.181 259.345 243.204 258.679C238.098 255.153 238.271 247.052 238.271 247.052L237.043 246.7C236.028 246.314 235.077 245.779 234.22 245.113C234.631 246.786 234.872 248.497 234.938 250.219C234.92 251.165 234.55 252.071 233.901 252.76C233.252 253.448 232.37 253.871 231.427 253.946C229.839 254.126 229.136 254.298 228.604 252.186C228.073 250.075 225.437 241.615 225.258 240.38C225.1 239.26 226.981 237.263 229.976 236.789C234.579 237.163 239.118 238.448 243.757 238.448C245.372 238.6 246.919 239.169 248.246 240.1" stroke="#2E353A" stroke-linecap="round" stroke-linejoin="round"/>
  <path d="M251.255 260.604C250.695 260.632 250.134 260.632 249.574 260.604H251.255Z" fill="white"/>
  <path d="M251.255 260.604C250.695 260.632 250.134 260.632 249.574 260.604" stroke="#2E353A" stroke-linecap="round" stroke-linejoin="round"/>
  <path d="M255.011 259.907C253.792 260.293 252.531 260.534 251.255 260.625L255.011 259.907Z" fill="white"/>
  <path d="M255.011 259.907C253.792 260.293 252.531 260.534 251.255 260.625" stroke="#2E353A" stroke-linecap="round" stroke-linejoin="round"/>
  <path d="M261.353 257.623H267.694" stroke="#2E353A" stroke-linecap="round" stroke-linejoin="round"/>
  <path d="M261.884 259.383H264.527" stroke="#2E353A" stroke-linecap="round" stroke-linejoin="round"/>
  <path d="M238.271 247.052C238.271 247.052 241.775 247.052 244.074 244.962" stroke="#2E353A" stroke-linecap="round" stroke-linejoin="round"/>
  <path d="M234.141 244.884C234.04 243.927 233.84 242.984 233.545 242.068" stroke="#2E353A" stroke-linecap="round" stroke-linejoin="round"/>
  <path d="M228.554 251.26C228.554 251.26 227.886 249.407 228.698 248.74C229.509 248.072 231.664 247.109 232.037 247.849C232.41 248.589 233.222 252 232.999 252.668L232.777 253.336" stroke="#2E353A" stroke-width="0.5" stroke-linecap="round" stroke-linejoin="round"/>
  <path d="M301.614 273.731H265.18V243.884L301.614 243.884" fill="#FFE8E6"/>
  <path d="M301.614 273.731H265.18V243.884L301.614 243.884" stroke="#2E353A" stroke-linecap="round" stroke-linejoin="round"/>
  </g>
  <defs>
  <clipPath id="clip0_3519_26997">
  <rect width="440" height="290" fill="white" transform="translate(0.376465)"/>
  </clipPath>
  </defs>
  </svg>
