<svg width="441" height="290" viewBox="0 0 441 290" fill="none" xmlns="http://www.w3.org/2000/svg">
  <g clip-path="url(#clip0_3519_26554)">
  <path d="M333.566 137.978C362.472 57.3447 307.675 35.998 245.983 57.3454C184.291 78.6929 135.269 132.65 116.694 165.782C96.1091 202.502 85.4795 269.997 158.4 265.182C232.081 260.316 314.788 190.358 333.566 137.978Z" stroke="#263238" stroke-width="1.41953" stroke-linecap="round" stroke-linejoin="round" stroke-dasharray="2.84 2.84"/>
  <path d="M241.339 265.606C320.936 280.471 356.386 226.253 330.667 171.339C304.948 116.424 246.992 64.3324 179.135 37.8786C127.52 17.7567 52.3245 12.8004 54.712 85.8408C56.0964 128.193 137.389 246.194 241.339 265.606Z" stroke="#263238" stroke-width="1.41953" stroke-linecap="round" stroke-linejoin="round" stroke-dasharray="2.84 2.84"/>
  <path d="M317.347 44.6211H113.54C106.872 44.6211 101.467 49.3872 101.467 55.2665V244.995C101.467 250.874 106.872 255.64 113.54 255.64H317.347C324.014 255.64 329.419 250.874 329.419 244.995V55.2665C329.419 49.3872 324.014 44.6211 317.347 44.6211Z" fill="white" stroke="#263238" stroke-width="1.41953" stroke-linecap="round" stroke-linejoin="round"/>
  <path d="M113.54 44.6212H317.529C320.715 44.6212 323.77 45.8868 326.023 48.1396C328.276 50.3924 329.542 53.4478 329.542 56.6337V69.1668H101.467V56.6938C101.459 55.1062 101.766 53.5327 102.37 52.0644C102.974 50.5961 103.863 49.2621 104.986 48.1395C106.108 47.0168 107.442 46.1279 108.911 45.524C110.379 44.9201 111.952 44.6133 113.54 44.6212Z" fill="#EEEEEE" stroke="#263238" stroke-width="1.41953" stroke-linecap="round" stroke-linejoin="round"/>
  <path d="M320.954 53.1064H110.056V60.8945H320.954V53.1064Z" fill="white"/>
  <path d="M184.603 104.438H180.438V92.1466H184.687C185.907 92.1466 186.956 92.3926 187.832 92.8848C188.712 93.3729 189.388 94.075 189.86 94.9913C190.332 95.9075 190.568 97.0037 190.568 98.28C190.568 99.5603 190.33 100.661 189.854 101.581C189.382 102.501 188.7 103.207 187.808 103.699C186.92 104.191 185.851 104.438 184.603 104.438ZM182.665 102.511H184.495C185.351 102.511 186.065 102.355 186.637 102.043C187.21 101.727 187.64 101.257 187.928 100.633C188.216 100.004 188.36 99.2203 188.36 98.28C188.36 97.3398 188.216 96.5596 187.928 95.9395C187.64 95.3153 187.214 94.8492 186.649 94.5412C186.089 94.2291 185.393 94.073 184.561 94.073H182.665V102.511ZM196.609 104.618C195.709 104.618 194.928 104.419 194.268 104.023C193.608 103.627 193.096 103.073 192.732 102.361C192.372 101.649 192.192 100.817 192.192 99.8644C192.192 98.9122 192.372 98.078 192.732 97.3618C193.096 96.6457 193.608 96.0895 194.268 95.6934C194.928 95.2973 195.709 95.0993 196.609 95.0993C197.509 95.0993 198.289 95.2973 198.949 95.6934C199.61 96.0895 200.12 96.6457 200.48 97.3618C200.844 98.078 201.026 98.9122 201.026 99.8644C201.026 100.817 200.844 101.649 200.48 102.361C200.12 103.073 199.61 103.627 198.949 104.023C198.289 104.419 197.509 104.618 196.609 104.618ZM196.621 102.877C197.109 102.877 197.517 102.743 197.845 102.475C198.173 102.203 198.417 101.839 198.577 101.383C198.741 100.927 198.823 100.419 198.823 99.8584C198.823 99.2943 198.741 98.7842 198.577 98.3281C198.417 97.8679 198.173 97.5019 197.845 97.2298C197.517 96.9577 197.109 96.8217 196.621 96.8217C196.121 96.8217 195.705 96.9577 195.373 97.2298C195.044 97.5019 194.798 97.8679 194.634 98.3281C194.474 98.7842 194.394 99.2943 194.394 99.8584C194.394 100.419 194.474 100.927 194.634 101.383C194.798 101.839 195.044 102.203 195.373 102.475C195.705 102.743 196.121 102.877 196.621 102.877ZM205.042 99.0362V104.438H202.87V95.2193H204.946V96.7857H205.054C205.266 96.2696 205.604 95.8595 206.069 95.5554C206.537 95.2513 207.115 95.0993 207.803 95.0993C208.439 95.0993 208.993 95.2353 209.465 95.5074C209.941 95.7794 210.31 96.1735 210.57 96.6897C210.834 97.2058 210.964 97.8319 210.96 98.5681V104.438H208.787V98.9042C208.787 98.288 208.627 97.8059 208.307 97.4578C207.991 97.1098 207.553 96.9357 206.993 96.9357C206.613 96.9357 206.275 97.0197 205.979 97.1878C205.686 97.3518 205.456 97.5899 205.288 97.902C205.124 98.214 205.042 98.5921 205.042 99.0362ZM215.341 99.0362V104.438H213.168V95.2193H215.245V96.7857H215.353C215.565 96.2696 215.903 95.8595 216.367 95.5554C216.835 95.2513 217.413 95.0993 218.101 95.0993C218.738 95.0993 219.292 95.2353 219.764 95.5074C220.24 95.7794 220.608 96.1735 220.868 96.6897C221.132 97.2058 221.262 97.8319 221.258 98.5681V104.438H219.086V98.9042C219.086 98.288 218.926 97.8059 218.606 97.4578C218.289 97.1098 217.851 96.9357 217.291 96.9357C216.911 96.9357 216.573 97.0197 216.277 97.1878C215.985 97.3518 215.755 97.5899 215.587 97.902C215.423 98.214 215.341 98.5921 215.341 99.0362ZM227.548 104.618C226.623 104.618 225.825 104.425 225.153 104.041C224.485 103.653 223.971 103.105 223.611 102.397C223.251 101.685 223.071 100.847 223.071 99.8824C223.071 98.9342 223.251 98.102 223.611 97.3858C223.975 96.6657 224.483 96.1055 225.135 95.7054C225.787 95.3013 226.553 95.0993 227.434 95.0993C228.002 95.0993 228.538 95.1913 229.042 95.3754C229.55 95.5554 229.998 95.8355 230.386 96.2156C230.778 96.5956 231.087 97.0798 231.311 97.6679C231.535 98.252 231.647 98.9482 231.647 99.7564V100.423H224.091V98.9582H229.564C229.56 98.5421 229.47 98.172 229.294 97.8479C229.118 97.5199 228.872 97.2618 228.556 97.0738C228.244 96.8857 227.88 96.7917 227.464 96.7917C227.02 96.7917 226.629 96.8997 226.293 97.1158C225.957 97.3278 225.695 97.6079 225.507 97.956C225.323 98.3 225.229 98.6781 225.225 99.0902V100.369C225.225 100.905 225.323 101.365 225.519 101.749C225.715 102.129 225.989 102.421 226.341 102.625C226.693 102.825 227.106 102.925 227.578 102.925C227.894 102.925 228.18 102.881 228.436 102.793C228.692 102.701 228.914 102.567 229.102 102.391C229.29 102.215 229.432 101.997 229.528 101.737L231.557 101.965C231.429 102.501 231.185 102.969 230.824 103.369C230.468 103.765 230.012 104.073 229.456 104.293C228.9 104.51 228.264 104.618 227.548 104.618ZM226.539 94.007L227.884 91.2644H230.008L228.166 94.007H226.539ZM237.566 104.618C236.641 104.618 235.843 104.425 235.171 104.041C234.503 103.653 233.989 103.105 233.629 102.397C233.269 101.685 233.088 100.847 233.088 99.8824C233.088 98.9342 233.269 98.102 233.629 97.3858C233.993 96.6657 234.501 96.1055 235.153 95.7054C235.805 95.3013 236.571 95.0993 237.452 95.0993C238.02 95.0993 238.556 95.1913 239.06 95.3754C239.568 95.5554 240.016 95.8355 240.404 96.2156C240.796 96.5956 241.104 97.0798 241.328 97.6679C241.552 98.252 241.665 98.9482 241.665 99.7564V100.423H234.109V98.9582H239.582C239.578 98.5421 239.488 98.172 239.312 97.8479C239.136 97.5199 238.89 97.2618 238.574 97.0738C238.262 96.8857 237.898 96.7917 237.482 96.7917C237.037 96.7917 236.647 96.8997 236.311 97.1158C235.975 97.3278 235.713 97.6079 235.525 97.956C235.341 98.3 235.247 98.6781 235.243 99.0902V100.369C235.243 100.905 235.341 101.365 235.537 101.749C235.733 102.129 236.007 102.421 236.359 102.625C236.711 102.825 237.123 102.925 237.596 102.925C237.912 102.925 238.198 102.881 238.454 102.793C238.71 102.701 238.932 102.567 239.12 102.391C239.308 102.215 239.45 101.997 239.546 101.737L241.574 101.965C241.446 102.501 241.202 102.969 240.842 103.369C240.486 103.765 240.03 104.073 239.474 104.293C238.918 104.51 238.282 104.618 237.566 104.618ZM250.788 97.6559L248.808 97.8719C248.752 97.6719 248.654 97.4839 248.514 97.3078C248.378 97.1318 248.194 96.9897 247.962 96.8817C247.729 96.7737 247.445 96.7197 247.109 96.7197C246.657 96.7197 246.277 96.8177 245.969 97.0137C245.665 97.2098 245.515 97.4638 245.519 97.7759C245.515 98.044 245.613 98.262 245.813 98.4301C246.017 98.5981 246.353 98.7361 246.821 98.8442L248.394 99.1803C249.266 99.3683 249.914 99.6664 250.338 100.074C250.766 100.483 250.982 101.017 250.986 101.677C250.982 102.257 250.812 102.769 250.476 103.213C250.144 103.653 249.682 103.997 249.09 104.245C248.498 104.494 247.817 104.618 247.049 104.618C245.921 104.618 245.013 104.381 244.325 103.909C243.636 103.433 243.226 102.771 243.094 101.923L245.213 101.719C245.309 102.135 245.513 102.449 245.825 102.661C246.137 102.873 246.543 102.979 247.043 102.979C247.559 102.979 247.974 102.873 248.286 102.661C248.602 102.449 248.76 102.187 248.76 101.875C248.76 101.611 248.658 101.393 248.454 101.221C248.254 101.049 247.942 100.917 247.517 100.825L245.945 100.495C245.061 100.311 244.407 100 243.983 99.5643C243.558 99.1242 243.348 98.5681 243.352 97.8959C243.348 97.3278 243.502 96.8357 243.815 96.4196C244.131 95.9995 244.569 95.6754 245.129 95.4474C245.693 95.2153 246.343 95.0993 247.079 95.0993C248.16 95.0993 249.01 95.3293 249.63 95.7894C250.254 96.2496 250.64 96.8717 250.788 97.6559ZM142.313 124.618C141.389 124.618 140.591 124.425 139.919 124.041C139.25 123.653 138.736 123.105 138.376 122.397C138.016 121.685 137.836 120.847 137.836 119.882C137.836 118.934 138.016 118.102 138.376 117.386C138.74 116.666 139.248 116.106 139.901 115.705C140.553 115.301 141.319 115.099 142.199 115.099C142.767 115.099 143.303 115.191 143.808 115.375C144.316 115.555 144.764 115.835 145.152 116.216C145.544 116.596 145.852 117.08 146.076 117.668C146.3 118.252 146.412 118.948 146.412 119.756V120.423H138.856V118.958H144.33C144.326 118.542 144.236 118.172 144.06 117.848C143.884 117.52 143.638 117.262 143.321 117.074C143.009 116.886 142.645 116.792 142.229 116.792C141.785 116.792 141.395 116.9 141.059 117.116C140.723 117.328 140.461 117.608 140.273 117.956C140.089 118.3 139.995 118.678 139.991 119.09V120.369C139.991 120.905 140.089 121.365 140.285 121.749C140.481 122.129 140.755 122.421 141.107 122.625C141.459 122.825 141.871 122.925 142.343 122.925C142.659 122.925 142.945 122.881 143.201 122.793C143.457 122.701 143.68 122.567 143.868 122.391C144.056 122.215 144.198 121.997 144.294 121.737L146.322 121.965C146.194 122.501 145.95 122.969 145.59 123.369C145.234 123.765 144.778 124.073 144.222 124.293C143.666 124.51 143.029 124.618 142.313 124.618ZM150.423 119.036V124.438H148.25V115.219H150.327V116.786H150.435C150.647 116.27 150.985 115.859 151.449 115.555C151.917 115.251 152.495 115.099 153.183 115.099C153.819 115.099 154.374 115.235 154.846 115.507C155.322 115.779 155.69 116.174 155.95 116.69C156.214 117.206 156.344 117.832 156.34 118.568V124.438H154.168V118.904C154.168 118.288 154.007 117.806 153.687 117.458C153.371 117.11 152.933 116.936 152.373 116.936C151.993 116.936 151.655 117.02 151.359 117.188C151.067 117.352 150.837 117.59 150.669 117.902C150.505 118.214 150.423 118.592 150.423 119.036ZM166.452 115.219L163.17 124.438H160.769L157.486 115.219H159.803L161.921 122.067H162.017L164.142 115.219H166.452ZM167.956 124.438V115.219H170.128V124.438H167.956ZM169.048 113.911C168.704 113.911 168.408 113.797 168.16 113.569C167.912 113.337 167.788 113.059 167.788 112.735C167.788 112.407 167.912 112.129 168.16 111.901C168.408 111.668 168.704 111.552 169.048 111.552C169.396 111.552 169.692 111.668 169.936 111.901C170.184 112.129 170.308 112.407 170.308 112.735C170.308 113.059 170.184 113.337 169.936 113.569C169.692 113.797 169.396 113.911 169.048 113.911ZM172.362 124.438V115.219H174.469V116.756H174.565C174.733 116.224 175.021 115.813 175.429 115.525C175.841 115.233 176.311 115.087 176.839 115.087C176.959 115.087 177.093 115.093 177.241 115.105C177.394 115.113 177.52 115.127 177.62 115.147V117.146C177.528 117.114 177.382 117.086 177.181 117.062C176.985 117.034 176.795 117.02 176.611 117.02C176.215 117.02 175.859 117.106 175.543 117.278C175.231 117.446 174.985 117.68 174.805 117.98C174.625 118.28 174.535 118.626 174.535 119.018V124.438H172.362ZM182.704 124.618C181.804 124.618 181.024 124.419 180.364 124.023C179.704 123.627 179.191 123.073 178.827 122.361C178.467 121.649 178.287 120.817 178.287 119.864C178.287 118.912 178.467 118.078 178.827 117.362C179.191 116.646 179.704 116.09 180.364 115.693C181.024 115.297 181.804 115.099 182.704 115.099C183.604 115.099 184.385 115.297 185.045 115.693C185.705 116.09 186.215 116.646 186.575 117.362C186.939 118.078 187.121 118.912 187.121 119.864C187.121 120.817 186.939 121.649 186.575 122.361C186.215 123.073 185.705 123.627 185.045 124.023C184.385 124.419 183.604 124.618 182.704 124.618ZM182.716 122.877C183.204 122.877 183.612 122.743 183.941 122.475C184.269 122.203 184.513 121.839 184.673 121.383C184.837 120.927 184.919 120.419 184.919 119.858C184.919 119.294 184.837 118.784 184.673 118.328C184.513 117.868 184.269 117.502 183.941 117.23C183.612 116.958 183.204 116.822 182.716 116.822C182.216 116.822 181.8 116.958 181.468 117.23C181.14 117.502 180.894 117.868 180.73 118.328C180.57 118.784 180.49 119.294 180.49 119.858C180.49 120.419 180.57 120.927 180.73 121.383C180.894 121.839 181.14 122.203 181.468 122.475C181.8 122.743 182.216 122.877 182.716 122.877ZM191.138 119.036V124.438H188.965V115.219H191.042V116.786H191.15C191.362 116.27 191.7 115.859 192.164 115.555C192.632 115.251 193.21 115.099 193.898 115.099C194.535 115.099 195.089 115.235 195.561 115.507C196.037 115.779 196.405 116.174 196.665 116.69C196.929 117.206 197.059 117.832 197.055 118.568V124.438H194.883V118.904C194.883 118.288 194.723 117.806 194.403 117.458C194.086 117.11 193.648 116.936 193.088 116.936C192.708 116.936 192.37 117.02 192.074 117.188C191.782 117.352 191.552 117.59 191.384 117.902C191.22 118.214 191.138 118.592 191.138 119.036ZM201.436 119.036V124.438H199.264V115.219H201.34V116.786H201.448C201.66 116.27 201.998 115.859 202.462 115.555C202.931 115.251 203.509 115.099 204.197 115.099C204.833 115.099 205.387 115.235 205.859 115.507C206.335 115.779 206.703 116.174 206.964 116.69C207.228 117.206 207.358 117.832 207.354 118.568V124.438H205.181V118.904C205.181 118.288 205.021 117.806 204.701 117.458C204.385 117.11 203.947 116.936 203.387 116.936C203.007 116.936 202.669 117.02 202.372 117.188C202.08 117.352 201.85 117.59 201.682 117.902C201.518 118.214 201.436 118.592 201.436 119.036ZM213.643 124.618C212.719 124.618 211.921 124.425 211.249 124.041C210.58 123.653 210.066 123.105 209.706 122.397C209.346 121.685 209.166 120.847 209.166 119.882C209.166 118.934 209.346 118.102 209.706 117.386C210.07 116.666 210.578 116.106 211.231 115.705C211.883 115.301 212.649 115.099 213.529 115.099C214.097 115.099 214.633 115.191 215.137 115.375C215.646 115.555 216.094 115.835 216.482 116.216C216.874 116.596 217.182 117.08 217.406 117.668C217.63 118.252 217.742 118.948 217.742 119.756V120.423H210.186V118.958H215.66C215.656 118.542 215.566 118.172 215.39 117.848C215.213 117.52 214.967 117.262 214.651 117.074C214.339 116.886 213.975 116.792 213.559 116.792C213.115 116.792 212.725 116.9 212.389 117.116C212.053 117.328 211.791 117.608 211.603 117.956C211.419 118.3 211.325 118.678 211.321 119.09V120.369C211.321 120.905 211.419 121.365 211.615 121.749C211.811 122.129 212.085 122.421 212.437 122.625C212.789 122.825 213.201 122.925 213.673 122.925C213.989 122.925 214.275 122.881 214.531 122.793C214.787 122.701 215.009 122.567 215.197 122.391C215.386 122.215 215.528 121.997 215.624 121.737L217.652 121.965C217.524 122.501 217.28 122.969 216.92 123.369C216.564 123.765 216.108 124.073 215.552 124.293C214.995 124.51 214.359 124.618 213.643 124.618ZM219.58 124.438V115.219H221.657V116.786H221.765C221.957 116.258 222.275 115.845 222.719 115.549C223.163 115.249 223.693 115.099 224.309 115.099C224.933 115.099 225.459 115.251 225.888 115.555C226.32 115.855 226.624 116.266 226.8 116.786H226.896C227.1 116.274 227.444 115.865 227.928 115.561C228.416 115.253 228.994 115.099 229.662 115.099C230.511 115.099 231.203 115.367 231.739 115.903C232.275 116.44 232.543 117.222 232.543 118.25V124.438H230.365V118.586C230.365 118.014 230.213 117.596 229.908 117.332C229.604 117.064 229.232 116.93 228.792 116.93C228.268 116.93 227.858 117.094 227.562 117.422C227.27 117.746 227.124 118.168 227.124 118.688V124.438H224.993V118.496C224.993 118.02 224.849 117.64 224.561 117.356C224.277 117.072 223.905 116.93 223.445 116.93C223.133 116.93 222.849 117.01 222.593 117.17C222.337 117.326 222.133 117.548 221.981 117.836C221.829 118.12 221.753 118.452 221.753 118.832V124.438H219.58ZM238.828 124.618C237.904 124.618 237.106 124.425 236.434 124.041C235.765 123.653 235.251 123.105 234.891 122.397C234.531 121.685 234.351 120.847 234.351 119.882C234.351 118.934 234.531 118.102 234.891 117.386C235.255 116.666 235.763 116.106 236.416 115.705C237.068 115.301 237.834 115.099 238.714 115.099C239.282 115.099 239.818 115.191 240.322 115.375C240.831 115.555 241.279 115.835 241.667 116.216C242.059 116.596 242.367 117.08 242.591 117.668C242.815 118.252 242.927 118.948 242.927 119.756V120.423H235.371V118.958H240.845C240.841 118.542 240.751 118.172 240.575 117.848C240.398 117.52 240.152 117.262 239.836 117.074C239.524 116.886 239.16 116.792 238.744 116.792C238.3 116.792 237.91 116.9 237.574 117.116C237.238 117.328 236.976 117.608 236.788 117.956C236.604 118.3 236.51 118.678 236.506 119.09V120.369C236.506 120.905 236.604 121.365 236.8 121.749C236.996 122.129 237.27 122.421 237.622 122.625C237.974 122.825 238.386 122.925 238.858 122.925C239.174 122.925 239.46 122.881 239.716 122.793C239.972 122.701 240.194 122.567 240.382 122.391C240.571 122.215 240.713 121.997 240.809 121.737L242.837 121.965C242.709 122.501 242.465 122.969 242.105 123.369C241.749 123.765 241.293 124.073 240.737 124.293C240.18 124.51 239.544 124.618 238.828 124.618ZM246.938 119.036V124.438H244.765V115.219H246.841V116.786H246.95C247.162 116.27 247.5 115.859 247.964 115.555C248.432 115.251 249.01 115.099 249.698 115.099C250.334 115.099 250.888 115.235 251.361 115.507C251.837 115.779 252.205 116.174 252.465 116.69C252.729 117.206 252.859 117.832 252.855 118.568V124.438H250.682V118.904C250.682 118.288 250.522 117.806 250.202 117.458C249.886 117.11 249.448 116.936 248.888 116.936C248.508 116.936 248.17 117.02 247.874 117.188C247.582 117.352 247.352 117.59 247.184 117.902C247.02 118.214 246.938 118.592 246.938 119.036ZM259.667 115.219V116.9H254.367V115.219H259.667ZM255.676 113.011H257.848V121.665C257.848 121.957 257.892 122.181 257.98 122.337C258.072 122.489 258.192 122.593 258.34 122.649C258.488 122.705 258.652 122.733 258.832 122.733C258.968 122.733 259.092 122.723 259.204 122.703C259.32 122.683 259.408 122.665 259.468 122.649L259.835 124.347C259.719 124.387 259.553 124.431 259.336 124.48C259.124 124.528 258.864 124.556 258.556 124.564C258.012 124.58 257.522 124.498 257.086 124.317C256.65 124.133 256.304 123.849 256.048 123.465C255.796 123.081 255.672 122.601 255.676 122.025V113.011ZM264.136 124.624C263.552 124.624 263.026 124.52 262.558 124.311C262.094 124.099 261.726 123.787 261.453 123.375C261.185 122.963 261.051 122.455 261.051 121.851C261.051 121.331 261.147 120.901 261.339 120.561C261.531 120.221 261.794 119.948 262.126 119.744C262.458 119.54 262.832 119.386 263.248 119.282C263.668 119.174 264.102 119.096 264.55 119.048C265.09 118.992 265.528 118.942 265.864 118.898C266.201 118.85 266.445 118.778 266.597 118.682C266.753 118.582 266.831 118.428 266.831 118.22V118.184C266.831 117.732 266.697 117.382 266.429 117.134C266.161 116.886 265.774 116.762 265.27 116.762C264.738 116.762 264.316 116.878 264.004 117.11C263.696 117.342 263.488 117.616 263.38 117.932L261.351 117.644C261.511 117.084 261.776 116.616 262.144 116.24C262.512 115.859 262.962 115.575 263.494 115.387C264.026 115.195 264.614 115.099 265.258 115.099C265.702 115.099 266.145 115.151 266.585 115.255C267.025 115.359 267.427 115.531 267.791 115.771C268.155 116.008 268.447 116.33 268.667 116.738C268.891 117.146 269.003 117.656 269.003 118.268V124.438H266.915V123.171H266.843C266.711 123.427 266.525 123.667 266.285 123.891C266.049 124.111 265.75 124.289 265.39 124.425C265.034 124.558 264.616 124.624 264.136 124.624ZM264.7 123.027C265.136 123.027 265.514 122.941 265.834 122.769C266.155 122.593 266.401 122.361 266.573 122.073C266.749 121.785 266.837 121.471 266.837 121.131V120.044C266.769 120.1 266.653 120.152 266.489 120.2C266.329 120.249 266.149 120.291 265.949 120.327C265.748 120.363 265.55 120.395 265.354 120.423C265.158 120.451 264.988 120.475 264.844 120.495C264.52 120.539 264.23 120.611 263.974 120.711C263.718 120.811 263.516 120.951 263.368 121.131C263.22 121.307 263.146 121.535 263.146 121.815C263.146 122.215 263.292 122.517 263.584 122.721C263.876 122.925 264.248 123.027 264.7 123.027ZM273.36 112.147V124.438H271.188V112.147H273.36ZM279.675 124.618C278.751 124.618 277.953 124.425 277.281 124.041C276.613 123.653 276.098 123.105 275.738 122.397C275.378 121.685 275.198 120.847 275.198 119.882C275.198 118.934 275.378 118.102 275.738 117.386C276.102 116.666 276.611 116.106 277.263 115.705C277.915 115.301 278.681 115.099 279.561 115.099C280.129 115.099 280.666 115.191 281.17 115.375C281.678 115.555 282.126 115.835 282.514 116.216C282.906 116.596 283.214 117.08 283.438 117.668C283.662 118.252 283.774 118.948 283.774 119.756V120.423H276.218V118.958H281.692C281.688 118.542 281.598 118.172 281.422 117.848C281.246 117.52 281 117.262 280.684 117.074C280.371 116.886 280.007 116.792 279.591 116.792C279.147 116.792 278.757 116.9 278.421 117.116C278.085 117.328 277.823 117.608 277.635 117.956C277.451 118.3 277.357 118.678 277.353 119.09V120.369C277.353 120.905 277.451 121.365 277.647 121.749C277.843 122.129 278.117 122.421 278.469 122.625C278.821 122.825 279.233 122.925 279.705 122.925C280.021 122.925 280.307 122.881 280.564 122.793C280.82 122.701 281.042 122.567 281.23 122.391C281.418 122.215 281.56 121.997 281.656 121.737L283.684 121.965C283.556 122.501 283.312 122.969 282.952 123.369C282.596 123.765 282.14 124.073 281.584 124.293C281.028 124.51 280.391 124.618 279.675 124.618ZM292.898 117.656L290.917 117.872C290.861 117.672 290.763 117.484 290.623 117.308C290.487 117.132 290.303 116.99 290.071 116.882C289.839 116.774 289.555 116.72 289.219 116.72C288.767 116.72 288.387 116.818 288.079 117.014C287.775 117.21 287.625 117.464 287.629 117.776C287.625 118.044 287.723 118.262 287.923 118.43C288.127 118.598 288.463 118.736 288.931 118.844L290.503 119.18C291.376 119.368 292.024 119.666 292.448 120.074C292.876 120.483 293.092 121.017 293.096 121.677C293.092 122.257 292.922 122.769 292.586 123.213C292.254 123.653 291.792 123.997 291.2 124.245C290.607 124.494 289.927 124.618 289.159 124.618C288.031 124.618 287.123 124.381 286.434 123.909C285.746 123.433 285.336 122.771 285.204 121.923L287.323 121.719C287.419 122.135 287.623 122.449 287.935 122.661C288.247 122.873 288.653 122.979 289.153 122.979C289.669 122.979 290.083 122.873 290.395 122.661C290.711 122.449 290.869 122.187 290.869 121.875C290.869 121.611 290.767 121.393 290.563 121.221C290.363 121.049 290.051 120.917 289.627 120.825L288.055 120.495C287.171 120.311 286.516 120 286.092 119.564C285.668 119.124 285.458 118.568 285.462 117.896C285.458 117.328 285.612 116.836 285.924 116.42C286.24 115.999 286.678 115.675 287.239 115.447C287.803 115.215 288.453 115.099 289.189 115.099C290.269 115.099 291.119 115.329 291.74 115.789C292.364 116.25 292.75 116.872 292.898 117.656Z" fill="#263238"/>
  <path d="M75.9044 135.53C96.7926 132.18 110.941 112.952 107.505 92.5838C104.07 72.2152 84.3514 58.419 63.4631 61.7691C42.5749 65.1192 28.4267 84.347 31.8622 104.716C35.2978 125.084 55.0161 138.88 75.9044 135.53Z" fill="#FFE8E6" stroke="#263238" stroke-width="1.41953" stroke-miterlimit="10"/>
  <path opacity="0.3" d="M75.9044 135.53C96.7926 132.18 110.941 112.952 107.505 92.5838C104.07 72.2152 84.3514 58.419 63.4631 61.7691C42.5749 65.1192 28.4267 84.347 31.8622 104.716C35.2978 125.084 55.0161 138.88 75.9044 135.53Z" fill="white" stroke="#263238" stroke-width="1.41953" stroke-miterlimit="10"/>
  <path d="M43.3093 117.609C42.6511 120.167 39.6528 119.81 40.5669 122.957C46.6918 129.949 55.2458 134.492 64.5915 135.717C73.9371 136.942 83.418 134.764 91.2191 129.598C93.9615 126.434 95.607 123.109 95.6801 120.434C95.9269 112.269 87.0781 106.172 86.6027 102.241C86.1274 98.3101 89.9485 89.4229 89.9485 89.4229C89.9485 89.4229 96.6399 88.487 99.035 82.6662C101.43 76.8454 92.3252 63.7508 84.1894 59.7842C76.0536 55.8175 62.433 59.3206 55.7415 68.8764C49.0501 78.4321 57.1767 86.829 52.8712 91.2592C48.5656 95.6894 37.3309 95.9212 36.1333 104.782C34.9358 113.642 44.0223 114.81 43.3093 117.609Z" fill="#263238" stroke="#263238" stroke-width="1.41953" stroke-miterlimit="10"/>
  <path d="M84.2181 68.6699C84.2181 68.6699 86.6405 74.4551 77.2066 77.8691C67.7728 81.2831 60.4962 79.4469 58.0647 85.4905C55.6331 91.5341 57.5253 95.7504 57.7995 98.8614C58.0738 101.972 50.4865 101.482 45.9158 105.431C41.3451 109.38 50.4865 114.104 52.9272 116.734C55.3679 119.363 54.8103 123.303 50.4956 124.623" stroke="white" stroke-width="1.06465" stroke-linecap="round" stroke-linejoin="round"/>
  <path d="M55.6411 80.7649C55.6411 80.7649 59.1423 72.3502 64.5357 71.0309C69.9291 69.7116 75.8618 73.6605 79.9023 69.9791C83.9427 66.2976 83.1383 63.6769 80.1674 61.5732" stroke="white" stroke-width="1.06465" stroke-linecap="round" stroke-linejoin="round"/>
  <path d="M88.2578 72.083C88.2578 72.083 97.7008 78.1356 94.4648 82.8689C91.2287 87.6021 90.1501 81.817 90.1501 81.817" stroke="white" stroke-width="1.06465" stroke-linecap="round" stroke-linejoin="round"/>
  <path d="M48.895 130.042C56.0553 134.554 64.5549 136.608 73.0476 135.878C81.5402 135.149 89.5404 131.677 95.781 126.013C92.9588 123.484 89.9659 121.144 86.8225 119.006C80.844 115.04 76.0631 113.658 72.7174 113.872C72.7174 113.872 70.0847 115.04 65.0661 119.702C61.7935 122.741 53.9319 127.261 48.895 130.042Z" fill="white" stroke="#263238" stroke-width="1.41953" stroke-miterlimit="10"/>
  <path d="M81.5568 120.28C81.5596 118.729 81.3317 117.186 80.8803 115.698C78.3488 114.464 75.5465 113.852 72.7171 113.916C72.7171 113.916 70.6237 114.807 66.629 118.373C66.5445 119.032 66.5018 119.696 66.501 120.36C66.501 126.484 69.865 131.44 74.0243 131.44C78.1836 131.44 81.5568 126.404 81.5568 120.28Z" fill="white" stroke="#263238" stroke-width="1.41953" stroke-miterlimit="10"/>
  <path d="M70.7982 101.98C70.7982 101.98 70.7982 108.514 70.0851 114.576C69.3721 120.637 70.3228 127.162 74.8661 127.626C79.4093 128.089 78.6871 117.607 78.2118 113.408C77.9297 110.774 77.9297 108.118 78.2118 105.484L70.7982 101.98Z" fill="white"/>
  <mask id="mask0_3519_26554" style="mask-type:luminance" maskUnits="userSpaceOnUse" x="69" y="101" width="10" height="27">
  <path d="M70.7982 101.98C70.7982 101.98 70.7982 108.514 70.0851 114.576C69.3721 120.637 70.3228 127.162 74.8661 127.626C79.4093 128.089 78.6871 117.607 78.2118 113.408C77.9297 110.774 77.9297 108.118 78.2118 105.484L70.7982 101.98Z" fill="white"/>
  </mask>
  <g mask="url(#mask0_3519_26554)">
  <g style="mix-blend-mode:multiply" opacity="0.5">
  <path d="M69.9482 115.983L78.0201 108.353C78.0201 108.112 78.0201 107.88 78.0201 107.666L76.3746 104.68L70.771 102.006C70.771 102.006 70.771 108.54 70.0579 114.601C70.0305 115.038 69.9848 115.51 69.9482 115.983Z" fill="#FFE8E6"/>
  </g>
  </g>
  <path d="M70.7982 101.98C70.7982 101.98 70.7982 108.514 70.0851 114.576C69.3721 120.637 70.3228 127.162 74.8661 127.626C79.4093 128.089 78.6871 117.607 78.2118 113.408C77.9297 110.774 77.9297 108.118 78.2118 105.484L70.7982 101.98Z" stroke="#263238" stroke-width="1.41953" stroke-miterlimit="10"/>
  <path d="M87.0608 72.8418C87.0608 72.8418 87.5361 75.8725 79.4095 79.6075C71.2828 83.3424 67.2149 86.3642 66.5019 89.8585C65.7889 93.3527 65.5421 94.7611 65.5421 94.7611C65.5421 94.7611 63.8692 91.4897 60.7611 93.121C57.6531 94.7522 60.5235 101.054 63.3938 101.286C66.2642 101.518 66.9773 100.582 66.9773 100.582C66.9773 100.582 76.3014 109.674 81.7954 109.674C87.2893 109.674 89.4467 104.549 90.6442 95.4118C91.8052 86.6405 87.0608 72.8418 87.0608 72.8418Z" fill="white"/>
  <mask id="mask1_3519_26554" style="mask-type:luminance" maskUnits="userSpaceOnUse" x="59" y="72" width="32" height="38">
  <path d="M87.0593 72.8389C87.0593 72.8389 87.5347 75.8696 79.408 79.6045C71.2814 83.3395 67.2135 86.3613 66.5004 89.8555C65.7874 93.3498 65.5406 94.7582 65.5406 94.7582C65.5406 94.7582 63.8677 91.4868 60.7597 93.118C57.6516 94.7493 60.522 101.051 63.3924 101.283C66.2628 101.515 66.9758 100.579 66.9758 100.579C66.9758 100.579 76.3 109.671 81.7939 109.671C87.2879 109.671 89.4452 104.546 90.6427 95.4089C91.8037 86.6376 87.0593 72.8389 87.0593 72.8389Z" fill="white"/>
  </mask>
  <g mask="url(#mask1_3519_26554)">
  <g style="mix-blend-mode:multiply" opacity="0.5">
  <path d="M69.1149 91.5429C69.4048 88.6067 70.4762 85.7951 72.2229 83.3867C68.8132 85.5617 66.9575 87.6119 66.5004 89.8582C65.7783 93.3614 65.5406 94.7609 65.5406 94.7609C65.5406 94.7609 63.8677 91.4895 60.7597 93.1207C57.6516 94.752 60.522 101.054 63.3924 101.286C66.2628 101.518 66.9758 100.582 66.9758 100.582C66.9758 100.582 76.3 109.674 81.7939 109.674C80.1629 108.883 78.6294 107.914 77.2232 106.786C73.9689 104.468 68.8498 97.337 69.1149 91.5429Z" fill="#FFE8E6"/>
  </g>
  </g>
  <path d="M87.0608 72.8418C87.0608 72.8418 87.5361 75.8725 79.4095 79.6075C71.2828 83.3424 67.2149 86.3642 66.5019 89.8585C65.7889 93.3527 65.5421 94.7611 65.5421 94.7611C65.5421 94.7611 63.8692 91.4897 60.7611 93.121C57.6531 94.7522 60.5235 101.054 63.3938 101.286C66.2642 101.518 66.9773 100.582 66.9773 100.582C66.9773 100.582 76.3014 109.674 81.7954 109.674C87.2893 109.674 89.4467 104.549 90.6442 95.4118C91.8052 86.6405 87.0608 72.8418 87.0608 72.8418Z" stroke="#263238" stroke-width="1.41953" stroke-miterlimit="10"/>
  <path d="M85.4054 86.9873C85.134 87.71 85.0215 88.4802 85.075 89.248C85.1286 90.0158 85.347 90.7641 85.7162 91.4443C86.9686 93.7351 87.5994 94.4928 87.1332 95.1079C86.9994 95.3193 86.8243 95.503 86.6177 95.6483C86.4111 95.7937 86.1772 95.8979 85.9293 95.9551C85.6814 96.0122 85.4243 96.0211 85.1729 95.9813C84.9214 95.9414 84.6805 95.8537 84.4639 95.7229" stroke="#263238" stroke-width="1.41953" stroke-linecap="round" stroke-linejoin="round"/>
  <path d="M84.4642 101.205C84.4642 101.205 79.8935 102.89 78.3486 99.6719" stroke="#263238" stroke-width="1.41953" stroke-linecap="round" stroke-linejoin="round"/>
  <path d="M79.9203 90.4302C79.9203 91.4019 79.637 92.213 79.2896 92.213C78.9422 92.213 78.668 91.4286 78.668 90.4302C78.668 89.4319 78.9422 88.6475 79.2896 88.6475C79.637 88.6475 79.9203 89.4586 79.9203 90.4302Z" fill="#263238"/>
  <path d="M87.6005 90.1947C87.9488 90.1947 88.2312 89.4085 88.2312 88.4387C88.2312 87.4688 87.9488 86.6826 87.6005 86.6826C87.2521 86.6826 86.9697 87.4688 86.9697 88.4387C86.9697 89.4085 87.2521 90.1947 87.6005 90.1947Z" fill="#263238"/>
  <path d="M75.377 85.3108C75.377 85.3108 76.2911 82.8595 80.0756 83.323" stroke="#263238" stroke-width="1.41953" stroke-linecap="round" stroke-linejoin="round"/>
  <path d="M85.5615 82.859C85.5615 82.859 86.6585 80.265 89.0078 82.4043" stroke="#263238" stroke-width="1.41953" stroke-linecap="round" stroke-linejoin="round"/>
  <path d="M375.445 273.237C399.77 267.529 414.744 243.674 408.891 219.954C403.037 196.234 378.573 181.632 354.248 187.34C329.923 193.048 314.948 216.904 320.802 240.623C326.655 264.343 351.12 278.945 375.445 273.237Z" fill="#E8EDFF" stroke="#263238" stroke-width="1.41953" stroke-miterlimit="10"/>
  <path opacity="0.3" d="M375.445 273.237C399.77 267.529 414.744 243.674 408.891 219.954C403.037 196.234 378.573 181.632 354.248 187.34C329.923 193.048 314.948 216.904 320.802 240.623C326.655 264.343 351.12 278.945 375.445 273.237Z" fill="white" stroke="#263238" stroke-width="1.41953" stroke-miterlimit="10"/>
  <path d="M403.542 221.496C409.645 205.452 400.705 187.423 383.575 181.228C366.444 175.032 347.61 183.016 341.507 199.06C335.405 215.104 344.344 233.133 361.475 239.329C378.605 245.524 397.44 237.54 403.542 221.496Z" fill="#263238" stroke="#263238" stroke-width="1.41953" stroke-miterlimit="10"/>
  <path d="M403.303 204.137C404.801 209.356 404.703 214.889 403.022 220.056" stroke="white" stroke-width="1.06465" stroke-linecap="round" stroke-linejoin="round"/>
  <path d="M401.012 224.241C401.012 224.241 399.003 226.759 397.857 228.16" stroke="white" stroke-width="1.06465" stroke-linecap="round" stroke-linejoin="round"/>
  <path d="M354.036 190.729C354.036 190.729 349.455 195.996 352.319 202.465" stroke="white" stroke-width="1.06465" stroke-linecap="round" stroke-linejoin="round"/>
  <path d="M364.851 274.472C373.198 274.487 381.386 272.24 388.501 267.982C383.218 263.231 369.464 251.4 362.982 250.884C356.197 250.346 336.393 256.53 330.051 258.585C334.299 263.563 339.619 267.567 345.634 270.313C351.649 273.058 358.21 274.479 364.851 274.472Z" fill="white" stroke="#263238" stroke-width="1.41953" stroke-miterlimit="10"/>
  <path d="M371.539 256.456C371.723 255.929 371.885 255.402 372.058 254.97C368.579 252.716 365.305 251.072 362.982 250.883C360.162 250.854 357.349 251.169 354.609 251.82C353.41 254.981 353.096 258.141 352.124 263.525C350.806 270.805 352.783 272.944 358.271 270.162C363.76 267.381 369.346 262.872 371.539 256.456Z" fill="white" stroke="#263238" stroke-width="1.41953" stroke-miterlimit="10"/>
  <path d="M358.37 242.961C358.37 242.961 359.688 245.321 358.154 250.883C356.619 256.446 352.751 265.633 354.545 267.382C356.338 269.131 367.153 261.166 367.586 255.171C368.018 249.177 368.028 237.188 368.028 237.188L358.37 242.961Z" fill="white"/>
  <mask id="mask2_3519_26554" style="mask-type:luminance" maskUnits="userSpaceOnUse" x="354" y="237" width="15" height="31">
  <path d="M358.369 242.958C358.369 242.958 359.687 245.318 358.153 250.88C356.619 256.443 352.751 265.63 354.544 267.379C356.338 269.128 367.153 261.163 367.585 255.168C368.017 249.174 368.028 237.185 368.028 237.185L358.369 242.958Z" fill="white"/>
  </mask>
  <g mask="url(#mask2_3519_26554)">
  <g style="mix-blend-mode:multiply" opacity="0.5">
  <path d="M358.876 246.565L365.812 251.832L365.283 260.261C366.512 258.797 367.308 257.034 367.584 255.162C368.027 249.167 368.027 237.178 368.027 237.178L358.368 242.951C358.837 244.097 359.012 245.338 358.876 246.565Z" fill="#E8EDFF"/>
  </g>
  </g>
  <path d="M358.37 242.961C358.37 242.961 359.688 245.321 358.154 250.883C356.619 256.446 352.751 265.633 354.545 267.382C356.338 269.131 367.153 261.166 367.586 255.171C368.018 249.177 368.028 237.188 368.028 237.188L358.37 242.961Z" stroke="#263238" stroke-width="1.41953" stroke-miterlimit="10"/>
  <path d="M347.359 216.634C347.359 216.634 345.825 212.778 343.847 215.58C341.87 218.383 344.28 221.786 345.382 221.786C346.484 221.786 347.359 216.634 347.359 216.634Z" fill="white" stroke="#263238" stroke-width="1.41953" stroke-miterlimit="10"/>
  <path d="M352.438 204.211C352.438 204.211 346.075 216.411 344.54 224.765C343.006 233.12 349.37 245.741 355.733 245.741C362.097 245.741 371.94 236.112 371.94 236.112C371.94 236.112 381.156 236.323 382.474 233.331C383.792 230.339 382.258 227.979 379.837 227.979H375.008C375.008 227.979 373.69 228.621 374.349 222.627C375.008 216.632 376.985 213.851 376.985 213.851C376.985 213.851 360.325 215.126 352.438 204.211Z" fill="white"/>
  <mask id="mask3_3519_26554" style="mask-type:luminance" maskUnits="userSpaceOnUse" x="344" y="204" width="39" height="42">
  <path d="M352.437 204.213C352.437 204.213 346.073 216.413 344.539 224.767C343.005 233.122 349.368 245.743 355.732 245.743C362.096 245.743 371.938 236.114 371.938 236.114C371.938 236.114 381.154 236.325 382.472 233.333C383.79 230.34 382.256 227.981 379.836 227.981H375.007C375.007 227.981 373.688 228.623 374.347 222.629C375.007 216.634 376.984 213.853 376.984 213.853C376.984 213.853 360.324 215.127 352.437 204.213Z" fill="white"/>
  </mask>
  <g mask="url(#mask3_3519_26554)">
  <g style="mix-blend-mode:multiply" opacity="0.5">
  <path d="M369.312 232.244C367.977 235.556 365.781 238.472 362.939 240.705C360.098 242.939 356.709 244.412 353.106 244.981H353.042C353.872 245.454 354.813 245.712 355.775 245.729C362.139 245.729 371.981 236.1 371.981 236.1C371.981 236.1 381.197 236.311 382.515 233.319C383.833 230.327 382.299 227.967 379.879 227.967H375.049C375.049 227.967 373.731 228.609 374.39 222.615C375.049 216.62 377.027 213.839 377.027 213.839C377.027 213.839 375.946 213.913 374.164 213.839H374.088" fill="#E8EDFF"/>
  </g>
  </g>
  <path d="M352.438 204.211C352.438 204.211 346.075 216.411 344.54 224.765C343.006 233.12 349.37 245.741 355.733 245.741C362.097 245.741 371.94 236.112 371.94 236.112C371.94 236.112 381.156 236.323 382.474 233.331C383.792 230.339 382.258 227.979 379.837 227.979H375.008C375.008 227.979 373.69 228.621 374.349 222.627C375.008 216.632 376.985 213.851 376.985 213.851C376.985 213.851 360.325 215.126 352.438 204.211Z" stroke="#263238" stroke-width="1.41953" stroke-miterlimit="10"/>
  <path d="M353.604 217.864C353.345 218.981 352.805 219.813 352.405 219.729C352.005 219.645 351.897 218.676 352.157 217.538C352.416 216.4 352.956 215.589 353.356 215.673C353.756 215.757 353.842 216.737 353.604 217.864Z" fill="#263238"/>
  <path d="M363.922 222.354C363.663 223.471 363.123 224.314 362.723 224.219C362.323 224.124 362.215 223.165 362.475 222.038C362.734 220.911 363.274 220.079 363.674 220.173C364.074 220.268 364.182 221.237 363.922 222.354Z" fill="#263238"/>
  <path d="M355.29 220.699C355.29 220.699 350.46 224.123 351.119 224.977C352.922 226.488 355.137 227.455 357.494 227.758C359.471 227.758 359.028 225.409 359.028 225.409" stroke="#263238" stroke-width="1.41953" stroke-linecap="round" stroke-linejoin="round"/>
  <path d="M351.777 230.549C354.192 231.832 356.955 232.355 359.686 232.045C360.813 231.937 361.898 231.571 362.852 230.976C363.806 230.381 364.602 229.574 365.174 228.621" stroke="#263238" stroke-width="1.41953" stroke-linecap="round" stroke-linejoin="round"/>
  <path d="M352.221 212.775C352.221 212.775 353.539 209.993 356.176 213.207" stroke="#263238" stroke-width="1.41953" stroke-linecap="round" stroke-linejoin="round"/>
  <path d="M363.414 216.632C363.414 216.632 367.812 215.347 367.812 219.624" stroke="#263238" stroke-width="1.41953" stroke-linecap="round" stroke-linejoin="round"/>
  <path d="M138.193 280.126C150.941 280.126 161.159 270.022 161.016 257.558C160.873 245.094 150.423 234.99 137.676 234.99C124.928 234.99 114.71 245.094 114.853 257.558C114.996 270.022 125.446 280.126 138.193 280.126Z" fill="#FEF7DA" stroke="#263238" stroke-width="1.3" stroke-miterlimit="10"/>
  <path d="M136.094 247.442C137.244 246.826 138.625 246.826 139.775 247.442L148.034 251.863C148.63 252.182 148.403 253.086 147.727 253.086H128.142C127.465 253.086 127.239 252.182 127.835 251.863L136.094 247.442Z" stroke="#263238" stroke-width="1.3"/>
  <path d="M148.985 268.027V266.207C148.985 265.489 148.403 264.907 147.685 264.907H128.185C127.467 264.907 126.885 265.489 126.885 266.207V268.027" stroke="#263238" stroke-width="1.3"/>
  <line x1="124.935" y1="268.013" x2="150.935" y2="268.013" stroke="#263238" stroke-width="1.3"/>
  <line x1="130.664" y1="255.678" x2="130.664" y2="264.908" stroke="#263238" stroke-width="1.3"/>
  <line x1="135.358" y1="255.678" x2="135.358" y2="264.908" stroke="#263238" stroke-width="1.3"/>
  <line x1="140.541" y1="255.678" x2="140.541" y2="264.908" stroke="#263238" stroke-width="1.3"/>
  <line x1="145.088" y1="255.678" x2="145.088" y2="264.908" stroke="#263238" stroke-width="1.3"/>
  <path fill-rule="evenodd" clip-rule="evenodd" d="M25.1637 37.1377C24.4458 37.1377 23.8637 37.7197 23.8637 38.4377V56.6377C23.8637 57.3557 24.4458 57.9377 25.1637 57.9377H44.0723L49.8638 62.4877V38.4377C49.8638 37.7197 49.2817 37.1377 48.5638 37.1377H25.1637Z" fill="#000091"/>
  <path d="M35.5633 51.4385H38.1633V54.0385H35.5633V51.4385Z" fill="white"/>
  <path d="M34.951 45.2063L32.4004 44.6954C32.8708 42.3456 35.0832 40.7634 37.459 41.0779C39.8347 41.3924 41.5593 43.4957 41.4021 45.887C41.2449 48.2783 39.2598 50.1378 36.8633 50.1385H35.5633V47.5385H36.8633C37.8905 47.5385 38.7415 46.7416 38.809 45.7166C38.8764 44.6916 38.1372 43.79 37.1189 43.6553C36.1005 43.5207 35.1523 44.199 34.951 45.2063Z" fill="white"/>
  <rect x="135.743" y="154.588" width="41.3346" height="27.1231" rx="1.3" fill="white" stroke="#263238" stroke-width="1.3"/>
  <path d="M135.093 155.852C135.093 154.775 135.966 153.902 137.043 153.902H175.778C176.855 153.902 177.728 154.775 177.728 155.852V158.166H135.093V155.852Z" fill="#263238"/>
  <line x1="135.093" y1="165.559" x2="177.728" y2="165.559" stroke="#263238" stroke-width="1.3"/>
  <line x1="135.093" y1="173.701" x2="177.728" y2="173.701" stroke="#263238" stroke-width="1.3"/>
  <line x1="163.447" y1="158.166" x2="163.447" y2="182.362" stroke="#263238" stroke-width="1.3"/>
  <line x1="148.629" y1="158.166" x2="148.629" y2="182.362" stroke="#263238" stroke-width="1.3"/>
  <rect x="194.776" y="154.588" width="41.3346" height="27.1231" rx="1.3" fill="white" stroke="#263238" stroke-width="1.3"/>
  <path d="M194.126 155.852C194.126 154.775 194.999 153.902 196.076 153.902H234.811C235.888 153.902 236.761 154.775 236.761 155.852V158.166H194.126V155.852Z" fill="#263238"/>
  <circle cx="215.474" cy="169.61" r="8.19896" stroke="#263238" stroke-width="1.3"/>
  <path d="M215.474 161.411V170.024L221.958 164.454" stroke="#263238" stroke-width="1.3" stroke-linejoin="round"/>
  <path d="M215.485 170.019L218.686 176.922" stroke="#263238" stroke-width="1.3"/>
  <rect x="253.809" y="154.588" width="41.3346" height="27.1231" rx="1.3" fill="white" stroke="#263238" stroke-width="1.3"/>
  <path d="M253.159 155.852C253.159 154.775 254.032 153.902 255.109 153.902H293.844C294.921 153.902 295.794 154.775 295.794 155.852V158.166H253.159V155.852Z" fill="#263238"/>
  <line x1="258.079" y1="164.312" x2="290.874" y2="164.312" stroke="#263238" stroke-width="1.3"/>
  <line x1="258.079" y1="169.778" x2="290.874" y2="169.778" stroke="#263238" stroke-width="1.3"/>
  <line x1="258.079" y1="175.245" x2="279.943" y2="175.245" stroke="#263238" stroke-width="1.3"/>
  <rect x="253.809" y="196.469" width="41.3346" height="27.1231" rx="1.3" fill="white" stroke="#263238" stroke-width="1.3"/>
  <path d="M253.159 197.733C253.159 196.656 254.032 195.783 255.109 195.783H293.844C294.921 195.783 295.794 196.656 295.794 197.733V200.047H253.159V197.733Z" fill="#263238"/>
  <line x1="261.581" y1="219.429" x2="287.373" y2="219.429" stroke="#263238" stroke-width="1.3"/>
  <line x1="262.231" y1="202.885" x2="262.231" y2="220.079" stroke="#263238" stroke-width="1.3"/>
  <rect x="279.976" y="207.833" width="3.85841" height="11.596" stroke="#263238" stroke-width="1.3"/>
  <rect x="273.098" y="205.254" width="3.85841" height="14.1752" stroke="#263238" stroke-width="1.3"/>
  <rect x="266.22" y="210.412" width="3.85841" height="9.0168" stroke="#263238" stroke-width="1.3"/>
  <rect x="194.776" y="196.469" width="41.3346" height="27.1231" rx="1.3" fill="white" stroke="#263238" stroke-width="1.3"/>
  <path d="M194.126 197.733C194.126 196.656 194.999 195.783 196.076 195.783H234.811C235.888 195.783 236.761 196.656 236.761 197.733V200.047H194.126V197.733Z" fill="#263238"/>
  <line x1="202.547" y1="219.429" x2="228.339" y2="219.429" stroke="#263238" stroke-width="1.3"/>
  <line x1="203.197" y1="202.885" x2="203.197" y2="220.079" stroke="#263238" stroke-width="1.3"/>
  <path d="M223.673 214.31L217.298 209.22L213.039 213.058L205.201 207.21" stroke="#263238" stroke-width="1.3" stroke-linejoin="round"/>
  <path d="M342.093 90.431C354.84 90.431 365.059 80.3269 364.916 67.863C364.773 55.399 354.323 45.2949 341.575 45.2949C328.828 45.2949 318.61 55.399 318.753 67.863C318.895 80.3269 329.345 90.431 342.093 90.431Z" fill="#E6FEDA" stroke="#263238" stroke-width="1.3" stroke-miterlimit="10"/>
  <path fill-rule="evenodd" clip-rule="evenodd" d="M342.238 50.8086L342.671 51.2583C342.973 51.5721 343.306 51.9097 343.66 52.2698C345.264 53.8987 347.321 55.9872 349.084 58.4063C351.239 61.3636 353.021 64.898 353.021 68.8268C353.021 72.7605 351.384 75.5476 349.197 77.3386C347.031 79.1122 344.342 79.8981 342.208 79.8981C340.117 79.8981 337.542 79.3606 335.477 77.6775C333.388 75.9742 331.909 73.17 331.909 68.8268C331.909 65.293 333.599 61.6138 335.635 58.4977C337.679 55.3676 340.13 52.7195 341.775 51.228L342.238 50.8086ZM336.712 59.2018C334.725 62.2436 333.196 65.6663 333.196 68.8268C333.196 72.8514 334.55 75.261 336.29 76.6796C338.055 78.1183 340.308 78.6107 342.208 78.6107C344.064 78.6107 346.46 77.9161 348.381 76.3426C350.281 74.7865 351.734 72.3597 351.734 68.8268C351.734 65.2889 350.126 62.0218 348.044 59.1645C346.343 56.8309 344.37 54.826 342.766 53.197C342.566 52.9939 342.372 52.7966 342.185 52.6052C340.632 54.0857 338.508 56.4534 336.712 59.2018Z" fill="#263238"/>
  <path fill-rule="evenodd" clip-rule="evenodd" d="M345.972 65.5001C346.223 65.7514 346.223 66.159 345.972 66.4104L342.271 70.3091C342.02 70.5605 341.612 70.5605 341.361 70.3091C341.11 70.0578 341.11 69.6502 341.361 69.3988L345.062 65.5001C345.313 65.2487 345.721 65.2487 345.972 65.5001ZM337.41 68.2358C337.672 67.9956 338.079 68.0133 338.319 68.2753L342.46 73.2082V75.1594L346.324 71.031C346.565 70.7697 346.972 70.7534 347.233 70.9946C347.494 71.2357 347.511 71.6429 347.27 71.9041L341.173 78.452V73.709L337.37 69.1452C337.13 68.8832 337.148 68.476 337.41 68.2358Z" fill="#263238"/>
  <path fill-rule="evenodd" clip-rule="evenodd" d="M341.816 62.6924C342.172 62.6924 342.46 62.9806 342.46 63.3361V84.2722C342.46 84.6277 342.172 84.9159 341.816 84.9159C341.461 84.9159 341.173 84.6277 341.173 84.2722L341.173 63.3361C341.173 62.9806 341.461 62.6924 341.816 62.6924Z" fill="#263238"/>
  <rect x="135.743" y="196.469" width="41.3346" height="27.1231" rx="1.3" fill="white" stroke="#263238" stroke-width="1.3"/>
  <path d="M135.093 197.733C135.093 196.656 135.966 195.783 137.043 195.783H175.778C176.855 195.783 177.728 196.656 177.728 197.733V200.047H135.093V197.733Z" fill="#263238"/>
  <path d="M151.23 209.188C151.23 212.351 154.403 215.717 156.557 218.066C158.233 215.877 161.591 211.993 161.591 209.188C161.591 208.379 161.367 203.956 156.557 203.956C152.025 203.956 151.23 207.162 151.23 209.188Z" stroke="#263238" stroke-width="1.3" stroke-linejoin="round"/>
  <circle cx="156.411" cy="209.14" r="2.01264" stroke="#263238" stroke-width="1.3" stroke-linejoin="round"/>
  <path fill-rule="evenodd" clip-rule="evenodd" d="M336.629 131.593C337.527 131.593 338.254 132.32 338.254 133.218V155.968C338.254 156.865 337.527 157.593 336.629 157.593H312.994L305.754 163.28V133.218C305.754 132.32 306.482 131.593 307.379 131.593H336.629ZM327.75 139.521L320.856 146.414L316.834 142.393L314.536 144.692L320.856 151.012L330.048 141.819L327.75 139.521Z" fill="#000091"/>
  <path d="M320.855 146.416L327.75 139.522L330.048 141.82L320.855 151.013L314.536 144.693L316.833 142.394L320.855 146.416Z" fill="white"/>
  <path d="M100.608 233.28C109.311 233.28 116.287 226.382 116.19 217.872C116.092 209.363 108.958 202.465 100.255 202.465C91.5522 202.465 84.5761 209.363 84.6737 217.872C84.7712 226.382 91.9054 233.28 100.608 233.28Z" fill="#000091"/>
  <circle cx="104.892" cy="212.641" r="2" fill="white" stroke="white"/>
  <circle cx="93.6914" cy="218.264" r="2" fill="white" stroke="white"/>
  <circle cx="104.892" cy="223.186" r="2" fill="white" stroke="white"/>
  <path d="M104.352 212.985L93.2993 218.37L104.352 223.542" stroke="white" stroke-width="1.3" stroke-linejoin="round"/>
  </g>
  <defs>
  <clipPath id="clip0_3519_26554">
  <rect width="440" height="290" fill="white" transform="translate(0.376465)"/>
  </clipPath>
  </defs>
  </svg>
