<svg width="64" height="64" viewBox="0 0 64 64" fill="none" xmlns="http://www.w3.org/2000/svg">
<path fill-rule="evenodd" clip-rule="evenodd" d="M60 49.6005C59.5588 49.6005 59.2 49.2416 59.2 48.8005C59.2 48.3593 59.5588 48.0005 60 48.0005C60.4411 48.0005 60.8 48.3593 60.8 48.8005C60.8 49.2416 60.4411 49.6005 60 49.6005Z" fill="#ECECFE"/>
<path fill-rule="evenodd" clip-rule="evenodd" d="M44 3.20059C43.5588 3.20059 43.2 2.84171 43.2 2.40059C43.2 1.95943 43.5588 1.60059 44 1.60059C44.4411 1.60059 44.8 1.95943 44.8 2.40059C44.8 2.84171 44.4411 3.20059 44 3.20059Z" fill="#ECECFE"/>
<path fill-rule="evenodd" clip-rule="evenodd" d="M2.39985 43.2006C1.95873 43.2006 1.59985 42.8417 1.59985 42.4006C1.59985 41.9594 1.95873 41.6006 2.39985 41.6006C2.84097 41.6006 3.19985 41.9594 3.19985 42.4006C3.19985 42.8417 2.84097 43.2006 2.39985 43.2006Z" fill="#ECECFE"/>
<path fill-rule="evenodd" clip-rule="evenodd" d="M39.2 43.2002C40.7084 43.2002 41.6 44.0917 41.6 45.6002C41.6 45.6656 41.5919 45.7308 41.5761 45.7942C41.1718 47.4113 39.3742 48.4623 36.1665 49.0418L35.6484 49.1294C35.4717 49.1573 35.2912 49.1839 35.1067 49.2092L34.5416 49.2814C34.4455 49.2928 34.3483 49.3039 34.2502 49.3146L33.6499 49.3755L33.0261 49.4288L32.3787 49.4748L31.7078 49.5134C31.5941 49.5193 31.4793 49.5248 31.3636 49.5301L30.6574 49.5579L29.9276 49.5787L29.1742 49.5925L28 49.6002C27.5581 49.6002 27.2 49.242 27.2 48.8002C27.2 48.3584 27.5581 48.0002 28 48.0002L28.76 47.9967C28.8846 47.9956 29.0082 47.9942 29.1307 47.9924L29.8539 47.9787L30.5524 47.9583L31.2264 47.9313L31.8757 47.8978L32.5003 47.8579L33.1003 47.8117L33.6756 47.7594C33.7695 47.7501 33.8623 47.7406 33.954 47.7309L34.4923 47.6694C34.7552 47.6371 35.0089 47.6027 35.2533 47.566L35.7297 47.4899L36.1813 47.408L36.6082 47.3205C38.5422 46.8995 39.6659 46.2991 39.971 45.5654L39.9976 45.4922L39.9922 45.3979C39.9552 44.9673 39.7774 44.8198 39.3056 44.8021L39.2 44.8002C38.3689 44.8002 37.4937 45.2378 36.5656 46.1659C36.0836 46.6479 35.2742 46.3423 35.2047 45.6911L35.2 45.6002C35.2 44.9754 35.0248 44.8002 34.4 44.8002C33.5689 44.8002 32.6937 45.2378 31.7656 46.1659C31.4532 46.4783 30.9467 46.4783 30.6343 46.1659C30.3218 45.8535 30.3218 45.3469 30.6343 45.0345C31.8395 43.8293 33.0977 43.2002 34.4 43.2002C35.3158 43.2002 36.0043 43.5288 36.4038 44.1246L36.4352 44.1754L36.5916 44.0667C37.3734 43.5387 38.1751 43.2471 38.9947 43.2054L39.2 43.2002Z" fill="#00A95F"/>
<path d="M32.7999 14.4001C33.2417 14.4001 33.5999 14.7583 33.5999 15.2001C33.5999 15.6104 33.2911 15.9485 32.8932 15.9947L32.7999 16.0001H19.9999C19.5581 16.0001 19.1999 15.6419 19.1999 15.2001C19.1999 14.7898 19.5087 14.4517 19.9066 14.4055L19.9999 14.4001H32.7999Z" fill="#000091"/>
<path d="M41.5999 20.0001C41.5999 19.5583 41.2417 19.2001 40.7999 19.2001H19.9999L19.9066 19.2055C19.5087 19.2517 19.1999 19.5898 19.1999 20.0001C19.1999 20.4419 19.5581 20.8001 19.9999 20.8001H40.7999L40.8932 20.7947C41.2911 20.7485 41.5999 20.4104 41.5999 20.0001Z" fill="#000091"/>
<path d="M35.9999 24.0001C36.4417 24.0001 36.7999 24.3583 36.7999 24.8001C36.7999 25.2104 36.4911 25.5485 36.0932 25.5947L35.9999 25.6001H19.9999C19.5581 25.6001 19.1999 25.2419 19.1999 24.8001C19.1999 24.3898 19.5087 24.0517 19.9066 24.0055L19.9999 24.0001H35.9999Z" fill="#000091"/>
<path d="M41.5999 29.6001C41.5999 29.1583 41.2417 28.8001 40.7999 28.8001H19.9999L19.9066 28.8055C19.5087 28.8517 19.1999 29.1898 19.1999 29.6001C19.1999 30.0419 19.5581 30.4001 19.9999 30.4001H40.7999L40.8932 30.3947C41.2911 30.3485 41.5999 30.0104 41.5999 29.6001Z" fill="#000091"/>
<path d="M36.7999 34.4001C36.7999 33.9583 36.4417 33.6001 35.9999 33.6001H19.9999L19.9066 33.6055C19.5087 33.6517 19.1999 33.9898 19.1999 34.4001C19.1999 34.8419 19.5581 35.2001 19.9999 35.2001H35.9999L36.0932 35.1947C36.4911 35.1485 36.7999 34.8104 36.7999 34.4001Z" fill="#000091"/>
<path fill-rule="evenodd" clip-rule="evenodd" d="M15.1999 9.6001H45.5999C46.0417 9.6001 46.3999 9.95827 46.3999 10.4001V53.6001C46.3999 54.0419 46.0417 54.4001 45.5999 54.4001H15.1999C14.7581 54.4001 14.3999 54.0419 14.3999 53.6001V10.4001C14.3999 9.95827 14.7581 9.6001 15.1999 9.6001ZM44.7999 52.8001V11.2001H15.9999V52.8001H44.7999Z" fill="#000091"/>
<path d="M48.7999 16.0001C49.2102 16.0001 49.5483 16.3089 49.5945 16.7068L49.5999 16.8001V56.8001C49.5999 57.2104 49.2911 57.5485 48.8932 57.5947L48.7999 57.6001H21.5999C21.1581 57.6001 20.7999 57.2419 20.7999 56.8001C20.7999 56.3898 21.1087 56.0517 21.5066 56.0055L21.5999 56.0001H47.9999V16.8001C47.9999 16.3898 48.3087 16.0517 48.7066 16.0055L48.7999 16.0001Z" fill="#000091"/>
</svg>
