<svg width="64" height="64" viewBox="0 0 64 64" fill="none" xmlns="http://www.w3.org/2000/svg">
<path fill-rule="evenodd" clip-rule="evenodd" d="M60 49.6C59.5588 49.6 59.2 49.2411 59.2 48.8C59.2 48.3588 59.5588 48 60 48C60.4411 48 60.8 48.3588 60.8 48.8C60.8 49.2411 60.4411 49.6 60 49.6Z" fill="#ECECFE"/>
<path fill-rule="evenodd" clip-rule="evenodd" d="M44 3.2001C43.5588 3.2001 43.2 2.84122 43.2 2.4001C43.2 1.95894 43.5588 1.6001 44 1.6001C44.4411 1.6001 44.8 1.95894 44.8 2.4001C44.8 2.84122 44.4411 3.2001 44 3.2001Z" fill="#ECECFE"/>
<path fill-rule="evenodd" clip-rule="evenodd" d="M2.39998 43.2001C1.95886 43.2001 1.59998 42.8412 1.59998 42.4001C1.59998 41.9589 1.95886 41.6001 2.39998 41.6001C2.8411 41.6001 3.19998 41.9589 3.19998 42.4001C3.19998 42.8412 2.8411 43.2001 2.39998 43.2001Z" fill="#ECECFE"/>
<path fill-rule="evenodd" clip-rule="evenodd" d="M39.2 43.2002C40.7084 43.2002 41.6 44.0917 41.6 45.6002C41.6 45.6656 41.5919 45.7308 41.5761 45.7942C41.1718 47.4113 39.3742 48.4623 36.1665 49.0418L35.6484 49.1294C35.4717 49.1573 35.2912 49.1839 35.1067 49.2092L34.5416 49.2814C34.4455 49.2928 34.3483 49.3039 34.2502 49.3146L33.6499 49.3755L33.0261 49.4288L32.3787 49.4748L31.7078 49.5134C31.5941 49.5193 31.4793 49.5248 31.3636 49.5301L30.6574 49.5579L29.9276 49.5787L29.1742 49.5925L28 49.6002C27.5581 49.6002 27.2 49.242 27.2 48.8002C27.2 48.3584 27.5581 48.0002 28 48.0002L28.76 47.9967C28.8846 47.9956 29.0082 47.9942 29.1307 47.9924L29.8539 47.9787L30.5524 47.9583L31.2264 47.9313L31.8757 47.8978L32.5003 47.8579L33.1003 47.8117L33.6756 47.7594C33.7695 47.7501 33.8623 47.7406 33.954 47.7309L34.4923 47.6694C34.7552 47.6371 35.0089 47.6027 35.2533 47.566L35.7297 47.4899L36.1813 47.408L36.6082 47.3205C38.5422 46.8995 39.6659 46.2991 39.971 45.5654L39.9976 45.4922L39.9922 45.3979C39.9552 44.9673 39.7774 44.8198 39.3056 44.8021L39.2 44.8002C38.3689 44.8002 37.4937 45.2378 36.5656 46.1659C36.0836 46.6479 35.2742 46.3423 35.2047 45.6911L35.2 45.6002C35.2 44.9754 35.0248 44.8002 34.4 44.8002C33.5689 44.8002 32.6937 45.2378 31.7656 46.1659C31.4532 46.4783 30.9467 46.4783 30.6343 46.1659C30.3218 45.8535 30.3218 45.3469 30.6343 45.0345C31.8395 43.8293 33.0977 43.2002 34.4 43.2002C35.3158 43.2002 36.0043 43.5288 36.4038 44.1246L36.4352 44.1754L36.5916 44.0667C37.3734 43.5387 38.1751 43.2471 38.9947 43.2054L39.2 43.2002Z" fill="#E1000F"/>
<path d="M32.8 14.4001C33.2419 14.4001 33.6 14.7583 33.6 15.2001C33.6 15.6104 33.2912 15.9485 32.8933 15.9947L32.8 16.0001H20C19.5582 16.0001 19.2 15.6419 19.2 15.2001C19.2 14.7898 19.5089 14.4517 19.9067 14.4055L20 14.4001H32.8Z" fill="#000091"/>
<path d="M41.6 20.0001C41.6 19.5583 41.2419 19.2001 40.8 19.2001H20L19.9067 19.2055C19.5089 19.2517 19.2 19.5898 19.2 20.0001C19.2 20.4419 19.5582 20.8001 20 20.8001H40.8L40.8933 20.7947C41.2912 20.7485 41.6 20.4104 41.6 20.0001Z" fill="#000091"/>
<path d="M36 24.0001C36.4419 24.0001 36.8 24.3583 36.8 24.8001C36.8 25.2104 36.4912 25.5485 36.0933 25.5947L36 25.6001H20C19.5582 25.6001 19.2 25.2419 19.2 24.8001C19.2 24.3898 19.5089 24.0517 19.9067 24.0055L20 24.0001H36Z" fill="#000091"/>
<path d="M41.6 29.6001C41.6 29.1583 41.2419 28.8001 40.8 28.8001H20L19.9067 28.8055C19.5089 28.8517 19.2 29.1898 19.2 29.6001C19.2 30.0419 19.5582 30.4001 20 30.4001H40.8L40.8933 30.3947C41.2912 30.3485 41.6 30.0104 41.6 29.6001Z" fill="#000091"/>
<path d="M36.8 34.4001C36.8 33.9583 36.4419 33.6001 36 33.6001H20L19.9067 33.6055C19.5089 33.6517 19.2 33.9898 19.2 34.4001C19.2 34.8419 19.5582 35.2001 20 35.2001H36L36.0933 35.1947C36.4912 35.1485 36.8 34.8104 36.8 34.4001Z" fill="#000091"/>
<path fill-rule="evenodd" clip-rule="evenodd" d="M15.2 9.6001H45.6C46.0419 9.6001 46.4 9.95827 46.4 10.4001V53.6001C46.4 54.0419 46.0419 54.4001 45.6 54.4001H15.2C14.7582 54.4001 14.4 54.0419 14.4 53.6001V10.4001C14.4 9.95827 14.7582 9.6001 15.2 9.6001ZM44.8 52.8001V11.2001H16V52.8001H44.8Z" fill="#000091"/>
<path d="M48.8 16.0001C49.2103 16.0001 49.5484 16.3089 49.5946 16.7068L49.6 16.8001V56.8001C49.6 57.2104 49.2912 57.5485 48.8933 57.5947L48.8 57.6001H21.6C21.1582 57.6001 20.8 57.2419 20.8 56.8001C20.8 56.3898 21.1089 56.0517 21.5067 56.0055L21.6 56.0001H48V16.8001C48 16.3898 48.3089 16.0517 48.7067 16.0055L48.8 16.0001Z" fill="#000091"/>
</svg>
