<svg width="20" height="20" viewBox="0 0 20 20" fill="none" xmlns="http://www.w3.org/2000/svg">
<path fill-rule="evenodd" clip-rule="evenodd" d="M9.99999 1.6665C14.6025 1.6665 18.3333 5.39734 18.3333 9.99984C18.3333 14.6023 14.6025 18.3332 9.99999 18.3332C5.39749 18.3332 1.66666 14.6023 1.66666 9.99984C1.66666 5.39734 5.39749 1.6665 9.99999 1.6665ZM9.99999 3.33317C6.31809 3.33317 3.33332 6.31794 3.33332 9.99984C3.33332 13.6817 6.31809 16.6665 9.99999 16.6665C13.6819 16.6665 16.6667 13.6817 16.6667 9.99984C16.6667 6.31794 13.6819 3.33317 9.99999 3.33317ZM10.8333 5.83317V9.99984H14.1667V11.6665H9.16666V5.83317H10.8333Z" fill="#666666"/>
</svg>
